<svg version="1.2" xmlns="http://www.w3.org/2000/svg" viewBox="0 0 49 47" width="49" height="47">
	<title>&lt;Group&gt;</title>
	<defs>
		<radialGradient id="g1" cx="8.5" cy="47.3" r="50.5" gradientUnits="userSpaceOnUse">
			<stop offset=".355" stop-color="#dbdbdb"/>
			<stop offset=".995" stop-color="#b3b3b3"/>
		</radialGradient>
		<radialGradient id="g2" cx="4.7" cy="59.8" r="73" gradientUnits="userSpaceOnUse">
			<stop offset=".355" stop-color="#dbdbdb"/>
			<stop offset=".995" stop-color="#b3b3b3"/>
		</radialGradient>
	</defs>
	<style>
		.s0 { fill: url(#g1) } 
		.s1 { opacity: .5;mix-blend-mode: multiply;fill: url(#g2) } 
	</style>
	<g id="&lt;Group&gt;">
		<path id="&lt;Path&gt;" class="s0" d="m39.7 45c0.2 1.5-0.7 2.1-2 1.5l-10.9-5.5c-1.4-0.7-3.5-0.7-4.8 0l-11 5.4c-1.3 0.6-2.2 0-2-1.5l1.9-12.1c0.2-1.4-0.4-3.5-1.5-4.5l-8.5-8.8c-1-1-0.7-2.1 0.8-2.3l12-2c1.5-0.2 3.2-1.5 3.9-2.8l5.7-10.8c0.7-1.3 1.8-1.3 2.5 0l5.6 10.9c0.6 1.3 2.4 2.6 3.8 2.8l12 2.1c1.5 0.2 1.8 1.3 0.8 2.3l-8.6 8.7c-1 1.1-1.7 3.1-1.5 4.6z"/>
		<path id="&lt;Compound Path&gt;" fill-rule="evenodd" class="s1" d="m25.8 1.6l5.6 10.9c0.6 1.3 2.4 2.6 3.8 2.8l12 2.1c1.5 0.2 1.8 1.3 0.8 2.3l-8.6 8.7c-1 1.1-1.7 3.1-1.5 4.6l1.8 12c0.1 1.1-0.3 1.7-1.1 1.7q-0.4 0-0.9-0.2l-10.9-5.5c-0.7-0.3-1.6-0.5-2.5-0.5-0.8 0-1.7 0.1-2.3 0.5l-11 5.4q-0.5 0.2-0.9 0.2c-0.8 0-1.2-0.6-1.1-1.7l1.9-12.1c0.2-1.4-0.4-3.5-1.5-4.5l-8.5-8.8c-1-1-0.7-2.1 0.8-2.3l12-2c1.5-0.2 3.2-1.5 3.9-2.8l5.7-10.8c0.3-0.6 0.8-0.9 1.2-0.9 0.5 0 0.9 0.3 1.3 0.9zm-2 0.3l-5.7 10.8c-0.7 1.5-2.6 2.9-4.3 3.1l-12 2c-0.5 0.1-0.8 0.2-0.9 0.5 0 0.2 0.1 0.5 0.4 0.8l8.6 8.8c1.1 1.2 1.8 3.4 1.6 5l-1.9 12.1c0 0.4 0 0.7 0.1 0.9 0.1 0 0.2 0.1 0.4 0.1q0.3 0 0.7-0.2l10.9-5.4c0.7-0.3 1.7-0.5 2.6-0.5 1 0 2 0.2 2.7 0.5l10.9 5.5q0.4 0.2 0.7 0.2c0.2 0 0.3-0.1 0.3-0.1 0.2-0.2 0.2-0.5 0.2-0.9l-1.8-12.1c-0.2-1.6 0.5-3.8 1.7-5l8.6-8.7c0.3-0.3 0.4-0.6 0.4-0.8-0.1-0.3-0.4-0.4-0.9-0.5l-12-2.1c-1.6-0.3-3.5-1.6-4.3-3.1l-5.6-10.9c-0.2-0.4-0.4-0.6-0.7-0.6-0.2 0-0.5 0.2-0.7 0.6z"/>
	</g>
</svg>