<svg version="1.2" xmlns="http://www.w3.org/2000/svg" viewBox="0 0 49 47" width="49" height="47">
	<title>&lt;Group&gt;</title>
	<defs>
		<radialGradient id="g1" cx="8.3" cy="47.3" r="50.5" gradientUnits="userSpaceOnUse">
			<stop offset=".355" stop-color="#ffc200"/>
			<stop offset="1" stop-color="#ff953a"/>
		</radialGradient>
		<radialGradient id="g2" cx="4.5" cy="59.8" r="73" gradientUnits="userSpaceOnUse">
			<stop offset=".355" stop-color="#ffc200"/>
			<stop offset="1" stop-color="#ff953a"/>
		</radialGradient>
	</defs>
	<style>
		.s0 { fill: url(#g1) } 
		.s1 { opacity: .5;mix-blend-mode: multiply;fill: url(#g2) } 
	</style>
	<g id="&lt;Group&gt;">
		<path id="&lt;Path&gt;" class="s0" d="m39.5 45c0.2 1.5-0.7 2.1-2 1.5l-10.9-5.5c-1.3-0.7-3.5-0.7-4.8-0.1l-11 5.4c-1.3 0.7-2.2 0-1.9-1.4l1.8-12.1c0.2-1.4-0.4-3.5-1.5-4.5l-8.5-8.8c-1-1-0.6-2.1 0.8-2.3l12.1-2c1.4-0.2 3.1-1.5 3.8-2.8l5.7-10.8c0.7-1.3 1.8-1.3 2.5 0l5.6 10.9c0.6 1.3 2.4 2.6 3.8 2.8l12.1 2.1c1.4 0.2 1.7 1.3 0.7 2.3l-8.6 8.7c-1 1-1.7 3.1-1.5 4.5z"/>
		<path id="&lt;Compound Path&gt;" fill-rule="evenodd" class="s1" d="m25.6 1.6l5.6 10.9c0.6 1.3 2.4 2.6 3.8 2.8l12.1 2.1c1.4 0.2 1.7 1.3 0.7 2.3l-8.6 8.7c-1 1-1.7 3.1-1.5 4.5l1.8 12.1c0.1 1.1-0.3 1.7-1.1 1.7q-0.4 0-0.9-0.2l-10.9-5.5c-0.7-0.4-1.6-0.5-2.4-0.5-0.9 0-1.8 0.1-2.4 0.4l-11 5.4q-0.5 0.3-0.9 0.3c-0.8 0-1.2-0.7-1-1.7l1.8-12.1c0.2-1.4-0.4-3.5-1.5-4.5l-8.5-8.8c-1-1-0.6-2.1 0.8-2.3l12.1-2c1.4-0.2 3.1-1.5 3.8-2.8l5.7-10.8c0.4-0.6 0.8-1 1.2-1 0.5 0 0.9 0.4 1.3 1zm-2 0.3l-5.6 10.8c-0.8 1.5-2.7 2.8-4.4 3.1l-12 2c-0.5 0-0.8 0.2-0.8 0.4-0.1 0.2 0 0.6 0.4 0.9l8.5 8.7c1.1 1.2 1.9 3.5 1.6 5.1l-1.9 12.1c0 0.4 0 0.7 0.2 0.9 0 0 0.1 0.1 0.3 0.1q0.3 0 0.7-0.2l10.9-5.4c0.7-0.3 1.7-0.5 2.7-0.5 1 0 1.9 0.2 2.6 0.5l10.9 5.5q0.4 0.2 0.7 0.2c0.2 0 0.3-0.1 0.4-0.1 0.1-0.2 0.1-0.5 0.1-0.9l-1.8-12.1c-0.2-1.6 0.5-3.8 1.7-5l8.6-8.7c0.3-0.3 0.5-0.7 0.4-0.9-0.1-0.2-0.4-0.4-0.8-0.4l-12.1-2.1c-1.6-0.3-3.5-1.7-4.3-3.2l-5.5-10.8c-0.3-0.4-0.5-0.7-0.8-0.7-0.2 0-0.4 0.3-0.7 0.7z"/>
	</g>
</svg>