<svg version="1.2" xmlns="http://www.w3.org/2000/svg" viewBox="0 0 1125 607" width="1125" height="607">
	<title>11754554_4819969-ai</title>
	<style>
		tspan { white-space:pre } 
		.s0 { fill: #aeb8ff } 
		.s1 { fill: #401cc6 } 
		.s2 { fill: #9fa8ff } 
		.s3 { fill: #d4d7ff } 
		.s4 { fill: #95a1f9 } 
		.s5 { opacity: .6;fill: #ffffff } 
		.s6 { fill: #5523e2 } 
		.s7 { fill: #e3e6ff } 
		.s8 { fill: #ffffff } 
		.s9 { fill: #ffb600 } 
		.s10 { fill: #ff2951 } 
		.s11 { fill: #e6e6fc } 
		.s12 { fill: #8050ff } 
		.s13 { fill: #ffc154 } 
		.s14 { fill: none;stroke: #5523e2;stroke-width: 4;stroke-dasharray: 8 } 
		.s15 { fill: #ededfc } 
		.t16 { font-size: 18px;fill: #ff2951;font-weight: 900;font-family: "Montserrat-Black", "Montserrat" } 
		.t17 { font-size: 64px;fill: #ff2951;font-weight: 900;font-family: "Montserrat-Black", "Montserrat" } 
		.s18 { fill: #421dcc } 
		.s19 { fill: #5f7aff } 
	</style>
	<g id="OBJECTS">
		<g id="&lt;Group&gt;">
			<g id="&lt;Group&gt;">
				<path id="&lt;Path&gt;" class="s0" d="m665.5 566h-242v-11.3h242z"/>
				<path id="&lt;Path&gt;" class="s1" d="m842.2 443.5h-591.6v-306c0-14 11.4-25.3 25.4-25.3h540.9c14 0 25.3 11.3 25.3 25.3z"/>
				<path id="&lt;Path&gt;" class="s2" d="m817 500.2h-541.1c-13.9 0-25.3-11.3-25.3-25.3v-31.4h591.6v31.4c0 14-11.3 25.3-25.2 25.3z"/>
				<path id="&lt;Path&gt;" class="s3" d="m820.4 423h-547.9q0 0 0 0v-291.7h547.9z"/>
				<path id="&lt;Path&gt;" class="s1" d="m601.7 478.6h-109.4v-13.7h109.4z"/>
				<path id="&lt;Path&gt;" class="s4" d="m619.9 554.7h-146.9l7.7-54.5h131.5z"/>
				<path id="&lt;Path&gt;" class="s5" d="m596.8 423.1h-64.7l-176.2-293h64.7z"/>
				<path id="&lt;Path&gt;" class="s5" d="m737 423.1h-64.7l-176.2-293h64.7z"/>
			</g>
			<path id="&lt;Path&gt;" class="s6" d="m1092.2 578.2h-1078.3v-12.2h1078.3z"/>
			<g id="&lt;Group&gt;">
				<path id="&lt;Path&gt;" class="s6" d="m750.4 236.1v126c0 8.2-6.8 14.9-15 14.9h-250.3c-8.2 0-14.9-6.7-14.9-14.9v-126c0-8.2 6.7-14.9 14.9-14.9h250.3c8.2 0 15 6.7 15 14.9z"/>
				<path id="&lt;Path&gt;" class="s7" d="m740.8 367.1h-261.1v-120.2h261.1z"/>
				<path id="&lt;Path&gt;" class="s8" d="m596.4 269.3h-105.9v-4.2h105.9z"/>
				<path id="&lt;Path&gt;" class="s8" d="m596.4 279.2h-105.9v-4.1h105.9z"/>
				<path id="&lt;Path&gt;" class="s8" d="m596.4 289.2h-105.9v-4.2h105.9z"/>
				<path id="&lt;Path&gt;" class="s8" d="m596.4 299.1h-105.9v-4.1h105.9z"/>
				<path id="&lt;Path&gt;" class="s8" d="m596.4 309.1h-105.9v-4.2h105.9z"/>
				<path id="&lt;Path&gt;" class="s8" d="m542.2 326.9h-51.7v-4.2h51.7z"/>
				<path id="&lt;Path&gt;" class="s8" d="m542.2 333.8h-51.7v-4.1h51.7z"/>
				<path id="&lt;Path&gt;" class="s8" d="m542.2 340.7h-51.7v-4.1h51.7z"/>
				<path id="&lt;Path&gt;" class="s8" d="m542.2 347.6h-51.7v-4.1h51.7z"/>
				<path id="&lt;Path&gt;" class="s8" d="m596.4 326.9h-51.7v-4.2h51.7z"/>
				<path id="&lt;Path&gt;" class="s8" d="m596.4 333.8h-51.7v-4.1h51.7z"/>
				<path id="&lt;Path&gt;" class="s8" d="m596.4 340.7h-51.7v-4.1h51.7z"/>
				<path id="&lt;Path&gt;" class="s8" d="m596.4 347.6h-51.7v-4.1h51.7z"/>
				<path id="&lt;Path&gt;" class="s9" d="m494.4 235.5c0 2.2-1.7 3.9-3.9 3.9-2.2 0-3.9-1.7-3.9-3.9 0-2.2 1.7-3.9 3.9-3.9 2.2 0 3.9 1.7 3.9 3.9z"/>
				<path id="&lt;Path&gt;" class="s9" d="m511.2 235.5c0 2.2-1.7 3.9-3.9 3.9-2.2 0-4-1.7-4-3.9 0-2.2 1.8-3.9 4-3.9 2.2 0 3.9 1.7 3.9 3.9z"/>
				<path id="&lt;Path&gt;" class="s9" d="m528 235.5c0 2.2-1.8 3.9-3.9 3.9-2.2 0-4-1.7-4-3.9 0-2.2 1.8-3.9 4-3.9 2.1 0 3.9 1.7 3.9 3.9z"/>
				<path id="&lt;Path&gt;" class="s9" d="m657.1 352.2h-38.1v-92.9h38.1z"/>
				<path id="&lt;Path&gt;" class="s10" d="m712.6 308.2h-38.1v-46.4h38.1z"/>
				<path id="&lt;Path&gt;" class="s10" d="m712.6 348.6h-38.1v-33.7h38.1z"/>
			</g>
			<g id="&lt;Group&gt;">
				<g id="&lt;Group&gt;">
					<g id="&lt;Group&gt;">
						<path id="&lt;Path&gt;" class="s6" d="m1041.8 306.7v185.8c0 10.7-8.6 19.3-19.2 19.3h-76.2c-10.6 0-19.2-8.6-19.2-19.3v-185.8c0-10.6 8.6-19.2 19.2-19.2h76.2c10.6 0 19.2 8.6 19.2 19.2z"/>
						<path id="&lt;Path&gt;" class="s11" d="m1037.1 490.2h-105.2v-183.9h105.2z"/>
						<path id="&lt;Path&gt;" class="s12" d="m997.5 299.1h-26v-2.2h26z"/>
						<path id="&lt;Path&gt;" class="s9" d="m991.6 500.2c0 3.9-3.2 7.1-7.1 7.1-3.9 0-7-3.2-7-7.1 0-3.9 3.1-7 7-7 3.9 0 7.1 3.1 7.1 7z"/>
					</g>
				</g>
				<path id="&lt;Path&gt;" class="s10" d="m971.5 454.3h-24.6v-112.1h24.6z"/>
				<path id="&lt;Path&gt;" class="s8" d="m1023.7 387.2h-35.4v-35.5h35.4z"/>
				<path id="&lt;Path&gt;" class="s8" d="m1023.7 442.6h-35.4v-35.5h35.4z"/>
			</g>
			<g id="&lt;Group&gt;">
				<path id="&lt;Path&gt;" class="s6" d="m883.2 376.9v85.3c0 8.4-6.8 15.3-15.2 15.3h-85.4c-8.4 0-15.2-6.9-15.2-15.3v-85.3c0-8.4 6.8-15.3 15.2-15.3h85.4c8.4 0 15.2 6.9 15.2 15.3z"/>
				<path id="&lt;Path&gt;" class="s10" d="m874.1 465.2h-97.6v-80.6h97.6z"/>
				<g id="&lt;Group&gt;">
					<path id="&lt;Path&gt;" class="s8" d="m838 407.6c0 7.2-5.8 13-13 13-7.2 0-13-5.8-13-13 0-7.2 5.8-13 13-13 7.2 0 13 5.8 13 13z"/>
					<path id="&lt;Path&gt;" class="s8" d="m849.9 456.6h-49.2v-11.9c0-12 9.7-21.7 21.8-21.7h5.6c12.1 0 21.8 9.7 21.8 21.7z"/>
				</g>
				<path id="&lt;Path&gt;" class="s13" d="m782.3 373.7c0 1.6-1.3 2.9-2.9 2.9-1.6 0-2.9-1.3-2.9-2.9 0-1.6 1.3-2.9 2.9-2.9 1.6 0 2.9 1.3 2.9 2.9z"/>
				<path id="&lt;Path&gt;" class="s13" d="m793.1 373.7c0 1.6-1.3 2.9-2.9 2.9-1.6 0-2.9-1.3-2.9-2.9 0-1.6 1.3-2.9 2.9-2.9 1.6 0 2.9 1.3 2.9 2.9z"/>
				<path id="&lt;Path&gt;" class="s13" d="m803.9 373.7c0 1.6-1.3 2.9-2.9 2.9-1.6 0-2.9-1.3-2.9-2.9 0-1.6 1.3-2.9 2.9-2.9 1.6 0 2.9 1.3 2.9 2.9z"/>
			</g>
			<g id="&lt;Group&gt;">
			</g>
			<g id="&lt;Group&gt;">
			</g>
			<g id="&lt;Group&gt;">
				<path id="&lt;Compound Path&gt;" fill-rule="evenodd" class="s9" d="m981.5 232.5l16.3 9.4-12.6 21.8-16.3-9.4c-2.7 2.6-5.7 4.9-8.9 6.8l4.8 18.2-24.3 6.5-4.9-18.2c-3.8-0.1-7.5-0.6-11.1-1.5l-9.4 16.3-21.8-12.7 9.4-16.3c-2.6-2.6-4.9-5.6-6.8-8.9l-18.2 4.9-6.4-24.4 18.2-4.8c0-3.8 0.5-7.5 1.4-11.1l-16.2-9.5 12.6-21.8 16.3 9.5c2.6-2.6 5.6-4.9 8.9-6.8l-4.8-18.2 24.3-6.5 4.9 18.2c3.7 0 7.5 0.6 11 1.5l9.5-16.3 21.8 12.7-9.5 16.2c2.6 2.7 4.9 5.7 6.8 8.9l18.2-4.8 6.5 24.4-18.2 4.8c0 3.8-0.5 7.5-1.5 11.1zm-25.3-17c-2.9-11-14.2-17.6-25.3-14.7-11 2.9-17.6 14.3-14.6 25.3 2.9 11 14.2 17.6 25.2 14.6 11.1-2.9 17.6-14.2 14.7-25.2z"/>
			</g>
			<g id="&lt;Group&gt;">
			</g>
			<g id="&lt;Group&gt;">
			</g>
			<g id="&lt;Group&gt;">
			</g>
			<g id="&lt;Group&gt;">
			</g>
			<g id="&lt;Group&gt;">
			</g>
			<g id="&lt;Group&gt;">
				<path id="&lt;Compound Path&gt;" fill-rule="evenodd" class="s9" d="m160.6 469.5l17.6 10.2-13.6 23.6-17.6-10.2c-2.9 2.8-6.1 5.3-9.6 7.3l5.2 19.7-26.3 7-5.3-19.7c-4.1 0-8.1-0.6-12-1.6l-10.2 17.6-23.5-13.7 10.2-17.6c-2.8-2.8-5.3-6-7.4-9.6l-19.6 5.3-7-26.4 19.6-5.2c0.1-4.1 0.6-8.1 1.6-12l-17.6-10.2 13.7-23.6 17.6 10.2c2.9-2.8 6.1-5.2 9.6-7.3l-5.2-19.7 26.3-7 5.3 19.7c4 0.1 8.1 0.6 11.9 1.6l10.3-17.6 23.5 13.7-10.2 17.6c2.8 2.9 5.3 6.1 7.4 9.6l19.6-5.2 7 26.3-19.7 5.2c0 4.1-0.6 8.1-1.6 12zm-27.3-18.4c-3.2-11.9-15.4-19-27.3-15.8-12 3.2-19 15.4-15.9 27.3 3.2 11.9 15.4 19 27.3 15.8 11.9-3.1 19-15.3 15.9-27.3z"/>
			</g>
			<path id="&lt;Path&gt;" class="s14" d="m250.6 452.2h-92.1v-346.1h46.1"/>
			<path id="&lt;Path&gt;" class="s14" d="m132.2 309.4h-71v-88.6h71"/>
			<g id="&lt;Group&gt;">
				<g id="&lt;Group&gt;">
					<path id="&lt;Path&gt;" class="s10" d="m125.8 271.5h280.7v75.8h-280.7z"/>
					<path id="&lt;Path&gt;" class="s8" d="m209.1 287.6h176.3v8.3h-176.3z"/>
					<path id="&lt;Path&gt;" class="s8" d="m209.1 304.2h176.3v8.4h-176.3z"/>
					<path id="&lt;Path&gt;" class="s8" d="m209.3 320.6h91.9v8.6h-91.9z"/>
					<path id="&lt;Path&gt;" class="s8" d="m142.7 285.1h46.4v46.5h-46.4z"/>
				</g>
				<g id="&lt;Group&gt;">
					<path id="&lt;Path&gt;" class="s9" d="m125.8 183.9h280.7v75.8h-280.7z"/>
					<path id="&lt;Path&gt;" class="s8" d="m209.1 200h176.3v8.3h-176.3z"/>
					<path id="&lt;Path&gt;" class="s8" d="m209.1 216.6h176.3v8.4h-176.3z"/>
					<path id="&lt;Path&gt;" class="s8" d="m209.3 233h91.9v8.6h-91.9z"/>
					<path id="&lt;Path&gt;" class="s8" d="m142.7 197.6h46.4v46.4h-46.4z"/>
				</g>
			</g>
			<path id="&lt;Path&gt;" class="s14" d="m250.6 63.9v-30.9h260.5v56.2"/>
			<g id="&lt;Group&gt;">
				<path id="&lt;Path&gt;" class="s6" d="m569.4 104.5v85.3c0 8.4-6.9 15.3-15.3 15.3h-85.3c-8.4 0-15.3-6.9-15.3-15.3v-85.3c0-8.4 6.9-15.3 15.3-15.3h85.3c8.4 0 15.3 6.9 15.3 15.3z"/>
				<path id="&lt;Path&gt;" class="s9" d="m560.2 192.8h-97.6v-80.6h97.6z"/>
				<g id="&lt;Group&gt;">
					<path id="&lt;Path&gt;" class="s8" d="m524.1 135.2c0 7.1-5.8 13-13 13-7.2 0-13-5.9-13-13 0-7.2 5.8-13.1 13-13.1 7.2 0 13 5.9 13 13.1z"/>
					<path id="&lt;Path&gt;" class="s8" d="m536 184.2h-49.2v-11.9c0-12 9.8-21.8 21.8-21.8h5.7c12 0 21.7 9.8 21.7 21.8z"/>
				</g>
				<path id="&lt;Path&gt;" class="s13" d="m468.4 101.3c0 1.6-1.3 2.9-2.9 2.9-1.6 0-2.9-1.3-2.9-2.9 0-1.6 1.3-2.9 2.9-2.9 1.6 0 2.9 1.3 2.9 2.9z"/>
				<path id="&lt;Path&gt;" class="s13" d="m479.2 101.3c0 1.6-1.3 2.9-2.9 2.9-1.6 0-2.9-1.3-2.9-2.9 0-1.6 1.3-2.9 2.9-2.9 1.6 0 2.9 1.3 2.9 2.9z"/>
				<path id="&lt;Path&gt;" class="s13" d="m490 101.3c0 1.6-1.3 2.9-2.9 2.9-1.6 0-2.9-1.3-2.9-2.9 0-1.6 1.3-2.9 2.9-2.9 1.6 0 2.9 1.3 2.9 2.9z"/>
			</g>
			<g id="&lt;Group&gt;">
				<path id="&lt;Path&gt;" class="s6" d="m303.8 73v73c0 7.2-5.9 13.1-13.1 13.1h-73c-7.2 0-13.1-5.9-13.1-13.1v-73c0-7.2 5.9-13.1 13.1-13.1h73c7.2 0 13.1 5.9 13.1 13.1z"/>
				<path id="&lt;Path&gt;" class="s15" d="m295.9 148.5h-83.5v-68.9h83.5z"/>
				<path id="&lt;Path&gt;" class="s13" d="m217.4 70.2c0 1.4-1.1 2.5-2.5 2.5-1.4 0-2.5-1.1-2.5-2.5 0-1.4 1.1-2.5 2.5-2.5 1.4 0 2.5 1.1 2.5 2.5z"/>
				<path id="&lt;Path&gt;" class="s13" d="m226.6 70.2c0 1.4-1.1 2.5-2.5 2.5-1.3 0-2.5-1.1-2.5-2.5 0-1.4 1.2-2.5 2.5-2.5 1.4 0 2.5 1.1 2.5 2.5z"/>
				<path id="&lt;Path&gt;" class="s13" d="m235.8 70.2c0 1.4-1.1 2.5-2.5 2.5-1.3 0-2.4-1.1-2.4-2.5 0-1.4 1.1-2.5 2.4-2.5 1.4 0 2.5 1.1 2.5 2.5z"/>
				<g id="&lt;Group&gt;">
					<path id="&lt;Path&gt;" class="s6" d="m239 133.3l-17.5-17.5 17.8-17.8 2.9 3-14.8 14.8 14.6 14.5z"/>
				</g>
				<g id="&lt;Group&gt;">
					<path id="&lt;Path&gt;" class="s6" d="m269.1 133.3l-3-3 14.8-14.8-14.5-14.5 2.9-3 17.6 17.5z"/>
				</g>
				<g id="&lt;Group&gt;">
					<path id="&lt;Path&gt;" class="s6" d="m249.7 132.6l-3.9-1.6 12.8-31 3.9 1.6z"/>
				</g>
			</g>
			<path id="&lt;Path&gt;" class="s14" d="m303.8 73h325.3"/>
			<g id="&lt;Group&gt;">
				<path id="&lt;Path&gt;" class="s6" d="m907.5 43.1v126c0 8.2-6.8 14.9-15 14.9h-250.3c-8.2 0-14.9-6.7-14.9-14.9v-126c0-8.2 6.7-15 14.9-15h250.3c8.2 0 15 6.8 15 15z"/>
				<path id="&lt;Path&gt;" class="s7" d="m897.9 174h-261.1v-120.2h261.1z"/>
				<path id="&lt;Path&gt;" class="s9" d="m651.5 42.4c0 2.2-1.7 4-3.9 4-2.2 0-3.9-1.8-3.9-4 0-2.1 1.7-3.9 3.9-3.9 2.2 0 3.9 1.8 3.9 3.9z"/>
				<path id="&lt;Path&gt;" class="s9" d="m668.3 42.4c0 2.2-1.7 4-3.9 4-2.2 0-4-1.8-4-4 0-2.1 1.8-3.9 4-3.9 2.2 0 3.9 1.8 3.9 3.9z"/>
				<path id="&lt;Path&gt;" class="s9" d="m685.1 42.4c0 2.2-1.8 4-3.9 4-2.2 0-4-1.8-4-4 0-2.1 1.8-3.9 4-3.9 2.1 0 3.9 1.8 3.9 3.9z"/>
				<text id="WORDPRESS" style="transform: matrix(2,0,0,2,639.112,100.642)" >
					<tspan x="0" y="0" class="t16">W</tspan><tspan  y="0" class="t16">O</tspan><tspan  y="0" class="t16">R</tspan><tspan  y="0" class="t16">D</tspan><tspan  y="0" class="t16">P</tspan><tspan  y="0" class="t16">R</tspan><tspan  y="0" class="t16">E</tspan><tspan  y="0" class="t16">S</tspan><tspan  y="0" class="t16">S
</tspan>
				</text>
				<text id="CMS" style="transform: matrix(1,0,0,1,740,160)" >
					<tspan x="0" y="0" class="t17">C</tspan><tspan  y="0" class="t17">M</tspan><tspan  y="0" class="t17">S</tspan><tspan  y="0" class="t17">
</tspan>
				</text>
			</g>
			<path id="&lt;Path&gt;" class="s14" d="m700.1 180.2c-0.4 1.2 0 53.5 0 53.5"/>
			<path id="&lt;Path&gt;" class="s14" d="m746.3 307h51.8v54.6"/>
			<path id="&lt;Path&gt;" class="s14" d="m1041.8 409.5h66.3v126.1h-280.4v-63.8"/>
			<path id="&lt;Path&gt;" class="s14" d="m929.2 336.6h-73v-154.8"/>
			<g id="&lt;Group&gt;">
				<g id="&lt;Group&gt;">
					<path id="&lt;Compound Path&gt;" fill-rule="evenodd" class="s6" d="m431.8 352.2c4.2 13.9 4.9 33.5-4.5 45.1-13.3 16.4-36.7 20.2-56.3 10.6l-117.4 151.6c-5.6 6.9-15.7 7.9-22.6 2.3-6.9-5.5-7.9-15.7-2.3-22.6l123.8-146.3c-13.5-17.2-14.6-40.9-1.3-57.3 9.3-11.5 28.5-15.9 43-14.7l-23.8 37.4 29.7 24zm-182.6 194.6c-1.3-4.3-5.7-6.7-10-5.4-4.2 1.2-6.6 5.7-5.3 9.9 1.2 4.3 5.7 6.7 9.9 5.4 4.2-1.2 6.6-5.7 5.4-9.9z"/>
				</g>
				<path id="&lt;Path&gt;" class="s18" d="m248.6 563.6c-5.5 2.9-12.4 2.4-17.6-1.8-6.9-5.6-7.9-15.7-2.3-22.6l123.8-146.3c-13.5-17.2-14.6-40.9-1.3-57.3 6.2-7.7 16.9-11.6 26.1-13.7-6.9 2.6-15.4 5.9-20.2 12-13.3 16.4-12.2 40.1 1.3 57.3l-123.9 146.3c-5.6 6.9-4.5 17 2.4 22.6 3.4 2.7 7.6 3.9 11.7 3.5z"/>
			</g>
			<path id="&lt;Path&gt;" class="s19" d="m480.7 500.2h131.5l4.4 31h-140.3z"/>
		</g>
	</g>
</svg>