<svg version="1.2" xmlns="http://www.w3.org/2000/svg" viewBox="0 0 1229 794" width="1229" height="794">
	<title>6184437_3099562-ai</title>
	<style>
		.s0 { fill: #e0e0e0 } 
		.s1 { fill: #ebebeb } 
		.s2 { fill: #263238 } 
		.s3 { fill: #e8505b } 
		.s4 { fill: #ffffff } 
		.s5 { fill: #000000 } 
		.s6 { fill: #fafafa } 
		.s7 { fill: #455a64 } 
		.s8 { fill: #ffbe9d } 
		.s9 { fill: #eb996e } 
		.s10 { fill: #b78876 } 
		.s11 { fill: none;stroke: #000000;stroke-width: .5 } 
		.s12 { fill: #aa6550 } 
	</style>
	<g id="Background Complete">
		<g id="&lt;Group&gt;">
			<g id="&lt;Group&gt;">
				<g id="&lt;Group&gt;">
					<g id="&lt;Group&gt;">
						<path id="&lt;Compound Path&gt;" fill-rule="evenodd" class="s0" d="m1125.5 125.1c8.2 4.3 15.7 9.6 22.3 15.7l23.8-8.4 22.4 35.3-17.8 17.9c2.7 8.6 4.3 17.6 4.7 26.9l22.8 10.8-9.2 40.8-25.2 0.1c-4.3 8.2-9.6 15.6-15.7 22.3l8.4 23.8-35.3 22.3-17.9-17.8c-8.6 2.7-17.6 4.3-26.9 4.7l-10.8 22.8-40.8-9.1-0.1-25.3c-8.2-4.3-15.6-9.6-22.3-15.7l-23.8 8.5-22.4-35.4 17.9-17.9c-2.7-8.6-4.3-17.6-4.7-26.8l-22.8-10.9 9.1-40.8h25.3c4.3-8.2 9.6-15.7 15.7-22.3l-8.5-23.8 35.4-22.4 17.9 17.8c8.6-2.7 17.6-4.3 26.8-4.7l10.9-22.8 40.8 9.2zm-36 48c-24.2-5.4-48.2 9.8-53.6 33.9-5.4 24.2 9.8 48.2 34 53.6 24.1 5.5 48.1-9.7 53.6-33.9 5.4-24.2-9.8-48.2-34-53.6z"/>
					</g>
				</g>
			</g>
			<g id="&lt;Group&gt;">
				<g id="&lt;Group&gt;">
					<g id="&lt;Group&gt;">
						<g id="&lt;Group&gt;">
							<g id="&lt;Group&gt;">
								<path id="&lt;Path&gt;" class="s0" d="m901.1 47c0 0 2.9 0.2 7.8 2.5 4.7 2.2 11.4 7 15.6 15.8 2 4.3 3.4 9.5 3.2 15.2-0.3 5.7-1.8 11.8-5.3 17.1-1.6 2.8-3.8 5.3-6.3 7.4-2.5 2.3-5.5 4.1-8.7 5.5-6.3 2.9-13.8 3.6-21 2.1-7.2-1.7-13.7-5.6-18.2-10.9-2.3-2.6-4.2-5.5-5.5-8.6-1.3-3.1-2.2-6.3-2.6-9.4-0.9-6.4 0.4-12.6 2.6-17.8 2.2-5.2 5.7-9.3 9.4-12.4 7.5-6.1 15.6-7.6 20.8-7.6 5.4 0 8.2 1.1 8.2 1.1-0.1 0.3-2.9-0.6-8.1-0.4-5.2 0.2-13 1.9-20.1 7.9-3.4 3-6.7 7.1-8.8 12.1-2 4.9-3.1 10.8-2.2 16.8 0.3 3 1.2 6.1 2.5 8.9 1.2 2.9 3 5.7 5.2 8.2 4.3 5 10.4 8.6 17.2 10.2 6.8 1.5 13.9 0.8 19.9-1.9 3-1.3 5.8-3 8.2-5.1 2.4-2.1 4.5-4.4 6.1-7 3.3-5.1 4.8-10.9 5.1-16.2 0.3-5.4-1-10.5-2.8-14.7-3.9-8.5-10.2-13.3-14.7-15.7-4.7-2.4-7.6-2.9-7.5-3.1z"/>
							</g>
						</g>
					</g>
				</g>
				<g id="&lt;Group&gt;">
					<g id="&lt;Group&gt;">
						<g id="&lt;Group&gt;">
							<g id="&lt;Group&gt;">
								<path id="&lt;Path&gt;" class="s0" d="m927.6 11.6q0 0-0.1-1.2 0-1.3 0-3.5-0.1-4.9-0.2-14l0.2 0.3c-7.7-1.7-17.9-3.9-30.2-6.6l0.6-0.2c-2.4 5.1-5.1 10.8-7.9 16.8l-0.2 0.4h-0.3c-6.3 0.2-13 1.3-19.7 3.5l-0.4 0.1-0.2-0.3c-4.2-4.1-8.6-8.5-13.3-13.1l0.9 0.1c-8.2 5.2-16.9 10.7-26.1 16.5l0.3-0.8c2 5.4 4.1 11.4 6.3 17.5l0.2 0.5-0.4 0.3c-4.2 4.6-8.2 10.1-11.4 16.3l-0.2 0.5h-0.5c-5.8 0-12.2 0-18.7 0l0.9-0.6c-2.2 9.4-4.4 19.7-6.8 30.1l-0.5-1c5.3 2.5 11.1 5.2 16.9 8l0.5 0.2v0.6c0.3 6.2 1.4 13 3.4 19.6l0.2 0.5-0.4 0.4c-4.1 4.2-8.6 8.7-13.1 13.2l0.1-1.1c5.2 8.2 10.8 17.1 16.5 26.1l-1.1-0.4c5.6-2 11.6-4.1 17.6-6.3l0.5-0.2 0.5 0.4c4.6 4.3 10.1 8.3 16.2 11.4v0.1c0.2 0.3-0.5-0.9 0.5 0.8v0.1 0.2 0.3 0.6 1.1 2.4 4.7q0 4.6 0 9.3l-0.7-1q15.3 3.5 30.1 6.8l-1 0.5q4-8.5 8-16.8l0.2-0.6h0.6c6.7-0.2 13.3-1.4 19.6-3.4l0.5-0.1 0.4 0.4q6.7 6.6 13.2 13.1l-1.1-0.1q13.4-8.4 26.1-16.5l-0.4 1q-3.1-8.9-6.2-17.5l-0.2-0.5 0.4-0.4c4.6-5 8.5-10.5 11.5-16.3l0.2-0.4h0.5q9.6 0 18.7 0l-0.8 0.6c2.4-10.6 4.7-20.6 6.8-30.1l0.4 0.8c-5.9-2.8-11.5-5.5-16.8-8l-0.4-0.2v-0.4c-0.3-7.2-1.5-13.7-3.4-19.7l-0.1-0.4 0.3-0.2c4.8-4.8 9.1-9.1 13.2-13.2l-0.1 0.7c-6.4-10.1-11.8-18.8-16.4-26.2l0.5 0.2c-7 2.5-12.8 4.5-17.6 6.2h-0.2l-0.1-0.1c-5-4.6-9.2-7.5-12-9.2q-2.1-1.3-3.2-2-1.1-0.6-1.1-0.6 0.1 0 1.2 0.5c0.7 0.4 1.8 0.9 3.2 1.8 2.9 1.7 7.2 4.4 12.3 9h-0.3c4.8-1.8 10.5-3.9 17.5-6.4l0.3-0.1 0.2 0.3c4.7 7.3 10.2 15.9 16.7 26l0.2 0.4-0.3 0.3c-4.1 4.1-8.4 8.4-13.1 13.3l0.1-0.7c1.9 6.1 3.2 12.8 3.5 20l-0.3-0.6c5.3 2.6 10.9 5.2 16.8 8l0.6 0.2-0.2 0.6c-2.1 9.5-4.3 19.5-6.7 30.1l-0.1 0.7h-0.6q-9.1 0-18.7 0l0.7-0.4c-3 5.9-6.9 11.5-11.7 16.6l0.2-0.8q3.1 8.6 6.3 17.6l0.2 0.6-0.6 0.4q-12.7 8.1-26 16.5l-0.6 0.4-0.5-0.5q-6.6-6.5-13.3-13.1l0.9 0.2c-6.4 2-13.1 3.2-20 3.5l0.8-0.5q-4 8.3-8 16.8l-0.3 0.7-0.8-0.2q-14.8-3.3-30.1-6.7l-0.7-0.2v-0.7q-0.1-4.7-0.1-9.3v-4.7-2.4-1.1-0.6-0.3-0.2-0.1c1 1.7 0.3 0.5 0.5 0.8-6.2-3.2-11.9-7.3-16.6-11.7l0.9 0.2c-6 2.1-12 4.3-17.6 6.3l-0.7 0.2-0.4-0.6c-5.7-9-11.3-17.9-16.5-26.1l-0.4-0.6 0.5-0.6c4.6-4.5 9.1-9.1 13.2-13.2l-0.2 0.9c-2.1-6.7-3.2-13.7-3.5-20l0.5 0.7c-5.8-2.7-11.6-5.5-16.8-8l-0.7-0.3 0.2-0.7c2.4-10.4 4.7-20.6 6.8-30.1l0.1-0.7h0.7c6.5 0 12.9 0 18.7 0l-0.7 0.5c3.2-6.3 7.4-12 11.7-16.6l-0.2 0.8c-2.1-6.2-4.3-12.2-6.2-17.6l-0.2-0.6 0.5-0.3c9.2-5.8 17.9-11.3 26.1-16.5l0.5-0.3 0.4 0.4c4.6 4.6 9 9.1 13.2 13.2l-0.7-0.1c6.9-2.2 13.7-3.2 20-3.4l-0.5 0.3c3-6.1 5.7-11.8 8.1-16.8l0.2-0.4 0.4 0.1c12.2 2.8 22.3 5.1 30 6.9l0.3 0.1v0.2q-0.1 9-0.1 13.9-0.1 2.2-0.1 3.5 0 1.2-0.1 1.3z"/>
							</g>
						</g>
					</g>
				</g>
			</g>
		</g>
		<g id="&lt;Group&gt;">
			<g id="&lt;Group&gt;">
				<g id="&lt;Group&gt;">
					<g id="&lt;Group&gt;">
						<g id="&lt;Group&gt;">
						</g>
					</g>
				</g>
				<g id="&lt;Group&gt;">
					<g id="&lt;Group&gt;">
						<g id="&lt;Group&gt;">
							<g id="&lt;Group&gt;">
								<path id="&lt;Path&gt;" class="s0" d="m94.7 473c0 0 2 0.4 5.1 2.5 3 2 7 6 8.8 12.4 0.9 3.2 1.3 6.9 0.5 10.7-0.8 3.8-2.5 7.8-5.5 11-1.4 1.7-3.1 3.1-5.1 4.3-1.9 1.3-4.1 2.2-6.4 2.8-4.6 1.2-9.8 0.9-14.5-0.9-4.7-2-8.7-5.3-11.2-9.4-1.2-2-2.2-4.2-2.7-6.5-0.6-2.2-0.9-4.4-0.7-6.6 0.1-4.4 1.6-8.5 3.7-11.8 2-3.2 4.9-5.7 7.7-7.3 5.8-3.4 11.4-3.5 15-2.9 3.6 0.6 5.3 1.7 5.3 1.7 0 0.1-1.9-0.7-5.4-1.2-3.5-0.4-9-0.2-14.4 3.2-2.7 1.6-5.4 4-7.3 7.1-2 3.2-3.4 7-3.4 11.2-0.1 2.1 0.1 4.2 0.7 6.3 0.5 2.1 1.4 4.2 2.6 6.1 2.4 3.9 6.1 7 10.5 8.9 4.5 1.7 9.4 2 13.8 0.8 2.2-0.5 4.2-1.4 6.1-2.5 1.8-1.2 3.5-2.5 4.9-4.1 2.8-3.1 4.4-6.8 5.2-10.4 0.8-3.6 0.5-7.2-0.3-10.2-1.6-6.2-5.4-10.2-8.2-12.3-2.9-2.1-4.8-2.8-4.8-2.9z"/>
							</g>
						</g>
					</g>
				</g>
				<g id="&lt;Group&gt;">
					<g id="&lt;Group&gt;">
						<g id="&lt;Group&gt;">
							<g id="&lt;Group&gt;">
							</g>
						</g>
					</g>
				</g>
			</g>
			<g id="&lt;Group&gt;">
				<g id="&lt;Group&gt;">
					<g id="&lt;Group&gt;">
						<path id="&lt;Compound Path&gt;" fill-rule="evenodd" class="s0" d="m283.9 558.2c6.5 4.9 12.3 10.6 17.3 16.9l22.1-4 14.5 34.1-18.2 13.2c1.2 7.9 1.3 16.1 0.3 24.2l18.5 12.8-13.9 34.4-22.1-3.5c-4.9 6.6-10.7 12.4-17 17.3l4 22.1-34.1 14.5-13.2-18.1c-7.9 1.1-16 1.2-24.2 0.2l-12.7 18.5-34.5-13.9 3.5-22.1c-6.5-4.9-12.3-10.6-17.3-17l-22.1 4.1-14.5-34.2 18.2-13.2c-1.2-7.9-1.3-16-0.3-24.2l-18.5-12.7 13.9-34.5 22.1 3.6c5-6.6 10.7-12.4 17-17.3l-4-22.1 34.1-14.6 13.2 18.2c7.9-1.2 16.1-1.3 24.2-0.3l12.8-18.4 34.4 13.8zm-38.4 37c-20.4-8.2-43.6 1.7-51.8 22.1-8.2 20.4 1.7 43.6 22.1 51.8 20.4 8.2 43.6-1.7 51.9-22.1 8.2-20.4-1.7-43.6-22.2-51.8z"/>
					</g>
				</g>
			</g>
		</g>
	</g>
	<g id="JavaScript">
		<g id="&lt;Group&gt;">
			<g id="&lt;Group&gt;">
				<g id="&lt;Group&gt;">
					<g id="&lt;Group&gt;">
						<g id="&lt;Group&gt;">
							<path id="&lt;Path&gt;" class="s1" d="m282.4 338.2h-241.1v-299.8l184.4 0.5 56.7 61.5z"/>
						</g>
					</g>
					<g id="&lt;Group&gt;">
						<g id="&lt;Group&gt;">
							<g id="&lt;Group&gt;">
								<g id="&lt;Group&gt;">
									<path id="&lt;Path&gt;" class="s2" d="m113.4 209.4c-0.3 0.3-4.3-3.3-10.5-9.4-6.3-6.1-14.7-14.6-23.9-24.2l-1-1.1 1-1.1 0.1-0.1c9.2-9.7 17.6-18.3 23.8-24.4 6.2-6.2 10.2-9.8 10.5-9.5 0.3 0.3-3.1 4.4-8.9 11-5.8 6.5-14 15.4-23.1 25.1l-0.1 0.1v-2.2c9.2 9.6 17.3 18.4 23.2 24.9 5.8 6.5 9.2 10.6 8.9 10.9z"/>
								</g>
							</g>
						</g>
						<g id="&lt;Group&gt;">
							<g id="&lt;Group&gt;">
								<g id="&lt;Group&gt;">
									<path id="&lt;Path&gt;" class="s2" d="m210.1 139.6c0.4-0.3 4.4 3.3 10.6 9.4 6.2 6.1 14.7 14.6 23.8 24.2l1.1 1.1-1 1.1-0.1 0.1c-9.2 9.6-17.6 18.3-23.8 24.4-6.2 6.2-10.2 9.8-10.6 9.5-0.3-0.3 3.2-4.5 9-11 5.8-6.5 13.9-15.4 23.1-25.1l0.1-0.1v2.2c-9.2-9.6-17.4-18.4-23.2-24.9-5.8-6.5-9.3-10.6-9-10.9z"/>
								</g>
							</g>
						</g>
						<g id="&lt;Group&gt;">
							<g id="&lt;Group&gt;">
								<g id="&lt;Group&gt;">
									<path id="&lt;Path&gt;" class="s2" d="m132.4 220.4c-0.7-0.4 11.8-22.2 28-48.7 16.2-26.4 29.9-47.5 30.6-47 0.7 0.4-11.8 22.2-27.9 48.7-16.2 26.4-29.9 47.5-30.7 47z"/>
								</g>
							</g>
						</g>
					</g>
					<g id="&lt;Group&gt;">
						<g id="&lt;Group&gt;">
							<path id="&lt;Path&gt;" class="s0" d="m282.4 100.5l-43.6 1.6c-7.3 0.2-13.4-5.7-13.3-13l0.2-50.2z"/>
						</g>
					</g>
				</g>
			</g>
			<g id="&lt;Group&gt;">
				<g id="&lt;Group&gt;">
					<g id="&lt;Group&gt;">
						<path id="&lt;Path&gt;" class="s3" d="m120.1 306.4h-106.9v-65h106.9z"/>
					</g>
				</g>
				<g id="&lt;Group&gt;">
					<g id="&lt;Group&gt;">
						<path id="&lt;Compound Path&gt;" class="s4" d="m43.5 287.2l2.8-3.2c1.8 2.5 4.2 3.9 7 3.9 3.8 0 5.8-2.3 5.8-6.8v-18.8h-12.2v-4.2h16.9v22.8c0 7.5-3.6 11.2-10.5 11.2-4 0-7.6-1.8-9.8-4.9z"/>
					</g>
					<g id="&lt;Group&gt;">
						<path id="&lt;Compound Path&gt;" class="s4" d="m70.5 287.8l1.8-3.7c2.5 2.3 6.8 3.9 11.1 3.9 5.8 0 8.3-2.3 8.3-5.2 0-8.2-20.4-3-20.4-15.5 0-5.2 4.1-9.6 12.9-9.6 3.9 0 8 1.1 10.8 3l-1.6 3.8c-2.9-1.8-6.2-2.7-9.2-2.7-5.7 0-8.2 2.4-8.2 5.3 0 8.2 20.4 3.1 20.4 15.4 0 5.1-4.2 9.6-13 9.6-5.2 0-10.2-1.8-12.9-4.3z"/>
					</g>
				</g>
			</g>
		</g>
	</g>
	<g id="Angular">
		<g id="&lt;Group&gt;">
			<g id="&lt;Group&gt;">
				<g id="&lt;Group&gt;">
					<g id="&lt;Group&gt;">
						<g id="&lt;Group&gt;">
							<path id="&lt;Path&gt;" class="s3" d="m584.7 8.2l93.1 40.2c5.7 2.5 9.4 8.2 9.4 14.5l0.8 124.2c0.1 5.4-2.7 10.5-7.2 13.4l-94.5 61.3q0 0 0 0l-98.8-58.8c-4.7-2.9-7.7-8-7.7-13.6l-0.7-119c-0.1-6.1 3.3-11.6 8.7-14.3z"/>
						</g>
					</g>
				</g>
				<g id="&lt;Group&gt;" style="opacity: .2">
					<g id="&lt;Group&gt;">
						<path id="&lt;Path&gt;" class="s5" d="m677.9 48.4c5.7 2.5 9.4 8 9.4 14.2l0.7 124.6c0.1 5.5-2.7 10.5-7.3 13.4l-94.4 61.2-1.6-253.6z"/>
					</g>
				</g>
			</g>
			<g id="&lt;Group&gt;">
				<g id="&lt;Group&gt;">
					<path id="&lt;Compound Path&gt;" fill-rule="evenodd" class="s4" d="m612.3 150.6l-57.6 0.4-11.7 27.8-16 0.1 48.4-111.3 15.3-0.1 50 110.7-16.3 0.1zm-5.5-12.7l-23.7-54.2-23 54.5z"/>
				</g>
			</g>
		</g>
	</g>
	<g id="Screen">
		<g id="&lt;Group&gt;">
			<g id="&lt;Group&gt;">
				<g id="&lt;Group&gt;">
					<path id="&lt;Path&gt;" class="s2" d="m1083.4 519.3h-543.7v-316.8h543.7z"/>
				</g>
			</g>
			<g id="&lt;Group&gt;">
				<g id="&lt;Group&gt;">
					<g id="&lt;Group&gt;">
						<path id="&lt;Path&gt;" class="s0" d="m582.2 503.4c-0.2 0-0.5-64.8-0.5-144.7 0-79.9 0.3-144.7 0.5-144.7 0.3 0 0.6 64.8 0.6 144.7 0 79.9-0.3 144.7-0.6 144.7z"/>
					</g>
				</g>
			</g>
			<g id="&lt;Group&gt;">
				<g id="&lt;Group&gt;">
					<g id="&lt;Group&gt;">
						<path id="&lt;Path&gt;" class="s0" d="m571.1 226.2c0 0.3-4.1 0.6-9 0.6-5 0-9-0.3-9-0.6 0-0.2 4-0.5 9-0.5 4.9 0 9 0.3 9 0.5z"/>
					</g>
				</g>
			</g>
			<g id="&lt;Group&gt;">
				<g id="&lt;Group&gt;">
					<g id="&lt;Group&gt;">
						<path id="&lt;Path&gt;" class="s0" d="m571.1 245.3c0 0.3-4.1 0.5-9 0.5-5 0-9-0.2-9-0.5 0-0.3 4-0.5 9-0.5 4.9 0 9 0.2 9 0.5z"/>
					</g>
				</g>
			</g>
			<g id="&lt;Group&gt;">
				<g id="&lt;Group&gt;">
					<g id="&lt;Group&gt;">
						<path id="&lt;Path&gt;" class="s0" d="m571.1 264.4c0 0.3-4.1 0.5-9 0.5-5 0-9-0.2-9-0.5 0-0.3 4-0.5 9-0.5 4.9 0 9 0.2 9 0.5z"/>
					</g>
				</g>
			</g>
			<g id="&lt;Group&gt;">
				<g id="&lt;Group&gt;">
					<g id="&lt;Group&gt;">
						<path id="&lt;Path&gt;" class="s0" d="m571.1 283.4c0 0.3-4.1 0.6-9 0.6-5 0-9-0.3-9-0.6 0-0.2 4-0.5 9-0.5 4.9 0 9 0.3 9 0.5z"/>
					</g>
				</g>
			</g>
			<g id="&lt;Group&gt;">
				<g id="&lt;Group&gt;">
					<g id="&lt;Group&gt;">
						<path id="&lt;Path&gt;" class="s0" d="m571.1 302.5c0 0.3-4.1 0.5-9 0.5-5 0-9-0.2-9-0.5 0-0.3 4-0.5 9-0.5 4.9 0 9 0.2 9 0.5z"/>
					</g>
				</g>
			</g>
			<g id="&lt;Group&gt;">
				<g id="&lt;Group&gt;">
					<g id="&lt;Group&gt;">
						<path id="&lt;Path&gt;" class="s0" d="m571.1 321.6c0 0.3-4.1 0.5-9 0.5-5 0-9-0.2-9-0.5 0-0.3 4-0.5 9-0.5 4.9 0 9 0.2 9 0.5z"/>
					</g>
				</g>
			</g>
			<g id="&lt;Group&gt;">
				<g id="&lt;Group&gt;">
					<g id="&lt;Group&gt;">
						<path id="&lt;Path&gt;" class="s0" d="m571.1 340.6c0 0.3-4.1 0.6-9 0.6-5 0-9-0.3-9-0.6 0-0.2 4-0.5 9-0.5 4.9 0 9 0.3 9 0.5z"/>
					</g>
				</g>
			</g>
			<g id="&lt;Group&gt;">
				<g id="&lt;Group&gt;">
					<g id="&lt;Group&gt;">
						<path id="&lt;Path&gt;" class="s0" d="m571.1 359.7c0 0.3-4.1 0.5-9 0.5-5 0-9-0.2-9-0.5 0-0.3 4-0.5 9-0.5 4.9 0 9 0.2 9 0.5z"/>
					</g>
				</g>
			</g>
			<g id="&lt;Group&gt;">
				<g id="&lt;Group&gt;">
					<g id="&lt;Group&gt;">
						<path id="&lt;Path&gt;" class="s0" d="m571.1 378.8c0 0.3-4.1 0.5-9 0.5-5 0-9-0.2-9-0.5 0-0.3 4-0.5 9-0.5 4.9 0 9 0.2 9 0.5z"/>
					</g>
				</g>
			</g>
			<g id="&lt;Group&gt;">
				<g id="&lt;Group&gt;">
					<g id="&lt;Group&gt;">
						<path id="&lt;Path&gt;" class="s0" d="m571.1 397.8c0 0.3-4.1 0.6-9 0.6-5 0-9-0.3-9-0.6 0-0.2 4-0.5 9-0.5 4.9 0 9 0.3 9 0.5z"/>
					</g>
				</g>
			</g>
			<g id="&lt;Group&gt;">
				<g id="&lt;Group&gt;">
					<g id="&lt;Group&gt;">
						<path id="&lt;Path&gt;" class="s0" d="m571.1 416.9c0 0.3-4.1 0.5-9 0.5-5 0-9-0.2-9-0.5 0-0.3 4-0.5 9-0.5 4.9 0 9 0.2 9 0.5z"/>
					</g>
				</g>
			</g>
			<g id="&lt;Group&gt;">
				<g id="&lt;Group&gt;">
					<g id="&lt;Group&gt;">
						<path id="&lt;Path&gt;" class="s0" d="m571.1 436c0 0.3-4.1 0.5-9 0.5-5 0-9-0.2-9-0.5 0-0.3 4-0.5 9-0.5 4.9 0 9 0.2 9 0.5z"/>
					</g>
				</g>
			</g>
			<g id="&lt;Group&gt;">
				<g id="&lt;Group&gt;">
					<g id="&lt;Group&gt;">
						<path id="&lt;Path&gt;" class="s0" d="m571.1 455c0 0.3-4.1 0.6-9 0.6-5 0-9-0.3-9-0.6 0-0.2 4-0.5 9-0.5 4.9 0 9 0.3 9 0.5z"/>
					</g>
				</g>
			</g>
			<g id="&lt;Group&gt;">
				<g id="&lt;Group&gt;">
					<g id="&lt;Group&gt;">
						<path id="&lt;Path&gt;" class="s0" d="m571.1 474.1c0 0.3-4.1 0.5-9 0.5-5 0-9-0.2-9-0.5 0-0.3 4-0.5 9-0.5 4.9 0 9 0.2 9 0.5z"/>
					</g>
				</g>
			</g>
			<g id="&lt;Group&gt;">
				<g id="&lt;Group&gt;">
					<g id="&lt;Group&gt;">
						<path id="&lt;Path&gt;" class="s0" d="m571.1 493.2c0 0.3-4.1 0.5-9 0.5-5 0-9-0.2-9-0.5 0-0.3 4-0.5 9-0.5 4.9 0 9 0.2 9 0.5z"/>
					</g>
				</g>
			</g>
			<g id="&lt;Group&gt;">
				<g id="&lt;Group&gt;">
					<g id="&lt;Group&gt;">
						<path id="&lt;Path&gt;" class="s3" d="m643.2 225.1c0 0.3-10.4 0.5-23.3 0.5-12.9 0-23.4-0.2-23.4-0.5 0-0.3 10.5-0.5 23.4-0.5 12.9 0 23.3 0.2 23.3 0.5z"/>
					</g>
				</g>
			</g>
			<g id="&lt;Group&gt;">
				<g id="&lt;Group&gt;">
					<g id="&lt;Group&gt;">
						<path id="&lt;Path&gt;" class="s3" d="m643.2 493.2c0 0.3-10.4 0.5-23.3 0.5-12.9 0-23.4-0.2-23.4-0.5 0-0.3 10.5-0.5 23.4-0.5 12.9 0 23.3 0.2 23.3 0.5z"/>
					</g>
				</g>
			</g>
			<g id="&lt;Group&gt;">
				<g id="&lt;Group&gt;">
					<g id="&lt;Group&gt;">
						<path id="&lt;Path&gt;" class="s3" d="m708.3 264.4c0 0.3-19.6 0.5-43.7 0.5-24.1 0-43.7-0.2-43.7-0.5 0-0.3 19.6-0.5 43.7-0.5 24.1 0 43.7 0.2 43.7 0.5z"/>
					</g>
				</g>
			</g>
			<g id="&lt;Group&gt;">
				<g id="&lt;Group&gt;">
					<g id="&lt;Group&gt;">
						<path id="&lt;Path&gt;" class="s0" d="m809.4 264.4c0 0.3-19.6 0.5-43.7 0.5-24.2 0-43.7-0.2-43.7-0.5 0-0.3 19.5-0.5 43.7-0.5 24.1 0 43.7 0.2 43.7 0.5z"/>
					</g>
				</g>
			</g>
			<g id="&lt;Group&gt;">
				<g id="&lt;Group&gt;">
					<g id="&lt;Group&gt;">
						<path id="&lt;Path&gt;" class="s0" d="m770.8 283.4c0 0.3-28.9 0.6-64.4 0.6-35.6 0-64.5-0.3-64.5-0.6 0-0.2 28.9-0.5 64.5-0.5 35.5 0 64.4 0.3 64.4 0.5z"/>
					</g>
				</g>
			</g>
			<g id="&lt;Group&gt;">
				<g id="&lt;Group&gt;">
					<g id="&lt;Group&gt;">
						<path id="&lt;Path&gt;" class="s0" d="m770.8 302.5c0 0.3-28.9 0.5-64.4 0.5-35.6 0-64.5-0.2-64.5-0.5 0-0.3 28.9-0.5 64.5-0.5 35.5 0 64.4 0.2 64.4 0.5z"/>
					</g>
				</g>
			</g>
			<g id="&lt;Group&gt;">
				<g id="&lt;Group&gt;">
					<g id="&lt;Group&gt;">
						<path id="&lt;Path&gt;" class="s0" d="m859.5 359.7c0 0.3-28.9 0.5-64.5 0.5-35.5 0-64.4-0.2-64.4-0.5 0-0.3 28.9-0.5 64.4-0.5 35.6 0 64.5 0.2 64.5 0.5z"/>
					</g>
				</g>
			</g>
			<g id="&lt;Group&gt;">
				<g id="&lt;Group&gt;">
					<g id="&lt;Group&gt;">
						<path id="&lt;Path&gt;" class="s0" d="m821.2 321.6c0 0.3-28.9 0.5-64.4 0.5-35.6 0-64.5-0.2-64.5-0.5 0-0.3 28.9-0.5 64.5-0.5 35.5 0 64.4 0.2 64.4 0.5z"/>
					</g>
				</g>
			</g>
			<g id="&lt;Group&gt;">
				<g id="&lt;Group&gt;">
					<g id="&lt;Group&gt;">
						<path id="&lt;Path&gt;" class="s0" d="m978.6 321.6c0 0.3-28.8 0.5-64.4 0.5-35.6 0-64.4-0.2-64.4-0.5 0-0.3 28.8-0.5 64.4-0.5 35.6 0 64.4 0.2 64.4 0.5z"/>
					</g>
				</g>
			</g>
			<g id="&lt;Group&gt;">
				<g id="&lt;Group&gt;">
					<g id="&lt;Group&gt;">
						<path id="&lt;Path&gt;" class="s6" d="m923.9 283.4c0 0.3-28.9 0.6-64.4 0.6-35.6 0-64.5-0.3-64.5-0.6 0-0.2 28.9-0.5 64.5-0.5 35.5 0 64.4 0.3 64.4 0.5z"/>
					</g>
				</g>
			</g>
			<g id="&lt;Group&gt;">
				<g id="&lt;Group&gt;">
					<g id="&lt;Group&gt;">
						<path id="&lt;Path&gt;" class="s6" d="m1012.9 359.7c0 0.3-28.9 0.5-64.4 0.5-35.6 0-64.5-0.2-64.5-0.5 0-0.3 28.9-0.5 64.5-0.5 35.5 0 64.4 0.2 64.4 0.5z"/>
					</g>
				</g>
			</g>
			<g id="&lt;Group&gt;">
				<g id="&lt;Group&gt;">
					<g id="&lt;Group&gt;">
						<path id="&lt;Path&gt;" class="s7" d="m995.1 302.5c0 0.3-44.8 0.5-100 0.5-55.3 0-100.1-0.2-100.1-0.5 0-0.3 44.8-0.5 100.1-0.5 55.2 0 100 0.2 100 0.5z"/>
					</g>
				</g>
			</g>
			<g id="&lt;Group&gt;">
				<g id="&lt;Group&gt;">
					<g id="&lt;Group&gt;">
						<path id="&lt;Path&gt;" class="s6" d="m643.2 245.3c0 0.3-10.4 0.5-23.3 0.5-12.9 0-23.4-0.2-23.4-0.5 0-0.3 10.5-0.5 23.4-0.5 12.9 0 23.3 0.2 23.3 0.5z"/>
					</g>
				</g>
			</g>
			<g id="&lt;Group&gt;">
				<g id="&lt;Group&gt;">
					<g id="&lt;Group&gt;">
						<path id="&lt;Path&gt;" class="s6" d="m643.2 474.1c0 0.3-10.4 0.5-23.3 0.5-12.9 0-23.4-0.2-23.4-0.5 0-0.3 10.5-0.5 23.4-0.5 12.9 0 23.3 0.2 23.3 0.5z"/>
					</g>
				</g>
			</g>
			<g id="&lt;Group&gt;">
				<g id="&lt;Group&gt;">
					<g id="&lt;Group&gt;">
						<path id="&lt;Path&gt;" class="s6" d="m666.4 321.6c0 0.3-10.5 0.5-23.4 0.5-12.9 0-23.3-0.2-23.3-0.5 0-0.3 10.4-0.5 23.3-0.5 12.9 0 23.4 0.2 23.4 0.5z"/>
					</g>
				</g>
			</g>
			<g id="&lt;Group&gt;">
				<g id="&lt;Group&gt;">
					<g id="&lt;Group&gt;">
						<path id="&lt;Path&gt;" class="s3" d="m1040.9 321.6c0 0.3-10.5 0.5-23.4 0.5-12.9 0-23.3-0.2-23.3-0.5 0-0.3 10.4-0.5 23.3-0.5 12.9 0 23.4 0.2 23.4 0.5z"/>
					</g>
				</g>
			</g>
			<g id="&lt;Group&gt;">
				<g id="&lt;Group&gt;">
					<g id="&lt;Group&gt;">
						<path id="&lt;Path&gt;" class="s3" d="m708.3 397.7c0 0.3-19.6 0.5-43.7 0.5-24.1 0-43.7-0.2-43.7-0.5 0-0.3 19.6-0.5 43.7-0.5 24.1 0 43.7 0.2 43.7 0.5z"/>
					</g>
				</g>
			</g>
			<g id="&lt;Group&gt;">
				<g id="&lt;Group&gt;">
					<g id="&lt;Group&gt;">
						<path id="&lt;Path&gt;" class="s0" d="m809.4 397.7c0 0.3-19.6 0.5-43.7 0.5-24.2 0-43.7-0.2-43.7-0.5 0-0.3 19.5-0.5 43.7-0.5 24.1 0 43.7 0.2 43.7 0.5z"/>
					</g>
				</g>
			</g>
			<g id="&lt;Group&gt;">
				<g id="&lt;Group&gt;">
					<g id="&lt;Group&gt;">
						<path id="&lt;Path&gt;" class="s0" d="m770.8 416.8c0 0.3-28.9 0.5-64.4 0.5-35.6 0-64.5-0.2-64.5-0.5 0-0.3 28.9-0.5 64.5-0.5 35.5 0 64.4 0.2 64.4 0.5z"/>
					</g>
				</g>
			</g>
			<g id="&lt;Group&gt;">
				<g id="&lt;Group&gt;">
					<g id="&lt;Group&gt;">
						<path id="&lt;Path&gt;" class="s0" d="m770.8 435.9c0 0.2-28.9 0.5-64.4 0.5-35.6 0-64.5-0.3-64.5-0.5 0-0.3 28.9-0.6 64.5-0.6 35.5 0 64.4 0.3 64.4 0.6z"/>
					</g>
				</g>
			</g>
			<g id="&lt;Group&gt;">
				<g id="&lt;Group&gt;">
					<g id="&lt;Group&gt;">
						<path id="&lt;Path&gt;" class="s0" d="m821.2 454.9c0 0.3-28.9 0.5-64.4 0.5-35.6 0-64.5-0.2-64.5-0.5 0-0.3 28.9-0.5 64.5-0.5 35.5 0 64.4 0.2 64.4 0.5z"/>
					</g>
				</g>
			</g>
			<g id="&lt;Group&gt;">
				<g id="&lt;Group&gt;">
					<g id="&lt;Group&gt;">
						<path id="&lt;Path&gt;" class="s0" d="m978.6 454.9c0 0.3-28.8 0.5-64.4 0.5-35.6 0-64.4-0.2-64.4-0.5 0-0.3 28.8-0.5 64.4-0.5 35.6 0 64.4 0.2 64.4 0.5z"/>
					</g>
				</g>
			</g>
			<g id="&lt;Group&gt;">
				<g id="&lt;Group&gt;">
					<g id="&lt;Group&gt;">
						<path id="&lt;Path&gt;" class="s6" d="m923.9 416.8c0 0.3-28.9 0.5-64.4 0.5-35.6 0-64.5-0.2-64.5-0.5 0-0.3 28.9-0.5 64.5-0.5 35.5 0 64.4 0.2 64.4 0.5z"/>
					</g>
				</g>
			</g>
			<g id="&lt;Group&gt;">
				<g id="&lt;Group&gt;">
					<g id="&lt;Group&gt;">
						<path id="&lt;Path&gt;" class="s7" d="m995.1 435.9c0 0.2-44.8 0.5-100 0.5-55.3 0-100.1-0.3-100.1-0.5 0-0.3 44.8-0.6 100.1-0.6 55.2 0 100 0.3 100 0.6z"/>
					</g>
				</g>
			</g>
			<g id="&lt;Group&gt;">
				<g id="&lt;Group&gt;">
					<g id="&lt;Group&gt;">
						<path id="&lt;Path&gt;" class="s6" d="m666.4 454.9c0 0.3-10.5 0.5-23.4 0.5-12.9 0-23.3-0.2-23.3-0.5 0-0.3 10.4-0.5 23.3-0.5 12.9 0 23.4 0.2 23.4 0.5z"/>
					</g>
				</g>
			</g>
			<g id="&lt;Group&gt;">
				<g id="&lt;Group&gt;">
					<g id="&lt;Group&gt;">
						<path id="&lt;Path&gt;" class="s3" d="m1040.9 454.9c0 0.3-10.5 0.5-23.4 0.5-12.9 0-23.3-0.2-23.3-0.5 0-0.3 10.4-0.5 23.3-0.5 12.9 0 23.4 0.2 23.4 0.5z"/>
					</g>
				</g>
			</g>
		</g>
	</g>
	<g id="React">
		<g id="&lt;Group&gt;">
			<g id="&lt;Group&gt;">
				<g id="&lt;Group&gt;">
					<g id="&lt;Group&gt;">
						<path id="&lt;Path&gt;" class="s3" d="m1155.3 515c-0.4 0.2-3.8-5.4-10.6-15.1-3.4-4.8-7.7-10.6-13-17-5.4-6.4-11.8-13.5-19.6-20.5-3.9-3.4-8.2-6.8-12.9-9.9-4.8-3-10-5.8-15.7-7-2.8-0.7-5.7-0.8-8.4-0.2-2.7 0.6-5.1 2.3-6.9 4.5-1.8 2.2-3 5.1-3.8 8.1-0.8 3.1-1.1 6.4-1.2 9.8-0.1 6.7 0.8 13.7 2.3 20.7 1.5 7.1 3.5 14.2 6.1 21.3 4.9 14.2 11.7 28.4 19.6 42.2 8.1 13.9 17 26.8 26.8 38.2 4.9 5.7 10 11.1 15.4 15.9 5.3 4.8 10.9 9.1 16.8 12.4 3 1.6 6 2.9 9.1 3.8 3 0.9 6.1 1.3 8.9 0.8 2.8-0.5 5.4-1.7 7.3-3.8 1.9-2 3.2-4.6 4.1-7.3 1.8-5.6 2-11.5 1.7-17.1-0.2-5.6-1.1-11.1-2.1-16.2-2.1-10.2-5.1-19.3-7.9-27.1-2.9-7.9-5.8-14.5-8.3-19.9-4.9-10.7-8.1-16.4-7.7-16.6 0.1-0.1 1.1 1.2 2.8 3.8 1.6 2.7 4 6.7 6.8 11.9 2.7 5.3 5.9 11.9 9.1 19.7 3.2 7.9 6.4 17 8.8 27.5 1.2 5.2 2.1 10.8 2.5 16.7 0.4 5.9 0.3 12.2-1.6 18.6-1 3.1-2.5 6.4-5 9.1-2.4 2.7-6 4.6-9.7 5.2-3.8 0.7-7.5 0.2-11-0.8-3.5-1-6.9-2.4-10.1-4.1-6.3-3.5-12.2-8-17.8-12.9-5.6-5-10.9-10.4-16-16.3-10.1-11.6-19.2-24.8-27.4-38.9-8.1-14.1-14.9-28.6-20-43.1-2.5-7.3-4.6-14.6-6.1-22-1.4-7.3-2.3-14.6-2.2-21.9 0.1-3.6 0.5-7.2 1.5-10.7 0.9-3.6 2.3-7.1 4.8-10 2.4-2.8 5.8-5 9.4-5.8 3.6-0.8 7.1-0.5 10.4 0.2 6.5 1.6 11.9 4.7 16.9 7.9 4.9 3.3 9.2 7 13.2 10.6 7.8 7.3 14.1 14.7 19.3 21.3 5.2 6.7 9.3 12.8 12.5 17.8 3.2 5 5.5 9 6.9 11.8 1.5 2.8 2.1 4.3 2 4.4z"/>
					</g>
				</g>
			</g>
			<g id="&lt;Group&gt;">
				<g id="&lt;Group&gt;">
					<g id="&lt;Group&gt;">
						<path id="&lt;Path&gt;" class="s3" d="m1093.5 514.8c0.4 0.3-2.8 5.7-7.9 16-2.5 5.1-5.5 11.4-8.4 19-3 7.5-6 16.2-8.2 26.1-1 4.9-1.9 10.1-2.2 15.6-0.3 5.4-0.1 11.1 1.6 16.5 0.8 2.6 2.1 5.1 4 7.1 1.8 2 4.2 3.3 6.9 3.9 2.7 0.6 5.7 0.4 8.7-0.3 3-0.6 6-1.7 8.9-3.2 5.9-2.8 11.5-6.7 16.9-11.1 5.4-4.4 10.5-9.3 15.5-14.6 9.9-10.7 19-22.9 27.1-36 8.1-13.2 15-26.8 20.1-40.4 2.6-6.8 4.7-13.6 6.3-20.4 1.5-6.8 2.5-13.6 2.4-20.1-0.1-3.2-0.4-6.4-1.1-9.4-0.8-2.9-2-5.7-3.7-7.9-1.7-2.1-4-3.7-6.6-4.5-2.6-0.7-5.4-0.7-8.2-0.3-5.5 0.8-10.7 3.2-15.4 5.9-4.8 2.7-9 5.8-13 9-7.9 6.3-14.3 12.9-19.7 18.9-5.4 6-9.8 11.5-13.2 16-7 9.1-10.4 14.5-10.8 14.2-0.1-0.1 0.6-1.5 2.1-4.1 1.5-2.7 3.8-6.5 7-11.2 3.3-4.8 7.4-10.5 12.7-16.8 5.3-6.3 11.6-13.2 19.6-19.9 4-3.3 8.3-6.7 13.3-9.6 4.9-2.9 10.4-5.6 16.8-6.7 3.2-0.5 6.6-0.6 10 0.4 3.5 0.9 6.7 3 9 5.9 2.3 2.8 3.7 6.1 4.6 9.6 0.9 3.4 1.3 6.9 1.4 10.4 0.1 7.1-0.8 14.2-2.4 21.3-1.5 7-3.7 14.1-6.3 21.1-5.2 14-12.2 27.9-20.4 41.3-8.4 13.4-17.7 25.8-27.9 36.7-5.1 5.5-10.5 10.6-16.1 15.1-5.6 4.5-11.5 8.6-17.9 11.6-3.2 1.5-6.5 2.7-10 3.4-3.4 0.8-7.1 1-10.7 0.2-3.5-0.8-6.9-2.7-9.2-5.4-2.4-2.6-3.9-5.7-4.8-8.8-1.9-6.2-1.9-12.4-1.5-18.1 0.4-5.7 1.4-11.1 2.6-16.1 2.5-10.2 5.8-18.9 9.1-26.5 3.3-7.5 6.5-13.7 9.3-18.8 2.8-5 5.2-8.8 6.9-11.3 1.7-2.5 2.7-3.8 2.8-3.7z"/>
					</g>
				</g>
			</g>
			<g id="&lt;Group&gt;">
				<g id="&lt;Group&gt;">
					<g id="&lt;Group&gt;">
						<path id="&lt;Path&gt;" class="s3" d="m1120.5 491.8c0 0.5-6.4 0.6-17.8 1.7-5.6 0.5-12.6 1.4-20.5 2.8-8 1.4-17 3.4-26.5 6.8-4.8 1.7-9.7 3.7-14.5 6.3-4.7 2.6-9.5 5.8-13.2 10-1.8 2.2-3.2 4.6-3.9 7.2-0.8 2.6-0.6 5.3 0.3 7.9 0.9 2.7 2.7 5.1 4.8 7.3 2.1 2.2 4.7 4.2 7.4 5.9 5.5 3.5 11.8 6.2 18.3 8.5 6.6 2.2 13.5 4.1 20.7 5.4 14.3 2.9 29.4 4.2 44.9 4.2 15.4 0 30.6-1.3 44.9-4.2 7.1-1.3 14-3.2 20.6-5.4 6.6-2.3 12.8-5 18.3-8.5 2.8-1.7 5.3-3.7 7.4-5.9 2.2-2.2 3.9-4.6 4.8-7.3 0.9-2.6 1.1-5.3 0.4-7.9-0.7-2.6-2.2-5-4-7.2-3.6-4.2-8.4-7.4-13.2-10-4.8-2.6-9.7-4.6-14.4-6.3-9.6-3.4-18.6-5.4-26.5-6.8-8-1.4-14.9-2.3-20.6-2.8-11.4-1.1-17.7-1.2-17.7-1.7 0-0.2 1.6-0.3 4.6-0.5 3-0.1 7.5-0.1 13.2 0.1 5.8 0.3 12.8 0.8 20.9 2 8.1 1.2 17.4 3 27.3 6.2 4.9 1.6 10 3.6 15.1 6.2 5.1 2.7 10.3 5.9 14.6 10.8 2.1 2.4 4 5.4 5 8.8 1 3.4 0.8 7.2-0.4 10.6-1.1 3.5-3.2 6.5-5.7 9.1-2.4 2.5-5.2 4.7-8.2 6.6-5.9 3.9-12.4 6.8-19.3 9.2-6.8 2.4-13.9 4.3-21.2 5.7-14.7 3-30.1 4.4-45.9 4.4-15.8 0-31.3-1.4-45.9-4.4-7.4-1.4-14.5-3.3-21.3-5.7-6.8-2.4-13.4-5.3-19.3-9.2-2.9-1.9-5.7-4.1-8.2-6.6-2.4-2.6-4.5-5.6-5.7-9.1-1.2-3.4-1.3-7.2-0.3-10.6 1-3.4 2.8-6.3 5-8.8 4.3-4.8 9.5-8.1 14.5-10.8 5.1-2.6 10.2-4.6 15.2-6.2 9.9-3.2 19.1-5 27.2-6.2 8.1-1.2 15.2-1.7 20.9-2 5.8-0.2 10.2-0.2 13.3-0.1 3 0.2 4.6 0.3 4.6 0.5z"/>
					</g>
				</g>
			</g>
			<g id="&lt;Group&gt;">
				<g id="&lt;Group&gt;">
					<path id="&lt;Path&gt;" class="s3" d="m1142.2 534.6c0 9.2-7.5 16.7-16.8 16.7-9.2 0-16.7-7.5-16.7-16.7 0-9.3 7.5-16.8 16.7-16.8 9.3 0 16.8 7.5 16.8 16.8z"/>
				</g>
			</g>
		</g>
	</g>
	<g id="Device">
		<g id="&lt;Group&gt;">
			<g id="&lt;Group&gt;">
				<g id="&lt;Group&gt;">
					<g id="&lt;Group&gt;">
						<g id="&lt;Group&gt;">
							<g id="&lt;Group&gt;">
								<path id="&lt;Path&gt;" class="s7" d="m833.5 773.5h-565.6c-16.1 0-29.1-13-29.1-29.1v-368c0-8.5 6.9-15.5 15.5-15.5h594.9c7.4 0 13.4 6.1 13.4 13.5v370c0 16.1-13 29.1-29.1 29.1z"/>
							</g>
						</g>
					</g>
				</g>
				<g id="&lt;Group&gt;">
					<g id="&lt;Group&gt;">
						<g id="&lt;Group&gt;">
							<g id="&lt;Group&gt;">
								<path id="&lt;Path&gt;" class="s7" d="m861.1 779.1h-621c-15.1 0-27.4-12.3-27.4-27.5v-8.6h675.9v8.6c0 15.2-12.3 27.5-27.5 27.5z"/>
							</g>
						</g>
					</g>
				</g>
				<g id="&lt;Group&gt;">
					<g id="&lt;Group&gt;">
						<g id="&lt;Group&gt;">
							<g id="&lt;Group&gt;">
								<path id="&lt;Path&gt;" class="s0" d="m844.1 725.7h-588.6v-348.4h588.6z"/>
							</g>
						</g>
					</g>
				</g>
				<g id="&lt;Group&gt;">
					<g id="&lt;Group&gt;">
						<g id="&lt;Group&gt;">
							<g id="&lt;Group&gt;">
								<path id="&lt;Path&gt;" class="s2" d="m623.4 743l-7.8 13.3h-118l-8.4-13.3z"/>
							</g>
						</g>
					</g>
				</g>
			</g>
			<g id="&lt;Group&gt;">
				<g id="&lt;Group&gt;">
					<g id="&lt;Group&gt;">
						<g id="&lt;Group&gt;">
							<path id="&lt;Path&gt;" class="s2" d="m862.7 744.9h-623.8v-2h623.8z"/>
						</g>
					</g>
				</g>
			</g>
			<g id="&lt;Group&gt;">
				<g id="&lt;Group&gt;">
					<g id="&lt;Group&gt;">
						<path id="&lt;Path&gt;" class="s2" d="m828.1 725.7h-555.1v-328.2h555.1z"/>
					</g>
				</g>
				<g id="&lt;Group&gt;">
					<g id="&lt;Group&gt;">
						<g id="&lt;Group&gt;">
							<path id="&lt;Path&gt;" class="s0" d="m315.6 716.1c-0.3 0-0.6-69.9-0.6-156.1 0-86.3 0.3-156.1 0.6-156.1 0.3 0 0.5 69.8 0.5 156.1 0 86.2-0.3 156.1-0.5 156.1z"/>
						</g>
					</g>
				</g>
				<g id="&lt;Group&gt;">
					<g id="&lt;Group&gt;">
						<g id="&lt;Group&gt;">
							<path id="&lt;Path&gt;" class="s0" d="m304.4 432.2c0 0.2-4.1 0.5-9.1 0.5-4.9 0-9-0.3-9-0.5 0-0.3 4.1-0.6 9-0.6 5 0 9.1 0.3 9.1 0.6z"/>
						</g>
					</g>
				</g>
				<g id="&lt;Group&gt;">
					<g id="&lt;Group&gt;">
						<g id="&lt;Group&gt;">
							<path id="&lt;Path&gt;" class="s0" d="m305.1 414.4c0 0.3-4.1 0.6-9.1 0.6-4.9 0-9-0.3-9-0.6 0-0.2 4.1-0.5 9-0.5 5 0 9.1 0.3 9.1 0.5z"/>
						</g>
					</g>
				</g>
				<g id="&lt;Group&gt;">
					<g id="&lt;Group&gt;">
						<g id="&lt;Group&gt;">
							<path id="&lt;Path&gt;" class="s0" d="m304.4 451.3c0 0.2-4.1 0.5-9.1 0.5-4.9 0-9-0.3-9-0.5 0-0.3 4.1-0.6 9-0.6 5 0 9.1 0.3 9.1 0.6z"/>
						</g>
					</g>
				</g>
				<g id="&lt;Group&gt;">
					<g id="&lt;Group&gt;">
						<g id="&lt;Group&gt;">
							<path id="&lt;Path&gt;" class="s0" d="m304.4 470.4c0 0.2-4.1 0.5-9.1 0.5-4.9 0-9-0.3-9-0.5 0-0.3 4.1-0.6 9-0.6 5 0 9.1 0.3 9.1 0.6z"/>
						</g>
					</g>
				</g>
				<g id="&lt;Group&gt;">
					<g id="&lt;Group&gt;">
						<g id="&lt;Group&gt;">
							<path id="&lt;Path&gt;" class="s0" d="m304.4 489.5c0 0.2-4.1 0.5-9.1 0.5-4.9 0-9-0.3-9-0.5 0-0.3 4.1-0.6 9-0.6 5 0 9.1 0.3 9.1 0.6z"/>
						</g>
					</g>
				</g>
				<g id="&lt;Group&gt;">
					<g id="&lt;Group&gt;">
						<g id="&lt;Group&gt;">
							<path id="&lt;Path&gt;" class="s0" d="m304.4 508.6c0 0.2-4.1 0.5-9.1 0.5-4.9 0-9-0.3-9-0.5 0-0.3 4.1-0.6 9-0.6 5 0 9.1 0.3 9.1 0.6z"/>
						</g>
					</g>
				</g>
				<g id="&lt;Group&gt;">
					<g id="&lt;Group&gt;">
						<g id="&lt;Group&gt;">
							<path id="&lt;Path&gt;" class="s0" d="m304.4 527.6c0 0.3-4.1 0.6-9.1 0.6-4.9 0-9-0.3-9-0.6 0-0.2 4.1-0.5 9-0.5 5 0 9.1 0.3 9.1 0.5z"/>
						</g>
					</g>
				</g>
				<g id="&lt;Group&gt;">
					<g id="&lt;Group&gt;">
						<g id="&lt;Group&gt;">
							<path id="&lt;Path&gt;" class="s0" d="m304.4 546.7c0 0.3-4.1 0.6-9.1 0.6-4.9 0-9-0.3-9-0.6 0-0.2 4.1-0.5 9-0.5 5 0 9.1 0.3 9.1 0.5z"/>
						</g>
					</g>
				</g>
				<g id="&lt;Group&gt;">
					<g id="&lt;Group&gt;">
						<g id="&lt;Group&gt;">
							<path id="&lt;Path&gt;" class="s0" d="m304.4 565.8c0 0.3-4.1 0.6-9.1 0.6-4.9 0-9-0.3-9-0.6 0-0.2 4.1-0.5 9-0.5 5 0 9.1 0.3 9.1 0.5z"/>
						</g>
					</g>
				</g>
				<g id="&lt;Group&gt;">
					<g id="&lt;Group&gt;">
						<g id="&lt;Group&gt;">
							<path id="&lt;Path&gt;" class="s0" d="m304.4 584.9c0 0.3-4.1 0.6-9.1 0.6-4.9 0-9-0.3-9-0.6 0-0.2 4.1-0.5 9-0.5 5 0 9.1 0.3 9.1 0.5z"/>
						</g>
					</g>
				</g>
				<g id="&lt;Group&gt;">
					<g id="&lt;Group&gt;">
						<g id="&lt;Group&gt;">
							<path id="&lt;Path&gt;" class="s0" d="m304.4 604c0 0.3-4.1 0.6-9.1 0.6-4.9 0-9-0.3-9-0.6 0-0.2 4.1-0.5 9-0.5 5 0 9.1 0.3 9.1 0.5z"/>
						</g>
					</g>
				</g>
				<g id="&lt;Group&gt;">
					<g id="&lt;Group&gt;">
						<g id="&lt;Group&gt;">
							<path id="&lt;Path&gt;" class="s0" d="m304.4 623.1c0 0.3-4.1 0.6-9.1 0.6-4.9 0-9-0.3-9-0.6 0-0.3 4.1-0.5 9-0.5 5 0 9.1 0.2 9.1 0.5z"/>
						</g>
					</g>
				</g>
				<g id="&lt;Group&gt;">
					<g id="&lt;Group&gt;">
						<g id="&lt;Group&gt;">
							<path id="&lt;Path&gt;" class="s0" d="m304.4 642.2c0 0.3-4.1 0.6-9.1 0.6-4.9 0-9-0.3-9-0.6 0-0.3 4.1-0.5 9-0.5 5 0 9.1 0.2 9.1 0.5z"/>
						</g>
					</g>
				</g>
				<g id="&lt;Group&gt;">
					<g id="&lt;Group&gt;">
						<g id="&lt;Group&gt;">
							<path id="&lt;Path&gt;" class="s0" d="m304.4 661.3c0 0.3-4.1 0.6-9.1 0.6-4.9 0-9-0.3-9-0.6 0-0.3 4.1-0.5 9-0.5 5 0 9.1 0.2 9.1 0.5z"/>
						</g>
					</g>
				</g>
				<g id="&lt;Group&gt;">
					<g id="&lt;Group&gt;">
						<g id="&lt;Group&gt;">
							<path id="&lt;Path&gt;" class="s0" d="m304.4 680.4c0 0.3-4.1 0.6-9.1 0.6-4.9 0-9-0.3-9-0.6 0-0.3 4.1-0.5 9-0.5 5 0 9.1 0.2 9.1 0.5z"/>
						</g>
					</g>
				</g>
				<g id="&lt;Group&gt;">
					<g id="&lt;Group&gt;">
						<g id="&lt;Group&gt;">
							<path id="&lt;Path&gt;" class="s0" d="m304.4 699.5c0 0.3-4.1 0.5-9.1 0.5-4.9 0-9-0.2-9-0.5 0-0.3 4.1-0.5 9-0.5 5 0 9.1 0.2 9.1 0.5z"/>
						</g>
					</g>
				</g>
				<g id="&lt;Group&gt;">
					<g id="&lt;Group&gt;">
						<g id="&lt;Group&gt;">
							<path id="&lt;Path&gt;" class="s3" d="m376.7 431c0 0.3-10.5 0.6-23.4 0.6-13 0-23.5-0.3-23.5-0.6 0-0.3 10.5-0.5 23.5-0.5 12.9 0 23.4 0.2 23.4 0.5z"/>
						</g>
					</g>
				</g>
				<g id="&lt;Group&gt;">
					<g id="&lt;Group&gt;">
						<g id="&lt;Group&gt;">
							<path id="&lt;Path&gt;" class="s3" d="m376.7 699.5c0 0.3-10.5 0.5-23.4 0.5-13 0-23.5-0.2-23.5-0.5 0-0.3 10.5-0.5 23.5-0.5 12.9 0 23.4 0.2 23.4 0.5z"/>
						</g>
					</g>
				</g>
				<g id="&lt;Group&gt;">
					<g id="&lt;Group&gt;">
						<g id="&lt;Group&gt;">
							<path id="&lt;Path&gt;" class="s3" d="m441.8 470.4c0 0.2-19.6 0.5-43.8 0.5-24.1 0-43.7-0.3-43.7-0.5 0-0.3 19.6-0.6 43.7-0.6 24.2 0 43.8 0.3 43.8 0.6z"/>
						</g>
					</g>
				</g>
				<g id="&lt;Group&gt;">
					<g id="&lt;Group&gt;">
						<g id="&lt;Group&gt;">
							<path id="&lt;Path&gt;" class="s0" d="m543.1 470.4c0 0.2-19.6 0.5-43.8 0.5-24.2 0-43.8-0.3-43.8-0.5 0-0.3 19.6-0.6 43.8-0.6 24.2 0 43.8 0.3 43.8 0.6z"/>
						</g>
					</g>
				</g>
				<g id="&lt;Group&gt;">
					<g id="&lt;Group&gt;">
						<g id="&lt;Group&gt;">
							<path id="&lt;Path&gt;" class="s0" d="m504.4 489.5c0 0.2-28.9 0.5-64.5 0.5-35.7 0-64.6-0.3-64.6-0.5 0-0.3 28.9-0.6 64.6-0.6 35.6 0 64.5 0.3 64.5 0.6z"/>
						</g>
					</g>
				</g>
				<g id="&lt;Group&gt;">
					<g id="&lt;Group&gt;">
						<g id="&lt;Group&gt;">
							<path id="&lt;Path&gt;" class="s0" d="m504.4 508.6c0 0.2-28.9 0.5-64.5 0.5-35.7 0-64.6-0.3-64.6-0.5 0-0.3 28.9-0.6 64.6-0.6 35.6 0 64.5 0.3 64.5 0.6z"/>
						</g>
					</g>
				</g>
				<g id="&lt;Group&gt;">
					<g id="&lt;Group&gt;">
						<g id="&lt;Group&gt;">
							<path id="&lt;Path&gt;" class="s0" d="m593.2 565.8c0 0.3-28.9 0.6-64.5 0.6-35.6 0-64.5-0.3-64.5-0.6 0-0.2 28.9-0.5 64.5-0.5 35.6 0 64.5 0.3 64.5 0.5z"/>
						</g>
					</g>
				</g>
				<g id="&lt;Group&gt;">
					<g id="&lt;Group&gt;">
						<g id="&lt;Group&gt;">
							<path id="&lt;Path&gt;" class="s0" d="m554.9 527.6c0 0.3-28.9 0.6-64.5 0.6-35.7 0-64.6-0.3-64.6-0.6 0-0.2 28.9-0.5 64.6-0.5 35.6 0 64.5 0.3 64.5 0.5z"/>
						</g>
					</g>
				</g>
				<g id="&lt;Group&gt;">
					<g id="&lt;Group&gt;">
						<g id="&lt;Group&gt;">
							<path id="&lt;Path&gt;" class="s0" d="m712.6 527.6c0 0.3-28.9 0.6-64.5 0.6-35.7 0-64.6-0.3-64.6-0.6 0-0.2 28.9-0.5 64.6-0.5 35.6 0 64.5 0.3 64.5 0.5z"/>
						</g>
					</g>
				</g>
				<g id="&lt;Group&gt;">
					<g id="&lt;Group&gt;">
						<g id="&lt;Group&gt;">
							<path id="&lt;Path&gt;" class="s6" d="m657.8 489.5c0 0.2-28.9 0.5-64.6 0.5-35.6 0-64.5-0.3-64.5-0.5 0-0.3 28.9-0.6 64.5-0.6 35.7 0 64.6 0.3 64.6 0.6z"/>
						</g>
					</g>
				</g>
				<g id="&lt;Group&gt;">
					<g id="&lt;Group&gt;">
						<g id="&lt;Group&gt;">
							<path id="&lt;Path&gt;" class="s6" d="m746.9 565.8c0 0.3-28.9 0.6-64.5 0.6-35.7 0-64.6-0.3-64.6-0.6 0-0.2 28.9-0.5 64.6-0.5 35.6 0 64.5 0.3 64.5 0.5z"/>
						</g>
					</g>
				</g>
				<g id="&lt;Group&gt;">
					<g id="&lt;Group&gt;">
						<g id="&lt;Group&gt;">
							<path id="&lt;Path&gt;" class="s7" d="m729.1 508.6c0 0.2-44.9 0.5-100.2 0.5-55.3 0-100.2-0.3-100.2-0.5 0-0.3 44.9-0.6 100.2-0.6 55.3 0 100.2 0.3 100.2 0.6z"/>
						</g>
					</g>
				</g>
				<g id="&lt;Group&gt;">
					<g id="&lt;Group&gt;">
						<g id="&lt;Group&gt;">
							<path id="&lt;Path&gt;" class="s6" d="m376.7 451.3c0 0.2-10.5 0.5-23.4 0.5-13 0-23.5-0.3-23.5-0.5 0-0.3 10.5-0.6 23.5-0.6 12.9 0 23.4 0.3 23.4 0.6z"/>
						</g>
					</g>
				</g>
				<g id="&lt;Group&gt;">
					<g id="&lt;Group&gt;">
						<g id="&lt;Group&gt;">
							<path id="&lt;Path&gt;" class="s6" d="m376.7 680.4c0 0.3-10.5 0.6-23.4 0.6-13 0-23.5-0.3-23.5-0.6 0-0.3 10.5-0.5 23.5-0.5 12.9 0 23.4 0.2 23.4 0.5z"/>
						</g>
					</g>
				</g>
				<g id="&lt;Group&gt;">
					<g id="&lt;Group&gt;">
						<g id="&lt;Group&gt;">
							<path id="&lt;Path&gt;" class="s6" d="m399.8 527.6c0 0.3-10.4 0.6-23.4 0.6-12.9 0-23.4-0.3-23.4-0.6 0-0.2 10.5-0.5 23.4-0.5 13 0 23.4 0.3 23.4 0.5z"/>
						</g>
					</g>
				</g>
				<g id="&lt;Group&gt;">
					<g id="&lt;Group&gt;">
						<g id="&lt;Group&gt;">
							<path id="&lt;Path&gt;" class="s3" d="m775 527.6c0 0.3-10.5 0.6-23.4 0.6-13 0-23.4-0.3-23.4-0.6 0-0.2 10.4-0.5 23.4-0.5 12.9 0 23.4 0.3 23.4 0.5z"/>
						</g>
					</g>
				</g>
				<g id="&lt;Group&gt;">
					<g id="&lt;Group&gt;">
						<g id="&lt;Group&gt;">
							<path id="&lt;Path&gt;" class="s3" d="m441.8 603.9c0 0.3-19.6 0.5-43.8 0.5-24.1 0-43.7-0.2-43.7-0.5 0-0.3 19.6-0.5 43.7-0.5 24.2 0 43.8 0.2 43.8 0.5z"/>
						</g>
					</g>
				</g>
				<g id="&lt;Group&gt;">
					<g id="&lt;Group&gt;">
						<g id="&lt;Group&gt;">
							<path id="&lt;Path&gt;" class="s0" d="m543.1 603.9c0 0.3-19.6 0.5-43.8 0.5-24.2 0-43.8-0.2-43.8-0.5 0-0.3 19.6-0.5 43.8-0.5 24.2 0 43.8 0.2 43.8 0.5z"/>
						</g>
					</g>
				</g>
				<g id="&lt;Group&gt;">
					<g id="&lt;Group&gt;">
						<g id="&lt;Group&gt;">
							<path id="&lt;Path&gt;" class="s0" d="m504.4 623c0 0.3-28.9 0.5-64.5 0.5-35.7 0-64.6-0.2-64.6-0.5 0-0.3 28.9-0.5 64.6-0.5 35.6 0 64.5 0.2 64.5 0.5z"/>
						</g>
					</g>
				</g>
				<g id="&lt;Group&gt;">
					<g id="&lt;Group&gt;">
						<g id="&lt;Group&gt;">
							<path id="&lt;Path&gt;" class="s0" d="m504.4 642.1c0 0.3-28.9 0.5-64.5 0.5-35.7 0-64.6-0.2-64.6-0.5 0-0.3 28.9-0.5 64.6-0.5 35.6 0 64.5 0.2 64.5 0.5z"/>
						</g>
					</g>
				</g>
				<g id="&lt;Group&gt;">
					<g id="&lt;Group&gt;">
						<g id="&lt;Group&gt;">
							<path id="&lt;Path&gt;" class="s0" d="m554.9 661.2c0 0.3-28.9 0.5-64.5 0.5-35.7 0-64.6-0.2-64.6-0.5 0-0.3 28.9-0.5 64.6-0.5 35.6 0 64.5 0.2 64.5 0.5z"/>
						</g>
					</g>
				</g>
				<g id="&lt;Group&gt;">
					<g id="&lt;Group&gt;">
						<g id="&lt;Group&gt;">
							<path id="&lt;Path&gt;" class="s0" d="m712.6 661.2c0 0.3-28.9 0.5-64.5 0.5-35.7 0-64.6-0.2-64.6-0.5 0-0.3 28.9-0.5 64.6-0.5 35.6 0 64.5 0.2 64.5 0.5z"/>
						</g>
					</g>
				</g>
				<g id="&lt;Group&gt;">
					<g id="&lt;Group&gt;">
						<g id="&lt;Group&gt;">
							<path id="&lt;Path&gt;" class="s6" d="m657.8 623c0 0.3-28.9 0.5-64.6 0.5-35.6 0-64.5-0.2-64.5-0.5 0-0.3 28.9-0.5 64.5-0.5 35.7 0 64.6 0.2 64.6 0.5z"/>
						</g>
					</g>
				</g>
				<g id="&lt;Group&gt;">
					<g id="&lt;Group&gt;">
						<g id="&lt;Group&gt;">
							<path id="&lt;Path&gt;" class="s7" d="m729.1 642.1c0 0.3-44.9 0.5-100.2 0.5-55.3 0-100.2-0.2-100.2-0.5 0-0.3 44.9-0.5 100.2-0.5 55.3 0 100.2 0.2 100.2 0.5z"/>
						</g>
					</g>
				</g>
				<g id="&lt;Group&gt;">
					<g id="&lt;Group&gt;">
						<g id="&lt;Group&gt;">
							<path id="&lt;Path&gt;" class="s6" d="m399.8 661.2c0 0.3-10.4 0.5-23.4 0.5-12.9 0-23.4-0.2-23.4-0.5 0-0.3 10.5-0.5 23.4-0.5 13 0 23.4 0.2 23.4 0.5z"/>
						</g>
					</g>
				</g>
				<g id="&lt;Group&gt;">
					<g id="&lt;Group&gt;">
						<g id="&lt;Group&gt;">
							<path id="&lt;Path&gt;" class="s3" d="m775 661.2c0 0.3-10.5 0.5-23.4 0.5-13 0-23.4-0.2-23.4-0.5 0-0.3 10.4-0.5 23.4-0.5 12.9 0 23.4 0.2 23.4 0.5z"/>
						</g>
					</g>
				</g>
			</g>
		</g>
	</g>
	<g id="Floor">
		<g id="&lt;Group&gt;">
			<g id="&lt;Group&gt;">
				<g id="&lt;Group&gt;">
				</g>
			</g>
		</g>
	</g>
	<g id="Character 2">
		<g id="&lt;Group&gt;">
			<g id="&lt;Group&gt;">
				<g id="&lt;Group&gt;">
					<g id="&lt;Group&gt;">
						<path id="&lt;Path&gt;" class="s8" d="m986.7 659.2l20.2-12.4 16 34.7c1 3.9 4.1 6.8 8.1 7.7l40.1 13.7 14.5 17.9-14.5 0.5-53.4-10c-10.7-2-19.3-9.8-22.4-20.1l-7.9-25z"/>
					</g>
				</g>
			</g>
			<g id="&lt;Group&gt;">
				<g id="&lt;Group&gt;">
					<g id="&lt;Group&gt;">
						<path id="&lt;Path&gt;" class="s3" d="m985 513.7l-43 47.1c-0.2 2.6-2.3 5-4.9 5.4-2.5 0.5-5.4-0.9-6.5-3.3-0.5 2.5-3.8 3.5-6.1 2.4-2.3-1.1-3.6-3.5-4.6-5.8-2.4 2.2-6.2 2.5-9 0.9-2.7-1.6-4.2-5.2-3.5-8.3 0.3-0.9 0.6-1.8 0.6-2.8-0.1-1.4-1.1-2.5-1.8-3.7-1.5-2.4-2.1-5.3-1.4-8 0.6-2.7 2.6-5.1 5.2-6.1 1.6-0.6 3.3-0.7 4.8-1.3 2.1-1 3.5-2.9 4.4-4.9 1-2.1 1.5-4.3 2.2-6.4 2.2-6.3 6.6-11.6 12.1-15.3-1.9-1.2-3.6-2.7-4.9-4.5-2.5-3.6-3.3-8.4-1.6-12.4 1.7-3.9 6.1-6.8 10.4-6.1 3.8 0.6 6.7 3.6 8.8 6.8 2 3.3 3.4 7.2 3 11.1 4.3-0.4 29.4-2 35.8 15.2z"/>
					</g>
				</g>
				<g id="&lt;Group&gt;">
					<g id="&lt;Group&gt;">
						<g id="&lt;Group&gt;">
							<g id="&lt;Group&gt;">
								<g id="&lt;Group&gt;">
									<g id="&lt;Group&gt;">
										<g id="&lt;Group&gt;">
											<g id="&lt;Group&gt;">
												<g id="&lt;Group&gt;">
													<g id="&lt;Group&gt;">
														<g id="&lt;Group&gt;">
															<g id="&lt;Group&gt;">
																<g id="&lt;Group&gt;">
																	<path id="&lt;Path&gt;" class="s8" d="m970.3 507.6c9.1-0.9 15.2 10.3 15.8 19.4 0.6 10.2 1 22.6-0.2 30.2-2.4 15.2-14.1 17.2-14.1 17.2 0-0.1 0 5-0.2 18.6-0.2 8.1 2.6 17.9-6.7 18.1-9.1 0.2-24.7-9.9-24.8-18.5l-3-72.4c-0.1-2.7 2-5.1 4.8-5.4z"/>
																</g>
															</g>
														</g>
													</g>
												</g>
											</g>
											<g id="&lt;Group&gt;">
												<g id="&lt;Group&gt;">
													<g id="&lt;Group&gt;">
														<g id="&lt;Group&gt;">
															<g id="&lt;Group&gt;">
																<g id="&lt;Group&gt;">
																	<g id="&lt;Group&gt;">
																		<path id="&lt;Path&gt;" class="s2" d="m982.1 536.9c0.1 1-0.8 1.9-1.9 2-1 0-1.9-0.8-2-1.8 0-1 0.8-1.9 1.9-2 1.1 0 2 0.8 2 1.8z"/>
																	</g>
																</g>
															</g>
														</g>
													</g>
												</g>
												<g id="&lt;Group&gt;">
													<g id="&lt;Group&gt;">
														<g id="&lt;Group&gt;">
															<g id="&lt;Group&gt;">
																<g id="&lt;Group&gt;">
																	<g id="&lt;Group&gt;">
																		<g id="&lt;Group&gt;">
																			<path id="&lt;Path&gt;" class="s2" d="m983.4 533.5c-0.3 0.2-1.7-0.9-3.8-0.9-2.1 0-3.7 1.1-3.9 0.8-0.1-0.1 0.1-0.5 0.8-1 0.6-0.5 1.8-1 3.1-1 1.3 0 2.4 0.5 3 1 0.7 0.5 0.9 1 0.8 1.1z"/>
																		</g>
																	</g>
																</g>
															</g>
														</g>
													</g>
												</g>
											</g>
											<g id="&lt;Group&gt;">
												<g id="&lt;Group&gt;">
													<g id="&lt;Group&gt;">
														<g id="&lt;Group&gt;">
															<g id="&lt;Group&gt;">
																<g id="&lt;Group&gt;">
																	<g id="&lt;Group&gt;">
																		<path id="&lt;Path&gt;" class="s2" d="m961.6 536.9c0 1-0.9 1.9-1.9 2-1.1 0-2-0.8-2-1.8-0.1-1 0.8-1.9 1.8-2 1.1 0 2 0.8 2.1 1.8z"/>
																	</g>
																</g>
															</g>
														</g>
													</g>
												</g>
												<g id="&lt;Group&gt;">
													<g id="&lt;Group&gt;">
														<g id="&lt;Group&gt;">
															<g id="&lt;Group&gt;">
																<g id="&lt;Group&gt;">
																	<g id="&lt;Group&gt;">
																		<g id="&lt;Group&gt;">
																			<path id="&lt;Path&gt;" class="s2" d="m962.7 533.9c-0.2 0.2-1.7-0.9-3.8-0.9-2.1 0-3.7 1.1-3.9 0.8-0.1-0.1 0.1-0.5 0.8-1 0.7-0.5 1.8-1 3.1-1 1.3 0 2.4 0.5 3.1 1 0.6 0.5 0.8 1 0.7 1.1z"/>
																		</g>
																	</g>
																</g>
															</g>
														</g>
													</g>
												</g>
											</g>
											<g id="&lt;Group&gt;">
												<g id="&lt;Group&gt;">
													<g id="&lt;Group&gt;">
														<g id="&lt;Group&gt;">
															<g id="&lt;Group&gt;">
																<g id="&lt;Group&gt;">
																	<g id="&lt;Group&gt;">
																		<path id="&lt;Path&gt;" class="s2" d="m970.3 549.5c0-0.1 1.3-0.4 3.5-0.6 0.5-0.1 1-0.2 1.1-0.6 0.1-0.4-0.1-0.9-0.4-1.6q-0.7-1.9-1.6-4.1c-2.2-5.8-3.8-10.6-3.5-10.7 0.2 0 2.2 4.6 4.4 10.4q0.8 2.2 1.5 4.1c0.2 0.7 0.6 1.4 0.3 2.2-0.1 0.4-0.5 0.6-0.9 0.7-0.3 0.1-0.6 0.2-0.9 0.2-2.1 0.1-3.5 0.1-3.5 0z"/>
																	</g>
																</g>
															</g>
														</g>
													</g>
												</g>
											</g>
											<g id="&lt;Group&gt;">
												<g id="&lt;Group&gt;">
													<g id="&lt;Group&gt;">
														<g id="&lt;Group&gt;">
															<g id="&lt;Group&gt;">
																<g id="&lt;Group&gt;">
																	<path id="&lt;Path&gt;" class="s9" d="m971.6 578c-15.3 1.4-20.2-9.1-20.2-9.1 10.1 6.1 20.4 5.5 20.4 5.5z"/>
																</g>
															</g>
														</g>
													</g>
												</g>
											</g>
											<g id="&lt;Group&gt;">
												<g id="&lt;Group&gt;">
													<g id="&lt;Group&gt;">
														<g id="&lt;Group&gt;">
															<g id="&lt;Group&gt;">
																<g id="&lt;Group&gt;">
																	<path id="&lt;Path&gt;" class="s9" d="m969.5 554.6c0.2 0.2 0.2 0.5 0 0.8-0.1 0.2-0.3 0.4-0.6 0.6-0.8 0.7-1.6 1.3-2.6 1.6-1.1 0.3-2.2 0.1-2.8-0.7-0.5-0.7-0.4-1.7 0.2-2.5 0.5-0.7 1.4-1.2 2.4-1.3 1.3-0.1 2.6 0.4 3.3 1.4"/>
																</g>
															</g>
														</g>
													</g>
												</g>
											</g>
											<g id="&lt;Group&gt;">
												<g id="&lt;Group&gt;">
													<g id="&lt;Group&gt;">
														<g id="&lt;Group&gt;">
															<g id="&lt;Group&gt;">
																<g id="&lt;Group&gt;">
																	<g id="&lt;Group&gt;">
																		<path id="&lt;Path&gt;" class="s2" d="m964.1 550.9c0.4 0 0.4 2.3 2.3 3.9 2 1.6 4.4 1.4 4.5 1.7 0 0.1-0.6 0.4-1.6 0.5-1 0-2.5-0.3-3.7-1.3-1.2-1-1.7-2.3-1.8-3.3-0.1-0.9 0.2-1.5 0.3-1.5z"/>
																	</g>
																</g>
															</g>
														</g>
													</g>
												</g>
											</g>
										</g>
									</g>
								</g>
								<g id="&lt;Group&gt;">
									<g id="&lt;Group&gt;">
										<g id="&lt;Group&gt;">
											<g id="&lt;Group&gt;">
												<g id="&lt;Group&gt;">
													<g id="&lt;Group&gt;">
														<path id="&lt;Path&gt;" class="s3" d="m963.7 530.2c-0.3 0.6-2.4 0.3-4.8 0.6-2.5 0.2-4.5 1-4.8 0.4-0.2-0.2 0.2-0.7 1-1.3 0.8-0.5 2.1-1.1 3.5-1.2 1.5-0.2 2.9 0 3.8 0.4 0.9 0.4 1.3 0.8 1.3 1.1z"/>
													</g>
												</g>
											</g>
										</g>
									</g>
								</g>
								<g id="&lt;Group&gt;">
									<g id="&lt;Group&gt;">
										<g id="&lt;Group&gt;">
											<g id="&lt;Group&gt;">
												<g id="&lt;Group&gt;">
													<g id="&lt;Group&gt;">
														<path id="&lt;Path&gt;" class="s3" d="m982.6 527.4c-0.4 0.5-1.8 0-3.6 0-1.7-0.1-3.2 0.3-3.5-0.2-0.2-0.3 0.1-0.7 0.7-1.2 0.7-0.4 1.7-0.8 2.9-0.8 1.2 0.1 2.2 0.5 2.9 1 0.6 0.5 0.8 1 0.6 1.2z"/>
													</g>
												</g>
											</g>
										</g>
									</g>
								</g>
							</g>
						</g>
						<g id="&lt;Group&gt;">
							<g id="&lt;Group&gt;">
								<g id="&lt;Group&gt;">
									<path id="&lt;Path&gt;" class="s8" d="m939.2 552.5c-3.2 0.4-6.5-1.7-7.6-4.7-1-3.1 0.4-6.8 3.2-8.4 1.2-0.7 2.8-1 4-0.2"/>
								</g>
							</g>
						</g>
						<g id="&lt;Group&gt;">
							<g id="&lt;Group&gt;">
								<g id="&lt;Group&gt;">
									<path id="&lt;Path&gt;" class="s3" d="m962.7 502.5c5.6 0.2 9.8 1.9 14.7 4.6 4.9 2.7 8.9 7.1 10.4 12.4 0.4 1.1 0.5 2.4-0.1 3.4-0.8 1.4-2.8 1.6-4.2 0.9-1.4-0.6-2.4-1.9-3.4-3.1-0.7 2.8-3.5 4.9-6.4 4.9-2.8 0-5.6-2.2-6.2-5 0 2.9-3 5.3-5.9 5.2-2.9-0.1-5.5-2.4-6.5-5.1-0.5 2.6-1.1 5.3-2.7 7.4-1.5 2.2-4.3 3.7-6.9 2.8 0.4 2.3 0.7 4.7-0.1 6.9-0.8 2.1-3.2 3.8-5.3 3.1-2.2-0.7-3-3.2-3.5-5.4-0.9-4.2-1.7-8.5-1.6-12.8 0.1-4.3 1.3-8.7 3.9-12.1 2.8-3.5 6.9-5.7 11.2-6.8 4.3-1.2 8.8-1.3 13.3-1.3"/>
								</g>
							</g>
						</g>
						<g id="&lt;Group&gt;">
							<g id="&lt;Group&gt;">
								<g id="&lt;Group&gt;">
									<g id="&lt;Group&gt;">
										<path id="&lt;Path&gt;" class="s9" d="m936.2 548.3c-1.1-0.3-2-1.7-1.9-3.2 0-0.8 0.3-1.5 0.7-2 0.5-0.5 1-0.8 1.5-0.9 1-0.3 1.6 0.2 1.6 0.2-0.1 0.1-0.6 0-1.4 0.3-0.8 0.3-1.6 1.2-1.6 2.5-0.1 1.2 0.6 2.3 1.3 2.6 0.7 0.3 1.3 0.1 1.3 0.2 0.1 0-0.5 0.6-1.5 0.3z"/>
									</g>
								</g>
							</g>
						</g>
						<g id="&lt;Group&gt;">
							<g id="&lt;Group&gt;">
								<g id="&lt;Group&gt;">
									<g id="&lt;Group&gt;">
										<path id="&lt;Path&gt;" class="s2" d="m929.7 550c-1.3 0.8-3.2 2.2-4.6 4.7-1.4 2.3-1.7 6 0.1 9.3 1.7 3.2 5.3 6 9.6 6 4.3 0.1 8-2.7 9.6-5.9 0.9-1.6 1.2-3.4 1.1-5-0.1-1.7-0.6-3.1-1.3-4.4-1.3-2.4-3.3-3.9-4.7-4.6-1.4-0.6-2.3-0.8-2.3-0.8q0-0.1 0.7 0c0.4 0.1 1 0.2 1.8 0.6 1.4 0.6 3.5 2 5 4.6 0.7 1.2 1.3 2.8 1.5 4.5 0.1 1.7-0.2 3.7-1.1 5.4-1.7 3.5-5.7 6.4-10.3 6.4-2.3 0-4.5-0.8-6.2-2-1.8-1.2-3.2-2.8-4.1-4.5-0.9-1.7-1.3-3.6-1.2-5.3 0-1.8 0.6-3.4 1.3-4.6 1.5-2.6 3.6-4 5-4.7q1.1-0.6 1.7-0.8 0.6-0.2 0.6-0.1c0 0-0.8 0.3-2.2 1.2z"/>
									</g>
								</g>
							</g>
						</g>
					</g>
					<g id="&lt;Group&gt;">
						<g id="&lt;Group&gt;">
							<g id="&lt;Group&gt;">
								<path id="&lt;Path&gt;" class="s0" d="m944.5 501.5c-0.2 0.1-0.5-1.3-1.4-3.3-1-2-2.7-4.6-5.3-6.6-2.6-2.1-5.5-3.2-7.7-3.6-2.1-0.5-3.5-0.4-3.5-0.6 0-0.1 1.4-0.4 3.7-0.1 2.2 0.2 5.4 1.2 8.2 3.4 2.8 2.2 4.5 5.1 5.2 7.2 0.9 2.2 0.9 3.6 0.8 3.6z"/>
							</g>
						</g>
					</g>
					<g id="&lt;Group&gt;">
						<g id="&lt;Group&gt;">
							<g id="&lt;Group&gt;">
								<path id="&lt;Path&gt;" class="s0" d="m909.5 559.4c-0.1 0-0.3-0.1-0.6-0.5-0.3-0.4-0.5-1.1-0.3-2.1 0.1-0.9 0.8-2 1.8-2.7 1.1-0.8 2.5-1.4 3.8-2.1 1.4-0.7 2.6-2 2.7-3.8 0.1-1.7-0.6-3.6-1.1-5.7-0.2-1.1-0.4-2.2-0.3-3.4 0.1-1.2 0.6-2.4 1.4-3.3 1.7-1.9 4.2-2.7 6.5-3.4 2.2-0.7 4.5-1.6 5.7-3.3 1.3-1.7 1.2-4 1-6-0.3-2.1-0.6-4.1-0.4-6.1 0.1-1.9 0.6-3.6 1.2-5.1 1.3-3 3.2-5 4.5-6.1 0.7-0.6 1.3-1 1.7-1.2q0.7-0.4 0.7-0.3c0 0-0.8 0.6-2.1 1.8-1.3 1.2-2.9 3.2-4.1 6.1-0.5 1.4-1 3.1-1.1 4.9-0.1 1.8 0.3 3.8 0.5 5.9 0.3 2 0.4 4.6-1 6.7-1.5 2.1-4 3-6.3 3.7-2.3 0.7-4.6 1.5-6 3.1-1.5 1.5-1.4 3.8-0.9 5.8 0.4 2 1.1 4 0.9 6-0.1 1-0.5 1.9-1.1 2.7-0.5 0.7-1.3 1.2-2 1.6-1.5 0.8-2.8 1.2-3.8 1.9-1 0.7-1.7 1.6-1.8 2.4-0.4 1.7 0.6 2.5 0.5 2.5z"/>
							</g>
						</g>
					</g>
					<g id="&lt;Group&gt;">
						<g id="&lt;Group&gt;">
							<g id="&lt;Group&gt;">
								<path id="&lt;Path&gt;" class="s0" d="m963.8 520.1c-0.2 0-0.3-1.6-1.1-4.1-0.8-2.4-2.4-5.7-5.2-8.4-2.7-2.8-6-4.4-8.4-5.2-2.5-0.8-4.1-0.9-4.1-1.1 0-0.1 1.7-0.2 4.3 0.4 2.5 0.7 6 2.2 9 5.1 2.9 2.9 4.5 6.4 5.1 9 0.6 2.6 0.5 4.3 0.4 4.3z"/>
							</g>
						</g>
					</g>
					<g id="&lt;Group&gt;">
						<g id="&lt;Group&gt;">
							<g id="&lt;Group&gt;">
								<path id="&lt;Path&gt;" class="s0" d="m976.1 513.4c-0.2 0.1-0.7-2-2.7-4.7-1.9-2.7-5.6-5.8-10.4-7.3-4.9-1.5-9.6-1.4-12.9-1-3.4 0.3-5.4 0.8-5.4 0.6-0.1-0.1 1.9-0.8 5.3-1.3 3.3-0.6 8.2-0.9 13.3 0.7 5.1 1.6 8.9 5 10.7 7.9 1 1.4 1.5 2.7 1.8 3.6 0.3 0.9 0.3 1.5 0.3 1.5z"/>
							</g>
						</g>
					</g>
					<g id="&lt;Group&gt;">
						<g id="&lt;Group&gt;">
							<g id="&lt;Group&gt;">
								<path id="&lt;Path&gt;" class="s2" d="m949.5 497.7c0.1 0.1-0.4 1-1.6 2.2-1.2 1.2-3.1 2.6-5.5 3.5-2.5 0.9-4.9 1-6.5 0.8-1.7-0.2-2.7-0.6-2.7-0.7 0.1-0.3 4.2 0.6 8.8-1.1 4.7-1.6 7.2-4.9 7.5-4.7z"/>
							</g>
						</g>
					</g>
				</g>
			</g>
			<g id="&lt;Group&gt;">
				<g id="&lt;Group&gt;">
					<g id="&lt;Group&gt;">
						<g id="&lt;Group&gt;">
							<g id="&lt;Group&gt;">
								<path id="&lt;Path&gt;" class="s2" d="m960.2 779.2c-36.6-12.1-11.5-60.5-11.5-60.5l160 15c12.9-0.1 23.3 10.3 23.3 23.2 0 12.8-10.3 23.1-23.1 23.1z"/>
							</g>
						</g>
					</g>
				</g>
				<g id="&lt;Group&gt;">
					<g id="&lt;Group&gt;">
						<g id="&lt;Group&gt;">
							<g id="&lt;Group&gt;">
								<path id="&lt;Path&gt;" class="s2" d="m922.7 779.2c-35.7-12-11.1-60.5-11.1-60.5l156 14.7c15.3 0.2 22.7 7.5 22.7 23.1 0 12.8-4.7 23.5-22.6 23.2z"/>
							</g>
						</g>
					</g>
				</g>
				<g id="&lt;Group&gt;">
					<g id="&lt;Group&gt;">
						<g id="&lt;Group&gt;">
							<g id="&lt;Group&gt;">
								<g id="&lt;Group&gt;">
									<g id="&lt;Group&gt;">
										<path id="&lt;Path&gt;" class="s7" d="m958.9 726.9q0-0.1 0.5-0.1 0.5 0.1 1.3 0.1 1.8 0 5 0.2c4.4 0.2 10.6 0.5 18.3 0.9 15.6 0.8 37 2 60.6 3.3 2.9 0.1 5.8 0.4 8.7 0.4q4.4 0.1 8.5 0.4 4.2 0.2 8.3 0.6c2.6 0.4 5.3 0.6 7.8 1.6 2.4 1 4.6 2.4 6.5 4.2 1.8 1.8 3.1 4 3.9 6.3 0.8 2.3 1.3 4.6 1.6 6.8q0.4 3.4 0.4 6.5c0 4.1-0.7 7.9-2 10.9-1.3 3-3.2 5.1-4.9 6.6-1.7 1.4-3.3 2.1-4.4 2.5-1.1 0.3-1.1 0.2-0.1-0.2 1.1-0.4 2.7-1.1 4.3-2.6 1.7-1.4 3.4-3.6 4.7-6.5 1.2-3 1.9-6.6 1.9-10.7q-0.1-3.1-0.5-6.4c-0.3-2.2-0.8-4.4-1.6-6.6-0.8-2.2-2.1-4.3-3.8-6.1-1.8-1.7-3.9-3-6.3-3.9-2.4-1-4.9-1.3-7.6-1.6q-4-0.4-8.2-0.6-4.2-0.2-8.5-0.3c-2.9-0.1-5.8-0.3-8.8-0.5-23.6-1.3-45-2.6-60.5-3.5-7.7-0.5-14-0.9-18.4-1.2q-3.1-0.2-4.9-0.4-0.8 0-1.3-0.1-0.5 0-0.5 0z"/>
									</g>
								</g>
							</g>
						</g>
					</g>
				</g>
			</g>
			<g id="&lt;Group&gt;">
				<g id="&lt;Group&gt;">
					<g id="&lt;Group&gt;">
						<path id="&lt;Path&gt;" class="s3" d="m1015.7 779.5l-93.2 0.2c0 0-12.1-3.4-19.1-18.7-7.1-15.2 11.6-54.1 11.6-54.1l5.3-16.5-9.5-50.3c-0.9-6.6-1.5-20.4 0.2-26.9 4.4-16.8 16.3-21.8 28.5-25.1 0.2-1.1-1.9-7.4-0.1-8.1 1.9-0.7 36.1 0.4 35.1 2.2-0.5 0.8-0.6 3.3-0.5 6 13.6 4.6 18.9 18.7 21.5 24.1l14.4 36.1-18.1 7.6 0.8 37.9 9 29.8 12.8 6.3z"/>
					</g>
				</g>
				<g id="&lt;Group&gt;">
					<g id="&lt;Group&gt;">
						<g id="&lt;Group&gt;" style="opacity: .3">
							<g id="&lt;Group&gt;">
								<g id="&lt;Group&gt;">
									<g id="&lt;Group&gt;">
										<g id="&lt;Group&gt;">
											<path id="&lt;Path&gt;" class="s5" d="m929.8 667.4l9.3 32.6 35.3 19.9c-7.1 0.8-14.3 0.8-21.2-1.1-6.9-1.8-13.4-5.4-18-10.9-3.3-4-5.5-8.9-7.4-13.7-2.7-6.6-5.2-16.9-6.9-23.8z"/>
										</g>
									</g>
								</g>
							</g>
						</g>
						<g id="&lt;Group&gt;">
							<g id="&lt;Group&gt;">
								<g id="&lt;Group&gt;">
									<g id="&lt;Group&gt;">
										<g id="&lt;Group&gt;">
											<path id="&lt;Path&gt;" class="s2" d="m992.6 692.9c0 0-0.1-1-0.2-2.7-0.1-1.9-0.2-4.4-0.4-7.3-0.3-6.2-0.6-14.8-0.9-24.3-0.2-9.5-0.5-18.1-0.6-24.3 0-3 0-5.4 0-7.3 0-1.8 0-2.7 0-2.7 0.1 0 0.2 0.9 0.3 2.7 0.1 1.8 0.2 4.3 0.3 7.3 0.3 6.2 0.6 14.8 0.9 24.3 0.3 9.5 0.5 18 0.6 24.2 0 3 0.1 5.5 0.1 7.4 0 1.7 0 2.7-0.1 2.7z"/>
										</g>
									</g>
								</g>
							</g>
						</g>
					</g>
					<g id="&lt;Group&gt;">
						<g id="&lt;Group&gt;">
							<g id="&lt;Group&gt;">
								<g id="&lt;Group&gt;">
									<path id="&lt;Path&gt;" class="s2" d="m958.1 657.4q0 0-0.6 0.3-0.8 0.2-2 0.7-2.8 1-7.7 2.7c-6.8 2.3-16.4 5.7-28.1 9.7l-0.5 0.2-0.1-0.5c-1.9-10.2-4.1-22.2-6.5-35.1v-0.1c-0.4-6.4-1.7-13-1.2-20 0.2-1.8 0.8-3.4 1.4-4.9 0.6-1.6 1.4-3.1 2.3-4.5 1.9-2.7 4.6-4.9 7.4-6.3 5.9-3 13-2 17.6 1.9 2.2 2.1 3.5 4.7 4.7 7.2 1.1 2.5 2 5 2.7 7.5 1.5 4.9 2.7 9.6 3.8 13.9 2.1 8.4 3.8 15.2 5.1 20q0.8 3.5 1.3 5.5 0.2 0.8 0.3 1.3 0.1 0.5 0.1 0.5 0 0-0.2-0.5-0.1-0.6-0.4-1.4-0.5-2-1.5-5.5c-1.3-4.8-3.2-11.5-5.5-19.9-1.1-4.1-2.3-8.8-3.8-13.6-0.8-2.5-1.6-5-2.7-7.4-1.2-2.5-2.5-5-4.5-6.9-4.3-3.6-11.1-4.5-16.5-1.7-2.8 1.4-5.2 3.4-7 6-0.9 1.3-1.6 2.8-2.2 4.2-0.6 1.6-1.2 3.1-1.3 4.7-0.5 6.7 0.7 13.4 1.1 19.8 2.3 12.9 4.5 24.9 6.4 35.1l-0.6-0.3c11.6-3.8 21.2-7 28-9.2q5-1.6 7.9-2.5 1.3-0.4 2.1-0.7 0.7-0.2 0.7-0.2z"/>
								</g>
							</g>
						</g>
						<g id="&lt;Group&gt;">
							<g id="&lt;Group&gt;">
								<g id="&lt;Group&gt;">
									<path id="&lt;Path&gt;" class="s2" d="m930.1 666.7c-0.3 0.1-1-1.5-1.7-3.5-0.6-2-0.9-3.7-0.7-3.7 0.3-0.1 1.1 1.4 1.7 3.4 0.6 2 0.9 3.7 0.7 3.8z"/>
								</g>
							</g>
						</g>
						<g id="&lt;Group&gt;">
							<g id="&lt;Group&gt;">
								<g id="&lt;Group&gt;">
									<path id="&lt;Path&gt;" class="s2" d="m939.2 664.1c-0.2 0.1-0.9-1.4-1.3-3.4-0.5-1.9-0.7-3.5-0.4-3.6 0.3 0 0.9 1.5 1.4 3.4 0.5 1.9 0.6 3.5 0.3 3.6z"/>
								</g>
							</g>
						</g>
						<g id="&lt;Group&gt;">
							<g id="&lt;Group&gt;">
								<g id="&lt;Group&gt;">
									<path id="&lt;Path&gt;" class="s2" d="m948.5 660.8c-0.3 0.1-0.9-1.2-1.4-2.8-0.5-1.6-0.6-2.9-0.3-3 0.2-0.1 0.8 1.1 1.3 2.7 0.5 1.6 0.7 3 0.4 3.1z"/>
								</g>
							</g>
						</g>
					</g>
					<g id="&lt;Group&gt;">
						<g id="&lt;Group&gt;">
							<g id="&lt;Group&gt;">
								<g id="&lt;Group&gt;">
									<path id="&lt;Path&gt;" class="s2" d="m998.6 653.1c-0.3 0.2-1.3-1.1-2-3.1-0.8-1.9-0.9-3.6-0.6-3.6 0.3-0.1 0.8 1.4 1.5 3.3 0.7 1.8 1.3 3.3 1.1 3.4z"/>
								</g>
							</g>
						</g>
						<g id="&lt;Group&gt;">
							<g id="&lt;Group&gt;">
								<g id="&lt;Group&gt;">
									<path id="&lt;Path&gt;" class="s2" d="m1005.5 649.2c-0.2 0.1-1.1-1-1.8-2.6-0.8-1.5-1.2-2.9-1-3 0.3-0.1 1.1 1 1.9 2.5 0.8 1.6 1.2 3 0.9 3.1z"/>
								</g>
							</g>
						</g>
					</g>
					<g id="&lt;Group&gt;">
						<g id="&lt;Group&gt;">
							<g id="&lt;Group&gt;">
								<g id="&lt;Group&gt;">
									<path id="&lt;Path&gt;" class="s2" d="m944.7 589.6c0.1 0 0.2 0.3 0.2 0.9h-0.5c-0.3-1-0.5-2.8-0.7-4.8-0.2-3.1-0.2-5.7 0.1-5.7 0.3 0 0.7 2.5 1 5.6 0.1 2.1 0.2 3.8 0.1 4.8h-0.5c0.1-0.5 0.2-0.8 0.3-0.8z"/>
								</g>
							</g>
						</g>
						<g id="&lt;Group&gt;">
							<g id="&lt;Group&gt;">
								<g id="&lt;Group&gt;">
									<path id="&lt;Path&gt;" class="s2" d="m953.1 589.6c-0.3 0-0.7-2.1-0.9-4.7-0.2-2.5-0.1-4.6 0.2-4.7 0.3 0 0.6 2.1 0.8 4.7 0.2 2.6 0.2 4.7-0.1 4.7z"/>
								</g>
							</g>
						</g>
						<g id="&lt;Group&gt;">
							<g id="&lt;Group&gt;">
								<g id="&lt;Group&gt;">
									<path id="&lt;Path&gt;" class="s2" d="m961.8 591.5c-0.3 0-0.6-2.5-0.6-5.6-0.1-3.1 0.1-5.7 0.4-5.7 0.3 0 0.6 2.5 0.6 5.6 0.1 3.1-0.1 5.7-0.4 5.7z"/>
								</g>
							</g>
						</g>
						<g id="&lt;Group&gt;">
							<g id="&lt;Group&gt;">
								<g id="&lt;Group&gt;">
									<path id="&lt;Path&gt;" class="s2" d="m968.9 590.3c-0.3 0-0.5-2.2-0.5-4.8 0-2.6 0.2-4.8 0.5-4.8 0.3 0 0.5 2.2 0.5 4.8 0 2.6-0.2 4.8-0.5 4.8z"/>
								</g>
							</g>
						</g>
					</g>
				</g>
				<g id="&lt;Group&gt;">
					<g id="&lt;Group&gt;">
						<g id="&lt;Group&gt;">
							<path id="&lt;Path&gt;" class="s2" d="m1015 731.1c0 0.3-17.4-0.7-38.8-2.1-21.4-1.5-38.7-2.9-38.7-3.2 0-0.3 17.4 0.7 38.8 2.1 21.4 1.5 38.7 2.9 38.7 3.2z"/>
						</g>
					</g>
				</g>
			</g>
			<g id="&lt;Group&gt;">
				<g id="&lt;Group&gt;">
					<g id="&lt;Group&gt;">
						<g id="&lt;Group&gt;">
							<path id="&lt;Path&gt;" class="s8" d="m953.7 659.1l7.5 28.1c1 3.9 4.2 6.9 8.1 7.8l49.7 19.6 4.9 12.4-14.5 0.5-53.3-10.1c-10.7-2.1-19.4-9.9-22.5-20.4l-8.5-27.9z"/>
						</g>
					</g>
				</g>
				<g id="&lt;Group&gt;">
					<g id="&lt;Group&gt;">
						<g id="&lt;Group&gt;">
							<g id="&lt;Group&gt;">
								<g id="&lt;Group&gt;">
									<path id="&lt;Path&gt;" class="s7" d="m972.2 727.9l0.5-3.5 40.9-1.6 20.1-50.7 76.6 5.2-25.8 56.3z"/>
								</g>
							</g>
						</g>
					</g>
					<g id="&lt;Group&gt;">
						<g id="&lt;Group&gt;">
							<g id="&lt;Group&gt;">
								<g id="&lt;Group&gt;">
									<path id="&lt;Path&gt;" class="s4" d="m1063.9 705c-1.2 1.9-3.7 2.4-5.6 1.2-1.9-1.2-2.4-3.6-1.2-5.5 1.2-1.9 3.6-2.4 5.5-1.2 1.9 1.1 2.4 3.6 1.3 5.5z"/>
								</g>
							</g>
						</g>
					</g>
				</g>
			</g>
		</g>
	</g>
	<g id="Character 1">
		<g id="&lt;Group&gt;">
			<g id="&lt;Group&gt;">
				<g id="&lt;Group&gt;">
					<g id="&lt;Group&gt;">
						<g id="&lt;Group&gt;">
							<g id="&lt;Group&gt;">
								<g id="&lt;Group&gt;">
									<g id="&lt;Group&gt;">
										<path id="&lt;Path&gt;" class="s2" d="m262.7 364.6c-13.2 0-23.9-10.7-23.9-23.9 0-13.2 10.8-23.9 24-23.9l169.4-15.5c0 0 17.2 50.4-16.2 62.5z"/>
									</g>
								</g>
							</g>
						</g>
					</g>
					<g id="&lt;Group&gt;">
						<g id="&lt;Group&gt;">
							<g id="&lt;Group&gt;">
								<g id="&lt;Group&gt;">
									<g id="&lt;Group&gt;">
										<g id="&lt;Group&gt;">
											<g id="&lt;Group&gt;">
												<g id="&lt;Group&gt;">
													<g id="&lt;Group&gt;">
														<g id="&lt;Group&gt;">
															<g id="&lt;Group&gt;">
																<g id="&lt;Group&gt;">
																	<path id="&lt;Path&gt;" class="s3" d="m197.9 503.2l-0.4-16.8 32.2-11.5 1.4 23.4-1.8 0.9c-8.1 3.8-41.4 18.9-47.7 19.4-6.9 0.7 16.3-15.4 16.3-15.4z"/>
																</g>
															</g>
														</g>
													</g>
												</g>
											</g>
										</g>
									</g>
									<g id="&lt;Group&gt;" style="opacity: .4">
										<g id="&lt;Group&gt;">
											<g id="&lt;Group&gt;">
												<g id="&lt;Group&gt;">
													<g id="&lt;Group&gt;">
														<g id="&lt;Group&gt;">
															<g id="&lt;Group&gt;">
																<path id="&lt;Path&gt;" class="s4" d="m191 514.3l39.8-16.6 0.3 0.6c-14.6 7.5-48.8 21.4-50.5 20.4-1.8-1 6.1-7.2 6.1-7.2 1.8-0.7 4.3 2.8 4.3 2.8z"/>
															</g>
														</g>
													</g>
												</g>
											</g>
										</g>
									</g>
									<g id="&lt;Group&gt;">
										<g id="&lt;Group&gt;">
											<g id="&lt;Group&gt;">
												<g id="&lt;Group&gt;">
													<g id="&lt;Group&gt;">
														<g id="&lt;Group&gt;">
															<g id="&lt;Group&gt;">
																<g id="&lt;Group&gt;">
																	<path id="&lt;Path&gt;" class="s2" d="m231.2 497.5q0 0-0.5 0.2-0.6 0.3-1.4 0.7-2.2 1-5.4 2.5c-4.5 2-10.8 4.7-17.8 7.6-7.1 2.9-13.5 5.3-18.2 7q-3.2 1.2-5.5 2-0.8 0.3-1.5 0.6-0.5 0.1-0.6 0.1 0 0 0.6-0.2 0.6-0.3 1.4-0.6 2.3-0.9 5.5-2.1c4.7-1.8 11.1-4.3 18.1-7.2 7-2.8 13.3-5.5 17.9-7.5q3.2-1.4 5.4-2.3 0.8-0.4 1.5-0.6 0.5-0.3 0.5-0.2z"/>
																</g>
															</g>
														</g>
													</g>
												</g>
											</g>
										</g>
									</g>
									<g id="&lt;Group&gt;">
										<g id="&lt;Group&gt;">
											<g id="&lt;Group&gt;">
												<g id="&lt;Group&gt;">
													<g id="&lt;Group&gt;">
														<g id="&lt;Group&gt;">
															<g id="&lt;Group&gt;">
																<g id="&lt;Group&gt;">
																	<path id="&lt;Path&gt;" class="s2" d="m191.2 514.7c-0.2 0.1-0.8-1.2-2.1-2.2-1.4-1-2.8-1.2-2.7-1.3 0-0.1 1.5 0 2.9 1 1.5 1.1 1.9 2.5 1.9 2.5z"/>
																</g>
															</g>
														</g>
													</g>
												</g>
											</g>
										</g>
									</g>
									<g id="&lt;Group&gt;">
										<g id="&lt;Group&gt;">
											<g id="&lt;Group&gt;">
												<g id="&lt;Group&gt;">
													<g id="&lt;Group&gt;">
														<g id="&lt;Group&gt;">
															<g id="&lt;Group&gt;">
																<g id="&lt;Group&gt;">
																	<path id="&lt;Path&gt;" class="s2" d="m198.2 506.6c-0.1 0.1-0.7-0.2-1.4-0.7-0.8-0.5-1.3-1-1.2-1.1 0-0.1 0.7 0.2 1.4 0.8 0.7 0.5 1.2 0.9 1.2 1z"/>
																</g>
															</g>
														</g>
													</g>
												</g>
											</g>
										</g>
									</g>
									<g id="&lt;Group&gt;">
										<g id="&lt;Group&gt;">
											<g id="&lt;Group&gt;">
												<g id="&lt;Group&gt;">
													<g id="&lt;Group&gt;">
														<g id="&lt;Group&gt;">
															<g id="&lt;Group&gt;">
																<g id="&lt;Group&gt;">
																	<path id="&lt;Path&gt;" class="s2" d="m200.1 504.4c-0.1 0.1-0.7-0.1-1.4-0.3-0.7-0.3-1.2-0.6-1.2-0.7 0.1-0.1 0.7 0.1 1.4 0.3 0.7 0.3 1.2 0.6 1.2 0.7z"/>
																</g>
															</g>
														</g>
													</g>
												</g>
											</g>
										</g>
									</g>
									<g id="&lt;Group&gt;">
										<g id="&lt;Group&gt;">
											<g id="&lt;Group&gt;">
												<g id="&lt;Group&gt;">
													<g id="&lt;Group&gt;">
														<g id="&lt;Group&gt;">
															<g id="&lt;Group&gt;">
																<g id="&lt;Group&gt;">
																	<path id="&lt;Path&gt;" class="s2" d="m200.5 500.9c0 0.1-0.7 0.5-1.5 0.8-0.9 0.4-1.6 0.6-1.7 0.5 0-0.1 0.7-0.5 1.5-0.8 0.9-0.4 1.6-0.6 1.7-0.5z"/>
																</g>
															</g>
														</g>
													</g>
												</g>
											</g>
										</g>
									</g>
									<g id="&lt;Group&gt;">
										<g id="&lt;Group&gt;">
											<g id="&lt;Group&gt;">
												<g id="&lt;Group&gt;">
													<g id="&lt;Group&gt;">
														<g id="&lt;Group&gt;">
															<g id="&lt;Group&gt;">
																<g id="&lt;Group&gt;">
																	<path id="&lt;Path&gt;" class="s2" d="m200.2 498.7c0 0.1-0.6 0.7-1.6 1.2-0.9 0.5-1.8 0.6-1.9 0.5 0-0.1 0.8-0.4 1.8-0.8 0.9-0.5 1.6-1 1.7-0.9z"/>
																</g>
															</g>
														</g>
													</g>
												</g>
											</g>
										</g>
									</g>
									<g id="&lt;Group&gt;">
										<g id="&lt;Group&gt;">
											<g id="&lt;Group&gt;">
												<g id="&lt;Group&gt;">
													<g id="&lt;Group&gt;">
														<g id="&lt;Group&gt;">
															<g id="&lt;Group&gt;">
																<g id="&lt;Group&gt;">
																	<path id="&lt;Path&gt;" class="s2" d="m196.1 504.4c0 0.1-0.7 0.5-1.9 0.8-0.7 0.2-1.4 0.3-2.3 0.4-0.4 0-0.8 0.1-1.3 0-0.3-0.1-0.6-0.2-0.8-0.4-0.2-0.3-0.1-0.7 0-0.9 1.5-1.7 3.7-1.4 4.8-0.8 0.6 0.4 0.9 0.8 1.2 1.1 0.2 0.3 0.2 0.5 0.2 0.5 0 0-0.4-0.7-1.5-1.3-0.6-0.3-1.3-0.5-2.1-0.4-0.8 0.1-1.8 0.4-2.2 1.1-0.3 0.3 0 0.6 0.4 0.7 0.4 0.1 0.9 0 1.3 0 0.8 0 1.6-0.1 2.2-0.3 1.2-0.2 2-0.5 2-0.5z"/>
																</g>
															</g>
														</g>
													</g>
												</g>
											</g>
										</g>
									</g>
									<g id="&lt;Group&gt;">
										<g id="&lt;Group&gt;">
											<g id="&lt;Group&gt;">
												<g id="&lt;Group&gt;">
													<g id="&lt;Group&gt;">
														<g id="&lt;Group&gt;">
															<g id="&lt;Group&gt;">
																<g id="&lt;Group&gt;">
																	<path id="&lt;Path&gt;" class="s2" d="m195.6 504.7c0 0.1-0.5-0.3-0.7-1.2-0.2-0.5-0.2-1-0.1-1.6 0.2-0.6 0.4-1.4 1.2-1.7 0.5-0.1 0.9 0.3 1 0.7 0.1 0.3 0 0.7 0 1-0.1 0.6-0.3 1.1-0.4 1.5-0.4 0.8-0.8 1.3-0.8 1.2-0.1 0 0.2-0.5 0.5-1.3q0.2-0.6 0.3-1.5c0.1-0.5 0-1.3-0.5-1.2-0.5 0.2-0.8 0.8-0.9 1.3-0.2 0.6-0.2 1.1-0.1 1.5 0.2 0.9 0.6 1.3 0.5 1.3z"/>
																</g>
															</g>
														</g>
													</g>
												</g>
											</g>
										</g>
									</g>
									<g id="&lt;Group&gt;">
										<g id="&lt;Group&gt;">
											<g id="&lt;Group&gt;">
												<g id="&lt;Group&gt;">
													<g id="&lt;Group&gt;">
														<g id="&lt;Group&gt;">
															<g id="&lt;Group&gt;">
																<g id="&lt;Group&gt;">
																	<path id="&lt;Path&gt;" class="s2" d="m227.3 489.5c0 0.1-0.9 0.3-2.2 1-1.3 0.7-2.9 2-4 3.9-1.1 2-1.4 4.1-1.3 5.5 0 1.5 0.3 2.4 0.3 2.4q-0.1 0-0.3-0.6c-0.1-0.4-0.2-1-0.3-1.7-0.2-1.5 0.1-3.7 1.2-5.8 1.2-2 2.9-3.3 4.3-4 0.6-0.3 1.2-0.5 1.6-0.6q0.6-0.1 0.7-0.1z"/>
																</g>
															</g>
														</g>
													</g>
												</g>
											</g>
										</g>
									</g>
									<g id="&lt;Group&gt;">
										<g id="&lt;Group&gt;">
											<g id="&lt;Group&gt;">
												<g id="&lt;Group&gt;">
													<g id="&lt;Group&gt;">
														<g id="&lt;Group&gt;">
															<g id="&lt;Group&gt;">
																<g id="&lt;Group&gt;">
																	<path id="&lt;Path&gt;" class="s2" d="m219.1 478.3c0.1-0.1 1.3 2.7 2.7 6 1.5 3.4 2.5 6.2 2.4 6.2-0.1 0.1-1.3-2.6-2.7-6-1.4-3.4-2.5-6.2-2.4-6.2z"/>
																</g>
															</g>
														</g>
													</g>
												</g>
											</g>
										</g>
									</g>
									<g id="&lt;Group&gt;">
										<g id="&lt;Group&gt;">
											<g id="&lt;Group&gt;">
												<g id="&lt;Group&gt;">
													<g id="&lt;Group&gt;">
														<g id="&lt;Group&gt;">
															<g id="&lt;Group&gt;">
																<g id="&lt;Group&gt;">
																	<path id="&lt;Path&gt;" class="s2" d="m215.1 501.1c0.1 0.1-1.7 1.2-4.2 2.2-2.4 1-4.5 1.6-4.5 1.5 0-0.1 2-0.8 4.4-1.8 2.4-1 4.3-2 4.3-1.9z"/>
																</g>
															</g>
														</g>
													</g>
												</g>
											</g>
										</g>
									</g>
									<g id="&lt;Group&gt;">
										<g id="&lt;Group&gt;">
											<g id="&lt;Group&gt;">
												<g id="&lt;Group&gt;">
													<g id="&lt;Group&gt;">
														<g id="&lt;Group&gt;">
															<g id="&lt;Group&gt;">
																<g id="&lt;Group&gt;">
																	<path id="&lt;Path&gt;" class="s2" d="m221 498.7c0.1 0.1 0 0.5 0 1 0 0.6 0 1-0.1 1-0.1 0.1-0.3-0.4-0.3-1 0-0.6 0.3-1 0.4-1z"/>
																</g>
															</g>
														</g>
													</g>
												</g>
											</g>
										</g>
									</g>
									<g id="&lt;Group&gt;">
										<g id="&lt;Group&gt;">
											<g id="&lt;Group&gt;">
												<g id="&lt;Group&gt;">
													<g id="&lt;Group&gt;">
														<g id="&lt;Group&gt;">
															<g id="&lt;Group&gt;">
																<g id="&lt;Group&gt;">
																	<path id="&lt;Path&gt;" class="s2" d="m222.1 495.1c0.1 0 0 0.4-0.1 0.8-0.2 0.5-0.5 0.8-0.6 0.8-0.1-0.1 0-0.5 0.2-0.9 0.2-0.5 0.4-0.8 0.5-0.7z"/>
																</g>
															</g>
														</g>
													</g>
												</g>
											</g>
										</g>
									</g>
									<g id="&lt;Group&gt;">
										<g id="&lt;Group&gt;">
											<g id="&lt;Group&gt;">
												<g id="&lt;Group&gt;">
													<g id="&lt;Group&gt;">
														<g id="&lt;Group&gt;">
															<g id="&lt;Group&gt;">
																<g id="&lt;Group&gt;">
																	<path id="&lt;Path&gt;" class="s2" d="m224.8 492.5c0 0.1-0.4 0.3-0.8 0.6-0.4 0.3-0.6 0.7-0.7 0.7-0.1-0.1 0-0.6 0.4-1 0.5-0.4 1.1-0.4 1.1-0.3z"/>
																</g>
															</g>
														</g>
													</g>
												</g>
											</g>
										</g>
									</g>
									<g id="&lt;Group&gt;">
										<g id="&lt;Group&gt;">
											<g id="&lt;Group&gt;">
												<g id="&lt;Group&gt;">
													<g id="&lt;Group&gt;">
														<g id="&lt;Group&gt;">
															<g id="&lt;Group&gt;">
																<g id="&lt;Group&gt;">
																	<path id="&lt;Path&gt;" class="s2" d="m226.8 491c0 0.1-0.1 0.3-0.3 0.5-0.2 0.2-0.4 0.3-0.5 0.2-0.1-0.1 0.1-0.3 0.3-0.5 0.2-0.2 0.4-0.3 0.5-0.2z"/>
																</g>
															</g>
														</g>
													</g>
												</g>
											</g>
										</g>
									</g>
								</g>
							</g>
						</g>
						<g id="&lt;Group&gt;">
							<g id="&lt;Group&gt;">
								<g id="&lt;Group&gt;">
									<g id="&lt;Group&gt;">
										<g id="&lt;Group&gt;">
											<g id="&lt;Group&gt;">
												<path id="&lt;Path&gt;" class="s2" d="m325.9 363.8h-74.6l-15.7 131.7h-51.4l18.8-152.5c1.8-15 14.5-26.4 29.6-26.7l94.6-1.7z"/>
											</g>
										</g>
									</g>
								</g>
								<g id="&lt;Group&gt;">
									<g id="&lt;Group&gt;">
										<g id="&lt;Group&gt;">
											<g id="&lt;Group&gt;">
												<g id="&lt;Group&gt;">
													<path id="&lt;Path&gt;" class="s7" d="m210 485.5c13.9 0.1 26.8 0.4 25.2 0.6-0.3 0-11.3 0.3-25.2 0.3-13.9-0.1-25.1-0.4-25.1-0.6 0-0.3 11.2-0.4 25.1-0.3z"/>
												</g>
											</g>
										</g>
									</g>
								</g>
							</g>
							<g id="&lt;Group&gt;">
								<g id="&lt;Group&gt;">
									<g id="&lt;Group&gt;">
										<g id="&lt;Group&gt;">
											<g id="&lt;Group&gt;">
												<g id="&lt;Group&gt;">
													<path id="&lt;Path&gt;" class="s7" d="m378.7 309.8q-0.5 0.1-1.3 0.1-2 0.2-5.3 0.4c-4.7 0.3-11.4 0.7-19.6 1.2-16.6 0.9-39.3 2.2-64.5 3.6-3.2 0.1-6.3 0.4-9.3 0.4q-4.6 0.1-9.1 0.4-4.4 0.2-8.7 0.6c-2.8 0.3-5.6 0.6-8.1 1.5-2.5 1-4.8 2.3-6.7 4.1-1.8 1.7-3.2 3.8-4 6-0.9 2.3-1.4 4.6-1.8 6.8q-0.4 3.3-0.5 6.4c0 4.1 0.7 7.8 2.1 10.8 1.3 2.9 3.1 5.1 4.9 6.6 1.8 1.4 3.4 2.2 4.6 2.6 1.1 0.4 1.1 0.5-0.1 0.1-1.2-0.3-2.9-1-4.7-2.5-1.8-1.4-3.8-3.6-5.2-6.7-1.4-3-2.1-6.8-2.2-10.9q0-3.2 0.5-6.5c0.3-2.3 0.8-4.6 1.7-6.9 0.9-2.3 2.3-4.6 4.2-6.4 1.9-1.8 4.3-3.2 6.9-4.2 2.6-1 5.5-1.3 8.3-1.6q4.3-0.4 8.8-0.7 4.4-0.2 9.1-0.3c3-0.1 6.1-0.3 9.3-0.5 25.1-1.3 47.9-2.4 64.5-3.3 8.2-0.4 14.9-0.7 19.5-0.9q3.4-0.2 5.4-0.2 0.8-0.1 1.3-0.1 0.5 0 0.5 0.1 0 0-0.5 0z"/>
												</g>
											</g>
										</g>
									</g>
								</g>
							</g>
						</g>
					</g>
				</g>
			</g>
			<g id="&lt;Group&gt;">
				<g id="&lt;Group&gt;">
					<g id="&lt;Group&gt;">
						<g id="&lt;Group&gt;">
							<path id="&lt;Path&gt;" class="s10" d="m349.1 246.5l-8.2 25.8c-3.2 10.6-12.1 18.6-23.1 20.7l-47.8 13.2-3.7-8.8-3.5-13.1 41.3-14.1c4.1-0.9 7.3-3.9 8.3-7.9l16.5-35.8 20.8 12.8z"/>
						</g>
					</g>
				</g>
			</g>
			<g id="&lt;Group&gt;">
				<g id="&lt;Group&gt;">
					<g id="&lt;Group&gt;">
						<g id="&lt;Group&gt;">
							<g id="&lt;Group&gt;">
								<g id="&lt;Group&gt;">
									<g id="&lt;Group&gt;">
										<g id="&lt;Group&gt;">
											<path id="&lt;Path&gt;" class="s3" d="m372.5 164.5c2.7-0.6 17.9-0.8 21.1 0 15.3 3.8 36.2-1.3 45.6 25.3 2.2 6.3-0.4 32.5-1.4 44.9l0.8 32.8 0.3 54.2-106.3-8.3 12.6-37.4 1-30.6-27.7-8.6 13.3-37.5c1.7-4.9 4.1-9.6 7-13.9 7.2-10.3 12.8-17.4 30.3-19.5"/>
										</g>
									</g>
								</g>
							</g>
						</g>
						<g id="&lt;Group&gt;">
							<g id="&lt;Group&gt;">
								<g id="&lt;Group&gt;">
									<path id="&lt;Path&gt;" class="s6" d="m438.9 264.1c0 0.2-20.8 0.5-46.4 0.5-25.7 0-46.4-0.3-46.4-0.5 0-0.3 20.7-0.6 46.4-0.6 25.6 0 46.4 0.3 46.4 0.6z"/>
								</g>
							</g>
						</g>
						<g id="&lt;Group&gt;">
							<g id="&lt;Group&gt;">
								<g id="&lt;Group&gt;">
									<path id="&lt;Path&gt;" class="s6" d="m437.3 282.6c0 0.3-20.7 0.5-46.4 0.5-25.6 0-46.4-0.2-46.4-0.5 0-0.3 20.8-0.5 46.4-0.5 25.7 0 46.4 0.2 46.4 0.5z"/>
								</g>
							</g>
						</g>
						<g id="&lt;Group&gt;">
							<g id="&lt;Group&gt;">
								<g id="&lt;Group&gt;">
									<path id="&lt;Path&gt;" class="s6" d="m437.8 303.9c0 0.3-21.9 0.5-49 0.5-27.2 0-49.1-0.2-49.1-0.5 0-0.3 21.9-0.5 49.1-0.5 27.1 0 49 0.2 49 0.5z"/>
								</g>
							</g>
						</g>
						<g id="&lt;Group&gt;">
							<g id="&lt;Group&gt;" style="opacity: .3">
								<g id="&lt;Group&gt;">
									<g id="&lt;Group&gt;">
										<g id="&lt;Group&gt;">
											<g id="&lt;Group&gt;">
												<path id="&lt;Path&gt;" class="s5" d="m424.9 252.2c-1.3 7.2-1.9 14.9-4.4 21.8-1.8 5.1-3.8 10.2-7.1 14.5-4.4 5.9-11 9.9-18 12.1-7 2.2-40.8 9.7-48.1 9.1l61.7-29.2 7.5-30.7z"/>
											</g>
										</g>
									</g>
								</g>
							</g>
							<g id="&lt;Group&gt;">
								<g id="&lt;Group&gt;">
									<g id="&lt;Group&gt;">
										<g id="&lt;Group&gt;">
											<path id="&lt;Path&gt;" class="s10" d="m421.3 251.1l-6.7 26.1c-2.7 10.9-11.3 19.4-22.2 22l-54.5 12.7-15 0.2v-20.6l54.8-14.8c4.1-1.1 7.1-4.3 8-8.3l5.3-23z"/>
										</g>
									</g>
								</g>
							</g>
							<g id="&lt;Group&gt;" style="opacity: .3">
								<g id="&lt;Group&gt;">
									<g id="&lt;Group&gt;">
										<g id="&lt;Group&gt;">
											<g id="&lt;Group&gt;">
												<path id="&lt;Path&gt;" class="s11" d=""/>
											</g>
										</g>
									</g>
								</g>
							</g>
						</g>
						<g id="&lt;Group&gt;">
							<g id="&lt;Group&gt;">
								<g id="&lt;Group&gt;">
									<path id="&lt;Path&gt;" class="s6" d="m439.4 188.3c0 0.2-22.9 0.5-51.1 0.5-28.3 0-51.2-0.3-51.2-0.5 0-0.3 22.9-0.6 51.2-0.6 28.2 0 51.1 0.3 51.1 0.6z"/>
								</g>
							</g>
						</g>
						<g id="&lt;Group&gt;">
							<g id="&lt;Group&gt;">
								<g id="&lt;Group&gt;">
									<path id="&lt;Path&gt;" class="s6" d="m440.1 206c0 0.3-24.7 0.5-55.2 0.5-30.4 0-55.1-0.2-55.1-0.5 0-0.3 24.7-0.6 55.1-0.6 30.5 0 55.2 0.3 55.2 0.6z"/>
								</g>
							</g>
						</g>
						<g id="&lt;Group&gt;">
							<g id="&lt;Group&gt;">
								<g id="&lt;Group&gt;">
									<path id="&lt;Path&gt;" class="s6" d="m438.7 225.1c0 0.3-26 0.7-58.1 1-32.1 0.2-58.1 0.2-58.1-0.1 0-0.3 26-0.7 58.1-1 32.1-0.2 58-0.2 58.1 0.1z"/>
								</g>
							</g>
						</g>
						<g id="&lt;Group&gt;">
							<g id="&lt;Group&gt;">
								<g id="&lt;Group&gt;">
									<path id="&lt;Path&gt;" class="s6" d="m437.8 245.4c0 0.3-20.7 0.5-46.4 0.5-25.6 0-46.4-0.2-46.4-0.5 0-0.3 20.8-0.5 46.4-0.5 25.7 0 46.4 0.2 46.4 0.5z"/>
								</g>
							</g>
						</g>
						<g id="&lt;Group&gt;">
							<g id="&lt;Group&gt;">
								<g id="&lt;Group&gt;">
									<path id="&lt;Path&gt;" class="s2" d="m430.7 253.3q0 0 0-0.4 0.1-0.5 0.2-1.3 0.3-1.8 0.7-4.8c0.7-4.3 1.6-10.4 2.7-18.1 1-7.7 2.3-17 2.9-27.4 0.2-5.2 0.6-10.9-2.1-16-1.2-2.5-3.2-4.7-5.6-6.3-2.4-1.6-5.3-2.8-8.2-3.2h-0.1c-3.2-1-6.8-0.5-10.1 0.7-3.4 1.1-6.7 2.7-9.4 5q-0.9 0.8-1.4 1.7-0.6 0.9-1.1 1.9c-0.6 1.4-1.1 2.8-1.5 4.2-0.9 2.9-1.4 5.8-1.9 8.7q-1.5 8.7-3 16.9c-1.9 10.8-3.7 20.8-5.3 29.7l-0.3-0.5c12.8 2.7 23.3 5 30.7 6.6q5.4 1.2 8.5 1.9 1.4 0.3 2.2 0.5 0.7 0.2 0.7 0.2 0 0-0.7-0.1-0.9-0.2-2.3-0.4-3-0.6-8.5-1.7c-7.4-1.5-18-3.6-30.9-6.2l-0.3-0.1v-0.4c1.6-8.8 3.3-18.9 5.2-29.7q1.5-8.2 3-16.9c0.5-2.9 1-5.8 1.9-8.8 0.4-1.4 0.9-2.9 1.6-4.3q0.5-1.1 1.1-2.1c0.4-0.7 1-1.3 1.6-1.8 2.9-2.5 6.3-4.2 9.7-5.3 3.5-1.2 7.3-1.8 10.8-0.7h-0.1c3.2 0.5 6.1 1.6 8.7 3.4 2.5 1.7 4.6 4.1 5.9 6.7 0.7 1.3 1.1 2.7 1.6 4.1 0.2 1.4 0.6 2.8 0.6 4.2q0 1.1 0.1 2.1 0 1 0 2-0.1 2.1-0.2 4c-0.7 10.5-2 19.8-3.1 27.5-1.2 7.7-2.3 13.8-3 18q-0.6 3.1-0.9 4.8-0.2 0.8-0.3 1.3-0.1 0.4-0.1 0.4z"/>
								</g>
							</g>
						</g>
					</g>
					<g id="&lt;Group&gt;">
						<g id="&lt;Group&gt;">
							<g id="&lt;Group&gt;">
								<g id="&lt;Group&gt;">
									<g id="&lt;Group&gt;">
										<path id="&lt;Path&gt;" class="s2" d="m345.7 272.8c-0.1-1.9-0.2-4.5-0.3-7.6-0.1-6.4-0.3-15.2-0.4-25-0.1-9.8-0.2-18.6-0.2-25 0-3.1 0-5.7 0.1-7.6 0-1.8 0-2.8 0.1-2.8 0.1 0 0.1 1 0.2 2.8 0.1 1.9 0.1 4.5 0.2 7.6 0.2 6.4 0.3 15.2 0.5 25 0.1 9.8 0.1 18.6 0.1 25 0 3.1 0 5.6 0 7.6 0 1.8-0.1 2.8-0.1 2.8-0.1 0-0.2-1-0.2-2.8z"/>
									</g>
								</g>
							</g>
						</g>
					</g>
				</g>
			</g>
			<g id="&lt;Group&gt;">
				<g id="&lt;Group&gt;">
					<g id="&lt;Group&gt;">
						<g id="&lt;Group&gt;">
							<g id="&lt;Group&gt;">
								<path id="&lt;Path&gt;" class="s7" d="m264.4 315.4l-27.5-60 84 0.6 18 51.7 41.3 4.4-1 4.5z"/>
							</g>
						</g>
					</g>
				</g>
				<g id="&lt;Group&gt;">
					<g id="&lt;Group&gt;">
						<g id="&lt;Group&gt;">
							<g id="&lt;Group&gt;">
								<path id="&lt;Path&gt;" class="s4" d="m285 287.2c-1.2-1.9-0.7-4.5 1.3-5.7 1.9-1.2 4.5-0.7 5.7 1.3 1.2 1.9 0.6 4.5-1.3 5.7-1.9 1.2-4.5 0.6-5.7-1.3z"/>
							</g>
						</g>
					</g>
				</g>
			</g>
			<g id="&lt;Group&gt;">
				<g id="&lt;Group&gt;">
					<g id="&lt;Group&gt;">
						<g id="&lt;Group&gt;">
							<path id="&lt;Path&gt;" class="s2" d="m351.2 80.5c2.6 5.3 3.1 11.5 1.4 17.2-0.6 1.7-1.4 3.5-3.1 4.4-1.7 0.8-3.9 0.3-5.6-0.7-3.9-2.3-6.1-7.2-5.2-11.7 0.8-4.4 4.7-8.2 9.2-8.9"/>
						</g>
					</g>
					<g id="&lt;Group&gt;">
						<g id="&lt;Group&gt;">
							<g id="&lt;Group&gt;">
								<g id="&lt;Group&gt;">
									<g id="&lt;Group&gt;">
										<g id="&lt;Group&gt;">
											<g id="&lt;Group&gt;">
												<g id="&lt;Group&gt;">
													<g id="&lt;Group&gt;">
														<g id="&lt;Group&gt;">
															<path id="&lt;Path&gt;" class="s10" d="m382.6 182.9c-10 0-18.1-8.2-17.9-18.1 0-6.3 0.1-11.7 0.1-11.7 0 0-14.4-1.3-15.4-15.6-1.1-14.2-0.6-47.1-0.6-47.1 16-8.1 35.2-6.9 50.2 3.2l2.2 1.5-0.7 70c-0.1 9.9-8.1 17.8-17.9 17.8z"/>
														</g>
													</g>
												</g>
											</g>
											<g id="&lt;Group&gt;">
												<g id="&lt;Group&gt;">
													<g id="&lt;Group&gt;">
														<g id="&lt;Group&gt;">
															<path id="&lt;Path&gt;" class="s12" d="m364.8 152.9c0 0 9.1 0.2 18.3-6.4 0 0-3.8 10.5-18.1 10.1z"/>
														</g>
													</g>
												</g>
											</g>
										</g>
									</g>
									<g id="&lt;Group&gt;">
										<g id="&lt;Group&gt;">
											<g id="&lt;Group&gt;">
												<g id="&lt;Group&gt;">
													<g id="&lt;Group&gt;">
														<path id="&lt;Path&gt;" class="s10" d="m397.5 110.8c0.3-0.1 9-1.2 8.2 9.1-0.8 10.4-11 6.1-11 5.8 0-0.3 2.8-14.9 2.8-14.9z"/>
													</g>
												</g>
											</g>
										</g>
										<g id="&lt;Group&gt;">
											<g id="&lt;Group&gt;">
												<g id="&lt;Group&gt;">
													<g id="&lt;Group&gt;">
														<g id="&lt;Group&gt;">
															<path id="&lt;Path&gt;" class="s12" d="m398.2 122.3c0 0 0.1 0.2 0.4 0.4 0.3 0.1 0.8 0.2 1.4 0.1 1.1-0.3 2.2-2 2.4-3.8 0.1-1-0.1-1.9-0.3-2.7-0.3-0.8-0.7-1.3-1.3-1.5-0.5-0.1-0.9 0.2-1.1 0.4-0.1 0.3-0.1 0.5-0.2 0.5 0 0.1-0.2-0.1 0-0.6 0-0.2 0.2-0.4 0.4-0.6 0.3-0.2 0.7-0.2 1-0.2 0.8 0.2 1.5 0.9 1.8 1.8 0.3 0.8 0.5 1.9 0.4 2.9-0.3 2.1-1.5 4-3 4.3-0.7 0.1-1.3-0.1-1.6-0.4-0.3-0.3-0.4-0.5-0.3-0.6z"/>
														</g>
													</g>
												</g>
											</g>
										</g>
									</g>
									<g id="&lt;Group&gt;">
										<g id="&lt;Group&gt;">
											<g id="&lt;Group&gt;">
												<g id="&lt;Group&gt;">
													<path id="&lt;Path&gt;" class="s2" d="m348.7 96.3c-7.2-2.3-6.3-13.6-6.3-13.6 0.7-5.6 3.5-8 6.8-9.5 3.3-1.5 8 0.1 11.3 1.6 1-5.3 6.2-9.5 11.5-9.3 5.4 0.1 10.3 4.6 11 9.9 0.4-2.8 3.5-4.3 6.3-4.5 2.7-0.1 5.7 0.7 7.5 2.8 1.8 2.1 2 5.6-0.1 7.5 3.1-0.3 6.4 0.3 8.9 2.1 2.5 1.8 4.1 4.9 3.9 8-0.2 3.1-2.5 6.1-5.6 6.7-1 0.2-1.3-0.5-1.8 0.4-0.4 0.5-0.5 2.4-0.4 3 0.1 3.4 0.1 6.4-0.6 9.8-1.8-0.9-4.1 0.4-5 2.2-0.9 1.8-0.7 3.9-0.6 6-0.8 1.3-3.1 0.9-4-0.4-1-1.2-1-2.9-1.1-4.5q-0.1-8.3-0.2-16.5c-1.6 0.9-3.7 0.9-5.3 0-1.6-0.9-2.7-2.7-2.8-4.5-2.3 2.2-5.7 3.3-8.9 2.9-3.2-0.4-6.2-2.3-7.9-5-1.7 1.4-4.7 4-6.7 4.9 0 0-2.7 2.3-9.9 0z"/>
												</g>
											</g>
										</g>
									</g>
								</g>
							</g>
							<g id="&lt;Group&gt;">
								<g id="&lt;Group&gt;">
									<g id="&lt;Group&gt;">
										<g id="&lt;Group&gt;">
											<g id="&lt;Group&gt;">
												<g id="&lt;Group&gt;">
													<g id="&lt;Group&gt;">
														<g id="&lt;Group&gt;">
															<g id="&lt;Group&gt;">
																<g id="&lt;Group&gt;">
																	<path id="&lt;Path&gt;" class="s2" d="m354.6 111.4c1.1 0.1 1.9 1 1.9 2 0 1.1-1 1.9-2.1 1.8-1.1 0-1.9-0.9-1.9-2 0.1-1.1 1-1.9 2.1-1.8z"/>
																</g>
															</g>
														</g>
													</g>
													<g id="&lt;Group&gt;">
														<g id="&lt;Group&gt;">
															<g id="&lt;Group&gt;">
																<g id="&lt;Group&gt;">
																	<g id="&lt;Group&gt;">
																		<path id="&lt;Path&gt;" class="s2" d="m352.8 109.9c0.7-0.6 1.8-1 3.2-1.1 1.3 0 2.5 0.5 3.1 1 0.7 0.5 1 1 0.9 1.1-0.3 0.3-1.9-0.8-4-0.8-2.2 0-3.7 1.1-3.9 0.8-0.1-0.1 0.1-0.5 0.7-1z"/>
																	</g>
																</g>
															</g>
														</g>
													</g>
												</g>
												<g id="&lt;Group&gt;">
													<g id="&lt;Group&gt;">
														<g id="&lt;Group&gt;">
															<g id="&lt;Group&gt;">
																<g id="&lt;Group&gt;">
																	<path id="&lt;Path&gt;" class="s2" d="m375.7 111.9c1.1 0.1 1.9 1 1.9 2-0.1 1.1-1 1.9-2.1 1.8-1.1 0-1.9-0.9-1.9-2 0-1.1 1-1.9 2.1-1.8z"/>
																</g>
															</g>
														</g>
													</g>
													<g id="&lt;Group&gt;">
														<g id="&lt;Group&gt;">
															<g id="&lt;Group&gt;">
																<g id="&lt;Group&gt;">
																	<g id="&lt;Group&gt;">
																		<path id="&lt;Path&gt;" class="s2" d="m374 110.3c0.7-0.6 1.8-1 3.1-1.1 1.4 0 2.5 0.5 3.2 1 0.7 0.5 0.9 1 0.8 1.1-0.2 0.3-1.8-0.8-3.9-0.8-2.2 0-3.7 1.1-4 0.8-0.1-0.1 0.1-0.5 0.8-1z"/>
																	</g>
																</g>
															</g>
														</g>
													</g>
												</g>
												<g id="&lt;Group&gt;">
													<g id="&lt;Group&gt;">
														<g id="&lt;Group&gt;">
															<g id="&lt;Group&gt;">
																<g id="&lt;Group&gt;">
																	<path id="&lt;Path&gt;" class="s2" d="m361.9 127.3c-0.3 0-0.6 0-1-0.1-0.3-0.1-0.7-0.4-0.9-0.8-0.2-0.8 0.1-1.6 0.3-2.2q0.8-2 1.6-4.2c2.2-6 4.3-10.7 4.5-10.6 0.3 0.1-1.4 5-3.6 10.9q-0.9 2.2-1.7 4.2c-0.2 0.7-0.5 1.2-0.3 1.6 0.1 0.4 0.6 0.5 1.1 0.6 2.2 0.3 3.5 0.5 3.5 0.6 0 0.1-1.3 0.1-3.5 0z"/>
																</g>
															</g>
														</g>
													</g>
												</g>
												<g id="&lt;Group&gt;">
													<g id="&lt;Group&gt;">
														<g id="&lt;Group&gt;">
															<g id="&lt;Group&gt;">
																<g id="&lt;Group&gt;">
																	<path id="&lt;Path&gt;" class="s2" d="m372.1 130.3c-0.1 1-0.6 2.4-1.8 3.4-1.3 1-2.8 1.3-3.8 1.3-1 0-1.6-0.3-1.6-0.5 0-0.3 2.5-0.1 4.5-1.7 2-1.7 2-4 2.4-4 0.1 0 0.4 0.6 0.3 1.5z"/>
																</g>
															</g>
														</g>
													</g>
												</g>
											</g>
										</g>
									</g>
									<g id="&lt;Group&gt;">
										<g id="&lt;Group&gt;">
											<g id="&lt;Group&gt;">
												<g id="&lt;Group&gt;">
													<path id="&lt;Path&gt;" class="s2" d="m374 101.8c0.9-0.4 2.3-0.6 3.8-0.4 1.5 0.1 2.8 0.7 3.6 1.2 0.9 0.6 1.2 1.1 1.1 1.4-0.4 0.5-2.4-0.2-4.9-0.5-2.6-0.3-4.7 0-4.9-0.6-0.1-0.3 0.4-0.7 1.3-1.1z"/>
												</g>
											</g>
										</g>
									</g>
									<g id="&lt;Group&gt;">
										<g id="&lt;Group&gt;">
											<g id="&lt;Group&gt;">
												<g id="&lt;Group&gt;">
													<path id="&lt;Path&gt;" class="s2" d="m353.5 103.5c0.7-0.5 1.7-1 2.9-1 1.3 0 2.4 0.3 3 0.8 0.7 0.5 0.9 0.9 0.8 1.2-0.4 0.5-1.9 0.1-3.7 0.2-1.8 0-3.2 0.5-3.6 0-0.2-0.2 0-0.7 0.6-1.2z"/>
												</g>
											</g>
										</g>
									</g>
								</g>
							</g>
						</g>
					</g>
				</g>
				<g id="&lt;Group&gt;">
					<g id="&lt;Group&gt;">
						<g id="&lt;Group&gt;">
							<path id="&lt;Path&gt;" class="s7" d="m357 80.1c-0.1 0.1-0.2-0.1-0.6-0.1-0.3-0.1-0.9-0.1-1.5 0.4-0.5 0.3-0.9 1.2-0.6 2.1 0.2 1 1 1.9 2.1 2.4 1.1 0.4 2.6 0.4 3.8-0.3 1.3-0.6 2.2-2.1 2.4-3.7 0.2-1.6-0.5-3.3-1.8-4.5-1.3-1.2-3.2-1.9-5.1-1.6-1.9 0.2-3.6 1.1-4.9 2.4-1.2 1.3-2 3-2.3 4.6-0.7 3.3 0.2 6.5 1.4 8.7 1.3 2.3 2.9 3.7 4.1 4.6 1.2 0.8 2 1.2 1.9 1.2 0 0.1-0.8-0.1-2.1-0.9-1.3-0.8-3.1-2.2-4.5-4.5-1.4-2.3-2.5-5.7-1.8-9.3 0.4-1.8 1.2-3.6 2.6-5.1 1.4-1.5 3.3-2.5 5.5-2.7 2.2-0.3 4.4 0.4 5.9 1.8 1.5 1.4 2.3 3.5 2 5.4-0.2 1.9-1.3 3.6-2.8 4.4-1.6 0.8-3.3 0.7-4.6 0.1-1.3-0.6-2.2-1.7-2.4-2.8-0.3-1.2 0.3-2.3 1-2.7 0.7-0.4 1.4-0.4 1.8-0.2 0.4 0.1 0.5 0.3 0.5 0.3z"/>
						</g>
					</g>
				</g>
			</g>
		</g>
	</g>
	<g id="Plants">
		<g id="&lt;Group&gt;">
			<g id="&lt;Group&gt;">
				<g id="&lt;Group&gt;">
					<g id="&lt;Group&gt;">
					</g>
				</g>
			</g>
			<g id="&lt;Group&gt;" style="opacity: .3">
				<g id="&lt;Group&gt;">
					<g id="&lt;Group&gt;">
						<g id="&lt;Group&gt;">
						</g>
					</g>
				</g>
			</g>
			<g id="&lt;Group&gt;">
				<g id="&lt;Group&gt;">
					<g id="&lt;Group&gt;">
						<g id="&lt;Group&gt;">
							<g id="&lt;Group&gt;">
								<g id="&lt;Group&gt;">
								</g>
							</g>
						</g>
					</g>
					<g id="&lt;Group&gt;">
						<g id="&lt;Group&gt;">
							<g id="&lt;Group&gt;">
								<g id="&lt;Group&gt;">
								</g>
							</g>
						</g>
					</g>
				</g>
				<g id="&lt;Group&gt;">
					<g id="&lt;Group&gt;">
						<g id="&lt;Group&gt;">
							<g id="&lt;Group&gt;">
							</g>
						</g>
					</g>
					<g id="&lt;Group&gt;">
						<g id="&lt;Group&gt;">
							<g id="&lt;Group&gt;">
								<g id="&lt;Group&gt;">
								</g>
							</g>
						</g>
					</g>
				</g>
			</g>
		</g>
		<g id="&lt;Group&gt;">
			<g id="&lt;Group&gt;">
				<g id="&lt;Group&gt;">
					<g id="&lt;Group&gt;">
						<path id="&lt;Path&gt;" class="s3" d="m1175.8 726.8c-2.4 3.4-7.2 2.3-9.4 0.2-2.2-2.2-3.1-5.2-3.9-8.2-2-6.7-3.9-13.7-2.5-20.6 0.4-2 1.2-4 2.6-5.6 1.5-1.5 3.7-2.4 5.7-1.8 2.4 0.6 3.9 2.9 5 5.1 3.1 6.6 4.8 13.8 4.8 21.1 0 3.4-0.4 7-2.3 9.8z"/>
					</g>
				</g>
			</g>
			<g id="&lt;Group&gt;" style="opacity: .2">
				<g id="&lt;Group&gt;">
					<g id="&lt;Group&gt;">
						<path id="&lt;Path&gt;" class="s5" d="m1175.8 726.8c-2.4 3.4-7.2 2.3-9.4 0.2-2.2-2.2-3.1-5.2-3.9-8.2-2-6.7-3.9-13.7-2.5-20.6 0.4-2 1.2-4 2.6-5.6 1.5-1.5 3.7-2.4 5.7-1.8 2.4 0.6 3.9 2.9 5 5.1 3.1 6.6 4.8 13.8 4.8 21.1 0 3.4-0.4 7-2.3 9.8z"/>
					</g>
				</g>
			</g>
			<g id="&lt;Group&gt;">
				<g id="&lt;Group&gt;">
					<g id="&lt;Group&gt;">
						<path id="&lt;Path&gt;" class="s3" d="m1171.2 750.6c0.4 1.8 0.4 3.9-0.6 5.6-1 1.6-3.1 2.7-4.9 2.2-1.9-0.6-2.9-2.6-4.5-3.8-2.8-2.1-6.6-1.5-10.1-1.4-1.4 0-3-0.1-4.1-1.1-1.8-1.5-1.5-4.6 0.1-6.4 1.6-1.8 4.1-2.5 6.5-2.9 4.4-0.7 9.1-0.5 13.1 1.6 4 2.1 4.5 6.2 4.5 6.2z"/>
					</g>
				</g>
			</g>
			<g id="&lt;Group&gt;">
				<g id="&lt;Group&gt;">
					<g id="&lt;Group&gt;">
						<path id="&lt;Path&gt;" class="s3" d="m1182.5 731.7c-2.7-3.1-3.2-7.7-2-11.6 1.2-3.9 3.9-7.3 6.9-10 3.6-3.2 7.8-5.7 12.4-7.3 1.8-0.6 3.7-1.1 5.6-1 1.8 0.2 3.7 1.2 4.6 2.9 1.3 2.4 0.1 5.5-1.3 7.9q-3.6 6.5-8.1 12.4c-2.4 3.1-5.2 6.2-8.9 7.6-3.7 1.4-7.6 1.3-9.6-1.3"/>
					</g>
				</g>
			</g>
			<g id="&lt;Group&gt;">
				<g id="&lt;Group&gt;">
					<g id="&lt;Group&gt;">
						<g id="&lt;Group&gt;">
							<path id="&lt;Path&gt;" class="s2" d="m1176 779.3c-0.1 0-0.2-0.6-0.3-1.6q-0.1-1.7-0.4-4.3c-0.2-1.8-0.4-4-0.9-6.4-0.5-2.3-1.3-4.9-2.3-7.4-1.1-2.6-2.4-4.9-3.9-6.8-1.4-1.9-3.2-3.2-4.8-4-1.6-0.8-3.1-1.1-4.1-1.3-1-0.1-1.5-0.2-1.5-0.2 0 0 0.5-0.1 1.6 0 1 0 2.5 0.3 4.2 1.1 1.7 0.7 3.5 2.1 5.1 4 1.6 1.9 2.9 4.3 4 6.9 1 2.6 1.8 5.2 2.2 7.6 0.5 2.4 0.7 4.6 0.9 6.4 0.1 1.9 0.2 3.3 0.2 4.4 0 1 0 1.6 0 1.6z"/>
						</g>
					</g>
				</g>
			</g>
			<g id="&lt;Group&gt;">
				<g id="&lt;Group&gt;">
					<g id="&lt;Group&gt;">
						<g id="&lt;Group&gt;">
							<path id="&lt;Path&gt;" class="s2" d="m1175.7 775.9q-0.1 0-0.1-0.7 0-0.8 0-2.1c0-1.8 0-4.4-0.1-7.7-0.1-6.5-0.7-15.5-1.8-25.4-1.1-9.9-2.5-18.7-3.8-25.1q-0.5-2.4-0.9-4.3-0.5-1.9-0.8-3.2-0.3-1.3-0.5-2.1-0.1-0.7-0.1-0.7 0 0 0.2 0.7 0.3 0.8 0.7 2 0.3 1.3 0.8 3.2 0.5 1.9 1 4.3c1.5 6.4 3 15.3 4.1 25.2 1.1 9.9 1.6 18.9 1.6 25.4 0 3.3 0 5.9-0.1 7.7q-0.1 1.3-0.1 2.1-0.1 0.7-0.1 0.7z"/>
						</g>
					</g>
				</g>
			</g>
			<g id="&lt;Group&gt;">
				<g id="&lt;Group&gt;">
					<g id="&lt;Group&gt;">
						<g id="&lt;Group&gt;">
							<path id="&lt;Path&gt;" class="s2" d="m1175.6 758.6c0 0 0-0.8 0-2.2 0.1-1.4 0.3-3.5 0.7-6 0.4-2.5 1-5.4 1.9-8.6 0.9-3.2 2.1-6.7 3.7-10.3 3-7.1 7-12.9 10.6-16.5 0.8-1 1.8-1.7 2.5-2.3 0.4-0.4 0.7-0.7 1.1-0.9q0.5-0.4 0.9-0.7c1.2-0.8 1.9-1.2 1.9-1.2 0.1 0.1-2.6 1.7-6.1 5.4-3.4 3.6-7.4 9.4-10.3 16.5-1.6 3.5-2.8 6.9-3.7 10.1-0.9 3.2-1.6 6.1-2 8.6-0.5 2.5-0.7 4.5-0.9 5.9-0.1 1.4-0.2 2.2-0.3 2.2z"/>
						</g>
					</g>
				</g>
			</g>
		</g>
	</g>
</svg>