<svg version="1.2" xmlns="http://www.w3.org/2000/svg" viewBox="0 0 1374 887" width="1374" height="887">
	<title>17350097_5812028-ai</title>
	<style>
		tspan { white-space:pre } 
		.s0 { fill: #ffffff } 
		.t1 { font-size: 21px;fill: #b4cffe;font-weight: 700;font-family: "Montserrat-Bold", "Montserrat" } 
		.s2 { fill: #b4cffe } 
		.s3 { fill: #3c4d77 } 
		.s4 { mix-blend-mode: soft-light;fill: #ffffff } 
		.s5 { fill: #383c56 } 
		.s6 { fill: #dee9fe } 
		.s7 { fill: #ebac3b } 
		.s8 { fill: #4361b7 } 
		.s9 { fill: #7ba9fa } 
		.t10 { font-size: 57px;fill: #ffffff;font-weight: 700;font-family: "Montserrat-Bold", "Montserrat" } 
		.s11 { fill: #fefefe } 
		.s12 { fill: none;stroke: #7ba9fa;stroke-width: 4 } 
		.s13 { fill: none;stroke: #ebac3b;stroke-linecap: round;stroke-linejoin: round;stroke-width: 1.5 } 
		.s14 { fill: none;stroke: #ebac3b;stroke-linecap: round;stroke-linejoin: round;stroke-width: 1.5;stroke-dasharray: 6,6 } 
		.s15 { fill: none;stroke: #ffffff;stroke-width: 4 } 
	</style>
	<g id="OBJECTS">
		<g id="&lt;Group&gt;">
			<g id="&lt;Group&gt;">
				<path id="&lt;Path&gt;" class="s0" d="m92.9 334.5c20.3-20.3 53.2-20.3 73.5 0 20.3 20.3 20.3 53.2 0 73.5-20.3 20.3-53.2 20.3-73.5 0-20.3-20.3-20.3-53.2 0-73.5z"/>
				<text id="C:/
" style="transform: matrix(2,0,0,2,98.268,384.761)" >
					<tspan x="0" y="0" class="t1">C:/
</tspan>
				</text>
			</g>
			<g id="&lt;Group&gt;">
				<path id="&lt;Path&gt;" class="s0" d="m399 120c-20.3 20.3-53.2 20.3-73.5 0-20.3-20.3-20.3-53.2 0-73.5 20.3-20.3 53.2-20.3 73.5 0 20.3 20.3 20.3 53.2 0 73.5z"/>
				<text id="&lt;\&gt;
" style="transform: matrix(2,0,0,2,329.109,95.439)" >
					<tspan x="0" y="0" class="t1">&lt;\&gt;
</tspan>
				</text>
			</g>
			<g id="&lt;Group&gt;">
				<path id="&lt;Path&gt;" class="s0" d="m1330.6 489.7c-20.3 20.3-53.2 20.3-73.5 0-20.3-20.3-20.3-53.1 0-73.4 20.3-20.3 53.2-20.3 73.5 0 20.2 20.3 20.2 53.1 0 73.4z"/>
				<text id="{...}
" style="transform: matrix(2,0,0,2,1261.125,465.179)" >
					<tspan x="0" y="0" class="t1">{...}
</tspan>
				</text>
			</g>
			<g id="&lt;Group&gt;">
				<path id="&lt;Path&gt;" class="s0" d="m972.3 112c0 9.2-7.5 16.7-16.7 16.7-9.3 0-16.8-7.5-16.8-16.7 0-9.3 7.5-16.7 16.8-16.7 9.2 0 16.7 7.4 16.7 16.7z"/>
				<path id="&lt;Path&gt;" class="s0" d="m165.9 776.7c0 9.2-7.5 16.7-16.8 16.7-9.2 0-16.7-7.5-16.7-16.7 0-9.3 7.5-16.7 16.7-16.7 9.3 0 16.8 7.4 16.8 16.7z"/>
				<path id="&lt;Path&gt;" class="s2" d="m313.4 234.3c0 11.3-9.2 20.4-20.5 20.4-11.3 0-20.5-9.1-20.5-20.4 0-11.3 9.2-20.5 20.5-20.5 11.3 0 20.5 9.2 20.5 20.5z"/>
				<path id="&lt;Path&gt;" class="s2" d="m878.3 38.7c0 18.2-14.7 32.9-32.9 32.9-18.2 0-32.9-14.7-32.9-32.9 0-18.2 14.7-32.9 32.9-32.9 18.2 0 32.9 14.7 32.9 32.9z"/>
				<path id="&lt;Path&gt;" class="s2" d="m1168 430.6c0 9.1-7.5 16.5-16.7 16.5-9.2 0-16.6-7.4-16.6-16.5 0-9.1 7.4-16.5 16.6-16.5 9.2 0 16.7 7.4 16.7 16.5z"/>
				<path id="&lt;Path&gt;" class="s2" d="m1264.4 791.2c0 12.3-10.1 22.3-22.5 22.3-12.4 0-22.5-10-22.5-22.3 0-12.2 10.1-22.2 22.5-22.2 12.4 0 22.5 10 22.5 22.2z"/>
				<path id="&lt;Path&gt;" class="s2" d="m39.1 430.6c0 7.8-6.3 14.1-14 14.1-7.8 0-14.1-6.3-14.1-14.1 0-7.7 6.3-14 14.1-14 7.7 0 14 6.3 14 14z"/>
			</g>
		</g>
		<g id="&lt;Group&gt;">
			<g id="&lt;Group&gt;">
				<path id="&lt;Path&gt;" class="s3" d="m1111.7 819.2h-859v-503.2c0-17.4 14.2-31.5 31.6-31.5h795.8c17.4 0 31.6 14.1 31.6 31.5z"/>
				<path id="&lt;Path&gt;" class="s4" d="m818.4 802.7h-272.5c-3.1 0-5.7-2.5-5.7-5.7 0-3.2 2.6-5.8 5.7-5.8h272.5c3.2 0 5.8 2.6 5.8 5.8 0 3.2-2.6 5.7-5.8 5.7z"/>
				<path id="&lt;Path&gt;" class="s5" d="m1087.4 776.7h-810.4c-5.3 0-9.7-4.4-9.7-9.7v-461.7c0-5.4 4.4-9.7 9.7-9.7h810.4c5.3 0 9.6 4.3 9.6 9.7v461.7c0 5.3-4.3 9.7-9.6 9.7z"/>
				<path id="&lt;Path&gt;" class="s0" d="m1080.4 769.8h-796.4c-4.7 0-8.5-3.8-8.5-8.5v-449.4c0-4.6 3.8-8.4 8.5-8.4h796.4c4.7 0 8.5 3.8 8.5 8.4v449.4c0 4.7-3.8 8.5-8.5 8.5z"/>
				<path id="&lt;Path&gt;" class="s6" d="m552.7 716.7h-148.1c-6.7 0-12.2-5.4-12.2-12.1v-90.2c0-6.7 5.5-12.2 12.2-12.2h148.1c6.7 0 12.1 5.5 12.1 12.2v90.2c0 6.7-5.4 12.1-12.1 12.1z"/>
				<path id="&lt;Path&gt;" class="s7" d="m1088.9 769.8h-498.8v-466.3h498.8z"/>
				<g id="&lt;Group&gt;">
					<path id="&lt;Path&gt;" class="s4" d="m852.5 722.7h-228.3c-2.9 0-5.2-2.3-5.2-5.2 0-2.9 2.3-5.3 5.2-5.3h228.3c2.9 0 5.3 2.4 5.3 5.3 0 2.9-2.4 5.2-5.3 5.2z"/>
					<path id="&lt;Path&gt;" class="s4" d="m852.5 750.2h-228.3c-2.9 0-5.2-2.3-5.2-5.2 0-2.9 2.3-5.3 5.2-5.3h228.3c2.9 0 5.3 2.4 5.3 5.3 0 2.9-2.4 5.2-5.3 5.2z"/>
				</g>
				<path id="&lt;Path&gt;" class="s4" d="m997.9 429.1h-175c-6 0-10.9-4.9-10.9-10.9v-58.8c0-6.1 4.9-10.9 10.9-10.9h175c6 0 10.9 4.8 10.9 10.9v58.8c0 6-4.9 10.9-10.9 10.9z"/>
				<g id="&lt;Group&gt;">
					<path id="&lt;Path&gt;" class="s7" d="m377.4 412.5h-68.4c-5.9 0-10.7-4.8-10.7-10.8v-60.9c0-5.9 4.8-10.7 10.7-10.7h68.4c5.9 0 10.7 4.8 10.7 10.7v60.9c0 6-4.8 10.8-10.7 10.8z"/>
					<path id="&lt;Path&gt;" class="s6" d="m380.3 447.4h-79.1c-1.6 0-2.9-1.3-2.9-2.9 0-1.6 1.3-2.9 2.9-2.9h79.1c1.6 0 2.9 1.3 2.9 2.9 0 1.6-1.3 2.9-2.9 2.9z"/>
				</g>
				<path id="&lt;Path&gt;" class="s6" d="m421.3 432.5h-120.1c-1.6 0-2.9-1.3-2.9-2.9 0-1.6 1.3-2.9 2.9-2.9h120.1c1.6 0 2.9 1.3 2.9 2.9 0 1.6-1.3 2.9-2.9 2.9z"/>
				<path id="&lt;Path&gt;" class="s5" d="m1128.6 866.9h-887.2c-22 0-39.9-17.8-39.9-39.9v-7.8h967v7.8c0 22.1-17.9 39.9-39.9 39.9z"/>
			</g>
			<g id="&lt;Group&gt;">
				<path id="&lt;Path&gt;" class="s8" d="m887.8 127.9v536.5c0 14.5-11.7 26.2-26.1 26.2h-375.5c-14.5 0-26.2-11.7-26.2-26.2v-536.5c0-14.5 11.7-26.2 26.2-26.2h375.5c14.4 0 26.1 11.7 26.1 26.2z"/>
				<path id="&lt;Path&gt;" class="s9" d="m887.8 664.4c0 14.5-11.7 26.2-26.1 26.2h-375.5c-14.5 0-26.2-11.7-26.2-26.2z"/>
				<g id="&lt;Group&gt;">
					<path id="&lt;Path&gt;" class="s0" d="m658.3 677.5c0 2.6-2.1 4.7-4.7 4.7-2.6 0-4.7-2.1-4.7-4.7 0-2.6 2.1-4.7 4.7-4.7 2.6 0 4.7 2.1 4.7 4.7z"/>
					<path id="&lt;Path&gt;" class="s0" d="m678.6 677.5c0 2.6-2.1 4.7-4.7 4.7-2.6 0-4.6-2.1-4.6-4.7 0-2.6 2-4.7 4.6-4.7 2.6 0 4.7 2.1 4.7 4.7z"/>
					<path id="&lt;Path&gt;" class="s0" d="m698.9 677.5c0 2.6-2.1 4.7-4.6 4.7-2.6 0-4.7-2.1-4.7-4.7 0-2.6 2.1-4.7 4.7-4.7 2.5 0 4.6 2.1 4.6 4.7z"/>
				</g>
				<text id="UI/UX
" style="transform: matrix(2,0,0,2,502.476,270.507)" >
					<tspan x="0" y="0" class="t10">UI/UX
</tspan>
				</text>
				<g id="&lt;Group&gt;">
					<path id="&lt;Path&gt;" class="s7" d="m878.3 126.4c0.1 8.1-6.4 14.7-14.4 14.7-8.1 0.1-14.7-6.4-14.7-14.5-0.1-8 6.4-14.6 14.4-14.6 8.1-0.1 14.7 6.4 14.7 14.4z"/>
					<path id="&lt;Path&gt;" class="s11" d="m867.3 126.5l5.4 5.4-3.6 3.6-5.3-5.4-5.4 5.4-3.6-3.6 5.4-5.4-5.4-5.3 3.6-3.6 5.4 5.3 5.3-5.3 3.6 3.6z"/>
				</g>
				<g id="&lt;Group&gt;">
					<path id="&lt;Path&gt;" class="s9" d="m829.8 577.8h-306.1c-8.2 0-14.9-6.7-14.9-14.9v-107.6c0-8.2 6.7-14.9 14.9-14.9h306.1c8.2 0 14.9 6.7 14.9 14.9v107.6c0 8.2-6.7 14.9-14.9 14.9z"/>
					<g id="&lt;Group&gt;">
						<path id="&lt;Path&gt;" class="s7" d="m559.4 468.6c0 9-7.3 16.3-16.3 16.3-9 0-16.3-7.3-16.3-16.3 0-9 7.3-16.3 16.3-16.3 9 0 16.3 7.3 16.3 16.3z"/>
						<path id="&lt;Path&gt;" class="s0" d="m822.5 472.8h-246.5c-2.3 0-4.2-1.9-4.2-4.2 0-2.4 1.9-4.3 4.2-4.3h246.5c2.4 0 4.3 1.9 4.3 4.3 0 2.3-1.9 4.2-4.3 4.2z"/>
					</g>
					<g id="&lt;Group&gt;">
						<path id="&lt;Path&gt;" class="s7" d="m559.4 509.1c0 9-7.3 16.3-16.3 16.3-9 0-16.3-7.3-16.3-16.3 0-9 7.3-16.3 16.3-16.3 9 0 16.3 7.3 16.3 16.3z"/>
						<path id="&lt;Path&gt;" class="s0" d="m822.5 513.4h-246.5c-2.3 0-4.2-1.9-4.2-4.3 0-2.3 1.9-4.2 4.2-4.2h246.5c2.4 0 4.3 1.9 4.3 4.2 0 2.4-1.9 4.3-4.3 4.3z"/>
					</g>
					<g id="&lt;Group&gt;">
						<path id="&lt;Path&gt;" class="s7" d="m559.4 549.6c0 9.1-7.3 16.4-16.3 16.4-9 0-16.3-7.3-16.3-16.4 0-9 7.3-16.3 16.3-16.3 9 0 16.3 7.3 16.3 16.3z"/>
						<path id="&lt;Path&gt;" class="s0" d="m822.5 553.9h-246.5c-2.3 0-4.2-1.9-4.2-4.3 0-2.3 1.9-4.2 4.2-4.2h246.5c2.4 0 4.3 1.9 4.3 4.2 0 2.4-1.9 4.3-4.3 4.3z"/>
					</g>
				</g>
				<g id="&lt;Group&gt;">
					<path id="&lt;Path&gt;" class="s9" d="m835.5 405.1h-317.5c-5.1 0-9.2-4.1-9.2-9.2v-33.8c0-5.1 4.1-9.2 9.2-9.2h317.5c5.1 0 9.2 4.1 9.2 9.2v33.8c0 5.1-4.1 9.2-9.2 9.2z"/>
					<g id="&lt;Group&gt;">
						<path id="&lt;Path&gt;" class="s0" d="m677.8 373.6h-154.7c-2.5 0-4.5-2-4.5-4.5 0-2.5 2-4.5 4.5-4.5h154.7c2.5 0 4.5 2 4.5 4.5 0 2.5-2 4.5-4.5 4.5z"/>
						<path id="&lt;Path&gt;" class="s0" d="m831 393.4h-308.4c-2.2 0-4-1.7-4-3.9v-0.6c0-2.2 1.8-4 4-4h308.4c2.2 0 3.9 1.8 3.9 4v0.6c0 2.2-1.7 3.9-3.9 3.9z"/>
					</g>
				</g>
				<g id="&lt;Group&gt;">
					<path id="&lt;Path&gt;" class="s7" d="m705.2 638.7h-62.6c-10 0-18.2-8.2-18.2-18.2 0-10.1 8.2-18.3 18.2-18.3h62.6c10.1 0 18.3 8.2 18.3 18.3 0 10-8.2 18.2-18.3 18.2z"/>
				</g>
				<path id="&lt;Path&gt;" class="s2" d="m842.3 314.7h-329.7c-1.7 0-3.1-1.4-3.1-3.1 0-1.7 1.4-3.1 3.1-3.1h329.7c1.7 0 3.1 1.4 3.1 3.1 0 1.7-1.4 3.1-3.1 3.1z"/>
			</g>
		</g>
		<g id="&lt;Group&gt;">
			<path id="&lt;Path&gt;" class="s9" d="m175.2 277.1h-142.1c-12.2 0-22.1-9.9-22.1-22.1v-142.1c0-12.2 9.9-22 22.1-22h142.1c12.2 0 22 9.8 22 22v142.1c0 12.2-9.8 22.1-22 22.1z"/>
			<g id="&lt;Group&gt;">
				<path id="&lt;Path&gt;" class="s7" d="m189.3 110.3c0 5.5-4.5 10.1-10 10.1-5.5 0-10.1-4.4-10.1-10 0-5.5 4.4-10 10-10.1 5.5 0 10 4.5 10.1 10z"/>
				<path id="&lt;Path&gt;" class="s11" d="m181.7 110.4l3.7 3.6-2.5 2.5-3.7-3.7-3.6 3.7-2.5-2.5 3.7-3.6-3.7-3.7 2.5-2.5 3.6 3.7 3.7-3.7 2.5 2.5z"/>
			</g>
			<g id="&lt;Group&gt;">
				<path id="&lt;Path&gt;" class="s8" d="m178.5 184c0 41.1-33.3 74.4-74.4 74.4-41.1 0-74.4-33.3-74.4-74.4 0-41.1 33.3-74.4 74.4-74.4 41.1 0 74.4 33.3 74.4 74.4z"/>
				<g id="&lt;Group&gt;">
					<path id="&lt;Path&gt;" class="s0" d="m123.1 158.7c0 10.5-8.5 18.9-19 18.9-10.4 0-18.9-8.4-18.9-18.9 0-10.4 8.5-18.9 18.9-18.9 10.5 0 19 8.5 19 18.9z"/>
					<path id="&lt;Path&gt;" class="s0" d="m139.9 212.5h-71.6c0-10 4.1-19 10.7-25.5 2-2 4.8-3 7.6-3h35.1c2.8 0 5.6 1 7.6 3 6.6 6.5 10.6 15.5 10.6 25.5z"/>
				</g>
			</g>
			<g id="&lt;Group&gt;">
				<path id="&lt;Path&gt;" class="s12" d="m218.7 175.4h173.8c11 0 29.4 0 29.4 27.6v135.2"/>
				<path id="&lt;Path&gt;" class="s9" d="m421.9 345.9c-4.2 0-7.7-3.5-7.7-7.7 0-4.3 3.5-7.8 7.7-7.8 4.3 0 7.7 3.5 7.7 7.8 0 4.2-3.4 7.7-7.7 7.7z"/>
				<path id="&lt;Path&gt;" class="s9" d="m220 183.1c-4.2 0-7.7-3.4-7.7-7.7 0-4.3 3.5-7.7 7.7-7.7 4.3 0 7.8 3.4 7.8 7.7 0 4.3-3.5 7.7-7.8 7.7z"/>
			</g>
		</g>
		<g id="&lt;Group&gt;">
			<g id="&lt;Group&gt;">
				<path id="&lt;Path&gt;" class="s9" d="m1265.4 372.1h-228.2c-15.6 0-28.4-12.7-28.4-28.4v-262.2c0-15.7 12.8-28.4 28.4-28.4h228.2c15.7 0 28.4 12.7 28.4 28.4v262.2c0 15.7-12.7 28.4-28.4 28.4z"/>
				<path id="&lt;Path&gt;" class="s8" d="m1264.2 281.4h-225.8c-7.5 0-13.6-6.1-13.6-13.6v-143.8c0-7.5 6.1-13.6 13.6-13.6h225.8c7.5 0 13.6 6.1 13.6 13.6v143.8c0 7.5-6.1 13.6-13.6 13.6z"/>
				<g id="&lt;Group&gt;">
					<g id="&lt;Group&gt;">
						<path id="&lt;Path&gt;" class="s13" d="m1077.1 260.8l2.8-1.1"/>
						<path id="&lt;Path&gt;" class="s14" d="m1085.6 257.4l28.8-11.3 36.9 14.7 39-14.7 29.7 12.3"/>
						<path id="&lt;Path&gt;" class="s13" d="m1222.8 259.6l2.8 1.2"/>
					</g>
				</g>
				<g id="&lt;Group&gt;">
					<path id="&lt;Path&gt;" class="s0" d="m1190.3 173.7c0 21.5-39 77.8-39 77.8 0 0-38.9-56.3-38.9-77.8 0-21.5 17.4-39 38.9-39 21.5 0 39 17.5 39 39z"/>
					<path id="&lt;Path&gt;" class="s8" d="m1175 173.5c0 13.1-10.6 23.6-23.7 23.6-13 0-23.6-10.5-23.6-23.6 0-13 10.6-23.6 23.6-23.6 13.1 0 23.7 10.6 23.7 23.6z"/>
				</g>
				<g id="&lt;Group&gt;">
					<g id="&lt;Group&gt;">
						<path id="&lt;Path&gt;" class="s9" d="m1096.4 212.9c0 10.7-19.3 38.6-19.3 38.6 0 0-19.3-27.9-19.3-38.6 0-10.6 8.6-19.3 19.3-19.3 10.6 0 19.3 8.7 19.3 19.3z"/>
						<path id="&lt;Path&gt;" class="s8" d="m1088.8 212.9c0 6.4-5.2 11.7-11.7 11.7-6.5 0-11.7-5.3-11.7-11.7 0-6.5 5.2-11.8 11.7-11.8 6.5 0 11.7 5.3 11.7 11.8z"/>
					</g>
					<g id="&lt;Group&gt;">
						<path id="&lt;Path&gt;" class="s9" d="m1244.9 212.9c0 10.7-19.3 38.6-19.3 38.6 0 0-19.3-27.9-19.3-38.6 0-10.6 8.6-19.3 19.3-19.3 10.6 0 19.3 8.7 19.3 19.3z"/>
						<path id="&lt;Path&gt;" class="s8" d="m1237.3 212.9c0 6.4-5.2 11.7-11.7 11.7-6.5 0-11.7-5.3-11.7-11.7 0-6.5 5.2-11.8 11.7-11.8 6.5 0 11.7 5.3 11.7 11.8z"/>
					</g>
				</g>
				<g id="&lt;Group&gt;">
					<path id="&lt;Path&gt;" class="s7" d="m1282.7 73.8c0 5.6-4.4 10.1-9.9 10.1-5.6 0.1-10.1-4.4-10.1-9.9-0.1-5.6 4.4-10.1 9.9-10.1 5.5-0.1 10.1 4.4 10.1 9.9z"/>
					<path id="&lt;Path&gt;" class="s11" d="m1275.2 73.9l3.6 3.7-2.4 2.4-3.7-3.6-3.7 3.6-2.5-2.4 3.7-3.7-3.7-3.7 2.5-2.5 3.7 3.7 3.7-3.7 2.4 2.5z"/>
				</g>
				<path id="&lt;Path&gt;" class="s0" d="m1194.2 93.9l-164.2-0.3c-2.9 0-5.2-2.3-5.2-5.1 0-2.9 2.4-5.2 5.2-5.2l164.2 0.3c2.9 0 5.2 2.3 5.2 5.1 0 2.9-2.4 5.2-5.2 5.2z"/>
				<path id="&lt;Path&gt;" class="s0" d="m1272.8 307.3l-243-0.3c-2.7 0-5-2.3-5-5v-0.4c0-2.8 2.3-5 5-5l243 0.3c2.8 0 5 2.2 5 5v0.4c0 2.7-2.2 5-5 5z"/>
				<path id="&lt;Path&gt;" class="s0" d="m1109.3 331.7l-79.5-0.2c-2.7-0.1-5-2.3-5-5 0-2.8 2.3-5 5-5l79.6 0.2c2.7 0 5 2.3 5 5 0 2.8-2.3 5-5.1 5z"/>
			</g>
			<g id="&lt;Group&gt;">
				<path id="&lt;Path&gt;" class="s15" d="m943.6 268.2v104.8"/>
				<path id="&lt;Path&gt;" class="s12" d="m943.6 303.5v-125.1c0-5 0-13.3 13.7-13.3h27.6"/>
				<path id="&lt;Path&gt;" class="s0" d="m943.6 380.7c-4.2 0-7.7-3.4-7.7-7.7 0-4.2 3.5-7.7 7.7-7.7 4.3 0 7.7 3.5 7.7 7.7 0 4.3-3.4 7.7-7.7 7.7z"/>
				<path id="&lt;Path&gt;" class="s9" d="m984.9 174.3c-4.2 0-7.7-3.5-7.7-7.8 0-4.2 3.5-7.7 7.7-7.7 4.3 0 7.8 3.5 7.8 7.7 0 4.3-3.5 7.8-7.8 7.8z"/>
			</g>
		</g>
		<g id="&lt;Group&gt;">
			<g id="&lt;Group&gt;">
				<path id="&lt;Path&gt;" class="s9" d="m347.8 686.3h-291.3c-8.8 0-15.9-7.1-15.9-15.9v-187.3c0-8.7 7.1-15.8 15.9-15.8h291.3c8.8 0 15.9 7.1 15.9 15.8v187.3c0 8.8-7.1 15.9-15.9 15.9z"/>
				<g id="&lt;Group&gt;">
					<path id="&lt;Path&gt;" class="s8" d="m338.5 673.5h-272.7c-5.2 0-9.5-4.3-9.5-9.5v-142.6c0-5.3 4.3-9.5 9.5-9.5h272.7c5.3 0 9.5 4.2 9.5 9.5v142.6c0 5.2-4.2 9.5-9.5 9.5z"/>
					<g id="&lt;Group&gt;">
						<path id="&lt;Path&gt;" class="s9" d="m299.1 535h15v62c0 4.1-3.4 7.5-7.5 7.5-4.1 0-7.5-3.4-7.5-7.5z"/>
						<path id="&lt;Path&gt;" class="s9" d="m257.4 535h15v56.4c0 4.1-3.3 7.5-7.5 7.5-4.1 0-7.5-3.4-7.5-7.5z"/>
						<path id="&lt;Path&gt;" class="s9" d="m215.8 555h15v72c0 4.1-3.4 7.5-7.5 7.5-4.2 0-7.5-3.4-7.5-7.5z"/>
						<path id="&lt;Path&gt;" class="s9" d="m174.1 535h15v117c0 4.1-3.4 7.5-7.5 7.5-4.1 0-7.5-3.4-7.5-7.5z"/>
						<path id="&lt;Path&gt;" class="s9" d="m132.4 535h15v102c0 4.2-3.3 7.5-7.5 7.5-4.1 0-7.5-3.3-7.5-7.5z"/>
						<path id="&lt;Path&gt;" class="s9" d="m90.8 535h15v59.3c0 4.1-3.4 7.5-7.5 7.5-4.2 0-7.5-3.4-7.5-7.5z"/>
					</g>
					<g id="&lt;Group&gt;">
						<path id="&lt;Path&gt;" class="s0" d="m105.8 659.5h-15v-62c0-4.2 3.3-7.5 7.5-7.5 4.1 0 7.5 3.3 7.5 7.5z"/>
						<path id="&lt;Path&gt;" class="s0" d="m147.4 659.5h-15v-36.4c0-4.2 3.4-7.5 7.5-7.5 4.2 0 7.5 3.3 7.5 7.5z"/>
						<path id="&lt;Path&gt;" class="s0" d="m189.1 659.5h-15v-92.1c0-4.1 3.4-7.5 7.5-7.5 4.1 0 7.5 3.4 7.5 7.5z"/>
						<path id="&lt;Path&gt;" class="s0" d="m230.8 659.5h-15v-117c0-4.2 3.3-7.5 7.5-7.5 4.1 0 7.5 3.3 7.5 7.5z"/>
						<path id="&lt;Path&gt;" class="s0" d="m272.4 659.5h-15v-82.1c0-4.1 3.4-7.5 7.5-7.5 4.2 0 7.5 3.4 7.5 7.5z"/>
						<path id="&lt;Path&gt;" class="s0" d="m314.1 659.5h-15v-59.3c0-4.2 3.4-7.5 7.5-7.5 4.1 0 7.5 3.3 7.5 7.5z"/>
					</g>
					<g id="&lt;Group&gt;">
						<path id="&lt;Path&gt;" class="s7" d="m358 483.4c0.1 5.5-4.4 10.1-9.9 10.1-5.6 0-10.1-4.4-10.1-10-0.1-5.5 4.4-10 9.9-10.1 5.6 0 10.1 4.5 10.1 10z"/>
						<path id="&lt;Path&gt;" class="s11" d="m350.5 483.5l3.7 3.7-2.5 2.4-3.7-3.6-3.7 3.6-2.4-2.4 3.6-3.7-3.6-3.7 2.4-2.5 3.7 3.7 3.7-3.7 2.5 2.5z"/>
					</g>
				</g>
				<path id="&lt;Path&gt;" class="s6" d="m277.8 496.9h-216c-3 0-5.5-2.5-5.5-5.5 0-3 2.5-5.5 5.5-5.5h216c3 0 5.4 2.5 5.4 5.5 0 3-2.4 5.5-5.4 5.5z"/>
			</g>
			<g id="&lt;Group&gt;">
				<path id="&lt;Path&gt;" class="s12" d="m459.2 741.4h-261.3c-5 0-13.2-2.1-13.2-14.1v-27.2"/>
				<path id="&lt;Path&gt;" class="s9" d="m466.9 741.4c0 4.3-3.4 7.7-7.7 7.7-4.2 0-7.7-3.4-7.7-7.7 0-4.2 3.5-7.7 7.7-7.7 4.3 0 7.7 3.5 7.7 7.7z"/>
				<path id="&lt;Path&gt;" class="s9" d="m192.4 700.1c0 4.3-3.5 7.7-7.7 7.7-4.3 0-7.8-3.4-7.8-7.7 0-4.3 3.5-7.7 7.8-7.7 4.2 0 7.7 3.4 7.7 7.7z"/>
			</g>
		</g>
		<g id="&lt;Group&gt;">
			<g id="&lt;Group&gt;">
				<path id="&lt;Path&gt;" class="s9" d="m1344.4 744.2h-363.4c-8 0-14.6-6.5-14.6-14.6v-172.1c0-8.1 6.6-14.6 14.6-14.6h363.4c8 0 14.6 6.5 14.6 14.6v172.1c0 8.1-6.6 14.6-14.6 14.6z"/>
				<g id="&lt;Group&gt;">
					<path id="&lt;Path&gt;" class="s7" d="m1352.9 559.6c0.1 5.5-4.4 10-9.9 10.1-5.5 0-10.1-4.5-10.1-10 0-5.5 4.4-10.1 9.9-10.1 5.6 0 10.1 4.4 10.1 10z"/>
					<path id="&lt;Path&gt;" class="s11" d="m1345.4 559.6l3.7 3.7-2.5 2.5-3.7-3.7-3.7 3.7-2.4-2.5 3.6-3.7-3.6-3.6 2.4-2.5 3.7 3.7 3.7-3.7 2.5 2.5z"/>
				</g>
				<g id="&lt;Group&gt;">
					<path id="&lt;Path&gt;" class="s0" d="m1043.1 632.6h-51.8c-3.8 0-6.9-3.1-6.9-7v-51.7c0-3.9 3.1-7 6.9-7h51.8c3.8 0 6.9 3.1 6.9 7v51.7c0 3.9-3.1 7-6.9 7z"/>
					<g id="&lt;Group&gt;">
						<path id="&lt;Path&gt;" class="s0" d="m1299 582.7h-218.7c-4.4 0-7.9-3.5-7.9-7.9 0-4.3 3.5-7.9 7.9-7.9h218.7c4.3 0 7.9 3.6 7.9 7.9 0 4.4-3.6 7.9-7.9 7.9z"/>
					</g>
					<g id="&lt;Group&gt;">
						<path id="&lt;Path&gt;" class="s0" d="m1200.1 606.9h-122.5c-2.9 0-5.2-2.4-5.2-5.3 0-2.8 2.3-5.2 5.2-5.2h122.5c2.9 0 5.2 2.4 5.2 5.3 0 2.8-2.3 5.2-5.2 5.2z"/>
					</g>
				</g>
				<g id="&lt;Group&gt;">
					<path id="&lt;Path&gt;" class="s8" d="m1326.9 723.7h-328.3c-8.2 0-14.9-6.7-14.9-14.9v-46.5c0-8.2 6.7-14.9 14.9-14.9h328.3c8.2 0 14.8 6.7 14.8 14.9v46.5c0 8.2-6.6 14.9-14.8 14.9z"/>
					<g id="&lt;Group&gt;">
						<path id="&lt;Path&gt;" class="s7" d="m1151.3 682.8v-19.1c0-1.4 1.4-2.3 2.6-1.7l19.2 9.5c1.3 0.7 1.3 2.6 0 3.2l-19.1 9.7c-1.2 0.6-2.7-0.2-2.7-1.6z"/>
						<g id="&lt;Group&gt;">
							<path id="&lt;Path&gt;" class="s0" d="m1207.1 680.1v-13.7c0-1 1-1.6 1.8-1.2l13.7 6.8c1 0.5 1 1.8 0 2.3l-13.7 6.9c-0.8 0.5-1.8-0.2-1.8-1.1z"/>
							<path id="&lt;Path&gt;" class="s0" d="m1227.6 681.4h-0.9c-0.5 0-1-0.5-1-1v-14.3c0-0.6 0.5-1 1-1h0.9c0.6 0 1 0.4 1 1v14.3c0 0.5-0.4 1-1 1z"/>
						</g>
						<g id="&lt;Group&gt;">
							<path id="&lt;Path&gt;" class="s0" d="m1116.5 681.2l-13.7-6.9c-1-0.5-1-1.8 0-2.3l13.7-6.8c0.9-0.4 1.9 0.2 1.9 1.2v13.7c0 0.9-1.1 1.6-1.9 1.1z"/>
							<path id="&lt;Path&gt;" class="s0" d="m1096.8 680.4v-14.3c0-0.6 0.5-1 1-1h0.9c0.6 0 1 0.4 1 1v14.3c0 0.5-0.4 1-1 1h-0.9c-0.5 0-1-0.5-1-1z"/>
						</g>
					</g>
					<g id="&lt;Group&gt;">
						<g id="&lt;Group&gt;">
							<g id="&lt;Group&gt;">
								<g id="&lt;Group&gt;">
									<path id="&lt;Path&gt;" class="s0" d="m1011.4 700.5c0 0.8-0.6 1.4-1.4 1.4-0.8 0-1.5-0.6-1.5-1.4 0-0.8 0.7-1.5 1.5-1.5 0.8 0 1.4 0.7 1.4 1.5z"/>
									<path id="&lt;Path&gt;" class="s0" d="m1011.4 705.4c0 0.8-0.6 1.5-1.4 1.5-0.8 0-1.5-0.7-1.5-1.5 0-0.8 0.7-1.4 1.5-1.4 0.8 0 1.4 0.6 1.4 1.4z"/>
								</g>
								<path id="&lt;Path&gt;" class="s0" d="m1003.7 706.9h-4.7c-0.9 0-1.6-0.7-1.6-1.6v-4.7c0-0.9 0.7-1.6 1.6-1.6h4.7c0.9 0 1.6 0.7 1.6 1.6v4.7c0 0.9-0.7 1.6-1.6 1.6z"/>
								<path id="&lt;Path&gt;" class="s0" d="m1020.9 706.9h-4.7c-0.9 0-1.6-0.7-1.6-1.6v-4.7c0-0.9 0.7-1.6 1.6-1.6h4.7c0.9 0 1.6 0.7 1.6 1.6v4.7c0 0.9-0.7 1.6-1.6 1.6z"/>
							</g>
							<g id="&lt;Group&gt;">
								<g id="&lt;Group&gt;">
									<path id="&lt;Path&gt;" class="s0" d="m1316.9 700.5c0 0.8-0.6 1.4-1.4 1.4-0.8 0-1.5-0.6-1.5-1.4 0-0.8 0.7-1.5 1.5-1.5 0.8 0 1.4 0.7 1.4 1.5z"/>
									<path id="&lt;Path&gt;" class="s0" d="m1316.9 705.4c0 0.8-0.6 1.5-1.4 1.5-0.8 0-1.5-0.7-1.5-1.5 0-0.8 0.7-1.4 1.5-1.4 0.8 0 1.4 0.6 1.4 1.4z"/>
								</g>
								<path id="&lt;Path&gt;" class="s0" d="m1309.2 706.9h-4.7c-0.8 0-1.5-0.7-1.5-1.6v-4.7c0-0.9 0.7-1.6 1.5-1.6h4.7c0.9 0 1.6 0.7 1.6 1.6v4.7c0 0.9-0.7 1.6-1.6 1.6z"/>
								<path id="&lt;Path&gt;" class="s0" d="m1326.4 706.9h-4.7c-0.9 0-1.6-0.7-1.6-1.6v-4.7c0-0.9 0.7-1.6 1.6-1.6h4.7c0.9 0 1.6 0.7 1.6 1.6v4.7c0 0.9-0.7 1.6-1.6 1.6z"/>
							</g>
						</g>
						<g id="&lt;Group&gt;">
							<path id="&lt;Path&gt;" class="s0" d="m1291.7 704h-258v-1.5h258z"/>
							<path id="&lt;Path&gt;" class="s0" d="m1170.8 703.1c0 2.6-2.2 4.8-4.8 4.8-2.6 0-4.7-2.2-4.7-4.8 0-2.6 2.1-4.7 4.7-4.7 2.6 0 4.8 2.1 4.8 4.7z"/>
						</g>
					</g>
				</g>
			</g>
			<g id="&lt;Group&gt;">
				<path id="&lt;Path&gt;" class="s15" d="m1090.7 477.6h-173.1"/>
				<path id="&lt;Path&gt;" class="s12" d="m1088.9 477.6h90c5 0 13.3 0 13.3 14.4v26.9"/>
				<path id="&lt;Path&gt;" class="s0" d="m909.9 477.6c0-4.3 3.4-7.7 7.7-7.7 4.3 0 7.7 3.4 7.7 7.7 0 4.2-3.4 7.7-7.7 7.7-4.3 0-7.7-3.5-7.7-7.7z"/>
				<path id="&lt;Path&gt;" class="s9" d="m1184.5 518.9c0-4.2 3.4-7.7 7.7-7.7 4.2 0 7.7 3.5 7.7 7.7 0 4.3-3.5 7.7-7.7 7.7-4.3 0-7.7-3.4-7.7-7.7z"/>
			</g>
		</g>
	</g>
</svg>