<svg version="1.2" xmlns="http://www.w3.org/2000/svg" viewBox="0 0 816 766" width="816" height="766">
	<title>25834547_7131905-ai</title>
	<style>
		.s0 { fill: #06142d } 
		.s1 { fill: #fb952c } 
		.s2 { opacity: .2;mix-blend-mode: overlay;fill: #ffffff } 
		.s3 { fill: #218ae1 } 
		.s4 { fill: #2247b1 } 
		.s5 { opacity: .1;mix-blend-mode: overlay;fill: #ffffff } 
		.s6 { fill: #ffffff } 
		.s7 { opacity: .1;mix-blend-mode: multiply;fill: #9b409e } 
		.s8 { fill: #e0e2e1 } 
		.s9 { opacity: .3;mix-blend-mode: overlay;fill: #ffffff } 
		.s10 { opacity: .3;mix-blend-mode: multiply;fill: #93278f } 
		.s11 { fill: #fc952c } 
		.s12 { fill: #8dd6ff } 
		.s13 { opacity: .1;mix-blend-mode: multiply;fill: #93278f } 
		.s14 { opacity: .2;mix-blend-mode: multiply;fill: #9b409e } 
	</style>
	<g id="OBJECTS">
		<g id="&lt;Group&gt;">
			<g id="&lt;Group&gt;">
				<g id="&lt;Group&gt;">
					<g id="&lt;Group&gt;">
						<g id="&lt;Group&gt;">
							<path id="&lt;Compound Path&gt;" fill-rule="evenodd" class="s0" d="m663.4 210h-28.9l-14.5-25.1 14.5-25h28.9l14.4 25zm-27-3.2h25.2l12.6-21.8-12.6-21.8h-25.2l-12.6 21.8z"/>
						</g>
					</g>
				</g>
				<g id="&lt;Group&gt;">
					<g id="&lt;Group&gt;">
						<path id="&lt;Compound Path&gt;" fill-rule="evenodd" class="s0" d="m621.1 600.1l-25.6-13.5-1.1-28.9 24.5-15.4 25.6 13.5 1.1 28.9zm-22.4-15.5l22.2 11.8 21.4-13.4-1-25.2-22.2-11.8-21.4 13.4z"/>
					</g>
				</g>
				<g id="&lt;Group&gt;">
					<g id="&lt;Group&gt;">
						<g id="&lt;Group&gt;">
							<path id="&lt;Compound Path&gt;" fill-rule="evenodd" class="s0" d="m703.6 277.5h-28.9l-14.5-25 14.5-25.1h28.9l14.4 25.1zm-27-3.3h25.2l12.6-21.8-12.6-21.8h-25.2l-12.6 21.8z"/>
						</g>
					</g>
				</g>
				<g id="&lt;Group&gt;">
					<g id="&lt;Group&gt;">
						<g id="&lt;Group&gt;">
							<path id="&lt;Compound Path&gt;" fill-rule="evenodd" class="s0" d="m199 203.3h-29l-14.4-25.1 14.4-25h29l14.4 25zm-27-3.2h25.2l12.5-21.8-12.5-21.8h-25.2l-12.6 21.8z"/>
						</g>
					</g>
				</g>
				<g id="&lt;Group&gt;">
					<g id="&lt;Group&gt;">
						<g id="&lt;Group&gt;">
							<path id="&lt;Compound Path&gt;" fill-rule="evenodd" class="s0" d="m682.7 559.1l-27.1-10-4.9-28.5 22.2-18.5 27.2 10 4.9 28.5zm-24.3-12.4l23.6 8.7 19.4-16.1-4.3-24.8-23.6-8.7-19.4 16.1z"/>
						</g>
					</g>
				</g>
				<g id="&lt;Group&gt;">
					<g id="&lt;Group&gt;">
						<g id="&lt;Group&gt;">
							<path id="&lt;Compound Path&gt;" fill-rule="evenodd" class="s0" d="m150.6 592.7l-19.5-21.3 8.7-27.6 28.2-6.2 19.5 21.3-8.7 27.6zm-15.9-22.1l17 18.6 24.6-5.5 7.6-24-16.9-18.6-24.6 5.4z"/>
						</g>
					</g>
				</g>
			</g>
			<g id="&lt;Group&gt;">
				<g id="&lt;Group&gt;">
					<g id="&lt;Group&gt;">
						<g id="&lt;Group&gt;">
							<path id="&lt;Path&gt;" class="s1" d="m40.9 440.1c-0.1 6.3-5.4 11.5-11.8 11.5-3.4 0-6.4-1.4-8.5-3.8-1.9-2-3-4.8-3-7.8-0.1-6.4 5-11.7 11.4-11.7q1.1 0 2.2 0.2c5.5 0.9 9.7 5.9 9.7 11.6z"/>
							<g id="&lt;Group&gt;">
								<g id="&lt;Group&gt;">
									<path id="&lt;Compound Path&gt;" fill-rule="evenodd" class="s0" d="m44.6 442.2c-3.5 9.7-9.9 14.2-17.8 12.9-7.4-1.2-12.8-7.5-12.9-15-0.1-7.6 5-13.8 12.6-15.3 8-1.6 14.2 2.9 18.3 13.3 1.1 0 2.2 0.1 3.4 0.1 34.8 0.1 69.6 0.1 104.4 0 2.9 0 4.7 0.9 6.1 3.4 6 10.7 12.2 21.3 18.3 32 0.8 1.4 2.1 2.9 0.4 4.5-1 1-2.1 0.4-3.7-2.4-5.8-9.8-11.6-19.7-17.1-29.7-1.6-2.7-3.2-3.9-6.5-3.9-33.8 0.2-67.6 0.1-101.4 0.1-1.3 0-2.7 0-4.1 0zm-15.5 9.4c6.4 0 11.7-5.2 11.8-11.5 0-6.5-5.4-11.9-11.9-11.8-6.4 0-11.5 5.3-11.5 11.7 0.1 6.4 5.2 11.6 11.6 11.6z"/>
								</g>
							</g>
							<path id="&lt;Path&gt;" class="s2" d="m40.9 440.1c-0.1 6.3-5.4 11.5-11.8 11.5-3.4 0-6.4-1.4-8.5-3.8 6.9-2.8 11.6-9.7 10.5-17.9-0.1-0.5 0-1 0.1-1.4 5.5 0.9 9.7 5.9 9.7 11.6z"/>
						</g>
						<g id="&lt;Group&gt;">
							<g id="&lt;Group&gt;">
								<path id="&lt;Path&gt;" class="s0" d="m103.5 404.2q-4.5 0-9.1 0c-0.7 0-1.4 0-2.2-0.1-1.1 0-2.4-0.4-2.1-1.7 0.1-0.8 1.4-1.3 2.3-1.8 0.4-0.2 0.9 0 1.4 0q9.8-0.1 19.6 0c1.4 0 3.1-0.3 3.5 1.7 0.3 1.3-0.9 1.8-3.6 1.9-3.3 0-6.5 0-9.8 0z"/>
							</g>
							<g id="&lt;Group&gt;">
								<path id="&lt;Path&gt;" class="s0" d="m62.3 404.9c-3.3 0-6.5 0.1-9.8 0-0.9 0-1.7 0-2.5-0.3-0.5-0.1-1.1-0.8-1-1.3 0-0.6 0.5-1.4 1-1.6 0.7-0.4 1.6-0.4 2.5-0.4q10 0 20 0c1.4 0 3.3-0.1 3.3 1.8 0.1 2.1-1.9 1.8-3.3 1.9-3.4 0-6.8 0-10.2 0q0 0 0-0.1z"/>
							</g>
							<g id="&lt;Group&gt;">
								<path id="&lt;Path&gt;" class="s0" d="m141.8 404.3c-2.5 0-5.1 0-7.6-0.1-0.8 0-1.7 0-2.5-0.3-1.2-0.6-1.3-2.3 0-2.9 0.7-0.4 1.6-0.5 2.4-0.5q7.8 0 15.6 0c1.5 0 3.4-0.1 3.4 1.9 0.1 2-1.8 1.8-3.3 1.8-2.6 0.1-5.3 0.1-8 0.1q0 0 0 0z"/>
							</g>
							<g id="&lt;Group&gt;">
								<g id="&lt;Group&gt;">
									<path id="&lt;Compound Path&gt;" fill-rule="evenodd" class="s3" d="m38.9 403.1c0 7.5-6.2 13.5-13.7 13.5-4.6-0.1-8.6-2.4-11-5.8-1.6-2.3-2.5-5.1-2.5-8 0.1-7.7 6.2-13.6 13.8-13.5 2 0 4 0.5 5.7 1.3 4.7 2.2 7.8 6.9 7.7 12.5zm-3.2-0.4c0.1-3.9-2-7.3-5.1-9.1-1.6-0.9-3.3-1.4-5.2-1.4-5.8 0-10.5 4.7-10.5 10.4 0 2.9 1.2 5.5 3.2 7.3 1.8 1.8 4.3 2.9 7 3 5.8 0.1 10.6-4.5 10.6-10.2z"/>
									<path id="&lt;Path&gt;" class="s4" d="m25.4 395.8c3.7 0.1 6.7 3.1 6.7 6.8 0 3.8-3.2 6.8-7.1 6.7-3.6-0.2-6.6-3.4-6.5-7 0.2-3.6 3.3-6.5 6.9-6.5z"/>
									<g id="&lt;Group&gt;">
										<g id="&lt;Group&gt;">
											<path id="&lt;Compound Path&gt;" fill-rule="evenodd" class="s0" d="m9.4 396c3-6.6 9.3-10.6 16.6-10.3 7.2 0.2 13.4 4.8 15.7 11.6 3 8.7-1.3 18.2-9.9 21.6-8.7 3.6-18.4-0.4-22.3-8.9 0 0-3.3-6.5-0.1-14zm29.5 7.1c0.1-7.7-5.8-13.7-13.4-13.8-7.6-0.1-13.7 5.8-13.8 13.4-0.1 7.7 5.9 13.8 13.5 13.9 7.5 0 13.7-6 13.7-13.5z"/>
										</g>
									</g>
									<g id="&lt;Group&gt;">
										<g id="&lt;Group&gt;">
											<path id="&lt;Compound Path&gt;" fill-rule="evenodd" class="s0" d="m25.4 392.2c5.7 0 10.4 4.8 10.4 10.5-0.1 5.7-4.9 10.3-10.7 10.2-5.6-0.1-10.2-4.7-10.2-10.3 0-5.7 4.7-10.4 10.5-10.4zm0 3.6c-3.6 0-6.7 2.9-6.9 6.5-0.1 3.6 2.9 6.8 6.5 7 3.9 0.1 7.1-2.9 7.1-6.7 0-3.7-3-6.7-6.7-6.8z"/>
										</g>
									</g>
								</g>
								<path id="&lt;Path&gt;" class="s2" d="m38.9 403.1c0 7.5-6.2 13.5-13.7 13.5-4.6-0.1-8.6-2.4-11-5.8q2.1-0.2 3.9-0.9 1.8-0.7 3.5-1.8c3.5-2.5 6.1-6.5 7.8-10.9q0.7-1.8 1.2-3.6 0.4-1.5 0.6-3c4.7 2.2 7.8 6.9 7.7 12.5z"/>
							</g>
						</g>
						<g id="&lt;Group&gt;">
							<g id="&lt;Group&gt;">
								<path id="&lt;Path&gt;" class="s0" d="m62.4 365c-3.1 0-6.2 0.1-9.4 0-1 0-2 0-2.9-0.3-0.5-0.2-1.1-1-1.1-1.5 0-0.5 0.6-1.2 1.2-1.5 0.7-0.3 1.6-0.3 2.5-0.3 6.4 0 12.8-0.1 19.2-0.1 3 0.1 4.3 0.8 3.9 2.1-0.5 2.1-2.4 1.6-3.9 1.6-3.2 0.1-6.3 0.1-9.5 0.1q0-0.1 0-0.1z"/>
							</g>
							<g id="&lt;Group&gt;">
								<path id="&lt;Path&gt;" class="s0" d="m141.7 365.9c-2.3 0-4.6 0-6.9 0-0.9 0-1.8 0.1-2.5-0.3-0.6-0.3-1.3-1.1-1.4-1.7-0.1-0.5 0.7-1.3 1.2-1.5 0.8-0.3 1.7-0.4 2.5-0.4q7.3 0 14.5 0 0.2 0 0.4 0c2.6 0.2 3.9 0.8 3.6 2.1-0.3 1.9-2 1.7-3.4 1.8-2.7 0-5.4 0-8 0q0 0 0 0z"/>
							</g>
							<g id="&lt;Group&gt;">
								<path id="&lt;Path&gt;" class="s0" d="m103.1 365.8c-3 0-6 0-9.1-0.1-0.9 0-2 0-2.8-0.3-0.6-0.2-1.1-1-1.1-1.6-0.1-0.3 0.5-1 1-1.2 0.8-0.3 1.7-0.4 2.5-0.4q9.9 0 19.7 0c2.8 0 3.9 0.7 3.6 2-0.4 2-2.2 1.5-3.6 1.5-3.4 0.1-6.8 0.1-10.2 0.1z"/>
							</g>
							<g id="&lt;Group&gt;">
								<g id="&lt;Group&gt;">
									<path id="&lt;Compound Path&gt;" fill-rule="evenodd" class="s3" d="m38.9 362.3c0 7.6-6.2 13.6-13.7 13.5-3.9 0-7.4-1.7-9.9-4.3-2.3-2.5-3.6-5.8-3.6-9.5 0.1-7.6 6.2-13.5 13.8-13.5 3.1 0.1 5.9 1.1 8.1 2.8 3.3 2.5 5.4 6.5 5.3 11zm-3.2-0.4c0.1-2.9-1.1-5.6-3.1-7.5-1.9-1.8-4.4-2.9-7.2-3-5.8 0-10.5 4.7-10.5 10.4 0 3.2 1.5 6.2 3.9 8 1.8 1.5 4 2.3 6.3 2.3 5.8 0.2 10.6-4.5 10.6-10.2z"/>
									<path id="&lt;Path&gt;" class="s4" d="m25.4 355.1c3.7 0 6.7 3.1 6.7 6.7 0 3.8-3.2 6.9-7.1 6.7-3.6-0.1-6.6-3.3-6.5-6.9 0.2-3.7 3.3-6.6 6.9-6.5z"/>
									<g id="&lt;Group&gt;">
										<g id="&lt;Group&gt;">
											<path id="&lt;Compound Path&gt;" fill-rule="evenodd" class="s0" d="m9.4 355.2c3-6.6 9.3-10.6 16.6-10.3 7.2 0.3 13.4 4.9 15.7 11.6 3 8.7-1.3 18.2-9.9 21.7-8.7 3.5-18.4-0.4-22.3-9 0 0-3.3-6.4-0.1-14zm29.5 7.1c0.1-7.6-5.8-13.7-13.4-13.8-7.6 0-13.7 5.9-13.8 13.5-0.1 7.6 5.9 13.7 13.5 13.8 7.5 0.1 13.7-5.9 13.7-13.5z"/>
										</g>
									</g>
									<g id="&lt;Group&gt;">
										<g id="&lt;Group&gt;">
											<path id="&lt;Compound Path&gt;" fill-rule="evenodd" class="s0" d="m25.4 351.5c5.7 0 10.4 4.7 10.4 10.4-0.1 5.7-4.9 10.4-10.7 10.3-5.6-0.1-10.2-4.8-10.2-10.4 0-5.7 4.7-10.4 10.5-10.3zm0 3.6c-3.6-0.1-6.7 2.8-6.9 6.5-0.1 3.6 2.9 6.8 6.5 6.9 3.9 0.2 7.1-2.9 7.1-6.7 0-3.6-3-6.7-6.7-6.7z"/>
										</g>
									</g>
								</g>
								<path id="&lt;Path&gt;" class="s2" d="m38.9 362.3c0 7.6-6.2 13.6-13.7 13.5-3.9 0-7.4-1.7-9.9-4.3q1.8-0.7 3.5-1.7c1.2-0.6 2.3-1.3 3.4-2.1 3.6-2.6 6.5-5.9 8.7-9.8q0.9-1.7 1.7-3.5c0.4-1 0.7-2 1-3.1 3.3 2.5 5.4 6.5 5.3 11z"/>
							</g>
						</g>
						<g id="&lt;Group&gt;">
							<path id="&lt;Path&gt;" class="s1" d="m40.9 325.6c0.1 6.4-5.4 11.9-11.9 11.8-3.2 0-6-1.4-8.1-3.4-2.1-2.1-3.4-5.1-3.4-8.3 0.1-6.5 5.1-11.5 11.6-11.6 1.6 0 3.2 0.3 4.7 1 4.1 1.7 7 5.8 7.1 10.5z"/>
							<g id="&lt;Group&gt;">
								<g id="&lt;Group&gt;">
									<path id="&lt;Compound Path&gt;" fill-rule="evenodd" class="s0" d="m44.5 328.2c-3.2 9.4-9.5 13.8-17.5 12.6-7.4-1-12.8-7.1-13.1-14.4-0.2-7.5 4.6-14 11.7-15.5 4.4-1 8.7-0.4 12.5 2.4 3.6 2.6 5.6 6.2 6.4 10.8 1.5 0 2.7 0 3.9 0 34 0 68-0.1 102.1 0 2.9 0 4.5-0.9 5.9-3.5 5.6-9.9 11.4-19.8 17.1-29.6 0.4-0.7 0.7-1.5 1.2-1.9 0.7-0.5 1.8-1.1 2.4-0.9 1.4 0.4 1.2 1.7 0.8 2.8-0.2 0.6-0.5 1.1-0.8 1.6-6.2 10.9-12.5 21.7-18.6 32.6-1.3 2.3-3 3.1-5.6 3.1-34.7-0.1-69.3-0.1-103.9-0.1-1.5 0-2.9 0-4.5 0zm-27-2.5c0 6.5 5.1 11.6 11.6 11.7 6.4 0.1 11.9-5.4 11.8-11.8-0.1-6.4-5.4-11.5-11.8-11.5-6.5 0.1-11.6 5.1-11.6 11.6z"/>
								</g>
							</g>
							<path id="&lt;Path&gt;" class="s2" d="m40.9 325.6c0.1 6.4-5.4 11.9-11.9 11.8-3.2 0-6-1.4-8.1-3.4 7.7-2.9 13.1-10.2 12.9-18.9 4.1 1.7 7 5.8 7.1 10.5z"/>
						</g>
					</g>
					<g id="&lt;Group&gt;">
						<g id="&lt;Group&gt;">
							<path id="&lt;Path&gt;" class="s1" d="m796.2 439.9c0.1 5.9-4.4 10.8-10.2 11.6q-0.8 0.1-1.7 0.1c-6.4-0.1-11.4-5.3-11.4-11.8 0.1-6.4 5.3-11.6 11.7-11.5q1 0 2 0.2c5.4 0.9 9.6 5.8 9.6 11.4z"/>
							<path id="&lt;Compound Path&gt;" fill-rule="evenodd" class="s0" d="m797.2 448.4c-3.4 4.9-8.1 7.3-14.1 6.8-5.9-0.6-10.1-3.8-12.6-9.2-0.5-1.1-0.9-2.2-1.3-3.5-1-0.1-1.9-0.3-2.8-0.3-34.8 0-69.6 0.1-104.3 0-2.5 0-3.7 0.9-4.8 2.9-5.8 10.3-11.8 20.4-17.7 30.6-0.4 0.7-0.8 1.6-1.5 2.1-0.4 0.4-1.5 0.7-1.8 0.5-0.6-0.4-1.1-1.4-1.1-2.1 0-0.8 0.5-1.6 0.9-2.3 6.3-11 12.6-21.9 18.9-32.9 1.2-2.2 2.9-2.8 5.3-2.8 34.8 0.1 69.6 0.1 104.3 0.1q2.2 0 4.4 0c0.4-1.2 0.6-2.1 1-3.1 2.2-6.3 7.7-10.5 14.2-10.6 1.4 0 4.4 0.1 7.5 1.8 1.2 0.7 2.3 1.5 3.2 2.4 4.4 3.4 6.1 9.5 4.5 14.8-0.8 3-2.2 4.8-2.2 4.8zm-1-8.5c0-6.3-5.3-11.6-11.6-11.6-6.4-0.1-11.6 5.1-11.7 11.5 0 6.5 5 11.7 11.4 11.8 6.5 0.1 12-5.3 11.9-11.7z"/>
							<path id="&lt;Path&gt;" class="s2" d="m796.2 439.9c0.1 5.9-4.4 10.8-10.2 11.6 3.2-7.9 5.2-14.6 0.6-23 5.4 0.9 9.6 5.8 9.6 11.4z"/>
						</g>
						<g id="&lt;Group&gt;">
							<path id="&lt;Path&gt;" class="s1" d="m783.3 334.5q-1 0.2-2 0.2c-6.4 0-11.6-5.1-11.7-11.5 0-6.5 5-11.7 11.4-11.8q0.9 0 1.7 0.1c5.8 0.8 10.3 5.7 10.2 11.6 0 5.6-4.2 10.4-9.6 11.4z"/>
							<path id="&lt;Compound Path&gt;" fill-rule="evenodd" class="s0" d="m796.1 319.4c1.6 5.2-0.1 11.4-4.5 14.8-0.9 0.9-1.9 1.7-3.2 2.4-3.1 1.7-6.1 1.8-7.5 1.8-6.5-0.1-12-4.3-14.2-10.7-0.3-0.9-0.6-1.8-1-3q-2.2 0-4.4 0c-34.7 0-69.5 0-104.3 0.1-2.4 0-4.1-0.6-5.3-2.8-6.3-11-12.6-21.9-18.9-32.9-0.4-0.7-0.9-1.6-0.9-2.3 0-0.7 0.5-1.7 1.1-2.1 0.3-0.2 1.4 0.1 1.9 0.5 0.6 0.5 1 1.3 1.4 2.1 5.9 10.2 11.9 20.3 17.7 30.6 1.1 2 2.3 2.9 4.8 2.9 34.8-0.1 69.5 0 104.3-0.1 0.9 0 1.8-0.1 2.8-0.2 0.5-1.3 0.8-2.5 1.3-3.6 2.5-5.3 6.7-8.5 12.7-9.1 5.9-0.5 10.6 1.8 14 6.8 0 0 1.4 1.8 2.2 4.8zm-15.1-8c-6.4 0.1-11.4 5.3-11.4 11.8 0.1 6.4 5.3 11.6 11.7 11.5 6.3 0 11.6-5.3 11.6-11.6 0.1-6.5-5.4-11.8-11.9-11.7z"/>
							<path id="&lt;Path&gt;" class="s2" d="m783.3 334.5c4.6-8.4 2.6-15.1-0.6-23 5.8 0.8 10.3 5.7 10.2 11.6 0 5.6-4.2 10.4-9.6 11.4z"/>
						</g>
						<g id="&lt;Group&gt;">
							<path id="&lt;Compound Path&gt;" fill-rule="evenodd" class="s3" d="m794.3 403c0 6.8-4.9 12.3-11.4 13.4q-1.1 0.2-2.3 0.2c-7.6-0.1-13.5-6.2-13.5-13.8 0-6.5 4.5-11.9 10.6-13.2q1.5-0.3 3.1-0.3c7.6 0 13.5 6 13.5 13.7zm-3.2-0.1c0.2-5.7-4.4-10.5-10.2-10.7q-1.1 0-2.1 0.2c-4.8 0.9-8.5 5-8.5 10-0.2 5.5 4.4 10.3 9.9 10.5 1.5 0.1 2.9-0.2 4.2-0.7 3.8-1.5 6.5-5 6.7-9.3z"/>
							<path id="&lt;Path&gt;" class="s4" d="m787.5 402.6c0 1.9-0.9 3.6-2.2 4.8-1.2 1.2-2.8 1.9-4.5 1.9-3.7 0-6.8-2.9-6.9-6.6-0.1-3.7 3.1-6.9 6.9-6.9q0.8 0 1.6 0.2v0.1c2.9 0.7 5.1 3.4 5.1 6.5z"/>
							<g id="&lt;Group&gt;">
								<g id="&lt;Group&gt;">
									<path id="&lt;Compound Path&gt;" fill-rule="evenodd" class="s0" d="m763.2 405c-7 0-13.9 0-20.8 0-1.1 0-2.3 0.1-3.3-0.2-0.7-0.2-1.6-1-1.6-1.6 0-0.6 0.8-1.5 1.5-1.7 1-0.3 2.1-0.2 3.2-0.2 6.9 0 13.8 0 21.1 0 1-6 3.8-10.7 9.2-13.7 3.8-2 7.8-2.4 12-1.6 8.1 1.6 13.8 9.3 13.4 17.9-0.3 8.2-6.9 15.2-15.1 16.2-9.2 1.1-16.4-4.3-19.6-15.1zm31.1-2c0-7.7-5.9-13.7-13.6-13.7-7.6 0-13.6 5.9-13.6 13.5-0.1 7.6 6 13.7 13.5 13.8 7.6 0 13.7-6 13.7-13.6z"/>
								</g>
							</g>
							<g id="&lt;Group&gt;">
								<path id="&lt;Path&gt;" class="s0" d="m709.7 404.2q-4.7 0-9.4 0c-0.8 0-1.7 0.1-2.5-0.2-0.6-0.2-1.4-1-1.3-1.4 0.1-0.7 0.7-1.4 1.3-1.8 0.5-0.3 1.4-0.2 2.1-0.2q9.8-0.1 19.6 0c1.5 0 3.7-0.3 3.7 1.8 0.1 2.2-2.1 1.7-3.6 1.8-3.3 0-6.6 0-9.9 0z"/>
							</g>
							<g id="&lt;Group&gt;">
								<path id="&lt;Path&gt;" class="s0" d="m671.5 400.5c2.6 0 5.1 0 7.7 0 0.8 0 1.7 0.1 2.4 0.5 1.3 0.6 1.2 2.3 0 2.9-0.5 0.2-1.2 0.3-1.7 0.3q-8.6 0.1-17.1 0c-0.4 0-0.9 0.1-1.1-0.1-0.6-0.5-1.5-1.1-1.5-1.7 0-0.6 0.9-1.4 1.6-1.7 0.5-0.3 1.4-0.2 2.1-0.2q3.8 0 7.6 0 0 0 0 0z"/>
							</g>
							<g id="&lt;Group&gt;">
								<g id="&lt;Group&gt;">
									<path id="&lt;Compound Path&gt;" fill-rule="evenodd" class="s0" d="m780.9 392.2c5.8 0.2 10.4 5 10.2 10.7-0.2 5.7-5.1 10.2-10.9 10-5.5-0.2-10.1-5-10-10.5 0.2-5.8 5-10.3 10.7-10.2zm-0.1 17.1c3.6-0.1 6.7-3.1 6.7-6.7 0-3.7-3-6.7-6.7-6.8-3.8 0-7 3.1-6.9 6.9 0.1 3.7 3.2 6.6 6.9 6.6z"/>
								</g>
							</g>
							<path id="&lt;Path&gt;" class="s2" d="m785.3 407.4q0.2-1.3 0.1-2.3c0-2.2-0.5-5.1-1.6-7.2-0.4-0.7-0.9-1.3-1.4-1.8 2.9 0.7 5.1 3.4 5.1 6.5 0 1.9-0.9 3.6-2.2 4.8z"/>
							<path id="&lt;Path&gt;" class="s2" d="m794.3 403c0 6.8-4.9 12.3-11.4 13.4 0.6-1.3 1.1-2.7 1.5-4.2 3.8-1.5 6.5-5 6.7-9.3 0.2-5.7-4.4-10.5-10.2-10.7q-1.1 0-2.1 0.2-0.9-1.3-1.1-2.8 1.5-0.3 3.1-0.3c7.6 0 13.5 6 13.5 13.7z"/>
						</g>
						<g id="&lt;Group&gt;">
							<path id="&lt;Compound Path&gt;" fill-rule="evenodd" class="s3" d="m794.3 362.9c-0.1 6.9-5.2 12.5-11.8 13.4q-1 0.1-2 0.1c-7.5 0-13.5-6.2-13.4-13.8 0-5.4 3.1-9.9 7.6-12.1 1.8-0.9 3.9-1.4 6.1-1.4 7.7 0.1 13.6 6.2 13.5 13.8zm-3.2-0.5c0-5.8-4.8-10.4-10.6-10.3q-1.9 0-3.5 0.7c-4 1.5-6.9 5.4-6.7 9.8 0.1 5.6 4.8 10.1 10.3 10.2q1.7 0 3.2-0.5c4.2-1.4 7.3-5.4 7.3-9.9z"/>
							<path id="&lt;Path&gt;" class="s4" d="m787.5 362.5c-0.1 2-1 3.8-2.4 5-1.2 1-2.8 1.6-4.5 1.6-3.6 0-6.7-3-6.7-6.6-0.1-3.8 3.2-6.9 7-6.8q0.7 0 1.3 0.2 0.1 0 0.1 0c3 0.7 5.2 3.5 5.2 6.6z"/>
							<g id="&lt;Group&gt;">
								<g id="&lt;Group&gt;">
									<path id="&lt;Compound Path&gt;" fill-rule="evenodd" class="s0" d="m763.1 361.3c3.2-11.5 10-16.8 20-15.6 8.1 0.9 14.6 8 14.8 16.3 0.3 8.8-5.5 16.1-14 17.8-9.2 1.9-16.6-3.3-20.8-14.7-6.8 0-13.7 0-20.6-0.1-1.2 0-2.4 0.1-3.6-0.2-0.6-0.1-1.5-1-1.4-1.4 0.2-0.6 0.8-1.5 1.4-1.7 1-0.4 2.1-0.4 3.2-0.4 6.9 0 13.8 0 21 0zm31.2 1.6c0.1-7.6-5.8-13.7-13.5-13.7-7.6-0.1-13.7 5.8-13.7 13.4-0.1 7.6 5.9 13.8 13.4 13.8 7.6 0.1 13.7-5.9 13.8-13.5z"/>
								</g>
							</g>
							<g id="&lt;Group&gt;">
								<path id="&lt;Path&gt;" class="s0" d="m671.1 365.9c-2.3 0-4.6 0-6.9 0-0.9 0-1.8 0-2.5-0.3-0.7-0.3-1.3-1-1.5-1.7-0.1-0.4 0.7-1.2 1.3-1.5 0.7-0.3 1.6-0.3 2.5-0.3q7.4-0.1 14.8-0.1 0.2 0 0.4 0c1.4 0.2 3.3 0.1 3.2 2 0 2.1-1.9 1.8-3.3 1.9-2.7 0.1-5.3 0-8 0q0 0 0 0z"/>
							</g>
							<g id="&lt;Group&gt;">
								<path id="&lt;Path&gt;" class="s0" d="m710.1 362.2c3.4 0 6.8 0 10.2 0 1.2 0.1 3 0 3 1.9-0.1 1.8-1.9 1.6-3.2 1.6-6.9 0.1-13.8 0.1-20.7 0-0.5 0-1.1 0.1-1.5-0.1-0.6-0.4-1.5-1.1-1.4-1.7 0-0.5 0.9-1.2 1.6-1.5 0.7-0.3 1.6-0.2 2.5-0.2q4.7 0 9.5 0 0 0 0 0z"/>
							</g>
							<g id="&lt;Group&gt;">
								<g id="&lt;Group&gt;">
									<path id="&lt;Compound Path&gt;" fill-rule="evenodd" class="s0" d="m791.1 362.4c0.1 5.6-4.7 10.4-10.5 10.4-5.5 0-10.2-4.6-10.4-10.2-0.1-5.6 4.6-10.5 10.3-10.5 5.8-0.1 10.6 4.5 10.6 10.3zm-10.5 6.7c3.7 0.1 6.8-2.9 6.9-6.6 0.1-3.6-2.9-6.7-6.6-6.8-3.8-0.1-7.1 3-7 6.8 0 3.6 3.1 6.6 6.7 6.6z"/>
								</g>
							</g>
							<path id="&lt;Path&gt;" class="s2" d="m785.5 365.9c0.8-4.3-0.5-7.6-3.2-10 3 0.7 5.2 3.5 5.2 6.6-0.1 2-1 3.8-2.4 5q0.2-0.9 0.4-1.6z"/>
							<path id="&lt;Path&gt;" class="s2" d="m794.3 362.9c-0.1 6.9-5.2 12.5-11.8 13.4 0.4-1.3 0.9-2.7 1.3-4 4.2-1.4 7.3-5.4 7.3-9.9 0-5.8-4.8-10.4-10.6-10.3q-1.9 0-3.5 0.7c-1-0.6-1.8-1.4-2.3-2.3 1.8-0.9 3.9-1.4 6.1-1.4 7.7 0.1 13.6 6.2 13.5 13.8z"/>
						</g>
					</g>
				</g>
				<g id="&lt;Group&gt;">
					<g id="&lt;Group&gt;">
						<g id="&lt;Group&gt;">
							<path id="&lt;Path&gt;" class="s1" d="m326.5 728.6c0 4-2 7.5-5 9.6-2 1.4-4.4 2.1-6.9 2-6.3-0.1-11.6-5.5-11.4-11.8 0-2.1 0.6-4 1.6-5.7 2.1-3.5 5.9-5.8 10.2-5.7 6.4 0 11.5 5.1 11.5 11.6z"/>
							<g id="&lt;Group&gt;">
								<g id="&lt;Group&gt;">
									<path id="&lt;Compound Path&gt;" fill-rule="evenodd" class="s0" d="m312.9 652.2c-5.9-5.3-11.8-10.6-17.8-15.7-1.6-1.5-2.2-3-2.2-5.1 0.1-9.1 0.1-18.3 0.1-27.4 0-0.9 0.1-2 0.4-2.8 0.2-0.6 1.1-1.2 1.6-1.1 0.5 0 1.3 0.7 1.5 1.2 0.3 1 0.4 2.2 0.4 3.2 0 8.5 0.1 17.1 0 25.6 0 2.1 0.6 3.6 2.2 5 4.8 4 9.4 8.1 14.2 12 2.5 2.1 3.8 4.3 3.7 7.7-0.2 18.1-0.1 36.3-0.1 54.4 0 1.3 0 2.6 0 3.8 10.2 3.8 14.6 10.2 13 18.6-1.3 7.2-8.1 12.6-15.5 12.3-7.6-0.3-13.7-5.9-14.8-13.6-1-7.8 3.9-14.3 13.3-17.2 0-20.3 0-40.7 0-60.9zm2.1 64.8c-6.4-0.1-11.7 5.1-11.8 11.4-0.2 6.3 5.1 11.7 11.4 11.8 6.5 0.2 11.9-5 11.9-11.6 0-6.5-5.1-11.6-11.5-11.6z"/>
								</g>
							</g>
							<path id="&lt;Path&gt;" class="s5" d="m321.5 738.2c-2 1.4-4.4 2.1-6.9 2-6.3-0.1-11.6-5.5-11.4-11.8 0-2.1 0.6-4 1.6-5.7 0.2 2.4 0.8 4.8 2.5 7.3 3.3 5 8.6 7.3 14.2 8.2z"/>
						</g>
						<g id="&lt;Group&gt;">
							<path id="&lt;Compound Path&gt;" fill-rule="evenodd" class="s3" d="m383.2 739.1c-0.1 10-8.5 18.1-18.4 17.9-2.6 0-5-0.6-7.2-1.6-6.3-2.8-10.6-9.2-10.7-16.4 0-9.9 8.3-18.1 18.2-18.1 2.1 0 4.1 0.4 5.9 1 7.1 2.6 12.2 9.4 12.2 17.2zm-5.2 0.1c0.1-4.7-2.5-8.9-6.3-11.2-1.9-1.2-4.1-1.9-6.5-2-7.3-0.1-13.3 5.7-13.4 13-0.1 6.7 4.7 12.2 11.1 13.1q0.9 0.2 1.9 0.2c7.2 0 13.2-5.9 13.2-13.1z"/>
							<path id="&lt;Path&gt;" class="s4" d="m374.4 739.2c0 4.4-3.2 8.2-7.4 9.2q-1 0.2-2.1 0.2c-5.3 0-9.4-4.2-9.4-9.4 0-5.3 4.1-9.5 9.4-9.5 2.8 0 5.4 1.3 7.1 3.3 1.5 1.7 2.4 3.9 2.4 6.2z"/>
							<g id="&lt;Group&gt;">
								<g id="&lt;Group&gt;">
									<path id="&lt;Compound Path&gt;" fill-rule="evenodd" class="s0" d="m361.4 761c-1.1-0.5-2.1-1-3.2-1.4-9.3-3.3-15.4-12.2-14.9-21.6 0.6-10 7.4-17.9 17.1-20.2 1.1-0.2 2.1-0.5 3.4-0.8 0-4.5 0-8.8 0-13.2 0-1.1-0.1-2.2 0.1-3.3 0.1-1.1 0.4-2.2 1.8-2.3 1.6 0 1.9 1.3 2.1 2.5 0.1 1.1 0 2.2 0 3.3 0 4.3 0 8.7 0 13.2 1.1 0.3 2 0.6 3 0.8 9.2 2.6 15.6 10.8 16 20.4 0.3 9.2-5.6 17.8-14.5 21.1-1.2 0.4-2.4 1-3.6 1.5q-3.7 0-7.3 0zm21.8-21.9c0.1-9.8-8.2-18.2-18.1-18.2-9.9 0-18.2 8.2-18.2 18.1 0 9.8 8.1 17.9 17.9 18 9.9 0.2 18.3-7.9 18.4-17.9z"/>
								</g>
							</g>
							<g id="&lt;Group&gt;">
								<path id="&lt;Path&gt;" class="s0" d="m367.7 665.2c0 5.3 0.1 10.5 0 15.7 0 1.5 0.3 3.4-1.9 3.7-1.4 0.2-2.1-1-2.1-3.6q-0.1-16 0-32c0-1.6-0.1-3.4 1.9-3.8 1.3-0.3 2.1 1.1 2.1 3.6 0.1 5.5 0 11 0 16.4q0 0 0 0z"/>
							</g>
							<g id="&lt;Group&gt;">
								<g id="&lt;Group&gt;">
									<path id="&lt;Compound Path&gt;" fill-rule="evenodd" class="s0" d="m351.8 739c0.1-7.3 6.1-13.1 13.4-13 7 0.2 12.9 6.1 12.8 13.2 0 7.2-6 13.1-13.2 13.1-7.3-0.1-13.1-6-13-13.3zm13.1 9.6c5.2 0 9.5-4.3 9.5-9.4 0-5.2-4.4-9.5-9.5-9.5-5.2 0-9.4 4.2-9.4 9.5 0 5.2 4.1 9.4 9.4 9.4z"/>
								</g>
							</g>
							<path id="&lt;Path&gt;" class="s5" d="m367 748.4q1.8-2 2.9-4.2c1.7-3.6 2.2-7.4 2.1-11.2 1.5 1.7 2.4 3.9 2.4 6.2 0 4.4-3.2 8.2-7.4 9.2z"/>
							<path id="&lt;Path&gt;" class="s5" d="m383.2 739.1c-0.1 10-8.5 18.1-18.4 17.9-2.6 0-5-0.6-7.2-1.6 1.8-0.9 3.6-2 5.3-3.3q0.9 0.2 1.9 0.2c7.2 0 13.2-5.9 13.2-13.1 0.1-4.7-2.5-8.9-6.3-11.2-0.2-2-0.4-4-0.7-6.1 7.1 2.6 12.2 9.4 12.2 17.2z"/>
						</g>
						<g id="&lt;Group&gt;">
							<path id="&lt;Compound Path&gt;" fill-rule="evenodd" class="s3" d="m465.9 738.9c0 10-8 18.1-18 18.1-2.3 0-4.6-0.4-6.6-1.2-6.7-2.6-11.4-9.2-11.4-16.9 0-9.9 8-17.9 17.8-18 1.9 0 3.7 0.3 5.4 0.8 7.4 2.2 12.8 9.1 12.8 17.2zm-5.1 0.3c0-5.1-2.8-9.4-6.9-11.6-1.9-1-4-1.6-6.3-1.6-7.2 0.1-13.2 6.2-13.1 13.3 0.1 6.8 5.4 12.3 12 12.9q0.5 0.1 1.1 0.1c7.3 0 13.2-5.8 13.2-13.1z"/>
							<path id="&lt;Path&gt;" class="s4" d="m457.1 739.1c0 3.6-1.9 6.8-4.8 8.3q0 0 0 0.1c-1.4 0.7-2.9 1.1-4.5 1.1-5.2 0.1-9.6-4.2-9.6-9.4-0.1-5.1 4.3-9.5 9.4-9.5 2.9 0 5.5 1.2 7.3 3.3 1.4 1.7 2.2 3.8 2.2 6.1z"/>
							<g id="&lt;Group&gt;">
								<g id="&lt;Group&gt;">
									<path id="&lt;Compound Path&gt;" fill-rule="evenodd" class="s0" d="m444.6 761c-1.2-0.5-2.4-1-3.7-1.4-9.4-3.4-15.1-11.9-14.6-22 0.4-9.2 7-17.2 16.2-19.6 1-0.3 1.9-0.6 3-0.9 0-4.8-0.1-9.5 0-14.3 0-1 0-2.2 0.3-3.2 0.3-0.6 1.2-1.2 1.9-1.3 0.4-0.1 1.3 0.7 1.4 1.2 0.3 1.1 0.4 2.2 0.4 3.3 0 4.7 0 9.4 0 14.2 1.3 0.3 2.3 0.6 3.4 0.9 9.2 2.2 16 10.1 16.6 19.3 0.6 10.1-5 18.9-14.3 22.2-1.4 0.5-2.7 1.1-4 1.6q-3.3 0-6.6 0zm21.3-22.1c-0.1-10-8.2-18.1-18.2-18-9.8 0.1-17.8 8.1-17.8 18 0 10.1 8 18.2 18 18.2 10-0.1 18-8.2 18-18.2z"/>
								</g>
							</g>
							<g id="&lt;Group&gt;">
								<path id="&lt;Path&gt;" class="s0" d="m445.6 664.8c0-5.2-0.1-10.4 0-15.7 0-2.7 0.8-4.2 2.1-3.9 2 0.5 1.9 2.3 1.9 3.8q0.1 16.1 0 32.1c0 2.6-0.8 3.7-2.1 3.5-2-0.3-1.9-2-1.9-3.4-0.1-5.5 0-10.9 0-16.4q0 0 0 0z"/>
							</g>
							<g id="&lt;Group&gt;">
								<g id="&lt;Group&gt;">
									<path id="&lt;Compound Path&gt;" fill-rule="evenodd" class="s0" d="m447.6 726c7.3 0 13.2 5.8 13.2 13.2 0 7.3-5.9 13.1-13.2 13.1-7.1-0.1-13-5.9-13.1-13-0.1-7.1 5.9-13.2 13.1-13.3zm9.5 13.1c0-5.3-4.3-9.5-9.5-9.4-5.1 0-9.5 4.4-9.4 9.5 0 5.2 4.4 9.5 9.6 9.4 5.2 0 9.3-4.2 9.3-9.5z"/>
								</g>
							</g>
							<path id="&lt;Path&gt;" class="s5" d="m454.9 741.8c0.6-2.9 0.4-5.8 0-8.8 1.4 1.7 2.2 3.8 2.2 6.1 0 3.6-1.9 6.8-4.8 8.3 1.2-1.5 2.1-3.3 2.6-5.6z"/>
							<path id="&lt;Path&gt;" class="s5" d="m465.9 738.9c0 10-8 18.1-18 18.1-2.3 0-4.6-0.4-6.6-1.2 1.6-1.2 3.2-2.4 4.5-3.2q0.4-0.2 0.7-0.4 0.5 0.1 1.1 0.1c7.3 0 13.2-5.8 13.2-13.1 0-5.1-2.8-9.4-6.9-11.6-0.4-2-0.7-4-0.8-5.9 7.4 2.2 12.8 9.1 12.8 17.2z"/>
						</g>
						<g id="&lt;Group&gt;">
							<path id="&lt;Path&gt;" class="s1" d="m509.7 728.7c-0.1 6.5-5.3 11.6-11.7 11.5q-1.7 0-3.3-0.4c-4.8-1.5-8.4-6-8.4-11.2 0-6.5 5.5-11.8 12-11.6q1.1 0 2.1 0.2c5.4 1.1 9.3 5.8 9.3 11.5z"/>
							<g id="&lt;Group&gt;">
								<g id="&lt;Group&gt;">
									<path id="&lt;Compound Path&gt;" fill-rule="evenodd" class="s0" d="m496.4 713.1c0-1.4 0-2.7 0-4 0-18.3 0-36.5-0.1-54.8 0-3 1-5 3.2-6.8 4.8-3.8 9.3-7.9 14-11.7 2.1-1.8 3-3.8 2.9-6.6-0.1-8.1 0-16.3 0-24.4 0-1.1 0-2.3 0.3-3.3 0.2-0.6 1.1-1.5 1.7-1.4 0.6 0 1.3 0.9 1.7 1.5 0.3 0.6 0.2 1.5 0.2 2.2 0 9.2 0 18.5 0.1 27.7 0 1.9-0.5 3.5-2.1 4.8-5.5 4.6-10.8 9.4-16.2 14.1-1.2 1-2 1.8-2 3.5 0.1 19.4 0.1 38.7 0.1 58 0 0.4 0.1 0.8 0.2 1.3 4.9 1.3 9 3.9 11.4 8.6 1.6 3.4 1.9 6.8 1.1 10.4-1.6 7.1-8.3 12.1-15.5 11.7-7.7-0.4-13.7-6.1-14.6-13.9-0.9-7.7 4.1-14.2 13.6-16.9zm13.3 15.6c0-6.5-4.9-11.6-11.4-11.7-6.5-0.2-12 5.1-12 11.6 0.1 6.3 5.4 11.6 11.7 11.7 6.4 0 11.6-5.1 11.7-11.6z"/>
								</g>
							</g>
							<path id="&lt;Path&gt;" class="s5" d="m509.7 728.7c-0.1 6.5-5.3 11.6-11.7 11.5q-1.7 0-3.3-0.4 0.2-0.4 0.4-0.8c1.4-2.5 2.9-4.4 3.8-7.2 1.7-4.6 1.8-9.6 1.5-14.6 5.4 1.1 9.3 5.8 9.3 11.5z"/>
						</g>
					</g>
					<g id="&lt;Group&gt;">
						<g id="&lt;Group&gt;">
							<path id="&lt;Path&gt;" class="s1" d="m486.8 43.4c0-4 2-7.5 5-9.6 2-1.4 4.3-2.1 6.9-2 6.3 0.1 11.6 5.5 11.4 11.8 0 2.1-0.6 4-1.7 5.7-2 3.5-5.8 5.8-10.1 5.7-6.5 0-11.5-5.1-11.5-11.6z"/>
							<g id="&lt;Group&gt;">
								<g id="&lt;Group&gt;">
									<path id="&lt;Compound Path&gt;" fill-rule="evenodd" class="s0" d="m500.3 119.8c6 5.3 11.9 10.6 17.9 15.7 1.6 1.5 2.2 3 2.2 5.1-0.1 9.1-0.1 18.3-0.1 27.4 0 0.9-0.1 2-0.4 2.8-0.2 0.6-1.1 1.2-1.6 1.1-0.6 0-1.4-0.7-1.5-1.2-0.3-1-0.4-2.2-0.4-3.2 0-8.5-0.1-17.1 0-25.6 0-2.1-0.6-3.6-2.2-5-4.8-4-9.4-8.1-14.2-12-2.5-2.1-3.8-4.3-3.7-7.7 0.1-18.1 0-36.3 0-54.4 0-1.3 0-2.6 0-3.8-10.1-3.8-14.5-10.2-12.9-18.6 1.3-7.2 8.1-12.6 15.5-12.3 7.6 0.3 13.7 5.9 14.8 13.6 1 7.8-3.9 14.3-13.4 17.2 0 20.3 0 40.7 0 60.9zm-2-64.8c6.4 0.1 11.7-5.1 11.8-11.4 0.2-6.3-5.1-11.7-11.4-11.8-6.5-0.2-11.9 5-11.9 11.6 0 6.5 5.1 11.6 11.5 11.6z"/>
								</g>
							</g>
							<path id="&lt;Path&gt;" class="s5" d="m491.8 33.8c2-1.4 4.3-2.1 6.9-2 6.3 0.1 11.6 5.5 11.4 11.8 0 2.1-0.6 4-1.7 5.7-0.1-2.4-0.7-4.8-2.4-7.3-3.4-5-8.6-7.3-14.2-8.2z"/>
						</g>
						<g id="&lt;Group&gt;">
							<g id="&lt;Group&gt;">
								<path id="&lt;Path&gt;" class="s0" d="m445.6 106.8c0-5.3-0.1-10.5 0-15.7 0-1.5-0.3-3.4 1.9-3.7 1.4-0.2 2.1 1 2.1 3.6q0.1 16 0 32c0 1.6 0.1 3.4-2 3.8-1.2 0.3-2-1.1-2-3.6-0.1-5.5 0-11 0-16.4q0 0 0 0z"/>
							</g>
							<g id="&lt;Group&gt;">
								<path id="&lt;Compound Path&gt;" fill-rule="evenodd" class="s3" d="m430.1 32.9c0.1-10 8.5-18.1 18.4-17.9 2.5 0 5 0.6 7.2 1.6 6.2 2.8 10.6 9.2 10.7 16.4 0 9.9-8.3 18.1-18.2 18.1-2.1 0-4.1-0.4-5.9-1-7.1-2.6-12.2-9.4-12.2-17.2zm5.2-0.1c-0.1 4.7 2.5 8.9 6.2 11.2 2 1.2 4.2 1.9 6.6 2 7.3 0.1 13.3-5.7 13.4-13 0.1-6.7-4.7-12.2-11.1-13.1q-0.9-0.2-1.9-0.2c-7.2 0-13.2 5.9-13.2 13.1z"/>
								<path id="&lt;Path&gt;" class="s4" d="m438.9 32.8c0-4.4 3.2-8.2 7.4-9.2q1-0.2 2.1-0.2c5.3 0 9.4 4.2 9.4 9.4 0 5.3-4.2 9.5-9.4 9.5-2.8 0-5.4-1.3-7.2-3.3-1.4-1.7-2.3-3.9-2.3-6.2z"/>
								<g id="&lt;Group&gt;">
									<g id="&lt;Group&gt;">
										<path id="&lt;Compound Path&gt;" fill-rule="evenodd" class="s0" d="m451.9 11c1.1 0.5 2.1 1 3.2 1.4 9.3 3.3 15.4 12.2 14.9 21.6-0.6 10-7.4 17.9-17.1 20.2-1.1 0.2-2.1 0.5-3.4 0.8 0 4.5 0 8.8 0 13.2 0 1.1 0 2.2-0.1 3.3-0.1 1.1-0.4 2.2-1.8 2.3-1.6 0-1.9-1.3-2.1-2.5-0.1-1.1 0-2.2 0-3.3 0-4.3 0-8.7 0-13.2-1.1-0.3-2-0.6-3-0.8-9.2-2.6-15.6-10.8-16-20.4-0.4-9.2 5.6-17.8 14.5-21.1 1.2-0.4 2.4-1 3.6-1.5q3.6 0 7.3 0zm-21.8 21.9c-0.1 9.8 8.2 18.2 18.1 18.2 9.9 0 18.2-8.2 18.1-18.1 0-9.8-8-17.9-17.8-18-9.9-0.2-18.3 7.9-18.4 17.9z"/>
									</g>
								</g>
								<g id="&lt;Group&gt;">
									<g id="&lt;Group&gt;">
										<path id="&lt;Compound Path&gt;" fill-rule="evenodd" class="s0" d="m461.5 33c-0.1 7.3-6.1 13.1-13.4 13-7-0.2-12.9-6.1-12.9-13.2 0.1-7.2 6.1-13.1 13.3-13.1 7.3 0.1 13.1 6 13 13.3zm-13.1-9.6c-5.2 0-9.5 4.3-9.5 9.4 0 5.2 4.4 9.5 9.5 9.5 5.2 0 9.4-4.2 9.4-9.5 0-5.2-4.2-9.4-9.4-9.4z"/>
									</g>
								</g>
								<path id="&lt;Path&gt;" class="s5" d="m446.3 23.6q-1.8 2-2.9 4.2c-1.7 3.6-2.2 7.4-2.2 11.2-1.4-1.7-2.3-3.9-2.3-6.2 0-4.4 3.2-8.2 7.4-9.2z"/>
								<path id="&lt;Path&gt;" class="s5" d="m430.1 32.9c0.1-10 8.5-18.1 18.4-17.9 2.5 0 5 0.6 7.2 1.6-1.8 0.9-3.6 2-5.3 3.3q-0.9-0.2-1.9-0.2c-7.2 0-13.2 5.9-13.2 13.1-0.1 4.7 2.5 8.9 6.2 11.2 0.3 2 0.5 4 0.8 6.1-7.1-2.6-12.2-9.4-12.2-17.2z"/>
							</g>
						</g>
						<g id="&lt;Group&gt;">
							<path id="&lt;Compound Path&gt;" fill-rule="evenodd" class="s3" d="m347.4 33.1c0-10 8-18.1 18-18.1 2.3 0 4.6 0.4 6.6 1.2 6.7 2.6 11.4 9.2 11.4 16.9 0 9.9-8 17.9-17.8 18-1.9 0-3.7-0.3-5.4-0.8-7.4-2.2-12.8-9.1-12.8-17.2zm5.1-0.3c0 5.1 2.8 9.4 6.9 11.6 1.9 1 4 1.6 6.3 1.6 7.2-0.1 13.2-6.2 13.1-13.3-0.2-6.8-5.4-12.3-12-12.9q-0.5-0.1-1.1-0.1c-7.3 0-13.2 5.8-13.2 13.1z"/>
							<path id="&lt;Path&gt;" class="s4" d="m356.2 32.9c0-3.6 1.9-6.8 4.8-8.3q0 0 0-0.1c1.4-0.7 2.9-1.1 4.5-1.1 5.2-0.1 9.6 4.2 9.6 9.4 0.1 5.1-4.3 9.5-9.4 9.5-3 0-5.6-1.2-7.3-3.3-1.4-1.7-2.2-3.8-2.2-6.1z"/>
							<g id="&lt;Group&gt;">
								<g id="&lt;Group&gt;">
									<path id="&lt;Compound Path&gt;" fill-rule="evenodd" class="s0" d="m368.7 11c1.2 0.5 2.4 1 3.7 1.4 9.4 3.4 15.1 11.9 14.6 22-0.4 9.2-7 17.2-16.3 19.6-0.9 0.3-1.8 0.6-2.9 0.9 0 4.8 0 9.5 0 14.3 0 1 0 2.2-0.4 3.2-0.2 0.6-1.1 1.2-1.8 1.3-0.4 0.1-1.3-0.7-1.4-1.2-0.4-1.1-0.4-2.2-0.4-3.3 0-4.7 0-9.4 0-14.2-1.3-0.3-2.3-0.6-3.4-0.9-9.2-2.2-16-10.1-16.6-19.3-0.6-10.1 5-18.9 14.3-22.2 1.4-0.5 2.7-1.1 4-1.6q3.3 0 6.6 0zm-21.3 22.1c0 10 8.2 18.1 18.2 18 9.8-0.1 17.8-8.1 17.8-18 0-10.1-8-18.2-18-18.2-10 0.1-18 8.2-18 18.2z"/>
								</g>
							</g>
							<g id="&lt;Group&gt;">
								<path id="&lt;Path&gt;" class="s0" d="m367.7 107.2c0 5.2 0.1 10.4 0 15.7 0 2.7-0.8 4.2-2.1 3.9-2-0.5-1.9-2.3-1.9-3.8q-0.1-16.1 0-32.1c0-2.6 0.7-3.7 2.1-3.5 2 0.3 1.9 2 1.9 3.4 0 5.5 0 10.9 0 16.4q0 0 0 0z"/>
							</g>
							<g id="&lt;Group&gt;">
								<g id="&lt;Group&gt;">
									<path id="&lt;Compound Path&gt;" fill-rule="evenodd" class="s0" d="m365.7 46c-7.3 0-13.2-5.8-13.2-13.2 0-7.3 5.9-13.1 13.2-13.1 7.1 0.1 12.9 5.9 13.1 13 0.1 7.1-5.9 13.2-13.1 13.3zm-9.5-13.1c0 5.3 4.3 9.5 9.5 9.4 5.1 0 9.5-4.4 9.4-9.5 0-5.2-4.4-9.5-9.6-9.4-5.2 0-9.4 4.2-9.3 9.5z"/>
								</g>
							</g>
							<path id="&lt;Path&gt;" class="s5" d="m358.4 30.2c-0.6 2.9-0.4 5.8 0 8.8-1.4-1.7-2.2-3.8-2.2-6.1 0-3.6 1.9-6.8 4.8-8.3-1.2 1.5-2.1 3.3-2.6 5.6z"/>
							<path id="&lt;Path&gt;" class="s5" d="m347.4 33.1c0-10 8-18.1 18-18.1 2.3 0 4.6 0.4 6.6 1.2-1.6 1.2-3.2 2.4-4.6 3.2q-0.3 0.2-0.6 0.4-0.5-0.1-1.1-0.1c-7.3 0-13.2 5.8-13.2 13.1 0 5.1 2.8 9.4 6.9 11.6 0.3 2 0.7 4 0.8 5.9-7.4-2.2-12.8-9.1-12.8-17.2z"/>
						</g>
						<g id="&lt;Group&gt;">
							<path id="&lt;Path&gt;" class="s1" d="m303.6 43.3c0.1-6.5 5.3-11.6 11.7-11.5q1.7 0 3.3 0.4c4.8 1.5 8.3 6 8.3 11.2 0.1 6.5-5.4 11.8-11.9 11.6q-1.1 0-2.1-0.2c-5.4-1.1-9.3-5.8-9.3-11.5z"/>
							<g id="&lt;Group&gt;">
								<g id="&lt;Group&gt;">
									<path id="&lt;Compound Path&gt;" fill-rule="evenodd" class="s0" d="m316.9 58.9c0 1.4 0 2.7 0 4 0 18.3 0 36.5 0.1 54.8 0 3-1 5-3.3 6.8-4.7 3.8-9.2 7.9-13.9 11.7-2.1 1.8-3 3.8-2.9 6.6 0.1 8.1 0 16.3 0 24.4-0.1 1.1 0 2.3-0.3 3.3-0.2 0.6-1.2 1.5-1.7 1.4-0.6 0-1.3-0.9-1.7-1.5-0.3-0.6-0.2-1.5-0.2-2.2 0-9.2 0-18.5-0.1-27.7 0-1.9 0.4-3.4 2-4.8 5.5-4.6 10.9-9.4 16.3-14.1 1.2-1 2-1.8 2-3.5-0.1-19.4-0.1-38.7-0.1-58 0-0.4-0.1-0.8-0.2-1.3-5-1.3-9-3.9-11.4-8.6-1.7-3.4-2-6.8-1.2-10.4 1.7-7.1 8.4-12.1 15.6-11.7 7.7 0.4 13.7 6.1 14.6 13.9 0.9 7.7-4.1 14.2-13.6 16.9zm-13.3-15.6c0 6.5 4.9 11.6 11.4 11.7 6.5 0.2 12-5.1 12-11.6-0.1-6.3-5.4-11.6-11.7-11.7-6.4 0-11.6 5.1-11.7 11.6z"/>
								</g>
							</g>
							<path id="&lt;Path&gt;" class="s5" d="m303.6 43.3c0.1-6.5 5.3-11.6 11.7-11.5q1.7 0 3.3 0.4-0.2 0.4-0.4 0.8c-1.4 2.5-2.9 4.4-3.8 7.2-1.7 4.6-1.8 9.6-1.5 14.6-5.4-1.1-9.3-5.8-9.3-11.5z"/>
						</g>
					</g>
				</g>
			</g>
			<g id="&lt;Group&gt;">
				<g id="&lt;Group&gt;">
					<path id="&lt;Compound Path&gt;" class="s6" d="m631.4 434.2q0.1 0.6 0 1.2c0 4.2-0.8 5-4.9 5-11.2 0-22.5 0-33.7-0.1-1.4 0-2 0.4-2.6 1.7q-6.4 15.7-12.9 31.3c-0.6 1.4-0.5 2.3 0.6 3.3 8.1 8.1 16.2 16.2 24.3 24.3 2.1 2.1 2.2 3.3 0.2 5.6-1 1.2-2.2 2.3-3.3 3.4q-35.2 35.2-70.4 70.4c-3.9 3.9-4.5 3.8-8.4 0-7.7-7.7-15.4-15.4-23.1-23.2-1-1-1.8-1.1-3.1-0.5q-15.7 6.6-31.5 13c-1.3 0.5-1.6 1.2-1.6 2.4q0.1 17.3 0 34.5c0 3.1-0.6 3.9-3.7 4.2-0.7 0.1-1.4 0.1-2 0.1q-51.1 0-102.2 0c-5.7 0-6.1-0.4-6.1-6.1 0-10.9-0.1-21.8 0-32.6 0-1.4-0.5-2-1.7-2.5q-15.6-6.4-31.2-13c-1.5-0.6-2.4-0.4-3.6 0.8-7.9 8-15.8 15.9-23.8 23.9-2.5 2.5-3.7 2.5-6.3 0-4.6-4.4-9.1-8.9-13.6-13.4q-29.7-29.8-59.4-59.5c-4.3-4.4-4.3-4.8-0.1-9.1 7.7-7.6 15.3-15.2 22.9-22.8 1-0.9 1.2-1.7 0.6-3q-6.6-15.8-13.1-31.6c-0.5-1.3-1.2-1.6-2.4-1.6q-17 0.1-34 0.1c-3.8 0-4.7-0.8-4.7-4.7-0.1-6.2-0.1-12.3-0.1-18.5q0-42.4 0-84.8c0.1-5.7 0.5-6.1 6.1-6.1 10.9 0 21.8 0 32.7 0 1.3 0 1.9-0.3 2.4-1.6q6.5-15.7 13.1-31.4c0.5-1.4 0.4-2.2-0.6-3.2-8.1-8-16-16-24-24-2.7-2.6-2.7-3.8-0.1-6.5q9.1-9.2 18.2-18.3 27.5-27.5 55.1-55 0.3-0.3 0.6-0.6c3-2.9 4.1-2.9 7 0 7.9 7.9 15.9 15.9 23.8 23.9 1 0.9 1.8 1.1 3 0.5q15.8-6.6 31.7-13.1c1.1-0.4 1.5-1 1.5-2.3-0.1-11.4 0-22.9 0-34.4 0-3.3 0.7-4.1 4-4.4 0.7 0 1.4 0 2.2 0q50.9 0 101.8 0c5.6 0 6 0.4 6 6.1 0 10.8 0.1 21.7 0 32.5 0 1.4 0.4 2.1 1.8 2.6q15.6 6.4 31.1 13c1.5 0.6 2.4 0.4 3.5-0.7 7.8-8 15.7-15.8 23.6-23.7 2.9-2.9 4-3 7 0q14.4 14.3 28.7 28.6 22.1 22.2 44.2 44.3c3.9 3.9 3.9 4.6 0.1 8.4-7.8 7.7-15.5 15.5-23.3 23.2-0.9 0.9-1.1 1.6-0.6 2.8q6.7 15.9 13.2 31.9c0.5 1.2 1.2 1.4 2.4 1.4 11.3 0 22.6 0 33.9 0 4 0 4.8 0.8 4.8 4.8 0.1 7.2 0.1 14.3 0.1 21.5q0 15.3 0 30.7 0 0-0.1 0 0 25.4 0 50.9z"/>
					<path id="&lt;Path&gt;" class="s3" d="m627.4 330.4v105.9h-2.1c-11.1 0-22.1 0-33.2-0.1-2.7 0-4.2 0.9-5.2 3.4-2.9 7.1-6 14-8.9 21-1.7 4.2-3.3 8.5-5.1 12.7-0.9 2.1-0.5 3.7 1.1 5.2 8 7.9 16 15.9 23.9 23.9 0.5 0.4 1.1 0.8 1.4 1.1-25.1 25.1-49.9 49.9-75 75-0.1-0.2-0.6-0.6-1.1-1.1-7.9-7.9-15.9-15.8-23.7-23.7-1.8-1.9-3.5-2.3-6-1.3-7 3-14 5.7-21.1 8.6-4.1 1.8-8.2 3.7-12.4 5.3-2.3 0.9-3.1 2.4-3.1 4.9 0.1 11.1 0 22.1 0 33.2v2.4h-105.8v-2.2c0-11.1-0.1-22.1 0-33.2 0-2.6-0.8-4.2-3.3-5.2-7.1-2.8-14.2-6-21.3-8.9-4-1.7-8.1-3.1-12-4.9-2.4-1-4.1-0.7-6 1.3-7.8 7.9-15.7 15.7-23.6 23.6-0.4 0.5-0.7 1.1-1 1.5l-75.5-75.5c0.3-0.1 1.1-0.3 1.5-0.8 8-7.9 15.8-15.9 23.8-23.7 1.8-1.8 2.3-3.4 1.2-5.8-3-7.1-5.8-14.3-8.7-21.4-1.7-4.1-3.6-8.1-5.2-12.3-0.9-2.2-2.3-3.1-4.7-3.1-9.8 0.1-19.6 0.1-29.4 0.1h-6.3v-105.9h2.2c11.1 0 22.1 0 33.2 0.1 2.6 0 4.1-0.9 5.1-3.4 2.9-7.1 6-14.1 8.9-21.2 1.7-4.1 3.2-8.3 5-12.5 1-2.1 0.5-3.7-1.1-5.3-8-7.9-15.9-15.9-23.9-23.9-0.5-0.4-0.9-0.9-1.3-1.3 25-25 49.9-49.8 74.8-74.8 0.4 0.3 0.9 0.7 1.3 1.2 8 7.9 15.9 15.8 23.7 23.8 1.9 1.8 3.5 2.2 5.9 1.2 7-3 14.2-5.8 21.2-8.7 4.1-1.7 8.2-3.6 12.3-5.2 2.4-1 3.2-2.5 3.2-5-0.1-11 0-22 0-33v-2.5h105.7c0.1 0.7 0.1 1.4 0.1 2.1 0 11.1 0.1 22.1 0 33.2 0 2.7 0.8 4.2 3.4 5.3 7.1 2.8 14.1 5.9 21.1 8.8 4.1 1.7 8.2 3.2 12.2 5 2.4 1 4 0.6 5.8-1.2 7.8-8 15.8-15.8 23.6-23.7 0.5-0.4 0.9-1 1.1-1.3 16.7 16.7 33.4 33.3 50.1 50q12.5 12.5 25.1 25.1c-1.5 1.4-3.3 3.1-5 4.8-6.7 6.6-13.4 13.3-20.1 19.9-1.7 1.8-2.1 3.4-1.2 5.7 3 7.2 5.9 14.4 8.8 21.6 1.7 4.1 3.6 8.1 5.2 12.2 0.9 2.2 2.3 3.1 4.6 3 11.2 0 22.4 0 33.6 0z"/>
					<path id="&lt;Path&gt;" class="s7" d="m627.4 330.4v105.9h-2.1c-11.1 0-22.1 0-33.2-0.1-2.7 0-4.2 0.9-5.2 3.4-2.9 7.1-6 14-8.9 21-1.7 4.2-3.3 8.5-5.1 12.7-0.9 2.1-0.5 3.7 1.1 5.2 8 7.9 16 15.9 23.9 23.9 0.5 0.4 1.1 0.8 1.4 1.1-25.1 25.1-49.9 49.9-75 75-0.1-0.2-0.6-0.6-1.1-1.1-7.9-7.9-15.9-15.8-23.7-23.7-1.8-1.9-3.5-2.3-6-1.3-7 3-14 5.7-21.1 8.6-4.1 1.8-8.2 3.7-12.4 5.3-2.3 0.9-3.1 2.4-3.1 4.9 0.1 11.1 0 22.1 0 33.2v2.4h-105.8v-2.2c0-11.1-0.1-22.1 0-33.2 0-2.6-0.8-4.2-3.3-5.2-7.1-2.8-14.2-6-21.3-8.9-4-1.7-8.1-3.1-12-4.9-2.4-1-4.1-0.7-6 1.3-7.8 7.9-15.7 15.7-23.6 23.6-0.4 0.5-0.7 1.1-1 1.5l-34.7-34.7c29.9-5.9 59-15 86.9-27.2 117.7-51.4 205.4-155.5 238.1-278.8q12.5 12.5 25.1 25.1c-1.5 1.4-3.3 3.1-5 4.8-6.7 6.6-13.4 13.3-20.1 19.9-1.7 1.8-2.1 3.4-1.2 5.7 3 7.2 5.9 14.4 8.8 21.6 1.7 4.1 3.6 8.1 5.2 12.2 0.9 2.2 2.3 3.1 4.6 3 11.2 0 22.4 0 33.6 0z"/>
					<path id="&lt;Path&gt;" class="s5" d="m395.1 159.9c-28.6 116.6-94.9 229.1-208.2 276.4h-6.3v-105.9h2.2c11.1 0 22.1 0 33.2 0.1 2.6 0 4.1-0.9 5.1-3.4 2.9-7.1 6-14.1 8.9-21.2 1.7-4.1 3.2-8.3 5-12.5 1-2.1 0.5-3.7-1.1-5.3-8-7.9-15.9-15.9-23.9-23.9-0.5-0.4-0.9-0.9-1.3-1.3 25-25 49.9-49.8 74.8-74.8 0.4 0.3 0.9 0.7 1.3 1.2 8 7.9 15.9 15.8 23.7 23.8 1.9 1.8 3.5 2.2 5.9 1.2 7-3 14.2-5.8 21.2-8.7 4.1-1.7 8.2-3.6 12.3-5.2 2.4-1 3.2-2.5 3.2-5-0.1-11 0-22 0-33v-2.5z"/>
					<g id="&lt;Group&gt;">
						<g id="&lt;Group&gt;">
							<path id="&lt;Compound Path&gt;" fill-rule="evenodd" class="s0" d="m631.4 383.3q0 25.4 0 50.9 0.1 0.6 0 1.2c0 4.2-0.8 5-4.9 5-11.2 0-22.5 0-33.7-0.1-1.4 0-2 0.4-2.6 1.7q-6.4 15.7-12.9 31.3c-0.6 1.4-0.5 2.3 0.6 3.3 8.1 8.1 16.2 16.2 24.3 24.3 2.1 2.1 2.2 3.3 0.2 5.6-1 1.2-2.2 2.3-3.3 3.4q-35.2 35.2-70.4 70.4c-3.9 3.9-4.5 3.8-8.4 0-7.7-7.7-15.4-15.4-23.1-23.2-1-1-1.8-1.1-3.1-0.5q-15.7 6.6-31.5 13c-1.3 0.5-1.6 1.2-1.6 2.4q0.1 17.3 0 34.5c0 3.1-0.6 3.9-3.7 4.2-0.7 0.1-1.4 0.1-2 0.1q-51.1 0-102.2 0c-5.7 0-6.1-0.4-6.1-6.1 0-10.9-0.1-21.8 0-32.6 0-1.4-0.5-2-1.7-2.5q-15.6-6.4-31.2-13c-1.5-0.6-2.4-0.4-3.6 0.8-7.9 8-15.8 15.9-23.8 23.9-2.5 2.5-3.7 2.5-6.3 0-4.6-4.4-9.1-8.9-13.6-13.4q-29.7-29.8-59.4-59.5c-4.3-4.4-4.3-4.8-0.1-9.1 7.7-7.6 15.3-15.2 22.9-22.8 1-0.9 1.2-1.7 0.6-3q-6.6-15.8-13.1-31.6c-0.5-1.3-1.2-1.6-2.4-1.6q-17 0.1-34 0.1c-3.8 0-4.7-0.8-4.7-4.7-0.1-6.2-0.1-12.3-0.1-18.5q0-42.4 0-84.8c0.1-5.7 0.5-6.1 6.1-6.1 10.9 0 21.8 0 32.7 0 1.3 0 1.9-0.3 2.4-1.6q6.5-15.7 13.1-31.4c0.5-1.4 0.4-2.2-0.6-3.2-8.1-8-16-16-24-24-2.7-2.6-2.7-3.8-0.1-6.5q9.1-9.2 18.2-18.3 27.5-27.5 55.1-55 0.3-0.3 0.6-0.6c3-2.9 4.1-2.9 7 0 7.9 7.9 15.9 15.9 23.8 23.9 1 0.9 1.8 1.1 3 0.5q15.8-6.6 31.7-13.1c1.1-0.4 1.5-1 1.5-2.3-0.1-11.4 0-22.9 0-34.4 0-3.3 0.7-4.1 4-4.4 0.7 0 1.4 0 2.2 0q50.9 0 101.8 0c5.6 0 6 0.4 6 6.1 0 10.8 0.1 21.7 0 32.5 0 1.4 0.4 2.1 1.8 2.6q15.6 6.4 31.1 13c1.5 0.6 2.4 0.4 3.5-0.7 7.8-8 15.7-15.8 23.6-23.7 2.9-2.9 4-3 7 0q14.4 14.3 28.7 28.6 22.1 22.2 44.2 44.3c3.9 3.9 3.9 4.6 0.1 8.4-7.8 7.7-15.5 15.5-23.3 23.2-0.9 0.9-1.1 1.6-0.6 2.8q6.7 15.9 13.2 31.9c0.5 1.2 1.2 1.4 2.4 1.4 11.3 0 22.6 0 33.9 0 4 0 4.8 0.8 4.8 4.8 0.1 7.2 0.1 14.3 0.1 21.5q0 15.3 0 30.7 0 0-0.1 0zm-174.5 223.5c0-1 0-1.7 0-2.4 0-11.1 0.1-22.1 0-33.2 0-2.5 0.8-4 3.1-4.9 4.2-1.6 8.3-3.6 12.4-5.3 7.1-2.9 14.1-5.6 21.1-8.6 2.5-1 4.2-0.6 6 1.3 7.8 7.9 15.8 15.8 23.7 23.7 0.5 0.5 1 0.9 1.1 1.1 25.1-25.1 49.9-49.9 75-75-0.3-0.3-0.9-0.7-1.4-1.1-7.9-8-15.9-16-23.9-23.9-1.6-1.6-2-3.1-1.1-5.2 1.8-4.2 3.4-8.5 5.1-12.7 3-7 6-13.9 8.9-21 1-2.5 2.5-3.4 5.2-3.4 11.1 0.1 22.1 0 33.2 0.1q1.1 0 2.2 0c0-35.4 0-70.6 0-105.9-0.9 0-1.6 0-2.3 0-11.2 0-22.4 0-33.6 0-2.3 0.1-3.7-0.8-4.6-3-1.6-4.1-3.5-8.1-5.2-12.2-2.9-7.2-5.7-14.4-8.8-21.6-1-2.3-0.5-3.9 1.2-5.7 6.8-6.6 13.4-13.3 20.1-19.9 1.7-1.7 3.5-3.4 5-4.8-25.2-25.2-50.1-50.1-75.2-75.1-0.2 0.3-0.6 0.9-1.1 1.3-7.8 7.9-15.8 15.7-23.6 23.7-1.8 1.8-3.4 2.2-5.8 1.2-4-1.8-8.1-3.3-12.2-4.9-7-3-14-6.1-21.1-8.9-2.6-1.1-3.5-2.6-3.4-5.3 0.1-11.1 0-22.1 0-33.2 0-0.7-0.1-1.4-0.1-2.1-35.3 0-70.4 0-105.7 0 0 0.9 0 1.7 0 2.5 0 11-0.1 22 0 33 0 2.5-0.8 4-3.2 5-4.2 1.6-8.2 3.5-12.3 5.2-7 2.9-14.2 5.7-21.2 8.7-2.4 1-4 0.6-5.8-1.2-7.9-8-15.8-15.9-23.8-23.8-0.4-0.5-0.9-0.9-1.2-1.2-25 25-49.9 49.8-74.9 74.8 0.4 0.4 0.8 0.9 1.3 1.3 8 8 15.9 16 23.9 23.9 1.6 1.6 2.1 3.2 1.1 5.3-1.7 4.2-3.3 8.4-5 12.5-2.9 7.1-6 14.1-8.9 21.2-1 2.5-2.5 3.4-5.1 3.4-11.1-0.1-22.1-0.1-33.2-0.1q-1.1 0-2.2 0c0 35.4 0 70.5 0 105.8 0.8 0 1.6 0 2.3 0 11.1 0 22.2 0.1 33.4 0 2.4 0 3.8 0.9 4.7 3.1 1.6 4.1 3.5 8.2 5.2 12.3 2.9 7.1 5.7 14.3 8.7 21.4 1.1 2.4 0.6 4-1.2 5.8-8 7.9-15.8 15.8-23.8 23.7-0.4 0.5-1.2 0.7-1.5 0.8 25.4 25.4 50.3 50.3 75.5 75.5 0.2-0.4 0.6-1 1-1.5 7.9-7.9 15.8-15.7 23.6-23.7 1.9-1.9 3.6-2.2 6-1.2 3.9 1.8 8 3.2 12 4.9 7.1 2.9 14.2 6.1 21.3 8.9 2.5 1 3.3 2.6 3.3 5.2-0.1 11.1 0 22.1 0 33.2 0 0.7 0 1.4 0 2.2 35.3 0 70.5 0 105.8 0z"/>
						</g>
					</g>
					<g id="&lt;Group&gt;">
						<path id="&lt;Path&gt;" class="s0" d="m524.4 196.4c0.8 0.4 1.4 0.7 1.9 1.1 1.1 0.9 2.2 1.8 3.3 2.9q17.9 17.4 35.9 35c0.6 0.6 1.3 1.2 1.8 2 0.7 0.9 1.7 1.9 0.6 3-1.1 1.2-2.2 0.1-3.2-0.6-0.3-0.3-0.7-0.6-1-1q-17.6-17.2-35.2-34.4c-1.7-1.6-3.5-3.1-5-4.8-0.5-0.4-0.7-1.4-0.5-2.1 0-0.4 0.9-0.7 1.4-1.1z"/>
					</g>
					<g id="&lt;Group&gt;">
						<path id="&lt;Path&gt;" class="s0" d="m284 563c0 1.7-1.1 2.5-2.3 2-0.9-0.4-1.7-1-2.4-1.7-6.1-5.9-12.2-12-18.4-17.9-2.5-2.5-5.2-4.8-7.7-7.2-0.5-0.4-1.2-0.9-1.3-1.5-0.2-0.6-0.2-1.5 0.2-1.9 0.3-0.4 1.3-0.4 1.9-0.3 0.6 0.2 1.1 0.7 1.6 1.2q9.9 9.3 19.7 18.6c2.4 2.2 4.8 4.4 7.1 6.6 0.7 0.7 1.2 1.6 1.6 2.1z"/>
					</g>
					<g id="&lt;Group&gt;">
						<path id="&lt;Path&gt;" class="s0" d="m287.8 554.8c0.1 1.7-1.1 2.5-2.3 2-0.7-0.3-1.3-0.8-1.8-1.3q-8.2-8.4-16.3-16.9c-0.3-0.3-0.7-0.6-0.8-0.9-0.1-0.8-0.3-1.9 0.1-2.1 0.5-0.4 1.5-0.4 2.2-0.3 0.6 0.2 1.1 0.8 1.5 1.3q8.2 8.2 16.2 16.5c0.6 0.6 1 1.3 1.2 1.7z"/>
					</g>
					<g id="&lt;Group&gt;">
						<path id="&lt;Path&gt;" class="s0" d="m519.8 203.3c0.5 0.2 1 0.4 1.4 0.7 2.8 2.4 5.6 4.9 8.4 7.5 0.4 0.4 0.7 1.1 0.7 1.7 0 1.3-1.6 2-2.7 1q-4.5-3.8-8.8-7.9c-0.4-0.4-0.4-1.5-0.3-2.2 0.1-0.3 0.8-0.5 1.3-0.8z"/>
					</g>
					<g id="&lt;Group&gt;">
						<path id="&lt;Path&gt;" class="s0" d="m248 529.1c0 1.3-1 1.9-2.2 1.2-1-0.5-1.9-1.4-2.7-2.3-1-1-2-2.1-2.8-3.3-0.3-0.4-0.4-1.5 0-1.9 0.3-0.4 1.5-0.7 1.8-0.4 2 1.9 3.9 3.9 5.8 5.9 0.1 0.2 0.1 0.6 0.1 0.8z"/>
					</g>
				</g>
				<g id="&lt;Group&gt;">
					<g id="&lt;Group&gt;">
						<g id="&lt;Group&gt;">
							<path id="&lt;Compound Path&gt;" fill-rule="evenodd" class="s8" d="m398.4 288q0.4 0.6 0.4 1.1 0 0.2-0.1 0.3c-0.1 0.2-0.2 0.5-0.4 0.7-1.7 1.6-3.4 3.3-5 5.1-4.1 4.6-8.1 9.3-12.2 14q0 0.1-0.1 0.1c-0.8 0.9-0.5 1.8 0.6 2.5q10.3 5.8 20.7 11.5 0.3 0.2 0.6 0.4c2.1 1.2 2.1 1.1 1.6 3.4-1.1 5-2.3 10.1-3.4 15.1-0.2 0.9-0.6 1.2-1.6 1.3q-11.9 0.6-23.8 1.3-0.8 0-1.6 0.1c-1.6 0-2.1 0.7-1.7 2.3q3.2 11.2 6.5 22.5 0.2 1 0.5 1.9c0.3 1 0.1 1.5-0.8 2q-6.9 4.3-13.8 8.7c-0.9 0.6-1.4 0.5-2.1-0.2q-8.7-7.8-17.4-15.5-0.7-0.7-1.4-1.3-0.1 0-0.1-0.1c-0.6-0.5-1.3-0.6-2-0.9-0.3 0.4-0.5 0.7-0.7 1q-0.2 0.3-0.3 0.6c-4.1 7.4-8.3 14.7-12.3 22.1-0.4 0.7-0.8 0.9-1.6 0.7-5.5-1.3-11-2.6-16.5-3.8-0.8-0.2-1-0.6-1.1-1.3q-0.4-8.1-0.8-16-0.1-1-0.1-1.9 0 0 0-0.1-0.2-2.9-0.4-5.9 0-0.8-0.1-1.5c-0.1-1.9-0.6-2.3-2.5-1.8q-0.2 0-0.4 0.1c-5.8 1.6-11.7 3.1-17.6 4.7-2.1 0.6-4.2 1.4-6.3 2.1-0.8 0.3-1.2 0.2-1.7-0.6q-4.5-7.2-9-14.3c-0.5-0.8-0.3-1.2 0.2-1.8q0.2-0.2 0.5-0.5c5.5-6.1 11-12.3 16.4-18.4 1.3-1.3 1.2-2.1-0.4-3q-0.2 0-0.4-0.2c-7.3-4-14.5-8.1-21.8-12.1-0.8-0.5-1-0.9-0.8-1.8q1.9-8.1 3.8-16.2c0.1-0.8 0.4-1.2 1.3-1.2q1.1-0.1 2.3-0.1c7.7-0.4 15.4-0.9 23.1-1.3 1.7-0.1 2.3-0.7 1.9-2q-0.1-0.5-0.2-0.9c-1.5-5.8-3.1-11.6-4.7-17.4-0.6-2.2-1.4-4.4-2.1-6.5-0.3-0.9-0.2-1.4 0.6-1.9q7.1-4.3 14.2-8.8c0.7-0.5 1.1-0.5 1.8 0.1q0.1 0.1 0.3 0.3c6.2 5.6 12.4 11.2 18.7 16.8 1.3 1.1 2.1 1 2.9-0.5q0.5-0.9 1-1.8 5.7-10.2 11.4-20.4c0.4-0.8 0.8-1 1.7-0.8q3.7 0.9 7.3 1.7 0 0 0 0 4.5 1 9 2c0.9 0.2 1.2 0.6 1.2 1.5 0.4 8.5 0.9 16.9 1.4 25.3 0.1 1.8 0.7 2.2 2.5 1.8 6-1.7 11.9-3.2 17.9-4.8 2.2-0.6 4.3-1.4 6.4-2.1q0.4-0.2 0.7-0.2c0.5 0 0.8 0.3 1.2 0.8q4.3 7.1 8.7 14zm-34.1 34.6c0.9-6.2-0.2-12.7-3.3-18.5q-0.5-0.9-1-1.8c-1.6-2.5-3.4-4.7-5.6-6.5-3.1-2.8-6.8-4.9-10.7-6.2-4.5-1.4-9.2-1.8-13.9-1.1-3.9 0.6-7.8 2-11.4 4.3q-2.3 1.4-4.2 3.2c-2.8 2.5-5 5.4-6.6 8.6-4.7 9.1-4.6 20.4 1.3 29.7q0.7 1.2 1.5 2.3c3.5 4.6 8.2 7.9 13.3 9.9 3 1.2 6.3 1.8 9.6 2 5.6 0.2 11.4-1.2 16.6-4.3q0.3-0.1 0.5-0.3c2.4-1.5 4.6-3.3 6.4-5.3 1.8-2 3.3-4.2 4.5-6.6q1.6-3.1 2.4-6.5 0 0 0 0 0.4-1.5 0.6-2.9z"/>
							<path id="&lt;Compound Path&gt;" fill-rule="evenodd" class="s9" d="m371 312.8c1.5 8.8 0.9 17.7-3.6 25.7-6.9 11.9-26.7 23.5-39.9 16.3-7.9-1.4-15.3-5.9-20.6-11.8-12.4-13.7-14.2-35.1-1.6-49.4 12.5-14.2 35-14.2 50.2-4.5 8.8 5.6 13.7 13.6 15.5 23.7zm-11-10.5c-1.6-2.5-3.4-4.7-5.6-6.5-3.1-2.8-6.8-4.9-10.7-6.2-4.5-1.4-9.2-1.8-13.9-1.1-3.9 0.6-7.8 2-11.4 4.3q-2.3 1.4-4.2 3.2c-2.8 2.5-5 5.4-6.6 8.6-4.7 9.1-4.6 20.4 1.3 29.7q0.7 1.2 1.5 2.3c3.5 4.6 8.2 7.9 13.3 9.9 3 1.2 6.3 1.8 9.6 2 5.6 0.2 11.4-1.2 16.6-4.3q0.3-0.1 0.5-0.3c2.4-1.5 4.6-3.3 6.4-5.3 1.8-2 3.3-4.2 4.5-6.6q1.6-3.1 2.4-6.5 0 0 0 0 0.4-1.5 0.6-2.9c0.9-6.2-0.2-12.7-3.3-18.5q-0.5-0.9-1-1.8z"/>
							<path id="&lt;Path&gt;" class="s10" d="m270.4 300.2c0 1.9 0.5 3.5 1 5 1.4 2.1 3 4.1 4.8 6.2 3.6 4.1 7.6 7.3 10.2 12.3q0.2 0.4 0.3 0.8c0.1 0.6 0 1.2-0.2 1.7-5.8-3.4-11.5-6.7-17.2-9.9-1.9-1.1-3.8-2-5.6-3-1-0.5-1.2-1.2-1-2.2q2.1-8.8 4-17.5c0.3-1.2 1-1.7 2.2-1.8q1.4 0 2.8-0.1-0.1 0.7-0.2 1.4c-0.5 2.3-1.2 4.5-1.1 7.1z"/>
							<path id="&lt;Path&gt;" class="s10" d="m305.6 358c-7.5 2.1-14.9 4.1-22.3 6.2-4.3 1.1-3.7 1.3-6-2.2l-7.7-12.5c-1.4-2.2-1.4-2.2 0.3-4.2q0.6-0.7 1.2-1.3c0 0.7-0.1 1.4 0 2.1q0 0.3 0.1 0.7c0.2 1.3 0.7 2.6 1.4 3.7 6.8 4.6 14.2 5.5 22.8 4.7 2.1-0.2 7.4-0.5 9.6 1.3q0.8 0.6 1 1.5-0.2 0-0.4 0z"/>
							<path id="&lt;Path&gt;" class="s10" d="m380.2 369.4q0.3 0.9 0.6 1.8c0.6 2 0.4 2.3-1.3 3.4l-14.2 8.8q-0.3 0.2-0.6 0.4-1.1 0-2.3-0.1-0.3-0.2-0.7-0.6c-2.1-1.9-4.1-4-6.2-5.8-3.5-3.1-7-6-10.5-9q-0.1 0-0.1-0.1 0 0 0 0 0 0 0 0-0.2-0.4-0.4-0.7-0.1 0.1-0.1 0.2 0 0-0.1 0.1-0.8-0.8-1.7-1.5c-0.2 0.1-0.4 0.2-0.4 0.4q-5.7 9.9-11.3 19.8c-2.5 4.5-1.8 4-6.4 2.9-4.8-1-9.6-2.2-14.5-3.3q-0.1 0-0.3 0-0.8-0.7-1.6-1.5-0.2-0.4-0.2-0.9c-0.1-4.2-0.2-8.4-0.4-12.6q-0.2-2.3-0.4-4.7 0.7 0.5 1.4 1.2 0.3 0.3 0.6 0.7-0.3-1.3-0.7-2.6 0 0 0-0.1c-0.5-1.6-1.1-3.2-1.8-4.4q0 0 0 0-0.2-1.1-0.3-2.3 1 0.2 1.7 0.8c0.6 0.4 1.1 1 1.6 1.8 2.7 4.3 2.4 9.7 6 13.9 5.7 6.5 11.9 5.6 16.4 1.1l0.1-0.1q0.4-0.3 0.7-0.7c1.2-1.3 2.2-2.9 3-4.5 1.4-2.9 2.6-4.6 5.3-5.9q0.5-0.2 1-0.4c0.6-0.2 1.3 0 1.8 0.4 0.3 0.3 0.6 0.8 0.7 1.2q0.3 0 0.7 0.1c4.3 0.5 8.9 4.1 13 5.5 7.8 2.7 13.3 1.2 20.5-2.3q0-0.1 0.1-0.1 0.6-0.3 1.3-0.3z"/>
							<path id="&lt;Path&gt;" class="s10" d="m406.2 325.5q-2 8.9-4.1 17.9c-0.3 1.1-1.1 1.4-2.1 1.5-4.2 0.1-8.4 0.1-12.6 0.4q0 0 0 0 0-0.2 0-0.4-1.5 0.4-3.1 0.7 0 0-0.1 0-2.2 0.3-4.6 0.4-0.1 0-0.1 0-2.8 0.1-5.6-0.2c-0.1 0-0.1-0.1-0.1-0.1q0.9-0.5 1.9-0.9c8.2-4 17.2-6.3 22.7-13 1.5-2.7 2.3-5.8 3.9-8.5q0.3-0.5 0.6-1h0.1q0-0.1 0-0.1 1.1 0.6 2.2 1.2c0.9 0.4 1.2 1.1 1 2.1z"/>
							<path id="&lt;Path&gt;" class="s10" d="m399.2 286.9q-0.1 1.1-0.4 2.2 0 0.2-0.1 0.3-0.1 0.7-0.3 1.3-0.3 1.1-0.8 2.1c-2.7 2.9-5.4 5.8-8 8.8q-1.4 1.6-2.8 3.3l-0.1 0.1c-2.3 1.6-4.3 3.5-4.2 5.2q0 0.1 0 0.2c0 0.1-0.1 0.1-0.1 0.1q-0.1 0-0.1 0c-0.6-0.3-1-0.8-1.2-1.3-0.4-1.1-0.1-2.6 0.4-4.3q0.1 0 0.1 0 0.4-1.2 1-2.4h0.1c1.1-2.2 2.4-4.2 2.9-5 2.7-4.5 5.2-7.9 5.3-13.4 0-3.8-1-7.4-2.4-10.9q-0.2-0.6-0.5-1.3 0 0 0 0c1.5-0.3 1.9 0.2 3.3 2.4 2.6 4.2 5.2 8.4 7.9 12.6z"/>
							<path id="&lt;Path&gt;" class="s10" d="m352.3 249q-1.5 0.3-2.9 0.7 0 0 0 0c-3.3 1-6.2 2.8-8.7 5.5-2.9 3.1-4.1 7.4-6.8 10.7-1.5 1.8-3 3.1-4.9 3.3q-0.8 0.1-1.7-0.2 0.5-0.8 1-1.7c3.5-2 5.4-8.2 7.5-13.1q0-0.1 0-0.1 1.4-2.5 2.7-4.9c1.7-3 1.6-3 5-2.2q4.4 1 8.8 2z"/>
							<path id="&lt;Path&gt;" class="s10" d="m307.6 253.9q-0.6 0.4-1.2 0.8c-3.6 2.2-7.2 4.7-8.9 8.6-1 2.5-1.1 5-0.9 7.6q0.1 1.5 0.3 3 0.2 1.2 0.4 2.5 0.1 0.8 0.2 1.7 0.1 0.7 0.2 1.4c0.3 3.2 0.4 7-1.4 9.4q-0.5 0.6-1.1 1.1c-0.1 0-0.1-0.1-0.1-0.1 0.2-4.8-2.2-8.3-3.4-12.8q-0.5-1.8-0.8-3.6-0.1 0.1-0.2 0.2c-0.8-2.8-1.7-5.6-2.6-8.4-0.5-1.5-0.1-2.4 1.2-3.1q7.3-4.5 14.5-9.1c1.2-0.8 2.2-0.7 3.3 0.3q0.2 0.2 0.5 0.5z"/>
							<path id="&lt;Path&gt;" class="s10" d="m364.3 322.6q0 0.4-0.1 0.8-0.1 1.2-0.5 2.1 0.4-1.4 0.6-2.9z"/>
							<path id="&lt;Path&gt;" class="s10" d="m343.7 289.6c-4.5-1.4-9.2-1.8-13.9-1.1q0.4-0.1 0.8-0.2c1.8-0.7 3.2-1.4 4.9-1.7q0 0 0 0 0.8-0.1 1.8 0 1.1 0.1 2 0.4 0 0 0 0c1.8 0.6 3.1 1.6 4.4 2.6z"/>
							<path id="&lt;Path&gt;" class="s10" d="m359.7 301.2q0.9 1.4 1.3 2.9-0.5-0.9-1-1.8c-1.6-2.5-3.4-4.7-5.6-6.5 1.5 0.7 2.9 1.8 4.2 3.6q0.6 0.9 1.1 1.8z"/>
							<path id="&lt;Path&gt;" class="s9" d="m296.2 296.8c-2.9 1.4-6.5 1.7-9.8 1.7-3.6 0-6.6 0-9.8-1.6-0.5-0.3-0.6-1.1-0.1-1.4 3.2-1.6 6.2-1.7 9.8-1.7 3.2-0.1 6.9 0.1 9.9 1.5 0.5 0.3 0.6 1.2 0 1.5z"/>
							<path id="&lt;Path&gt;" class="s9" d="m320.6 272.8c0.2 0.6-0.3 1.4-1 1.3-2.8-0.2-4.8-2.6-6.8-4.4-2.5-2.4-4.3-5.1-6.4-7.7-0.6-0.8 0.6-1.6 1.2-1.1 2.5 2.1 5.3 3.9 7.8 6 1.9 1.7 4.5 3.3 5.2 5.9z"/>
							<path id="&lt;Path&gt;" class="s9" d="m355.3 258.5c1.5 3.2 1.9 6.8 2.4 10.3 0.4 3 1.5 7.1-1.3 9.1-0.6 0.4-1.4 0.2-1.9-0.2-2.5-1.8-1.5-6.1-1.4-8.8 0.2-3.4 0.1-6.9 0.9-10.2 0.1-0.5 1-0.8 1.3-0.2z"/>
							<path id="&lt;Path&gt;" class="s9" d="m384 280.2c-3.1 2-6.2 3.6-9.6 5.1-2.8 1.2-5.6 2.8-8.7 1.6-0.7-0.2-0.9-1.2-0.6-1.8 1.5-2.9 5.1-3.5 8-4.3 3.6-0.9 7-1.2 10.7-1.3 0.3 0 0.5 0.5 0.2 0.7z"/>
							<path id="&lt;Path&gt;" class="s9" d="m394.1 326c-4-0.7-9.9-0.1-12.7-3.7-0.9-1.2 0.3-3 1.7-3 2 0 3.7 1.2 5.4 2.2 1.9 1.3 3.8 2.5 5.9 3.2 0.8 0.3 0.5 1.4-0.3 1.3z"/>
							<path id="&lt;Path&gt;" class="s9" d="m368.6 359.3q1 3.8 1.9 7.8c0.1 0.7-0.8 1.1-1.3 0.5-1.7-2.2-3.3-4.6-4.5-7.1-1.1-2-1.8-3.7-0.9-5.9 0.3-0.6 1.1-0.8 1.6-0.5 2.1 1.1 2.6 3 3.2 5.2z"/>
							<path id="&lt;Path&gt;" class="s9" d="m330.3 369.9c0.2 4.6-6.5 5.1-9.4 3.6-3.9-2-7.6-6.8-5.4-11.2 0.2-0.5 0.8-0.7 1.4-0.7 3.1 0.5 4.3 2.9 6.5 4.8 2 1.5 4.2 1.8 6.4 2.8 0.3 0.1 0.5 0.4 0.5 0.7z"/>
							<path id="&lt;Path&gt;" class="s9" d="m293.2 337.3c-3.4 5.5-11.4 8.6-17.3 10.6-0.5 0.1-0.9-0.5-0.5-0.8 2.6-2.4 5.2-4.9 7.8-7.3 2.3-2.2 4.4-4.5 7.3-5.8 1.8-0.8 3.6 1.7 2.7 3.3z"/>
							<g id="&lt;Group&gt;">
								<g id="&lt;Group&gt;">
									<path id="&lt;Compound Path&gt;" fill-rule="evenodd" class="s0" d="m327.9 390.5c-0.5 0-1.1-0.1-2-0.4q-0.6-0.1-1.5-0.3-3-0.7-6.1-1.4-4.2-1-8.3-1.9l-0.4-0.1c-1-0.3-1.6-0.8-1.9-1.7q-0.1-0.5-0.1-1l-0.1-1.2c-0.1-3.7-0.2-7.6-0.4-11.4q-0.1-2.2-0.4-4.4v-0.3c-0.1-1.7-0.3-3.4-0.5-5.1q-0.1-0.9-0.2-1.8v-0.5q-0.1-0.3-0.1-0.7-0.1 0-0.2 0.1l-6 1.6q-8.2 2.2-16.3 4.5l-0.9 0.3c-1.2 0.3-1.9 0.5-2.4 0.5-1.1 0-1.6-0.7-2.6-2.4l-8.2-13.2c-1.5-2.3-1.5-2.6 0.4-4.7q0.6-0.6 1.2-1.3l3.3-3.6q3.3-3.6 6.5-7.3c1.3-1.4 2.5-2.9 3.8-4.5q0.8-1 1.6-2l-0.2-0.1c-5.7-3.2-11.2-6.4-16.8-9.6-1.5-0.8-3-1.6-4.4-2.4l-1.2-0.6q-1.5-0.8-1.1-2.6 2-8.8 4-17.5c0.3-1.3 1.1-2 2.5-2 0.6-0.1 3.3-0.2 3.3-0.2 3.3 0 6.8-0.2 10.1-0.4 2.8-0.1 5.7-0.4 8.5-0.7q1.8-0.2 3.7-0.4-0.6-2.3-1.2-4.6c-0.7-3.2-1.5-6.4-2.4-9.6q-0.2-0.9-0.5-1.8c-0.8-2.7-1.7-5.4-2.5-8l-0.1-0.4c-0.6-1.6-0.2-2.6 1.3-3.5 4.9-3 9.7-6 14.5-9.1q0.9-0.6 1.8-0.6 1 0 1.9 0.9l1.2 1.1c1.5 1.6 3.1 3.1 4.7 4.5q4.3 3.8 8.7 7.5l4.4 3.7 0.6-1.1q0.5-0.7 1-1.4l0.1-0.3c0.8-1.3 1.6-2.5 2.3-3.7q2.4-4.4 4.8-8.7l3.1-5.7c1.1-2 1.6-2.8 2.9-2.8 0.6 0 1.4 0.2 2.4 0.4q4.5 1.1 8.9 2.1 3.3 0.8 6.6 1.5c1.6 0.3 2.3 1.2 2.4 2.8v0.2c0.1 4.7 0.3 9.6 0.6 14.3 0.1 2.6 0.4 5.2 0.7 7.9q0.2 1.5 0.3 3 0.1-0.1 0.2-0.1 11.4-3.1 22.8-6.3h0.2q1-0.3 1.7-0.5 0.4-0.1 0.8-0.1c1.2 0 1.7 0.8 2.9 2.8l2 3.1q2.9 4.7 5.9 9.4l0.5 0.9c0.9 1.3 0.8 2.4-0.3 3.5l-1.8 2c-2.8 2.9-5.4 5.7-8 8.7q-1.5 1.6-2.8 3.3l-0.1 0.1-0.1 0.1c-0.9 1.1-4.1 5.1-4.1 5.1l18.4 10.3 2 1.2q0.8 0.4 1.6 0.8l0.6 0.4c1 0.5 1.4 1.4 1.2 2.4q-2 8.5-3.9 16.9l-0.3 1q-0.3 1.7-2.4 1.8l-3.2 0.1c-3.1 0.1-6.2 0.2-9.3 0.4h-0.3q-1.5 0.1-2.9 0.2c-1.3 0.1-2.6 0.2-3.9 0.4l-0.8 0.1c-1.8 0.1-3.5 0.3-5.2 0.5l1 4c0.9 3.5 1.8 7 2.7 10.5 0.5 1.8 1.1 3.6 1.6 5.4q0.4 1.2 0.8 2.5l0.6 1.8c0.6 2.2 0.5 2.5-1.4 3.8l-14.2 8.8q-0.4 0.2-0.6 0.4c-0.5 0.3-1 0.5-1.4 0.5-0.4 0-0.8-0.2-1.3-0.6q-0.3-0.2-0.8-0.7-1.3-1.2-2.6-2.5c-1.1-1.1-2.3-2.2-3.5-3.3q-3.9-3.3-7.9-6.7l-2.7-2.2v-0.1l-0.1-0.1q-0.2-0.1-0.5-0.4-0.7-0.6-1.5-1.3-0.1 0.1-0.1 0.2l-1.3 2.1q-5 8.8-10 17.6l-0.5 1.1c-1.2 2-1.6 2.8-2.8 2.8zm-21.3-34.7c1.4 0 1.6 1.2 1.7 2.4 0 0.2 0.1 1.2 0.1 1.5q0.1 2 0.2 4l0.2 3.8q0.4 8 0.9 16.1c0 0.6 0.1 0.8 0.8 1 5.6 1.2 11.2 2.5 16.5 3.8q0.2 0 0.4 0c0.3 0 0.5-0.1 0.7-0.6q4-7 7.9-14.1l4.5-7.9q0.1-0.3 0.3-0.7l0.8-1.2 0.3 0.1q0.3 0.1 0.7 0.2c0.5 0.2 1 0.4 1.4 0.7l-0.1 0.4 0.2-0.2q0.7 0.6 1.4 1.2c5.3 4.7 10.8 9.6 17.4 15.6 0.4 0.3 0.6 0.4 0.9 0.4q0.3 0 0.8-0.3c4.3-2.7 8.8-5.6 13.9-8.7 0.7-0.4 0.8-0.7 0.6-1.6q-0.3-0.9-0.6-1.9-3.2-11.3-6.4-22.5-0.4-1.3 0.1-2 0.5-0.7 1.9-0.8 0.5 0 1 0l0.5-0.1q12-0.7 23.9-1.3c0.8 0 1.1-0.2 1.2-1q1.1-4.9 2.3-9.9l1.2-5.1c0.4-2 0.4-2-1.3-3l-0.8-0.5q-10.4-5.7-20.7-11.5c-0.7-0.4-1.1-0.9-1.2-1.5q-0.1-0.8 0.5-1.5l0.2-0.1c4-4.7 8.1-9.4 12.2-14.1 1.5-1.8 3.3-3.5 4.9-5.1q0.3-0.3 0.4-0.5l0.1-0.2q0-0.3-0.4-0.9c-2.7-4.3-5.6-8.9-8.7-14-0.4-0.5-0.6-0.6-0.9-0.6q-0.2 0-0.6 0.1l-0.8 0.3c-1.8 0.6-3.7 1.3-5.6 1.8q-4.7 1.3-9.4 2.5-4.3 1.2-8.5 2.3-0.7 0.2-1.2 0.2c-1.5 0-1.7-1.2-1.8-2.3l-0.4-7.6q-0.5-8.8-1-17.6c0-0.8-0.2-1.1-0.9-1.2q-4.5-1-9-2.1-3.6-0.8-7.3-1.7-0.2 0-0.4 0c-0.4 0-0.6 0.1-0.9 0.7q-5.7 10.2-11.4 20.4-0.5 0.9-1 1.8c-0.3 0.6-0.9 1.4-1.7 1.4-0.6 0-1.1-0.3-1.7-0.9l-3.1-2.7q-7.8-7-15.7-14.1-0.1-0.1-0.1-0.1c-0.4-0.4-0.7-0.5-0.9-0.5q-0.2 0-0.6 0.3-7.1 4.5-14.2 8.8c-0.6 0.4-0.7 0.7-0.5 1.4l0.4 1c0.6 1.9 1.2 3.8 1.8 5.6q2.1 7.6 4.1 15.2l0.8 3.1q0.3 1-0.2 1.7-0.5 0.7-2.1 0.8-5.2 0.2-10.4 0.5-6.3 0.4-12.7 0.7l-2.2 0.1c-0.7 0.1-0.9 0.3-1.1 1q-1.8 8.1-3.7 16.2c-0.2 0.8-0.1 1 0.6 1.4q8.9 4.9 17.8 9.9l4.4 2.5c0.9 0.4 1.3 0.9 1.4 1.5 0.1 0.6-0.2 1.2-0.9 2l-6.1 6.8q-5.2 5.8-10.4 11.5l-0.1 0.2q-0.2 0.2-0.4 0.4c-0.4 0.5-0.5 0.7-0.1 1.3q4.5 7.1 9 14.4c0.3 0.4 0.5 0.5 0.7 0.5q0.2 0 0.6-0.1l1.4-0.5c1.6-0.6 3.3-1.1 4.9-1.6q4.8-1.3 9.6-2.6 4-1.1 8-2.1l0.4-0.1q0.8-0.3 1.3-0.3z"/>
								</g>
							</g>
							<g id="&lt;Group&gt;">
								<path id="&lt;Path&gt;" class="s0" d="m384.6 300.3c0 0 0.3-0.4 0.3-0.6 0.2-0.2 0.3-0.5 0.5-0.8q3.1-3.3 6.2-6.5l0.8-0.9c0.2-0.3 0.4-0.5 0.7-0.6 0.3-0.1 0.6-0.2 0.9-0.3l0.8-0.1-0.1 0.5q0 0.2 0 0.4c0 0.3-0.1 0.7-0.3 1-2.2 2.3-4.7 4.8-7.8 8.1-0.3 0.2-0.6 0.3-0.8 0.4q-0.2 0-0.3 0l-0.2 0.1z"/>
							</g>
							<g id="&lt;Group&gt;">
								<path id="&lt;Path&gt;" class="s0" d="m280.9 338.5c1.4-1.9 3.1-3.4 4.8-4.9 1.5-1.3 2.9-2.6 4.1-4.1l0.5-0.6 0.1 0.8c0 0.2 0.1 0.7-1.5 2.7-1.9 2.3-6.2 6.6-7.7 6.6l-0.8 0.1z"/>
							</g>
							<g id="&lt;Group&gt;">
								<path id="&lt;Path&gt;" class="s0" d="m272.9 347v-0.4q0.1-0.1 0.2-0.3c0.1-0.2 0.3-0.5 0.5-0.7 1.1-1.2 2.5-2.6 3.8-4 0.3-0.2 0.7-0.3 1-0.4q0.2 0 0.4 0l0.6-0.2-0.2 0.6q0 0.2 0 0.4c-0.1 0.3-0.2 0.7-0.4 1-1.3 1.4-2.7 2.7-3.9 3.9-0.3 0.2-0.6 0.3-0.8 0.4q-0.2 0.1-0.3 0.2l-0.3 0.1z"/>
							</g>
							<g id="&lt;Group&gt;">
								<path id="&lt;Path&gt;" class="s0" d="m380.4 306.1q-0.1-0.1-0.2-0.2c-0.2-0.4-0.4-0.6-0.2-0.9q1.3-1.6 2.6-2.9l0.1-0.1 0.3-0.1q0.2 0 0.3 0.1h0.3l0.2 0.2c0.1 0.2 0.2 0.4 0 0.6l-3.1 3.7z"/>
							</g>
							<g id="&lt;Group&gt;">
								<g id="&lt;Group&gt;">
									<path id="&lt;Compound Path&gt;" fill-rule="evenodd" class="s0" d="m334.5 350.4q-1.7 0-3.3-0.2-2.5-0.2-4.8-0.8c-8-2.1-14.8-7.1-19.2-14.1l-0.1-0.3c-5.3-8.5-6.2-19.2-2.4-28.6 2.1-5.4 5.8-10.2 10.5-13.7q1.1-0.8 2.2-1.6c5.1-3.1 11-4.8 17-4.8q0.6 0 1.1 0 1.9 0.1 3.8 0.4c9.3 1.4 17.4 6.8 22.3 14.6 5.3 8.6 6.4 18.8 2.8 28.3-1.8 4.9-4.9 9.4-8.9 12.9q-1.5 1.3-3.2 2.4c-0.3 0.3-0.6 0.4-0.9 0.6-5.1 3.2-10.9 4.9-16.9 4.9q0 0 0 0zm-0.1-61.9q-2.3 0-4.5 0.4c-4 0.6-7.8 2-11.3 4.1q-2.3 1.5-4.2 3.3c-2.7 2.4-4.9 5.2-6.5 8.5-4.7 9.3-4.3 20.5 1.3 29.3q0.7 1.2 1.5 2.3c3.4 4.4 7.9 7.8 13.1 9.8 3 1.1 6.2 1.8 9.5 1.9q0.6 0 1.2 0c5.3 0 10.6-1.4 15.2-4.2q0.3-0.1 0.5-0.3c2.4-1.5 4.5-3.2 6.3-5.2 1.8-2 3.3-4.2 4.5-6.6 1-2 1.8-4.1 2.4-6.3v-0.2q0.3-1.3 0.5-2.8c0.9-6.3-0.2-12.6-3.2-18.2q-0.5-0.9-1-1.8c-1.5-2.4-3.4-4.6-5.5-6.5-3.1-2.7-6.7-4.8-10.6-6-3-1-6.1-1.5-9.2-1.5z"/>
								</g>
							</g>
						</g>
						<g id="&lt;Group&gt;">
							<path id="&lt;Compound Path&gt;" fill-rule="evenodd" class="s8" d="m550.9 309.7q0.4 0.6 0.4 1.1-0.1 0.2-0.1 0.3c-0.1 0.2-0.3 0.4-0.5 0.7-1.7 1.6-3.3 3.3-4.9 5-4.1 4.7-8.2 9.4-12.2 14.1q-0.1 0.1-0.1 0.1c-0.8 0.9-0.6 1.8 0.5 2.5q10.4 5.8 20.7 11.5 0.3 0.2 0.6 0.4c2.2 1.2 2.2 1.1 1.7 3.4-1.2 5-2.4 10.1-3.5 15-0.2 1-0.5 1.3-1.5 1.4q-12 0.6-23.9 1.3-0.7 0-1.5 0.1c-1.6 0-2.1 0.7-1.7 2.3q3.2 11.2 6.4 22.5 0.3 1 0.6 1.9c0.3 1 0.1 1.5-0.8 2q-7 4.3-13.9 8.7c-0.8 0.6-1.3 0.5-2-0.2q-8.7-7.8-17.4-15.5-0.7-0.7-1.5-1.3 0 0-0.1-0.1c-0.5-0.5-1.3-0.6-2-0.9-0.2 0.4-0.4 0.7-0.6 1q-0.2 0.3-0.4 0.6c-4.1 7.4-8.2 14.7-12.3 22.1-0.4 0.7-0.8 0.9-1.5 0.7-5.5-1.3-11-2.6-16.6-3.8-0.8-0.2-1-0.6-1-1.3q-0.4-8.1-0.9-16.1 0-0.9-0.1-1.8 0 0 0-0.1-0.2-2.9-0.3-5.9 0-0.8-0.1-1.5c-0.1-1.9-0.7-2.3-2.5-1.8q-0.2 0-0.4 0.1c-5.9 1.6-11.8 3.1-17.6 4.7-2.1 0.6-4.2 1.4-6.3 2.1-0.8 0.3-1.3 0.2-1.8-0.6q-4.4-7.2-8.9-14.3c-0.5-0.8-0.4-1.2 0.1-1.8q0.3-0.2 0.5-0.5c5.5-6.1 11-12.3 16.5-18.4 1.2-1.3 1.1-2.1-0.4-3q-0.2-0.1-0.4-0.2c-7.3-4-14.6-8.1-21.9-12.1-0.8-0.5-0.9-0.9-0.7-1.8q1.9-8.1 3.7-16.2c0.2-0.8 0.5-1.2 1.4-1.2q1.1-0.1 2.2-0.1c7.7-0.4 15.5-0.9 23.2-1.3 1.6-0.1 2.3-0.7 1.9-2q-0.1-0.5-0.2-0.9c-1.6-5.8-3.1-11.6-4.7-17.4-0.6-2.2-1.4-4.4-2.2-6.5-0.2-0.9-0.1-1.4 0.7-1.9q7.1-4.3 14.1-8.8c0.7-0.5 1.2-0.5 1.8 0.1q0.2 0.1 0.3 0.3c6.3 5.6 12.5 11.2 18.8 16.8 1.2 1.1 2.1 1 2.9-0.5q0.5-0.9 1-1.8 5.7-10.2 11.3-20.4c0.5-0.8 0.9-1 1.8-0.8q3.6 0.9 7.3 1.7 0 0 0 0 4.5 1 8.9 2c1 0.2 1.2 0.6 1.2 1.5 0.5 8.5 1 16.9 1.4 25.3 0.1 1.8 0.8 2.2 2.6 1.8 5.9-1.7 11.9-3.2 17.9-4.8 2.1-0.7 4.3-1.4 6.4-2.1q0.4-0.2 0.7-0.2c0.4 0 0.8 0.3 1.1 0.8q4.3 7.1 8.8 14zm-34.2 34.6c0.9-6.2-0.1-12.7-3.2-18.5q-0.5-0.9-1-1.8c-1.6-2.5-3.5-4.7-5.6-6.5-3.2-2.8-6.8-4.9-10.8-6.2-4.4-1.4-9.1-1.8-13.8-1.1-3.9 0.6-7.8 2-11.4 4.2q-2.3 1.5-4.3 3.3c-2.7 2.5-4.9 5.4-6.5 8.6-4.7 9.1-4.6 20.4 1.2 29.7q0.8 1.2 1.6 2.3c3.5 4.6 8.1 7.9 13.2 9.9 3.1 1.2 6.3 1.8 9.6 2 5.7 0.2 11.5-1.2 16.7-4.3q0.2-0.1 0.5-0.3c2.4-1.5 4.5-3.3 6.3-5.3 1.9-2 3.4-4.2 4.6-6.6q1.5-3.1 2.4-6.5 0 0 0 0 0.3-1.5 0.5-2.9z"/>
							<path id="&lt;Compound Path&gt;" fill-rule="evenodd" class="s9" d="m523.5 334.5c1.5 8.8 0.9 17.7-3.7 25.7-6.8 11.9-26.7 23.5-39.8 16.3-7.9-1.4-15.3-5.9-20.7-11.8-12.3-13.7-14.1-35.1-1.6-49.4 12.5-14.2 35.1-14.2 50.3-4.5 8.7 5.6 13.7 13.6 15.5 23.7zm-11-10.5c-1.6-2.5-3.5-4.7-5.6-6.5-3.2-2.8-6.8-4.9-10.8-6.2-4.4-1.4-9.1-1.8-13.8-1.1-3.9 0.6-7.8 2-11.4 4.2q-2.3 1.5-4.3 3.3c-2.7 2.5-4.9 5.4-6.5 8.6-4.7 9.1-4.6 20.4 1.2 29.7q0.8 1.2 1.6 2.3c3.5 4.6 8.1 7.9 13.2 9.9 3.1 1.2 6.3 1.8 9.6 2 5.7 0.2 11.5-1.2 16.7-4.3q0.2-0.1 0.5-0.3c2.4-1.5 4.5-3.3 6.3-5.3 1.9-2 3.4-4.2 4.6-6.6q1.5-3.1 2.4-6.5 0 0 0 0 0.3-1.5 0.5-2.9c0.9-6.2-0.1-12.7-3.2-18.5q-0.5-0.9-1-1.8z"/>
							<path id="&lt;Path&gt;" class="s10" d="m422.8 321.9c0.1 1.8 0.5 3.5 1.1 5 1.4 2.1 2.9 4.1 4.7 6.1 3.7 4.2 7.7 7.4 10.3 12.3q0.2 0.5 0.3 0.9c0.1 0.6 0 1.2-0.3 1.7-5.8-3.4-11.5-6.7-17.2-9.9-1.8-1.1-3.7-2-5.6-3-0.9-0.5-1.1-1.2-0.9-2.2q2-8.8 4-17.5c0.3-1.2 1-1.7 2.2-1.8q1.4 0 2.8-0.1-0.1 0.7-0.3 1.4c-0.5 2.3-1.1 4.5-1.1 7.1z"/>
							<path id="&lt;Path&gt;" class="s10" d="m458 379.7c-7.4 2.1-14.8 4.1-22.3 6.2-4.2 1.1-3.7 1.3-5.9-2.2l-7.8-12.5c-1.4-2.2-1.4-2.3 0.4-4.2q0.6-0.7 1.2-1.3-0.1 1.1-0.1 2.1 0.1 0.3 0.1 0.7c0.3 1.3 0.8 2.5 1.4 3.7 6.8 4.6 14.3 5.5 22.8 4.7 2.2-0.2 7.4-0.5 9.7 1.3q0.7 0.6 1 1.5-0.3 0-0.5 0z"/>
							<path id="&lt;Path&gt;" class="s10" d="m532.7 391.1q0.2 0.9 0.5 1.8c0.6 2 0.5 2.2-1.3 3.4l-14.1 8.8q-0.4 0.2-0.6 0.4h-0.1q-1.1 0-2.2-0.1-0.3-0.2-0.8-0.6c-2.1-1.9-4-4-6.1-5.8-3.5-3.1-7-6-10.6-9q0 0 0-0.1 0 0 0 0 0 0 0 0-0.3-0.4-0.5-0.7 0 0.1-0.1 0.2 0 0 0 0.1-0.9-0.8-1.8-1.5c-0.1 0.1-0.3 0.2-0.4 0.4q-5.6 9.9-11.2 19.8c-2.6 4.5-1.8 4-6.4 2.9-4.9-1-9.7-2.2-14.5-3.3q-0.1 0-0.3 0-0.8-0.7-1.7-1.5-0.1-0.4-0.1-0.9c-0.1-4.2-0.2-8.4-0.5-12.6q-0.1-2.3-0.4-4.7 0.8 0.5 1.4 1.1 0.4 0.4 0.7 0.8-0.4-1.3-0.8-2.6 0 0 0-0.1c-0.5-1.6-1-3.2-1.8-4.4q0 0 0 0-0.1-1.1-0.2-2.3 0.9 0.2 1.7 0.8c0.6 0.4 1.1 1 1.6 1.8 2.6 4.3 2.3 9.7 6 13.9 5.6 6.5 11.9 5.6 16.4 1.1l0.1-0.1q0.3-0.3 0.7-0.7c1.1-1.3 2.1-2.9 3-4.5 1.4-2.9 2.6-4.6 5.3-5.9q0.4-0.2 0.9-0.4c0.7-0.2 1.4 0 1.8 0.4 0.4 0.3 0.6 0.8 0.7 1.2q0.4 0 0.8 0.1c4.3 0.5 8.9 4.1 13 5.5 7.8 2.7 13.3 1.2 20.4-2.4q0.1 0 0.1 0 0.7-0.3 1.4-0.3z"/>
							<path id="&lt;Path&gt;" class="s10" d="m558.7 347.1q-2.1 9-4.1 18c-0.3 1.1-1.1 1.4-2.1 1.4-4.2 0.2-8.4 0.2-12.6 0.5q0 0 0 0 0-0.2 0-0.4-1.6 0.4-3.1 0.7-0.1 0-0.1 0-2.3 0.3-4.7 0.4 0 0-0.1 0-2.7 0.1-5.6-0.2c0 0-0.1-0.1 0-0.1q0.9-0.5 1.8-0.9c8.2-4 17.3-6.3 22.7-13 1.6-2.7 2.4-5.8 3.9-8.5q0.3-0.5 0.7-1 0-0.1 0.1-0.1 1.1 0.6 2.2 1.2c0.8 0.4 1.2 1.1 1 2z"/>
							<path id="&lt;Path&gt;" class="s10" d="m551.6 308.6q-0.1 1.1-0.3 2.2-0.1 0.2-0.1 0.3-0.2 0.7-0.3 1.3-0.4 1-0.8 2.1c-2.7 2.9-5.4 5.8-8 8.8q-1.5 1.6-2.8 3.3l-0.1 0.1c-2.3 1.6-4.3 3.5-4.2 5.2q-0.1 0.1 0 0.2c0 0-0.1 0.1-0.2 0.1q0 0 0-0.1c-0.6-0.2-1-0.7-1.2-1.2-0.5-1.1-0.2-2.6 0.4-4.3q0 0 0 0 0.5-1.2 1.1-2.4c1.1-2.2 2.4-4.2 3-5 2.7-4.5 5.2-7.9 5.3-13.4 0-3.8-1.1-7.4-2.4-10.9q-0.3-0.6-0.6-1.3 0 0 0 0c1.6-0.3 1.9 0.2 3.3 2.4 2.7 4.2 5.3 8.4 7.9 12.6z"/>
							<path id="&lt;Path&gt;" class="s10" d="m504.8 270.7q-1.5 0.2-2.9 0.7 0 0 0 0c-3.3 1-6.3 2.8-8.7 5.5-2.9 3.1-4.2 7.4-6.9 10.7-1.4 1.8-2.9 3.1-4.8 3.3q-0.9 0.1-1.8-0.2 0.6-0.8 1.1-1.7c3.5-2 5.4-8.2 7.5-13.1q0-0.1 0-0.1 1.3-2.5 2.7-4.9c1.6-3 1.6-3 4.9-2.2q4.5 1 8.9 2z"/>
							<path id="&lt;Path&gt;" class="s10" d="m460.1 275.6q-0.6 0.4-1.3 0.8c-3.5 2.2-7.2 4.7-8.8 8.6-1 2.5-1.1 5-0.9 7.6q0.1 1.5 0.3 3 0.2 1.2 0.4 2.5 0.1 0.8 0.2 1.7 0.1 0.7 0.1 1.4c0.4 3.2 0.4 7-1.3 9.4q-0.5 0.6-1.1 1.1c-0.1 0-0.2-0.1-0.2-0.1 0.3-4.8-2.1-8.3-3.3-12.8q-0.5-1.8-0.8-3.6-0.1 0.1-0.2 0.2c-0.8-2.8-1.7-5.6-2.6-8.4-0.5-1.5-0.1-2.4 1.2-3.2q7.3-4.4 14.5-9c1.2-0.8 2.2-0.7 3.2 0.3q0.3 0.2 0.6 0.5z"/>
							<path id="&lt;Path&gt;" class="s10" d="m516.7 344.3q0 0.4 0 0.8-0.1 1.2-0.5 2.1 0.3-1.5 0.5-2.9z"/>
							<path id="&lt;Path&gt;" class="s10" d="m496.1 311.3c-4.4-1.4-9.1-1.8-13.8-1.1q0.4-0.1 0.8-0.2c1.7-0.7 3.1-1.4 4.8-1.7q0.1 0 0 0 0.9-0.1 1.9 0 1.1 0.1 2 0.4 0 0 0 0c1.7 0.6 3.1 1.6 4.3 2.6z"/>
							<path id="&lt;Path&gt;" class="s10" d="m512.2 322.9q0.9 1.4 1.3 2.9-0.5-0.9-1-1.8c-1.6-2.5-3.5-4.7-5.6-6.5 1.5 0.7 2.9 1.8 4.2 3.6q0.6 0.9 1.1 1.8z"/>
							<path id="&lt;Path&gt;" class="s9" d="m448.7 318.5c-3 1.4-6.6 1.7-9.8 1.7-3.6 0-6.7 0-9.9-1.6-0.5-0.3-0.6-1.1 0-1.4 3.2-1.6 6.2-1.8 9.7-1.8 3.3 0 7 0.2 9.9 1.6 0.6 0.3 0.6 1.2 0.1 1.5z"/>
							<path id="&lt;Path&gt;" class="s9" d="m473.1 294.5c0.1 0.6-0.3 1.4-1 1.3-2.8-0.2-4.9-2.6-6.8-4.4-2.5-2.4-4.3-5.1-6.5-7.8-0.6-0.7 0.6-1.5 1.3-1 2.5 2.1 5.2 3.9 7.7 6 2 1.7 4.6 3.3 5.3 5.9z"/>
							<path id="&lt;Path&gt;" class="s9" d="m507.7 280.2c1.5 3.2 2 6.8 2.5 10.3 0.3 3 1.5 7.1-1.3 9-0.6 0.5-1.4 0.3-1.9-0.1-2.5-1.8-1.5-6.1-1.4-8.8 0.1-3.4 0.1-6.9 0.9-10.2 0.1-0.5 1-0.8 1.2-0.2z"/>
							<path id="&lt;Path&gt;" class="s9" d="m536.5 301.9c-3.2 2-6.2 3.6-9.6 5.1-2.9 1.2-5.7 2.8-8.7 1.6-0.7-0.2-0.9-1.2-0.6-1.8 1.5-2.9 5-3.5 8-4.3 3.5-0.9 7-1.3 10.7-1.3 0.3 0 0.5 0.5 0.2 0.7z"/>
							<path id="&lt;Path&gt;" class="s9" d="m546.6 347.7c-4.1-0.7-9.9-0.1-12.7-3.7-0.9-1.2 0.2-3 1.6-3 2.1 0 3.8 1.2 5.5 2.2 1.8 1.3 3.7 2.5 5.9 3.2 0.7 0.3 0.5 1.4-0.3 1.3z"/>
							<path id="&lt;Path&gt;" class="s9" d="m521 381q1.1 3.8 1.9 7.8c0.2 0.7-0.7 1.1-1.2 0.5-1.8-2.2-3.3-4.6-4.6-7.1-1-2-1.8-3.7-0.8-5.9 0.2-0.6 1.1-0.8 1.6-0.5 2.1 1.1 2.5 3 3.1 5.2z"/>
							<path id="&lt;Path&gt;" class="s9" d="m482.7 391.6c0.2 4.6-6.4 5.1-9.3 3.6-4-2-7.6-6.8-5.5-11.2 0.3-0.5 0.9-0.7 1.4-0.7 3.2 0.5 4.3 2.9 6.6 4.8 1.9 1.5 4.2 1.8 6.4 2.8 0.3 0.1 0.4 0.4 0.4 0.7z"/>
							<path id="&lt;Path&gt;" class="s9" d="m445.6 359c-3.4 5.5-11.4 8.6-17.3 10.6-0.4 0.1-0.8-0.5-0.5-0.8 2.7-2.4 5.2-4.9 7.8-7.3 2.4-2.2 4.5-4.5 7.3-5.8 1.8-0.8 3.7 1.7 2.7 3.3z"/>
							<g id="&lt;Group&gt;">
								<g id="&lt;Group&gt;">
									<path id="&lt;Compound Path&gt;" fill-rule="evenodd" class="s0" d="m480.4 412.2c-0.5 0-1.1-0.1-2-0.4q-0.7-0.1-1.5-0.3-3.1-0.7-6.1-1.4-4.2-1-8.4-1.9l-0.3-0.1c-1.1-0.3-1.7-0.8-1.9-1.7q-0.2-0.5-0.2-1v-1.2c-0.1-3.7-0.2-7.6-0.4-11.4q-0.2-2.2-0.4-4.4v-0.3c-0.2-1.7-0.3-3.4-0.5-5.1q-0.1-0.9-0.2-1.8v-0.5h-0.1q0-0.3 0-0.7-0.2 0-0.3 0l-5.9 1.7q-8.2 2.2-16.4 4.5l-0.9 0.3c-1.1 0.3-1.8 0.5-2.4 0.5-1.1 0-1.5-0.7-2.5-2.4l-8.3-13.2c-1.4-2.3-1.4-2.6 0.4-4.7q0.6-0.6 1.2-1.3l3.3-3.6q3.4-3.7 6.6-7.3c1.3-1.5 2.5-3 3.8-4.5q0.7-1 1.5-2l-0.2-0.1c-5.6-3.2-11.2-6.4-16.7-9.6-1.5-0.8-3-1.6-4.5-2.4l-1.1-0.6q-1.6-0.8-1.2-2.6 2.1-8.8 4.1-17.5c0.3-1.3 1.1-2 2.5-2 0.6-0.1 3.3-0.2 3.3-0.2 3.3-0.1 6.7-0.2 10.1-0.4 2.8-0.2 5.6-0.5 8.4-0.7q1.9-0.2 3.7-0.4-0.5-2.3-1.1-4.6c-0.8-3.2-1.6-6.4-2.4-9.6q-0.3-0.9-0.5-1.8c-0.8-2.7-1.7-5.4-2.5-8l-0.2-0.4c-0.5-1.6-0.1-2.6 1.4-3.5 4.8-3 9.7-6.1 14.5-9.1q0.9-0.6 1.7-0.6 1 0 2 0.9l1.1 1.1c1.6 1.5 3.2 3.1 4.8 4.5q4.3 3.8 8.7 7.5l4.3 3.7 0.7-1.1q0.5-0.7 0.9-1.4l0.2-0.3c0.8-1.3 1.5-2.5 2.2-3.7q2.5-4.4 4.9-8.7l3.1-5.7c1.1-2 1.5-2.8 2.8-2.8 0.6 0 1.4 0.2 2.5 0.4q4.4 1.1 8.9 2.1 3.3 0.7 6.5 1.5c1.6 0.3 2.4 1.2 2.4 2.8v0.2c0.2 4.7 0.3 9.6 0.6 14.3 0.2 2.6 0.5 5.2 0.8 7.9q0.1 1.5 0.3 3 0.1-0.1 0.2-0.1 11.4-3.1 22.7-6.3h0.2q1.1-0.3 1.8-0.5 0.4-0.1 0.7-0.1c1.2 0 1.7 0.8 2.9 2.8l2 3.1q2.9 4.7 5.9 9.4l0.6 0.9c0.8 1.3 0.7 2.4-0.3 3.5l-1.9 2c-2.7 2.9-5.4 5.7-8 8.7q-1.4 1.6-2.8 3.3v0.1l-0.1 0.1c-0.9 1.1-4.1 5.1-4.1 5.1l18.3 10.3 2 1.1q0.8 0.5 1.6 0.9l0.6 0.4c1.1 0.5 1.5 1.4 1.2 2.4q-1.9 8.4-3.9 16.9l-0.2 1q-0.4 1.7-2.4 1.8l-3.3 0.1c-3 0.1-6.2 0.2-9.3 0.4h-0.3q-1.4 0.1-2.8 0.2c-1.4 0.1-2.6 0.2-3.9 0.4l-0.8 0.1c-1.8 0.1-3.5 0.3-5.2 0.5l1 4c0.8 3.4 1.7 7 2.7 10.5 0.4 1.8 1 3.6 1.6 5.4q0.4 1.2 0.8 2.5l0.6 1.8c0.6 2.2 0.4 2.5-1.5 3.8l-14.1 8.8q-0.4 0.2-0.7 0.4c-0.5 0.3-0.9 0.5-1.3 0.5-0.4 0-0.8-0.2-1.3-0.6q-0.4-0.2-0.8-0.7-1.3-1.2-2.6-2.5c-1.2-1.1-2.4-2.2-3.6-3.3q-3.8-3.3-7.8-6.7l-2.7-2.2v-0.1h-0.1l-0.1-0.1q-0.1-0.1-0.4-0.4-0.8-0.6-1.5-1.3-0.1 0.1-0.2 0.2l-1.2 2.1q-5 8.8-10 17.6l-0.6 1.1c-1.1 2-1.6 2.8-2.7 2.8zm-21.3-34.7c1.3 0 1.6 1.2 1.7 2.4 0 0.2 0 1.2 0 1.5q0.2 2 0.3 4l0.2 3.8q0.4 8 0.8 16c0.1 0.7 0.2 0.9 0.8 1.1 5.7 1.2 11.3 2.5 16.5 3.8q0.3 0 0.5 0c0.2 0 0.4-0.1 0.7-0.6q3.9-7.1 7.9-14.1l4.4-8q0.2-0.2 0.4-0.6l0.8-1.2 0.3 0.1q0.3 0.1 0.6 0.2c0.5 0.2 1 0.4 1.4 0.7l-0.1 0.4 0.3-0.2q0.7 0.6 1.4 1.2c5.3 4.7 10.8 9.6 17.4 15.6 0.3 0.3 0.6 0.4 0.9 0.4q0.3 0 0.7-0.3c4.3-2.7 8.9-5.6 13.9-8.7 0.8-0.4 0.9-0.7 0.6-1.6q-0.2-1-0.5-1.9-3.3-11.3-6.4-22.5-0.4-1.3 0.1-2 0.5-0.7 1.9-0.8 0.5 0 1-0.1h0.5q11.9-0.7 23.8-1.3c0.9 0 1.1-0.2 1.3-1q1.1-5 2.2-9.9l1.2-5.1c0.5-2.1 0.5-2.1-1.3-3l-0.7-0.5q-10.4-5.7-20.7-11.5c-0.7-0.4-1.1-0.9-1.2-1.5q-0.1-0.8 0.5-1.5l0.1-0.1c4.1-4.7 8.1-9.4 12.2-14.1 1.6-1.8 3.3-3.5 5-5.1q0.3-0.3 0.4-0.5v-0.2q0-0.3-0.3-0.9c-2.8-4.3-5.6-8.9-8.8-14-0.3-0.5-0.5-0.6-0.8-0.6q-0.3 0-0.6 0.1l-0.8 0.3c-1.8 0.6-3.7 1.3-5.7 1.8q-4.7 1.3-9.4 2.5-4.2 1.1-8.4 2.3-0.7 0.2-1.2 0.2c-1.5 0-1.8-1.2-1.8-2.3l-0.4-7.6q-0.5-8.8-1-17.6c0-0.8-0.2-1.1-0.9-1.2q-4.5-1-9-2.1-3.7-0.8-7.3-1.7-0.3 0-0.5 0c-0.3 0-0.5 0.1-0.9 0.7q-5.6 10.2-11.3 20.4-0.5 0.9-1 1.8c-0.4 0.6-0.9 1.4-1.8 1.4-0.5 0-1-0.3-1.7-0.9l-3-2.7q-7.9-7-15.7-14.1-0.1-0.1-0.2-0.1c-0.4-0.4-0.6-0.5-0.8-0.5q-0.3 0-0.7 0.3-7 4.4-14.1 8.8c-0.7 0.4-0.8 0.7-0.5 1.4l0.3 1c0.7 1.9 1.3 3.7 1.8 5.6q2.1 7.6 4.1 15.2l0.8 3.1q0.3 1-0.1 1.6-0.6 0.8-2.1 0.9-5.2 0.2-10.4 0.5-6.4 0.4-12.8 0.7l-2.2 0.1c-0.7 0.1-0.9 0.2-1 1q-1.9 8.1-3.8 16.2c-0.2 0.7-0.1 1 0.6 1.4q9 4.9 17.9 9.9l4.3 2.4c0.9 0.5 1.4 1 1.5 1.6 0.1 0.5-0.2 1.2-0.9 2l-6.2 6.8q-5.1 5.8-10.3 11.5l-0.1 0.2q-0.2 0.2-0.4 0.4c-0.4 0.5-0.5 0.7-0.1 1.3q4.5 7.1 8.9 14.4c0.3 0.4 0.6 0.5 0.8 0.5q0.2 0 0.6-0.1l1.4-0.5c1.6-0.6 3.2-1.1 4.9-1.6q4.8-1.3 9.6-2.6 4-1.1 8-2.2l0.4-0.1q0.8-0.2 1.3-0.2z"/>
								</g>
							</g>
							<g id="&lt;Group&gt;">
								<path id="&lt;Path&gt;" class="s0" d="m537.1 322c0 0 0.2-0.4 0.3-0.6 0.1-0.2 0.3-0.5 0.5-0.8q3.1-3.3 6.1-6.6l0.8-0.8c0.3-0.3 0.5-0.5 0.8-0.6 0.2-0.1 0.5-0.2 0.8-0.3l0.9-0.2-0.1 0.6q0 0.1-0.1 0.4c0 0.3 0 0.7-0.2 1-2.3 2.3-4.7 4.8-7.9 8.1-0.2 0.2-0.5 0.3-0.8 0.3q-0.1 0.1-0.2 0.1l-0.3 0.1z"/>
							</g>
							<g id="&lt;Group&gt;">
								<path id="&lt;Path&gt;" class="s0" d="m433.3 360.2c1.5-1.9 3.2-3.4 4.8-4.9 1.5-1.3 2.9-2.6 4.1-4.1l0.5-0.6 0.2 0.8c0 0.2 0.1 0.7-1.5 2.7-1.9 2.3-6.3 6.5-7.8 6.6l-0.7 0.1z"/>
							</g>
							<g id="&lt;Group&gt;">
								<path id="&lt;Path&gt;" class="s0" d="m425.4 368.7v-0.4q0.1-0.1 0.2-0.3c0.1-0.2 0.2-0.5 0.4-0.7 1.2-1.2 2.5-2.6 3.9-4 0.3-0.2 0.6-0.3 1-0.4q0.2 0 0.3 0l0.6-0.2-0.1 0.6q-0.1 0.2-0.1 0.4c0 0.3-0.1 0.7-0.4 1-1.3 1.4-2.6 2.7-3.9 3.9-0.2 0.2-0.5 0.3-0.8 0.4q-0.1 0.1-0.3 0.2l-0.2 0.1z"/>
							</g>
							<g id="&lt;Group&gt;">
								<path id="&lt;Path&gt;" class="s0" d="m532.9 327.8q-0.1-0.1-0.2-0.2c-0.3-0.4-0.5-0.6-0.3-0.9q1.3-1.6 2.6-2.9l0.1-0.2h0.3q0.2 0 0.4 0.1h0.2l0.3 0.2c0.1 0.2 0.2 0.4 0 0.6l-3.2 3.7z"/>
							</g>
							<g id="&lt;Group&gt;">
								<g id="&lt;Group&gt;">
									<path id="&lt;Compound Path&gt;" fill-rule="evenodd" class="s0" d="m486.9 372.1q-1.6 0-3.3-0.2-2.4-0.2-4.7-0.9c-8-2-14.8-7-19.2-14l-0.2-0.3c-5.2-8.5-6.1-19.2-2.4-28.6 2.2-5.4 5.8-10.2 10.5-13.7q1.1-0.8 2.3-1.6c5.1-3.1 11-4.8 17-4.8q0.5 0 1 0 2 0.1 3.9 0.4c9.3 1.4 17.4 6.8 22.3 14.6 5.3 8.5 6.3 18.8 2.8 28.3-1.8 4.9-4.9 9.4-8.9 12.9q-1.5 1.3-3.2 2.4c-0.3 0.2-0.6 0.4-0.9 0.6-5.1 3.2-11 4.9-17 4.9q0 0 0 0zm0-61.9q-2.3 0-4.5 0.4c-4.1 0.6-7.8 2-11.3 4.1q-2.3 1.5-4.3 3.3c-2.6 2.4-4.8 5.2-6.4 8.5-4.8 9.3-4.3 20.5 1.2 29.3q0.7 1.2 1.6 2.3c3.3 4.4 7.9 7.8 13.1 9.8 3 1.1 6.2 1.8 9.4 1.9q0.6 0 1.2 0c5.4 0 10.7-1.4 15.3-4.2q0.3-0.1 0.5-0.3c2.3-1.5 4.5-3.2 6.3-5.2 1.7-2 3.3-4.2 4.5-6.6 1-2 1.8-4.1 2.3-6.3l0.1-0.2q0.3-1.4 0.5-2.8c0.9-6.3-0.2-12.6-3.2-18.3q-0.5-0.8-1-1.7c-1.5-2.4-3.4-4.6-5.5-6.5-3.1-2.7-6.7-4.8-10.7-6-2.9-1-6-1.5-9.1-1.5z"/>
								</g>
							</g>
						</g>
					</g>
					<g id="&lt;Group&gt;">
						<g id="&lt;Group&gt;">
							<g id="&lt;Group&gt;">
								<path id="&lt;Path&gt;" class="s11" d="m537.6 471.7c0 2.9-0.3 3.2-3.3 3.2q-45.1 0-90.3-0.1c-1.5 0-2.6 0.2-3.9 1.4-2 2-4.8 3.4-7.4 4.5-6.2 2.8-12.8 4.1-19.7 4.2q-0.6 0.1-1.2 0.1c-0.1 0-0.3 0.1-0.6 0.2v15.9c4.4 1.2 8.7 2.3 12.8 3.8 3.7 1.3 7.3 2.9 11 4.4 0.3 0.2 0.6 0.4 0.8 0.6 0.3 0.3 0.5 0.8 0.5 1.2 0 0.2-0.6 0.3-0.9 0.5-0.1 0-0.2 0-0.3 0h-29.7-3q-14.3 0-28.7 0c-0.7 0-1.4-0.4-2.1-0.7 0.6-0.5 1-1.3 1.7-1.6 7.4-3.7 15.2-6.2 23.4-8v-16.2c-2.1-0.1-4.2-0.3-6.3-0.5-7.5-0.8-14.5-2.8-20.9-7-0.9-0.6-1.5-1.5-2.4-2.2q-0.1-0.1-0.1-0.1c-0.4-0.3-1.1-0.5-1.6-0.5-11.5 0-22.9 0.1-34.4 0.1q-28.7 0-57.5 0c-2.7 0-3.1-0.3-3.1-3.2v-60.4q0-33.9 0-67.8c0-0.9 0-1.8 0.1-2.7 0.1-2.1 1.1-3 3.2-3.2 1 0 2.1 0 3.2 0h121c44.9 0 89.8 0 134.7 0 1.2 0 2.5 0.4 3.7 0.8 0.5 0.2 0.9 0.9 1 1.4 0.3 1 0.3 2.1 0.3 3.1q0 64.4 0 128.8z"/>
							</g>
							<path id="&lt;Path&gt;" class="s12" d="m528.4 365.2v99h-248.7v-99z"/>
							<path id="&lt;Path&gt;" class="s12" d="m528.5 361.9c0 1.3-0.3 1.8-1.7 1.8-40.2 0-80.4 0-120.6 0h-126.7c0-5.7 0-10.9 0-16.2 0-1.3 0.9-1 1.6-1q8.6 0 17.3 0 2.9 0 5.8 0c32.4-0.1 64.7-0.2 97.1-0.2 41.8 0 83.6 0.1 125.4 0.2 1.4 0 1.9 0.3 1.8 1.7q-0.1 6.9 0 13.7z"/>
							<path id="&lt;Path&gt;" class="s8" d="m519.2 353.2c0 1.9-1.1 3.1-2.7 3.1-1.8 0.1-3.2-1.1-3.2-2.5 0-1.9 1.3-3.6 2.9-3.6 1.7 0.1 2.9 1.3 3 3z"/>
							<path id="&lt;Path&gt;" class="s13" d="m528.4 463.8q-0.4 0.2-0.8 0.2-2.1 0.1-4.1 0.2c-11.6 0.4-23.2 0.4-34.7 0.3-0.4 0.5-0.9 0.8-1.7 0.8q-13.2-0.6-26.4-1.1-0.3 0-0.6-0.1-0.1 0-0.2 0-0.1 0-0.2 0.1-0.2 0-0.3 0-0.7 0-1.4 0-1.5-0.1-2.9-0.1-0.1 0-0.2 0.1-0.1 0-0.2 0c-20 1-40.1 0.2-60.1 0.2q-0.6 0-1-0.2 0-0.1-0.1-0.1-0.7 0-1.4 0.1-3 0.1-6 0.2-0.7 0.4-1.8 0.4-6.4 0.2-12.9 0.4c-1.2 0-2.1-0.4-2.8-1-4.8 0.5-9.7 0.5-14.3 0.4-3.6-0.1-9.6 0.5-14.5-0.4q-0.2-0.1-0.4-0.1-0.1 0-0.2 0.1-0.3 0-0.5 0-5.4 0.1-10.9 0.1-0.2 0-0.4 0c-6.4 0-12.8 0.2-19.2 0.6-0.5 0-1 0.1-1.4 0.1q-1.4 0.1-2.9 0.2c-6.9 0.6-13.5 1.1-20.6-0.7q-0.3-0.1-0.6-0.3-0.2 0.2-0.4 0.5c-1.2 1.2-4 0.4-3.7-1.6 0.7-5.4 1-11 1.1-16.5 0.1-4.1 0-8.2 0-12.3q0-2-0.1-4c-1.4-16.3-1.4-32.6 0.1-48.9-1.1-7.5-2.3-17-0.3-24.8q-0.5-3.8-1-7.5c-0.1-1.2 0.3-2.2 1.5-2.6 2.7-1 4.9-1.2 7.4-0.8q0.5-0.1 1-0.2c1.2-1.3 2.7-0.8 3.4 0.3 1.4-0.3 2.8-0.6 4.2-0.9 1.3-0.3 2.3 0.5 2.5 1.6q0.1 0.6-0.2 1.3c-1.8 4-3.2 8.1-3.9 12.4q-0.3 1.7-0.5 3.5 0 0 0 0 0 0.8 0 1.5c0.3 5.9 0.7 11.7 2.1 17.5q0.2 0.5 0.3 1.1 0.1 0.2 0.1 0.4c2.9 10.5 8.9 19.8 16.5 27.6 15.4 15.6 36.3 25 56.9 31.7q0.7 0.3 1.4 0.5 0.3 0.1 0.7 0.2 1.9 0.7 3.9 1.3 0.8 0.2 1.5 0.4c22.2 6.6 45.9 11.2 68.9 13q5.7 0.5 11.4 0.8 1.1 0.1 2.3 0.1 2.7 0.2 5.5 0.2 1 0.1 1.9 0.1 2.2 0.1 4.4 0.1 1.2 0 2.5 0 2.2 0.1 4.4 0 1 0 2 0 1.6 0 3.2-0.1 0.8 0 1.6 0 0.6 0 1.3 0c8-0.3 16.5-0.5 24.8-1.3q1.2-0.1 2.4-0.3 1-0.1 2-0.2 0.9-0.1 1.8-0.2 1.3-0.2 2.5-0.4 1-0.1 1.9-0.3 2.3-0.4 4.6-0.9c0.6-0.1 1.3 0 1.8 0.3 0.4 0.3 0.8 0.7 1 1.3q0.4 1.4 0.5 2.8c0.3 1.3-0.3 2.5-1.5 2.9z"/>
							<path id="&lt;Path&gt;" class="s10" d="m405.4 511.6h-3q-14.3 0-28.7 0c-0.7 0-1.4-0.4-2.1-0.7 0.6-0.5 1-1.3 1.7-1.6 7.4-3.7 15.2-6.2 23.4-8v-16.2c-2.1-0.1-4.2-0.3-6.3-0.5-7.5-0.8-14.5-2.8-20.9-7-0.9-0.6-1.5-1.5-2.4-2.2 3.4-1.9 9.3-2.2 13.2-1.6q0.7 0.1 1.4 0.3c0.3-0.3 0.8-0.4 1.2-0.5q0.3 0 0.6-0.1 0.4 0 0.8 0.2c0.2 0 0.4 0 0.6 0.2q0.6 0.5 1.2 1c5.4 4.1 12.5 3.1 15.2 8.6q0.4 0.8 0.6 1.7 0.2 0.6 0.3 1.4c0.7 5.3-0.2 10.1-1 15.3-0.1 0.8-1.4 1.6-1.4 2.4-0.1 3.1 2.7 4.1 4.8 5.6q0.1 0.1 0.3 0.2c0.4 0.4 0.6 1 0.5 1.5z"/>
							<path id="&lt;Path&gt;" class="s9" d="m409.3 481.5c-0.1 0-0.1 0.2 0 0.2 0 0 0-0.2 0-0.2z"/>
							<path id="&lt;Path&gt;" class="s9" d="m428.1 477.8q-0.6 0.3-1.3 0.6c-0.2 0.3-0.5 0.5-1 0.5q-0.3 0-0.5 0.1c-3.4 1.2-7.2 2-10.6 2.3-4.5 0.6-9.3-1.7-13.6-3-2.6-0.7-1-4.3 1.1-3.7q0 0 0 0 0.4 0.1 0.8 0.3 0.4-0.2 0.9-0.1c4.9 1.3 10 0.3 15 0.2 2.1-0.1 4.5-0.3 6.3 0.6q1.1-0.1 2.2-0.1c1.2 0 1.8 1.7 0.7 2.3z"/>
							<path id="&lt;Path&gt;" class="s9" d="m423.2 507.9c-4.6 1.1-14.1 1.5-17.7-2.2-2-2.1-0.8-5.1-0.5-7.6 0.2-2.1 0.2-4.2 0.2-6.3 0.1-1 0.6-3.5 0.2-4.3-0.5-0.9 0.8-2 1.4-1.2 1.1 1.5 1 3.7 1.1 5.5 0.3 3.3-0.9 6.7-0.7 9.8 0.7 7.4 12.4 1.9 16.2 5.4 0.3 0.3 0.2 0.8-0.2 0.9z"/>
							<path id="&lt;Path&gt;" class="s9" d="m534.7 357.8c0.4 14.4-0.1 29 0 43.3 0 0.7-0.6 1-1.1 1-0.5 0-1.1-0.3-1-1 0-14.3-0.5-28.9-0.1-43.3q-0.1-7.6-0.2-15.2c-6.8-0.2-13.6-0.5-20.3-0.9-0.2 0-0.2-0.2 0-0.2 6.9-0.4 13.8-0.6 20.7-0.9 0.8-0.6 2.3-0.3 2.2 1q-0.1 8.1-0.2 16.2z"/>
							<path id="&lt;Path&gt;" class="s9" d="m533.8 469.2c0 0.9-1 1.2-1.6 0.9-10.7-0.1-21.7 0.5-32.2-0.8-0.1-0.1-0.1-0.2 0-0.2 10.3-1.3 21.1-0.8 31.6-0.8q0.1-8.5 0.1-16.9c0-0.6 0.5-0.9 1-0.9 0.5 0 0.9 0.3 0.9 0.9q0.1 8.9 0.2 17.8z"/>
							<path id="&lt;Path&gt;" class="s9" d="m477.9 470.1q-34.1 0-68.2-0.1c-22.5 0-45.7 1.4-68.1-0.7-0.1-0.1-0.1-0.2 0-0.2 22.4-2.2 45.6-0.7 68.1-0.8q34.1 0 68.2 0c1.2 0 1.2 1.8 0 1.8z"/>
							<path id="&lt;Path&gt;" class="s9" d="m478.3 342q-37.6 0-75.3-0.1-19.1 0-38.3 0c-12.2 0-24.9 1-37-0.6-0.2 0-0.2-0.3 0-0.3 12.6-1.7 25.8-0.6 38.4-0.6q18.5 0 36.9 0 37.7-0.1 75.3-0.1c1.1 0 1.1 1.7 0 1.7z"/>
							<g id="&lt;Group&gt;">
								<g id="&lt;Group&gt;">
									<path id="&lt;Compound Path&gt;" fill-rule="evenodd" class="s0" d="m537.6 471.7c0 2.9-0.3 3.2-3.3 3.2q-45.1 0-90.3-0.1c-1.5 0-2.6 0.2-3.9 1.4-2 2-4.8 3.4-7.4 4.5-6.2 2.8-12.8 4.1-19.7 4.2q-0.6 0.1-1.2 0.1c-0.1 0-0.3 0.1-0.6 0.2v15.9c4.4 1.2 8.7 2.3 12.8 3.8 3.7 1.3 7.3 2.9 11 4.4 0.3 0.2 0.6 0.4 0.8 0.6 0.3 0.3 0.5 0.8 0.5 1.2 0 0.2-0.6 0.3-0.9 0.5-0.1 0-0.2 0-0.3 0h-32.7q-14.3 0-28.7 0c-0.7 0-1.4-0.4-2.1-0.7 0.6-0.5 1-1.3 1.7-1.6 7.4-3.7 15.2-6.2 23.4-8v-16.2c-2.1-0.1-4.2-0.3-6.3-0.5-7.5-0.8-14.5-2.8-20.9-7-0.9-0.6-1.5-1.5-2.4-2.2q-0.1-0.1-0.1-0.1c-0.4-0.3-1.1-0.5-1.6-0.5-11.5 0-22.9 0.1-34.4 0.1q-28.7 0-57.5 0c-2.7 0-3.1-0.3-3.1-3.2v-60.4q0-33.9 0-67.8c0-0.9 0-1.8 0.1-2.7 0.1-2.1 1.1-3 3.2-3.2 1 0 2.1 0 3.2 0h121c44.9 0 89.8 0 134.7 0 1.2 0 2.5 0.4 3.7 0.8 0.5 0.2 0.9 0.9 1 1.4 0.3 1 0.3 2.1 0.3 3.1q0 64.4 0 128.8zm-128.2 29.2q0-7 0-14v-1.7c-0.7 0-1.2 0-1.6 0 0 4.4 0 8.6 0 12.9 0 0.4-0.6 0.9-0.8 1.4-0.3-0.5-0.7-0.9-0.7-1.4-0.1-3.4 0-6.9 0-10.3v-2.6h-7.7v1.8q0 7 0 13.9c0 2-0.2 2.1-2.1 2.1q-0.6 0-1.1 0.2c-6.5 1.4-12.9 3.5-19 6.3-0.1 0-0.2 0.2-0.4 0.4h55.9c-6-3.1-12.3-5.1-18.8-6.6-0.5-0.2-1.1-0.2-1.6-0.3-2 0-2.1 0-2.1-2.1zm29.5-26h-69.8c0.4 0.6 0.9 0.9 1.3 1.2 3.8 2.6 8 4.1 12.3 5.4 5.2 1.4 10.5 1.8 15.8 2q1.4 0 2.8 0c7.1 0.2 14.3 0 21.3-1.4 5.9-1.2 11.4-3.2 16.3-7.2zm96.3-135.2h-5.9q-64.8-0.1-129.6-0.1c-11.2 0-22.4 0-33.6 0-30.7 0-61.4 0-92.1-0.1-1.2 0-1.4 0.5-1.4 1.5 0.1 3.7 0.2 7.3 0.2 11q0 59.6 0 119.2v1.6h262.4z"/>
								</g>
							</g>
							<g id="&lt;Group&gt;">
								<g id="&lt;Group&gt;">
									<path id="&lt;Compound Path&gt;" fill-rule="evenodd" class="s0" d="m530.4 451.7v11.7c0 2.6-0.2 2.8-2.8 2.8q-15 0-29.9 0c-30.4 0-60.7-0.1-91.1-0.1-41.8 0-83.6 0.1-125.4 0.1-3.6 0-3.6 0-3.6-3.6q0-57.4 0.1-114.8c0-3.4 0-3.4 3.3-3.4q60.2 0.1 120.4 0.1h2.6v-0.1h123.7c2.4 0 2.6-0.5 2.6 2.6q0.1 52.4 0.1 104.7zm-232-105.2q-8.7 0-17.3 0c-0.7 0-1.6-0.3-1.6 1 0 5.3 0 10.5 0 16.2h126.7c40.2 0 80.4 0 120.6 0 1.4 0 1.7-0.5 1.7-1.8q-0.1-6.8 0-13.7c0.1-1.4-0.4-1.7-1.8-1.7-41.8-0.1-83.6-0.2-125.4-0.2-32.4 0-64.7 0.1-97.1 0.2q-2.9 0-5.8 0zm230 18.7h-248.7v99h248.7z"/>
								</g>
							</g>
							<g id="&lt;Group&gt;">
								<path id="&lt;Path&gt;" class="s0" d="m410.3 480.8c0.2 0 20.4-3.4 20.4-3.4-1.3 2.1-16.8 4.8-20.4 3.4z"/>
							</g>
							<g id="&lt;Group&gt;">
								<path id="&lt;Path&gt;" class="s0" d="m407.5 481.9c-1.9 0-3.5 0-5.3 0 1-1.4 4.2-1.4 5.3 0z"/>
							</g>
							<g id="&lt;Group&gt;">
								<path id="&lt;Path&gt;" class="s0" d="m359.9 361.1c-0.8 0.1-1.6 0.2-2.3 0.2-13 0-26 0-39 0-7 0.1-14.1 0.2-21.1 0.3-0.3 0-0.7 0.1-1 0-0.6-0.3-1.2-0.6-1.9-0.9 0.7-0.2 1.3-0.7 1.9-0.7 16.6 0 33.1 0 49.7 0.1 3.8 0 7.6-0.1 11.3-0.1 0.8 0 1.6 0.3 2.3 0.4q0 0.3 0.1 0.7z"/>
							</g>
							<g id="&lt;Group&gt;">
								<g id="&lt;Group&gt;">
									<path id="&lt;Compound Path&gt;" fill-rule="evenodd" class="s0" d="m522.8 359.5c-0.6-0.1-1.2-0.2-1.7-0.4-0.3-0.1-0.6-0.5-0.8-0.7-0.8-0.9-1.5-1.2-2.8-0.7-1.9 0.8-4.6-0.4-5.5-2.1-0.9-1.7-0.1-4.8 1.7-6.1 1.8-1.3 4.1-1.4 5.6 0.3 0.8 0.9 1.2 2.1 1.8 3.2q-0.2 0.1-0.3 0.2c-0.1 0.2 0 0.5-0.1 0.7-1.1 1.9 0.2 3 1.4 4.1 0.4 0.3 0.5 1 0.7 1.5zm-3.7-6.2c0-1.8-1.2-3-2.9-3.1-1.6 0-2.9 1.6-2.9 3.6 0 1.4 1.4 2.6 3.2 2.5 1.6 0 2.7-1.2 2.6-3z"/>
								</g>
							</g>
							<g id="&lt;Group&gt;">
								<path id="&lt;Path&gt;" class="s0" d="m286.5 360.6c0.9 0 1.8 0 2.7 0.1 0.3 0 0.6 0.4 0.9 0.6-0.3 0.2-0.5 0.6-0.8 0.6q-2.8 0.1-5.7 0c-0.2 0-0.5-0.4-0.8-0.6 0.3-0.3 0.6-0.6 0.9-0.6 0.9-0.1 1.9-0.1 2.8-0.1q0 0 0 0z"/>
							</g>
						</g>
						<g id="&lt;Group&gt;">
							<g id="&lt;Group&gt;">
								<g id="&lt;Group&gt;">
									<path id="&lt;Compound Path&gt;" fill-rule="evenodd" class="s4" d="m397.5 436.6h-16l-4.2-10.6h-23l-3.7 9.3-0.6 1.3h-15.6l14.8-33.7 7.8-17.7 1.3-2.9h15.2zm-38.8-21.9h14l-7-17.4z"/>
									<path id="&lt;Compound Path&gt;" fill-rule="evenodd" class="s0" d="m398.4 437.1c-0.2 0.3-0.5 0.5-0.9 0.5h-16c-0.4 0-0.7-0.3-0.9-0.6l-4-10h-21.6l-4 10c-0.2 0.3-0.6 0.6-1 0.6h-15.6c-0.4 0-0.7-0.2-0.9-0.5-0.2-0.3-0.2-0.6-0.1-0.9l22.6-51.3 1.2-2.5 0.2-0.5c0.2-0.4 0.5-0.6 0.9-0.6h15.2c0.3 0 0.6 0.2 0.8 0.5q0 0 0 0c0 0 0.1 0 0.1 0q0 0 0 0.1l0.7 1.5 0.3 0.7 23 52.1c0.2 0.3 0.2 0.6 0 0.9zm-2.4-1.5l-23.2-52.3h-13.8l-1 2.2-22.1 50.1h13.4l4.1-9.9c0.1-0.4 0.5-0.7 0.9-0.7h23c0.4 0 0.7 0.3 0.9 0.7l4 9.9zm-22.3-20.3c-0.2 0.2-0.5 0.4-0.9 0.4h-13.9c-0.4 0-0.7-0.2-0.9-0.4-0.2-0.3-0.2-0.7-0.1-1l7-17.4c0.2-0.3 0.5-0.6 0.9-0.6 0.5 0 0.8 0.3 1 0.6l7 17.4c0.1 0.3 0.1 0.7-0.1 1zm-2.4-1.6l-5.5-13.7-5.4 13.7z"/>
								</g>
								<path id="&lt;Path&gt;" class="s14" d="m350.6 435.3l-0.6 1.3h-15.6l14.8-33.7q-0.8 2.7-1.4 5.4c-1.7 7.4-3.2 20.9 2.8 27z"/>
								<path id="&lt;Path&gt;" class="s14" d="m376.5 416.2c-2.3 1.7-3.9-1.5-4.5-3.1-1.7-4.5-3.4-8.8-5.5-13.2q-0.4-0.7-0.7-1.5-0.1-0.2-0.2-0.4-0.1-0.3 0-0.5-0.1-0.3-0.2-0.7c-0.1-1.2 1.9-1.2 2 0q0.1 0.3 0.2 0.6 0.7 1.5 1.4 3c0.8 1.3 1.8 2.6 2.4 3.6q2 3.4 3.9 6.9c0.8 1.4 3 4 1.2 5.3z"/>
								<path id="&lt;Path&gt;" class="s2" d="m398.4 437.1c-0.2 0.3-0.5 0.5-0.9 0.5h-2.6q-0.2-0.2-0.3-0.5-0.2-0.2-0.4-0.5-0.3-0.5-0.5-1c-4.8-8.4-8.6-16.6-12.3-25.5-2.8-6.8-5.9-13.2-8.1-20-1.6-1.4-3.4-2.5-5.9-2.8-3.1-0.4-6.3-0.9-9.4-1.8-0.3-0.1-0.7-0.1-1-0.3q-0.5-0.1-1-0.3l1.2-2.5q0.1 0 0.2 0c2.2-0.6 4.7-1 7.2-1.1h1.7q0.4 0 0.7 0 0 0 0.1 0c1.9-0.3 3.8-0.4 5.6 0q0.8 0.1 1.6 0.5 0 0 0 0c0 0 0.1 0 0.1 0q0 0 0 0.1l0.7 1.5q-0.1 0.2-0.1 0.4 0.2 0.2 0.4 0.3l23 52.1c0.2 0.3 0.2 0.6 0 0.9z"/>
								<path id="&lt;Path&gt;" class="s2" d="m362.2 390.2c-0.5 2.7-1.1 5.3-1.6 8-0.4 2.3-0.5 4.7-1.1 6.9-1.3 4.8-5.6 7.2-7.7 11.6-0.3 0.5-1 0.1-0.9-0.4 1.2-5.1-0.7-9.8 1.7-14.6 2.1-4.2 4.8-8.4 7-12.5 0.8-1.5 2.8-0.4 2.6 1z"/>
								<path id="&lt;Path&gt;" class="s2" d="m377.2 421.7c-2.8 2.4-7 1.8-10.4 1.2-2.3-0.3-6.3-0.4-7.7-2.6-0.2-0.3 0.1-0.8 0.5-0.8 2.8 0.4 6.2-1.3 9.2-1.5 3-0.3 6-0.7 8.4 1.3 0.7 0.5 0.7 1.9 0 2.4z"/>
							</g>
							<g id="&lt;Group&gt;">
								<g id="&lt;Group&gt;">
									<path id="&lt;Compound Path&gt;" fill-rule="evenodd" class="s4" d="m450.8 402.4c0 11-7.4 18.3-19.5 19.7q-2.2 0.3-4.6 0.3h-9.5v14.2h-15.3v-54.3h24.8c14.8 0 24.1 7.6 24.1 20.1zm-33.6 7.9h8.6c6.3 0 9.5-3 9.5-7.9 0-5.1-3.2-8-9.5-8h-8.6z"/>
									<path id="&lt;Compound Path&gt;" fill-rule="evenodd" class="s0" d="m451.8 402.4c0 5.6-1.8 10.3-5.1 13.8-3.7 4-9.4 6.5-16.7 7.1q-1.6 0.1-3.3 0.1h-8.5v13.2c0 0.5-0.4 1-1 1h-15.3c-0.6 0-1-0.5-1-1v-54.3c0-0.6 0.4-1 1-1h24.8q0.5 0 1 0c14.9 0.3 24.1 8.3 24.1 21.1zm-2 0c0-11.8-8.8-19.1-23.1-19.1h-23.8v52.3h13.3v-13.2c0-0.6 0.5-1 1-1h9.5q3.2 0 6-0.5c10.7-1.8 17.1-8.6 17.1-18.5zm-13.5 0c0 5.6-3.8 8.9-10.5 8.9h-8.6c-0.5 0-1-0.5-1-1v-15.9c0-0.6 0.5-1 1-1h8.6c6.7 0 10.5 3.2 10.5 9zm-2 0c0-4.7-2.9-7-8.5-7h-7.6v13.9h7.6c3.9 0 8.5-1.2 8.5-6.9z"/>
								</g>
								<path id="&lt;Path&gt;" class="s14" d="m414.4 437.6h-10.9c-0.6-0.3-1.1-0.6-1.6-1q0 0 0-0.1-0.1 0-0.1-0.1c-0.5-0.6-0.8-1.2-0.9-1.9v-48.8q0.2-1.1 0.5-2.1 0-0.3 0-0.6c0-0.3 0.2-0.6 0.4-0.7 0.3-0.9 1.6-0.8 1.8 0q0.2 0.2 0.1 0.6-0.1 0.2-0.1 0.4-0.1 0.3-0.2 0.7c-0.6 17.7 0.2 36.3 9.6 51.6q0.3 0.5 0.7 1 0.3 0.5 0.7 1z"/>
								<path id="&lt;Path&gt;" class="s2" d="m446.7 416.2c-3.7 4-9.4 6.5-16.7 7.1q0.6-0.6 1.3-1.2 0.7-0.6 1.4-1.2c8.2-7.2 18.1-16.6 9.5-28.2-3.5-4.7-13.4-6.1-18.9-7-6.7-1.1-13.4-1-20-1.8-0.3-0.1-0.5-0.4-0.3-0.6q0.1-0.1 0.2-0.1 2-0.5 4.4-0.9c2.3-0.5 4.8-0.8 7.4-1 4.1-0.4 8.5-0.5 12.7 0 10 1 19.2 4.6 22.4 13.5 2.3 6.5 0.7 14.8-3.4 21.4z"/>
								<path id="&lt;Path&gt;" class="s2" d="m412.9 421.1c-0.1 0.6-0.9 0.7-1.1 0.1-3.3-9.4-7.5-23.2-4.3-33.2 0.6-2 3.1-1.8 3.8 0 3.8 9.5 2.2 23 1.6 33.1z"/>
								<path id="&lt;Path&gt;" class="s2" d="m433.1 416.3c-0.9 1.6-3 2.1-4.7 2.1-1.8 0.1-3.2-1-4.9-1.3-0.6-0.1-0.6-1.2 0-1.4 1.4-0.3 2.6-1.3 4-1.8 1.4-0.5 2.8-1.1 4.3-0.8 1.4 0.2 1.9 2 1.3 3.2z"/>
							</g>
							<g id="&lt;Group&gt;">
								<g id="&lt;Group&gt;">
									<path id="&lt;Compound Path&gt;" class="s4" d="m473.7 382.3v54.3h-15.4v-54.3z"/>
									<path id="&lt;Compound Path&gt;" fill-rule="evenodd" class="s0" d="m474.7 382.3v54.3c0 0.5-0.5 1-1 1h-15.4c-0.6 0-1-0.5-1-1v-54.3c0-0.6 0.4-1 1-1h15.4c0.5 0 1 0.4 1 1zm-2.1 1h-13.3v52.3h13.3z"/>
								</g>
								<path id="&lt;Path&gt;" class="s14" d="m471.6 437.6h-10.9c-0.5-0.3-1.1-0.6-1.5-1q-0.1-0.1-0.2-0.2-0.4-0.6-0.7-1.3c-0.5-1.5-0.5-3.2-0.6-4.6q-0.2-3.5-0.4-7v-33.5c0.2-1.7 0.6-3.4 1-5q0.2-0.7 0.3-1.4 0-0.3 0.1-0.6c0-0.3 0.1-0.6 0.3-0.7 0.4-0.9 1.6-0.8 1.9 0q0.1 0.2 0 0.6 0 0.2-0.1 0.4-0.1 0.3-0.2 0.7c-0.6 17.7 0.2 36.3 9.7 51.6q0.3 0.5 0.6 1 0.4 0.5 0.7 1z"/>
								<path id="&lt;Path&gt;" class="s2" d="m474.7 382.3v33.3q-0.6-0.6-1-1.3-0.6-0.7-1.1-1.5c-5.7-8.5-10.5-19.4-10.4-29.5q0-0.5 0.1-1 0-0.6 0-1h11.4c0.5 0 1 0.4 1 1z"/>
								<path id="&lt;Path&gt;" class="s2" d="m469.3 420.4c-1.6-0.9-3-2.3-3.7-4-1-1.9-2-4.2-1.7-6.4 0.2-2 2.8-3 4-1 1.7 2.9 0.1 7.2 2.6 9.8 0.9 0.8-0.2 2.1-1.2 1.6z"/>
							</g>
						</g>
					</g>
				</g>
			</g>
		</g>
	</g>
</svg>