<svg version="1.2" xmlns="http://www.w3.org/2000/svg" viewBox="0 0 3024 2712" width="3024" height="2712">
	<title>&lt;Group&gt;</title>
	<style>
		.s0 { fill: #37dbff } 
		.s1 { fill: #f748e1 } 
		.s2 { fill: #390075 } 
		.s3 { fill: #ffbf93 } 
		.s4 { fill: #4089ff } 
		.s5 { fill: #ffffff } 
		.s6 { fill: #fcbba0 } 
		.s7 { fill: #dbe3ee } 
		.s8 { fill: #262f6a } 
		.s9 { fill: #ac3d50 } 
		.s10 { fill: #fe6dcb } 
		.s11 { fill: none;stroke: #390075;stroke-linecap: round;stroke-linejoin: round;stroke-width: 30 } 
		.s12 { fill: #ed197c } 
	</style>
	<g id="&lt;Group&gt;">
		<g id="&lt;Group&gt;">
			<g id="&lt;Group&gt;">
				<path id="&lt;Path&gt;" class="s0" d="m2969.9 1504.1c0-810.6-657.1-1467.8-1467.8-1467.8-810.7 0-1467.9 657.2-1467.9 1467.8 0 410 168.2 780.7 439.2 1047h2057.4c271-266.3 439.1-637 439.1-1047z"/>
			</g>
		</g>
		<g id="&lt;Group&gt;">
			<g id="&lt;Group&gt;">
				<g id="&lt;Group&gt;">
					<g id="&lt;Group&gt;">
						<path id="&lt;Path&gt;" class="s1" d="m1885.5 1885.3l-1.9 30.3v0.1l-29.8 475.9-5.6 2-80.1 28h-94.3c-58.3-12.8-121.1-52.8-182-119.3-0.8-0.9-1.6-1.8-2.4-2.7-4.6-4.9-7.7-7.6-7.7-7.6l-152.2-17.8c-8.7-1-17.5 0.6-25.2 4.6l-137.6 71.8v78.8l26.8 82 12.6 38.6h-579.4c-55.2-15.8-94.2-48.2-119.8-94.2-27.5-49.5-34.1-107.7-22.1-163 13-60.1 36.2-125.2 61.6-185.8l0.1 0.1c11.1-9.9 47.5-83 125.7-102.9 32.9-8.4 75.1 7.5 122.7 17.4 19.1 3.9 37.2 5.9 54.4 6 97 0.6 162.6-59.9 183.3-171.4 93.5 111.7 175.4 25.4 198.1-25.5 2.3-5.1 4-9.8 5-13.9 1.3-5.4 1.6-9.7 0.7-12.7l3.7 0.8 143.6 31.7c24.7 8.9 48.6 20.4 70.6 34.6 41.9 27.2 79.5 60.6 111.5 99.2l4.8 5.7 137 165 167-240.2z"/>
						<path id="&lt;Compound Path&gt;" fill-rule="evenodd" class="s2" d="m1209.3 2552.3l-583.3-0.1c-53.8-15.4-94.6-47.5-121.1-95.3-27-48.5-34.9-106.9-22.4-164.6 11.6-53.4 32.4-116 61.8-186.2l1.3-3.1 0.8 0.8c2-2.3 4.8-6.1 8-10.7 17.5-24.3 53.8-75 117.3-91.1 25.2-6.4 54.8 0.8 89.2 9.3 11.1 2.7 22.6 5.6 34.5 8 18.7 3.9 36.8 5.9 53.9 6q0.6 0 1.2 0c95.7 0 159.6-60.2 179.8-169.6l0.9-4.8 3.2 3.8c33.5 40 68.1 57.8 102.9 53 41.5-5.8 76.4-44.5 91.3-78 2.2-4.9 3.8-9.5 4.8-13.5 1.6-6.3 1.3-9.7 0.8-11.4l-1.1-3.8 7.4 1.6 143.7 31.8c26.1 9.3 50 21.1 71.4 34.9 42.3 27.5 79.9 61 112 99.6l139.8 168.4 180.9-260.1-2.4 38.6-29.8 477.5-7.1 2.4-80.9 28.2h-94.3c-60.6-13.2-123.9-54.7-183.7-120.1l-2.4-2.6c-3.4-3.6-5.9-6-7-7l-151.5-17.7c-8.2-1-16.4 0.6-23.9 4.4l-136.3 71.1v77.1zm-582.3-4.7h575.9l-38.5-118.2v-80.3l138.8-72.4c8.3-4.2 17.5-5.9 26.6-4.8l152.9 17.8 0.6 0.5c0.1 0.1 3.2 2.9 7.8 7.8l2.5 2.7c59.1 64.6 121.6 105.6 180.8 118.6h93.3l83.9-29.4 31.1-496.5-174.9 251.5-143.7-173.1c-31.8-38.2-69.1-71.4-111-98.6-21.1-13.7-44.7-25.2-70.2-34.4l-143.6-31.7q0.1 4.2-1.4 10.2c-1 4.2-2.7 9.1-5.1 14.3-15.4 34.6-51.6 74.6-94.8 80.6-35.4 5-70.4-12.2-104-50.9-21.7 108.8-86.7 168.6-183.4 168.6q-0.7 0-1.3 0c-17.4-0.1-35.9-2.1-54.8-6.1-11.9-2.5-23.5-5.3-34.7-8.1-33.8-8.3-62.9-15.4-87-9.3-61.8 15.8-97.4 65.5-114.6 89.4-4.3 6-7.5 10.5-9.9 12.7-29.1 69.7-49.7 131.8-61.2 184.7-12.3 56.6-4.5 113.9 21.8 161.4 26 46.6 65.7 77.9 118.1 93z"/>
					</g>
					<g id="&lt;Group&gt;">
						<path id="&lt;Path&gt;" class="s2" d="m1666.1 2204.8l-3.8-2.6 43.4-62.4 3.8 2.6z"/>
					</g>
				</g>
				<g id="&lt;Group&gt;" style="opacity: .3">
					<path id="&lt;Path&gt;" class="s2" d="m1206.1 2550h-579.4c-55.2-15.8-94.2-48.2-119.8-94.2-27.5-49.5-34.1-107.7-22.1-163 13-60.1 36.2-125.2 61.6-185.8l0.1 0.1c11.1-9.9 49.9-64.9 128.2-84.8-47.2 118.3-79.8 229.5-86.6 328.3 11.9 95.1 283.6 136.1 567.1 72.8l7.7 53.7 30.6 34.3z"/>
				</g>
				<g id="&lt;Group&gt;">
					<path id="&lt;Path&gt;" class="s2" d="m2905.1 2555.5c-56.4 8.5-112.8 10.6-169.2 11.7-56.4 1.1-112.8 0.5-169.3-0.1-56.4-0.5-112.8-0.7-169.2-0.6h-169.3-677-677-338.5-84.6l-42.3 0.4-42.3 0.7c-56.4 0.2-112.8-0.3-169.3-12.1-3-0.6-5-3.6-4.3-6.7 0.5-2.2 2.2-3.9 4.3-4.3 56.5-11.9 112.9-12.4 169.3-12.2l42.3 0.7 42.3 0.4h84.6 338.5 677 677 169.3c56.4 0.1 112.8 0 169.2-0.5 56.5-0.7 112.9-1.3 169.3-0.1 56.4 1.1 112.8 3.1 169.2 11.7 3.1 0.4 5.2 3.3 4.7 6.3-0.4 2.5-2.3 4.3-4.7 4.7z"/>
				</g>
				<g id="&lt;Group&gt;">
					<g id="&lt;Group&gt;">
						<g id="&lt;Group&gt;">
							<path id="&lt;Path&gt;" class="s3" d="m1936.6 1662.1c0 0-21.7 40.5-4 84.5 17.7 43.9 116 0 116 0"/>
						</g>
						<g id="&lt;Group&gt;">
							<path id="&lt;Path&gt;" class="s2" d="m1970.6 1768.4c-8.2 0-15.9-1.1-22.5-3.7-8.5-3.5-14.4-9.3-17.7-17.3-17.9-44.4 3.3-84.7 4.2-86.4l4.1 2.2c-0.3 0.4-21 40.1-4 82.5 2.8 6.8 7.8 11.7 15.1 14.7 32.3 13 97.2-15.7 97.8-16l1.9 4.3c-2.2 1-44.6 19.7-78.9 19.7z"/>
						</g>
					</g>
					<g id="&lt;Group&gt;">
						<path id="&lt;Path&gt;" class="s4" d="m2175.1 1751.7l-83.4 4.3c-46.1 2.3-85.4-33.1-87.8-79.2l-9.8-192.7c-0.5-8.9 6.4-16.4 15.2-16.9l218.3-11.1c8.9-0.4 16.5 6.4 16.9 15.2l9.8 192.7c2.4 46.1-33.1 85.4-79.2 87.7z"/>
					</g>
					<g id="&lt;Group&gt;" style="opacity: .3">
						<path id="&lt;Path&gt;" class="s2" d="m2238.3 1717.7c-14.4 19.5-37.1 32.7-63.2 34l-83.4 4.3c-46.1 2.3-85.4-33.1-87.8-79.3l-9.8-192.6c-0.5-8.8 6.4-16.4 15.2-16.8l41.1-2.1 9.1 178.2c2.4 46.1 41.6 81.6 87.8 79.2l83.4-4.2c2.5-0.1 5.1-0.4 7.6-0.7z"/>
					</g>
					<g id="&lt;Group&gt;" style="opacity: .5">
						<path id="&lt;Path&gt;" class="s5" d="m2244.5 1471.3l9.8 192.7c2.4 46.1-33.1 85.4-79.2 87.7l-35.3 1.8c46.2-2.3 81.6-41.6 79.3-87.7l-9.9-192.7c-0.4-8.8-7.9-15.6-16.8-15.2l35.2-1.8c8.9-0.4 16.4 6.4 16.9 15.2z"/>
					</g>
					<g id="&lt;Group&gt;">
						<path id="&lt;Compound Path&gt;" fill-rule="evenodd" class="s2" d="m2087.4 1773c-53.1 0-97.6-41.8-100.3-95.4l-9.9-192.6c-0.9-18.2 13.1-33.7 31.3-34.6l218.3-11.1c18.1-0.9 33.6 13.1 34.6 31.2l9.8 192.6c1.4 26.8-7.8 52.6-25.8 72.5-18 19.9-42.6 31.6-69.4 33l-83.5 4.3q-2.6 0.1-5.1 0.1zm-76.4-288.9l9.8 191.8c1.8 36.7 33.3 65.1 70 63.2l83.4-4.2c17.8-0.9 34.2-8.7 46.2-21.9 11.9-13.3 18-30.3 17.1-48.1l-9.8-191.9z"/>
					</g>
					<g id="&lt;Group&gt;">
						<g id="&lt;Group&gt;">
							<path id="&lt;Path&gt;" class="s3" d="m2010.2 1637.5c-7.4 0.7-18 5.4-18 5.4v32.5l-51-13.3c29.5-118.8 140.3-157.3 69-24.6z"/>
						</g>
						<g id="&lt;Group&gt;">
							<path id="&lt;Compound Path&gt;" fill-rule="evenodd" class="s2" d="m1994.5 1678.4l-56.1-14.6 0.6-2.2c15.9-64.5 55.4-105 77.8-109.4 8.6-1.7 13.2 1.7 15.5 4.8 8.9 12 1.7 41-20.1 81.6l-0.6 1.1-1.2 0.1c-5.4 0.5-12.9 3.4-15.9 4.6zm-50.5-18l45.8 12v-31l1.4-0.6c0.4-0.2 10-4.4 17.5-5.5 29.5-55.2 22.7-71.7 19.9-75.5-2.3-3-5.9-4.1-10.9-3.1-20.9 4.2-57.8 42.5-73.7 103.7z"/>
						</g>
					</g>
					<g id="&lt;Group&gt;">
						<path id="&lt;Path&gt;" class="s2" d="m1941.2 1676.6q-1.7 0-3.5-0.4c-7.7-2-12.5-9.8-10.5-17.6 16.3-65.8 58.1-112.7 87.5-118.4 11.4-2.2 21.5 1.4 27.6 9.9 12.5 17.3 4.7 51.3-23.2 101.2-3.9 6.9-12.7 9.4-19.7 5.5-6.9-3.9-9.4-12.7-5.5-19.7 24.8-44.4 25.8-62.9 25.2-68.4-12.7 3-48.7 36-63.9 96.9-1.6 6.6-7.5 11-14 11z"/>
					</g>
					<g id="&lt;Group&gt;">
						<path id="&lt;Path&gt;" class="s2" d="m1997.2 1715.9l-50.3-21.1c-24-10-40.3-33.4-41.7-59.4l-2.8-54.9c-0.9-18.2 5.3-35.7 17.5-49.2 12.3-13.5 29-21.5 47.2-22.4l28.2-1.4 2.4 48.1-28.1 1.5c-5.4 0.2-10.3 2.6-13.9 6.5-3.6 4-5.4 9.1-5.1 14.5l2.8 54.9c0.4 7.6 5.2 14.4 12.2 17.4l50.2 21.1z"/>
					</g>
					<g id="&lt;Group&gt;">
						<path id="&lt;Path&gt;" class="s2" d="m1970.5 1782.9c-10 0-19.5-1.4-27.9-4.7-12.1-4.9-21-13.7-25.7-25.3-20.4-50.7 3.8-96.8 4.8-98.8 4.4-8.2 14.7-11.3 22.9-6.9 8.2 4.4 11.3 14.6 6.9 22.8-0.3 0.6-17.6 34.7-3.3 70.2 0.9 2.3 2.5 4.8 7.1 6.7 20.3 8.2 67-7.1 86.4-15.8 8.5-3.8 18.5 0.1 22.3 8.6 3.8 8.5 0 18.5-8.5 22.3-5.9 2.6-48.2 20.9-85 20.9z"/>
					</g>
				</g>
				<g id="&lt;Group&gt;">
					<path id="&lt;Path&gt;" class="s6" d="m1236.4 1732.6v80.6c-21.9 53.2-47 85.7-75.2 97.5q-13.1 5.4-27.1 4.9c-28.6-1.1-60.1-20.8-94.4-59.5l-6.8-192.3c24.3 24.8 49.4 44.4 75.5 57.6 28.9 14.7 58.9 21.5 90.5 18.8 12.3-1.1 24.8-3.6 37.5-7.6z"/>
					<path id="&lt;Compound Path&gt;" fill-rule="evenodd" class="s2" d="m1136.5 1918q-1.3 0-2.5-0.1c-29.2-1.1-61.5-21.3-96.1-60.3l-0.5-0.6-7.1-199.1 4.2 4.3c25 25.4 50.2 44.6 75 57.1 29.2 14.9 59.2 21.1 89.2 18.6 12.1-1.1 24.6-3.6 37-7.5l3.1-0.9-0.2 84.6c-22.1 53.6-47.9 86.8-76.5 98.7-8.3 3.4-16.9 5.2-25.6 5.2zm-94.6-62.8c33.5 37.5 64.5 57.1 92.3 58.1 8.9 0.3 17.7-1.3 26.1-4.8 27.4-11.4 52.2-43.6 73.8-95.8v-76.9c-11.7 3.4-23.5 5.7-35 6.7-30.9 2.6-61.7-3.8-91.7-19.1-23.9-12-48.1-30.1-72-53.8z"/>
				</g>
				<g id="&lt;Group&gt;" style="opacity: .5">
					<path id="&lt;Path&gt;" class="s5" d="m800.5 2121.6c-23.5 12.6-41.8 33.1-51.6 57.9l-41.2 104.1-20.2-0.6c21.2 24.1 49.4 40.9 80.7 47.9l5.5 1.2 393 44.6v-26.1l-386.7-57.8-15.7-8.8z"/>
				</g>
				<g id="&lt;Group&gt;">
					<path id="&lt;Path&gt;" class="s2" d="m1032.6 1873c-9.3 0-16.9-7.5-16.9-16.8v-0.1q0-1.6 0.3-3.1c9.9-52.9 9-116.4-2.7-189l-1.8-3.1c-4.7-8.1-1.9-18.4 6.2-23.1 8.1-4.6 18.4-1.8 23 6.3l3.4 5.7c1 1.8 1.7 3.7 2 5.7 12.8 77.5 13.8 146 3.2 203.4-1.4 8-8.3 14.1-16.7 14.1z"/>
				</g>
				<g id="&lt;Group&gt;">
					<path id="&lt;Path&gt;" class="s2" d="m675 2279.1c21.1-3 42-3.6 62.7-3.4 20.8 0.1 41.4 1.4 62 3.3 41.1 3.9 82.2 7.6 123.3 12.1 20.5 2.1 41 4.3 61.5 6.7 20.5 2.4 41 4.8 61.5 7.4 41 5.1 81.9 10.8 122.7 17.4l0.7 0.1c8.3 1.4 14.2 8.5 14.2 16.7v11.2c0 9.3-7.6 16.9-16.9 16.9-9.3 0-16.9-7.6-16.9-16.9v-11.2l14.9 16.7c-41.2-3-82.3-7-123.3-11.6-20.5-2.1-41-4.5-61.5-7-20.5-2.4-41-5-61.5-7.7-40.9-5.2-81.8-11.2-122.7-17-20.4-2.9-40.8-6.4-61-11.1-20.3-4.6-40.4-10.1-60.3-17.8-1.3-0.5-1.9-2-1.4-3.3 0.3-0.8 1.1-1.4 2-1.5z"/>
				</g>
				<g id="&lt;Group&gt;">
					<path id="&lt;Path&gt;" class="s2" d="m806.5 2108.6c-4.8 30.3-10.1 60.4-15.5 90.4l-8.4 45.1c-3 15-5 30.2-10.6 44.4-3.4 8.8-13.3 13-22 9.6-7.6-3-11.8-10.8-10.5-18.5 2.4-15.1 8.5-29.2 13.7-43.6l15.8-43c10.7-28.6 21.5-57.2 32.9-85.6 0.5-1.3 1.9-1.9 3.1-1.4 1.1 0.4 1.7 1.5 1.5 2.6z"/>
				</g>
				<g id="&lt;Group&gt;">
					<g id="&lt;Group&gt;">
						<path id="&lt;Path&gt;" class="s3" d="m1509.9 2423.4h-343.2v-72.8l137.6-71.8c7.7-4 16.5-5.6 25.2-4.6l152.2 17.8c0 0 3.1 2.7 7.7 7.6 0.8 0.9 1.6 1.8 2.4 2.7 18.7 21 53.6 71.2 18.1 121.1z"/>
					</g>
					<g id="&lt;Group&gt;">
						<path id="&lt;Compound Path&gt;" fill-rule="evenodd" class="s2" d="m1511.1 2425.7h-346.7v-76.5l138.8-72.4c8.3-4.3 17.5-5.9 26.6-4.9l152.9 17.8 0.6 0.5c0.1 0.1 3.2 2.9 7.8 7.8l2.4 2.7c17.8 20.1 55.1 72.3 18.3 124zm-342.1-4.6h339.7c33.7-48.7-1.7-98.2-18.6-117.3l-2.4-2.6c-3.4-3.6-5.9-6-7-7l-151.5-17.7c-8.2-0.9-16.4 0.6-23.9 4.4l-136.3 71.1z"/>
					</g>
				</g>
				<g id="&lt;Group&gt;" style="opacity: .5">
					<path id="&lt;Path&gt;" class="s5" d="m1524.2 2389.7c-6.7-21.1-20-38.6-29.2-49.1-0.7-0.9-1.6-1.7-2.4-2.6-4.6-5-7.6-7.7-7.6-7.7l-152.3-17.8c-8.7-1-17.4 0.7-25.2 4.7l-137.6 71.7v34.5h-3.2v-72.8l137.6-71.8c7.7-4 16.5-5.6 25.2-4.6l152.2 17.8c0 0 3.1 2.7 7.7 7.6 0.8 0.9 1.6 1.8 2.4 2.7 14.4 16.3 38.6 49.9 32.4 87.4z"/>
				</g>
				<g id="&lt;Group&gt;" style="opacity: .5">
					<path id="&lt;Path&gt;" class="s5" d="m1883.6 1915.6v0.1l-23.2 71.1-122.3 185.5-3.9 4.1c-16.5 16.8-40.6 23.5-63.4 17.6l15.1-31.8-129.1-145.6c-26.8-30.3-56.8-57.7-89.4-81.6-56.9-41.9-121.1-72.9-189.3-91.4l-47.4-12.9-0.1-0.1c0 0 2-5.5 5.1-13.8 1.2-3.6 2.7-7.6 4.4-11.9l143.6 31.7c24.7 8.9 48.6 20.4 70.6 34.6 41.9 27.2 79.5 60.6 111.5 99.2l4.8 5.7 137 165 167-240.2z"/>
				</g>
				<g id="&lt;Group&gt;" style="opacity: .5">
					<path id="&lt;Path&gt;" class="s5" d="m1417.6 2016.4c0 26.1 3.1 52.1 9.4 77.4l10 40.4c6.2 25.3 9.4 51.3 9.4 77.3v80.4c0 0 49.4 1.9 53.8 0 23.9-10.1-26.5-217.7-82.6-275.5z"/>
				</g>
				<g id="&lt;Group&gt;">
					<path id="&lt;Compound Path&gt;" fill-rule="evenodd" class="s2" d="m1509.9 2440.3h-343.2c-9.3 0-16.9-7.6-16.9-16.9v-72.8c0-6.3 3.5-12.1 9.1-15l137.6-71.7c10.9-5.6 23-7.9 35-6.4l152.2 17.7c3.4 0.4 6.7 1.8 9.3 4.2 0.3 0.3 3.8 3.4 8.7 8.7l2.7 2.9c20.1 22.7 62.1 81.9 19.2 142.2-3.1 4.4-8.3 7.1-13.7 7.1zm-326.3-33.8h317c20.2-36.8-4.3-73.6-21.4-93l-2.4-2.7q-1.5-1.5-2.7-2.7l-146.6-17.1c-5.3-0.6-10.6 0.3-15.5 2.8l-128.4 67z"/>
				</g>
				<g id="&lt;Group&gt;">
					<path id="&lt;Path&gt;" class="s2" d="m1410.5 2002.8q15 13.7 28.1 29.3c4.4 5.2 8.7 10.5 12.8 15.9 4 5.6 8.1 11.1 11.9 16.8 7.5 11.5 14.4 23.4 20.5 35.9 6 12.5 11.3 25.5 15.5 39 4.1 13.4 7.7 27.2 9.4 41.3 0.6 3.5 1 7.1 1.3 10.6 0.3 3.6 0.8 7.1 1 10.7 0.1 7 0.4 14.4 0.3 20.8 0 26.6-0.4 53.1-2.2 79.6-0.7 9.3-8.7 16.4-18.1 15.7-8.5-0.5-15.1-7.4-15.7-15.7-1.8-26.5-2.2-53.1-2.3-79.7 0.1-6.8-0.1-12.7-0.2-18.9-0.4-6.2-0.4-12.3-1.3-18.4l-1-9.2c-0.5-3.1-1.1-6.1-1.5-9.2-0.9-6.1-2.2-12.2-3.6-18.3-2.8-12.1-6.6-24.1-10.6-36.2-4.4-11.9-8.7-24-14.1-35.8-10-23.8-22.3-47.1-34-71.3-0.6-1.2-0.1-2.7 1.1-3.3 0.9-0.5 2-0.3 2.7 0.4z"/>
				</g>
				<g id="&lt;Group&gt;">
					<g id="&lt;Group&gt;">
						<path id="&lt;Compound Path&gt;" fill-rule="evenodd" class="s2" d="m1206.1 2566.8h-579.4q-2.4 0-4.7-0.6c-57.6-16.5-101.3-50.9-129.9-102.2-28.6-51.6-37.1-113.7-23.8-174.8 11.8-54.2 32.8-117.7 62.6-188.7 1-2.5 2.6-4.6 4.6-6.3 1.1-1.5 4-6.1 6.3-9.9 24.7-39.7 90.3-144.9 258-78.9 17.2 3.4 33.9 5.3 49.6 5.3q0.6 0 1.2 0c89.1 0 146.3-54.4 165.4-157.6 1.2-6.5 6.1-11.7 12.4-13.3 6.4-1.6 13.1 0.6 17.3 5.7 38 46.6 75.1 62.6 110.2 47.8 40.7-17.3 65.8-70.1 63.8-87.2-0.7-5.4 1.4-10.8 5.4-14.5 4.1-3.7 9.6-5.1 15-4l147.2 32.5q1.1 0.3 2.1 0.7c26.9 9.6 51.8 21.9 74.1 36.3 43.5 28.3 82.3 62.7 115.3 102.5l127.6 153.6 165.2-237.6c4.3-6.2 12.2-8.8 19.4-6.3 7.2 2.5 11.8 9.5 11.3 17l-31.6 506.3c-0.4 6.8-4.9 12.7-11.3 14.9l-85.7 30c-1.8 0.7-3.7 1-5.6 1h-94.3q-1.8 0-3.6-0.4c-63-13.8-129-56.9-190.9-124.4l-2.5-2.9q-1.5-1.5-2.7-2.7l-146.6-17.1c-5.3-0.6-10.6 0.3-15.5 2.8l-128.4 67v65.9l38.5 118c1.7 5.2 0.8 10.8-2.3 15.2-3.2 4.4-8.3 6.9-13.7 6.9zm-577-33.7h553.7l-32.1-98.4q-0.9-2.6-0.9-5.3v-78.8c0-6.3 3.5-12.1 9.1-15l137.6-71.7c10.9-5.6 23-7.9 35-6.4l152.2 17.7c3.4 0.4 6.7 1.8 9.3 4.2 0.3 0.3 3.8 3.4 8.7 8.7l2.7 2.9c56.3 61.7 115.6 101 171.3 113.7h89.5l72.5-25.4 27.2-434.8-143.5 206.2c-3 4.3-7.8 7-13.1 7.2-5.2 0.3-10.3-2-13.7-6l-141.8-170.7c-30.8-37.2-67-69.4-107.7-95.8-19.8-12.8-42.1-23.8-66.1-32.5l-127.8-28.2c-8.5 34.5-39.1 81.5-82.2 99.7-30.4 12.9-75.8 16-127.3-33.4-28.2 98.1-96.5 153.5-191.2 153.5q-0.6 0-1.3 0c-18.4-0.1-37.8-2.3-57.7-6.4q-1.4-0.3-2.8-0.8c-142.5-56.7-193.7 25.4-218.2 64.9-3.9 6.2-6.8 10.8-9.8 14.3-28.3 67.9-48.3 128.4-59.4 179.9-11.5 53.1-4.3 106.8 20.3 151.2 24 43.1 59.2 71.1 107.5 85.5z"/>
					</g>
					<g id="&lt;Group&gt;">
						<path id="&lt;Path&gt;" class="s2" d="m1721.4 2150.7l-55.2 54.2c-1 0.9-2.6 0.9-3.5 0-0.7-0.8-0.9-1.9-0.5-2.8l31.5-70.7c3.9-8.6 14-12.5 22.7-8.6 8.7 3.8 12.6 14 8.7 22.6-0.9 2.1-2.2 3.8-3.7 5.3z"/>
					</g>
				</g>
				<g id="&lt;Group&gt;" style="opacity: .5">
					<path id="&lt;Path&gt;" class="s5" d="m1236.4 1732.6v80.6c-21.9 53.2-47 85.7-75.2 97.5 39.1-36.3 37.7-88.1 37.7-88.1v-82.4c12.3-1.1 24.8-3.6 37.5-7.6z"/>
					<path id="&lt;Compound Path&gt;" fill-rule="evenodd" class="s2" d="m1150.1 1917.8l9.5-8.8c37.9-35.1 37-85.8 37-86.3v-84.6l2.1-0.2c12.1-1.1 24.6-3.6 37-7.5l3.1-0.9-0.2 84.6c-22.1 53.6-47.9 86.8-76.5 98.7zm51.1-175.5v80.3c0 0.4 0.8 43.8-28.5 79.2 22.5-15.1 43.1-44.9 61.4-89.1v-76.9c-11 3.2-22.1 5.4-32.9 6.5z"/>
				</g>
				<g id="&lt;Group&gt;">
					<path id="&lt;Path&gt;" class="s2" d="m1032.6 1873c-9.3 0-16.9-7.5-16.9-16.8v-0.1c0-9.3 7.6-16.9 16.9-16.9 9.3 0 16.9 7.6 16.9 16.9 0 9.3-7.6 16.9-16.9 16.9z"/>
				</g>
				<g id="&lt;Group&gt;" style="opacity: .3">
					<path id="&lt;Path&gt;" class="s2" d="m1848.2 2393.6l-80.1 28h-94.3c-58.3-12.8-121.1-52.8-182-119.3-0.8-0.9-1.6-1.8-2.4-2.7l-5.8-146.1c81.8 138.1 169.9 254.7 347.7 59.7 0 0 9.3 97.8 16.9 180.4z"/>
				</g>
				<g id="&lt;Group&gt;">
					<path id="&lt;Path&gt;" class="s2" d="m1236.4 1821c-9.3 0-16.8-7.6-16.8-16.9v-75.9c0-9.3 7.5-16.8 16.8-16.8 9.4 0 16.9 7.5 16.9 16.8v75.9c0 9.3-7.5 16.9-16.9 16.9z"/>
				</g>
				<g id="&lt;Group&gt;">
					<g id="&lt;Group&gt;">
						<path id="&lt;Path&gt;" class="s5" d="m2871 1783.6q-0.1 6.4-1.7 13.1l-145.3 621.9c-2.8 12.6-9 23.6-17.5 32.1q0 0-0.2 0.2c-0.9 0.9-1.8 1.7-2.7 2.6-11.8 10.7-27.5 17.1-44.4 17.1h-834.6c-4 0-7.8-0.4-11.5-1-16.9-2.9-31.4-12.1-41.2-25-4.6-5.9-8.1-12.6-10.5-19.8-3.5-10.9-4.3-22.9-1.6-35.1l136.4-582.3c6.2-26.4 21.2-48.9 41.6-64.5 0.1 0 0.1 0 0.1 0 2.3-1.8 4.6-3.4 7-5 18-11.8 39.5-18.6 62.3-18.6h800.9c36 0 63.7 29.9 62.9 64.3z"/>
					</g>
					<g id="&lt;Group&gt;">
						<path id="&lt;Path&gt;" class="s7" d="m2823.4 1782.4c0 1.3-0.2 2.4-0.4 3.5l-145.4 621.9q-1.3 5.8-4.9 9.4l-1 1c-1.4 1.2-2.9 2.3-4.6 3-2.4 1.2-5.1 1.8-7.9 1.8h-834.6c-1.3 0-2.5-0.1-3.8-0.3-4.1-0.7-8.2-3.2-11-6.9-1.5-2.1-2.5-3.9-3.2-6-1-3-1.1-6.3-0.4-9.7l136.3-581.8c3.2-14 11-26.5 21.9-35.7l3-2.3c1.1-1 2.4-1.8 3.7-2.6 1.8-1.2 3.7-2.3 5.6-3.3 9.3-4.9 19.8-7.5 30.5-7.5h800.9c5.3 0 8.8 2.5 10.8 4.6 1.7 1.8 4.6 5.5 4.5 10.9z"/>
					</g>
					<g id="&lt;Group&gt;">
						<path id="&lt;Path&gt;" class="s7" d="m2599.8 2470.6l-16.5 26c-21.2 33.2-57.8 53.4-97.2 53.4h-1216.5c-47 0-89.3-28.6-106.8-72.1l-5.4-13.4c-7.6-19 6.3-39.7 26.8-39.7h577.2c8.6 26.1 33.1 45.8 63.2 45.8z"/>
					</g>
					<g id="&lt;Group&gt;">
						<path id="&lt;Path&gt;" class="s7" d="m1761.5 2424.8h-0.1"/>
						<path id="&lt;Path&gt;" class="s2" d="m1761.5 2427.1h-0.1v-4.7z"/>
					</g>
					<g id="&lt;Group&gt;">
						<path id="&lt;Compound Path&gt;" fill-rule="evenodd" class="s2" d="m2659.2 2487.3h-834.6c-36.1 0-67.8-23.1-79.1-57.3-4.6-14.2-5.3-29.4-2-43.9l136.4-582.5c13.9-59.4 66.2-100.9 127.3-100.9h800.9c24.4 0 47.1 10.9 62.3 30.1 15.2 19.2 20.8 43.8 15.2 67.7l-145.4 621.9c-8.3 37.5-42.4 64.9-81 64.9zm-652-751.3c-45.5 0-84.4 30.9-94.8 75.2l-136.4 582.4c-1.9 8.6-1.5 17.4 1.3 26 6.7 20.5 25.7 34.3 47.3 34.3h834.6c23.1 0 43.5-16.4 48.5-38.9l145.4-622.1c3.2-13.9 0-28.2-8.8-39.4-8.8-11.1-22-17.5-36.2-17.5z"/>
					</g>
					<g id="&lt;Group&gt;" style="opacity: .3">
						<path id="&lt;Path&gt;" class="s2" d="m1838.4 2470.6l-16.5 26c-21.1 33.2-57.8 53.4-97.1 53.4h-455.2c-47 0-89.3-28.6-106.8-72.1l-5.4-13.4c-0.2-0.6-0.5-1.2-0.6-1.8h636.4c9.2 5 19.9 7.9 31.4 7.9z"/>
					</g>
					<g id="&lt;Group&gt;">
						<path id="&lt;Compound Path&gt;" fill-rule="evenodd" class="s2" d="m2486.1 2566.7h-1216.5c-54.1 0-102.1-32.4-122.3-82.6l-5.4-13.4c-5.7-14.1-4-30 4.5-42.6 8.5-12.5 22.6-20 37.8-20h564.1c13.5 0 26 7.4 32.4 19.5 8.7 16.2 25.5 26.3 43.9 26.3h775.2c6.1 0 11.7 3.3 14.6 8.7 3 5.3 2.8 11.8-0.5 16.9l-16.6 26.2c-24.3 38.2-65.9 61-111.2 61zm-1301.9-125.2c-5.9 0-9 3.7-10.1 5.3-1.1 1.6-3.4 6-1.2 11.4l5.4 13.4c15.1 37.5 50.9 61.7 91.3 61.7h1216.5c33.8 0 64.9-17 83-45.6l0.3-0.4h-744.8c-30.8 0-58.8-16.9-73.4-44-0.6-1.1-1.7-1.8-2.9-1.8z"/>
					</g>
					<g id="&lt;Group&gt;">
						<path id="&lt;Path&gt;" class="s2" d="m1724.7 2566.7c-9.2 0-16.7-7.5-16.7-16.7 0-9.2 7.5-16.7 16.7-16.7 33.9 0 65-17.1 83.1-45.7l16.5-26c5-7.8 15.3-10.1 23.1-5.1 7.8 4.9 10.1 15.2 5.1 23l-16.5 26c-24.3 38.3-65.9 61.2-111.3 61.2z"/>
					</g>
					<g id="&lt;Group&gt;">
						<path id="&lt;Path&gt;" class="s2" d="m2414.8 2114.5c-21.2 42.5-62.2 65.2-91.6 50.6-29.3-14.7-36-61-14.7-103.6 21.2-42.6 62.2-65.2 91.5-50.6 29.4 14.6 36 61 14.8 103.6z"/>
					</g>
					<g id="&lt;Group&gt;" style="opacity: .3">
						<path id="&lt;Path&gt;" class="s2" d="m2667.1 2421.2c-2.4 1.2-5.1 1.8-7.9 1.8h-834.6c-1.3 0-2.5-0.1-3.8-0.3-4.1-0.7-8.2-3.2-11-6.9-1.5-2.1-2.5-3.9-3.2-6-1-3-1.1-6.3-0.4-9.7l136.3-581.8c3.2-14 11-26.5 21.9-35.7l3-2.3c1.1-1 2.4-1.8 3.7-2.6 1.8-1.2 3.7-2.3 5.6-3.3 95.2 108.6 193.6 211.7 295.3 309.1-3.3 15-4.1 30-2 44.1 4 28.3 19 50.8 41.1 61.8 9.7 4.9 20.3 7.3 31.5 7.3 13.6 0 27.3-3.6 40.2-10.3 92.1 82.7 186.9 161.1 284.3 234.8z"/>
					</g>
				</g>
				<g id="&lt;Group&gt;">
					<path id="&lt;Path&gt;" class="s2" d="m1229.2 1617c-4.7 9.5-12.8 17.1-23 21.7-10.3 4.6-22.9 5.6-34.3 2.2-11.6-3.3-21.2-10.8-27.5-19.7-6.4-8.9-10-19.2-9.5-29.8 0.1-1.8 1.6-3.2 3.4-3.1 0.6 0 1.2 0.2 1.7 0.6h0.1c8.2 6 14.8 11.3 21.3 15.3 6.5 4.1 12.6 7.2 18.8 9 6.1 1.8 12.4 2.7 19.8 2.5 7.5-0.2 15.7-1.7 25.6-3.2l0.2-0.1c1.7-0.2 3.4 1 3.6 2.7 0.2 0.7 0 1.4-0.2 1.9z"/>
				</g>
				<g id="&lt;Group&gt;" style="opacity: .3">
					<path id="&lt;Path&gt;" class="s8" d="m1137.5 1910c0 0-1.3 2.2-3.4 5.6-28.6-1.1-60.1-20.8-94.4-59.5l-6.8-192.3c24.3 24.8 49.4 44.4 75.5 57.6 0.2 0.8 0.2 1.3 0.2 1.3v148.1c-0.5 20.1 11.5 31.5 28.9 39.2z"/>
					<path id="&lt;Compound Path&gt;" fill-rule="evenodd" class="s2" d="m1135.4 1918l-1.4-0.1c-29.2-1.1-61.5-21.3-96.1-60.3l-0.5-0.6-7.1-199.1 4.2 4.3c25 25.4 50.2 44.6 75 57.1l0.9 0.5 0.3 1.1c0.2 1 0.2 1.6 0.2 1.8v148.1c-0.4 16.9 8.4 28.6 27.5 37l2.3 1.1-1.2 2.2c0 0-1.3 2.3-3.4 5.7zm-93.4-62.8c32.9 37 63.5 56.5 90.9 58.1q0.8-1.3 1.3-2.2c-19.2-9.1-28.3-22.3-27.9-40.3v-147.8c-23.5-12.1-47.3-30-70.9-53.3z"/>
				</g>
				<g id="&lt;Group&gt;" style="opacity: .3">
					<path id="&lt;Path&gt;" class="s2" d="m795.1 2141.1l67 174.9-105.6-34.5z"/>
				</g>
				<g id="&lt;Group&gt;" style="opacity: .3">
					<path id="&lt;Path&gt;" class="s8" d="m1120.9 1915c0 0-45.3 123.3-200.2 112.1 55.4-49.9 105.9-101.1 119-162.2z"/>
					<path id="&lt;Compound Path&gt;" fill-rule="evenodd" class="s2" d="m940.1 2030.2q-9.5 0-19.6-0.7l-5.4-0.4 4-3.7c52.6-47.3 105-98.7 118.3-161l0.7-3.2 85.6 52.9-0.6 1.7c-0.5 1.2-43.7 114.4-183 114.4zm-13.8-5c137.1 7.2 185.5-94.6 191.7-109.2l-76.8-47.4c-14.2 60.6-64 110.6-114.9 156.6z"/>
				</g>
				<g id="&lt;Group&gt;" style="opacity: .3">
					<path id="&lt;Path&gt;" class="s2" d="m3030.1 2592.2c0 53.4-660.6 96.7-1475.5 96.7-814.9 0-1475.5-43.3-1475.5-96.7 0-15.2 53-29.5 147.5-42.2h2656.1c94.5 12.7 147.4 27 147.4 42.2z"/>
				</g>
				<g id="&lt;Group&gt;">
					<g id="&lt;Group&gt;">
						<path id="&lt;Path&gt;" class="s9" d="m793.9 1283.6v0.1c1.5 1.2 3 2.5 4.4 3.8 10.1 9.2 18.2 20.6 23.1 33.6 226 49.3 625.5-108 611.5-414.4 0 0 129.8 40.2 176.8 340.8 177.8-159.4 73.8-580.4-291.4-528.1q-0.1 0-0.1 0c-7.1 0.2-477.8 13.7-524.3 564.2z"/>
						<path id="&lt;Compound Path&gt;" fill-rule="evenodd" class="s2" d="m909.7 1332.4c-31.1 0-61-2.9-88.8-9l-1.2-0.3-0.5-1.1c-4.6-12.4-12.2-23.4-22.5-32.8-1.4-1.2-2.8-2.5-4.3-3.7l-0.8-0.6-0.1-1.2v-0.3c24.2-285.8 164.6-424.3 278.2-490.3 124.4-72.2 243.4-75.9 248.4-76 155.5-22.3 284.9 42.4 345.9 173.1 59.4 127.3 37.2 278.3-52.8 359l-3.1 2.9-0.7-4.2c-42.1-269.3-152-329-172.1-337.8 3.8 107.2-42.8 204.8-134.8 282.4-102.5 86.5-257.5 139.9-390.8 139.9zm-86.6-13.3c145.6 31.3 349.3-24.6 474.4-130.1 91.9-77.6 138-175.2 133.1-282.2l-0.2-3.3 3.2 1c5.3 1.6 130.5 43.6 177.7 338.4 85.9-80.1 106.4-226.7 48.5-350.8-60.1-128.7-187.6-192.4-341.2-170.4-5.3 0.1-123.2 3.8-246.6 75.4-112.4 65.3-251.4 202.5-275.7 485.6q1.8 1.5 3.6 3.1c10.4 9.6 18.3 20.8 23.2 33.3z"/>
					</g>
					<g id="&lt;Group&gt;" style="opacity: .5">
						<path id="&lt;Path&gt;" class="s5" d="m995.4 848.2c95.6-78 305.3-140.6 459.4-92.1 39.9 12.5 77.7 37.1 110.1 69.9-14.5 52.5 17.9 115.6 75.8 113.6 40.1 94.8 40.4 208.2-32.2 300.4 0.4 2.5 0.8 5 1.2 7.5 177.8-159.4 73.8-580.4-291.4-528.1q-0.1 0-0.1 0c-4.3 0.1-176.3 5.1-322.8 128.8z"/>
					</g>
					<g id="&lt;Group&gt;">
						<path id="&lt;Path&gt;" class="s9" d="m808.1 2083.8q4.9-0.7 9.9-1.6c0 0 468.3 155.3 481.1-323.9-197.3 65-404-12.6-473-243.2-74.2 92.1-180.4-2.3-174.8-160.5 3.3-60.6 34.5-88.2 69.7-92.8 6.8-122.4 31.7-218 67.7-292.6 0.1-0.1 0.1-0.2 0.2-0.3 156.4-323.4 522-251 529.3-249.5q0 0 0.1 0c-99.8-156.5-604.7-179.1-749.9 208.4-46.7 124.6-56.1 291.6-2.9 510.3 30.4 104.4 19.3 213.4-19.9 325.6-59.6 170.6 83.7 346.6 262.5 320.1z"/>
						<path id="&lt;Compound Path&gt;" fill-rule="evenodd" class="s2" d="m979.2 2108.2c-84.5 0.1-154.4-21.4-161.4-23.6q-4.7 0.8-9.3 1.5h-0.1c-84.1 12.5-167.1-19.6-221.9-85.9-55.4-67.1-71.5-155.8-43.1-237.3 42-120.1 48.5-226.1 19.9-324.2-49.4-202.6-48.4-374.7 2.9-511.7l0.6-1.5c95-251.4 323.5-301.4 417.4-311.3 146.6-15.3 287.9 28.4 336 103.9l2.3 3.6h-4.8c-3.9-0.8-96.4-19.1-207.8 2.9-101 20-238.4 78.8-318.9 245.3-38.6 80-61.3 178.2-67.7 292l-0.1 2-1.9 0.2c-40.2 5.3-64.9 38.3-67.7 90.6-3.6 102.6 40 173.3 85.1 190.1 30 11.1 60.4 0.1 85.6-31.2l2.7-3.4 1.3 4.2c31 103.7 91.8 181.6 175.6 225.3 86 44.8 190.5 50.7 294.4 16.4l3.2-1-0.1 3.3c-3.7 139.7-46.6 239.3-127.3 296-59.5 41.7-131.3 53.8-194.9 53.8zm-161.1-28.4l0.6 0.2c2.1 0.7 212.7 68.8 352.7-29.4 78.9-55.4 121-152.6 125.3-289.1-104.1 33.5-208.7 27.3-294.9-17.7-83.9-43.7-144.9-121.1-176.7-223.9-26 30.4-57.1 40.7-88.1 29.2-55.1-20.6-91.3-100.6-88-194.6 4-75.4 48.7-91.4 69.8-94.7 6.5-113.7 29.3-211.8 67.8-291.6 81.6-168.5 220.3-227.9 322.4-248.1 98.6-19.6 182.6-7.7 204.3-4-49.9-71.3-186.6-112.1-328.6-97.2-93.3 9.7-320.4 59.5-414.1 309.7l-0.6 1.5c-50.4 135.9-51.2 306.6-2.3 507.4 28.9 98.9 22.4 205.9-19.9 327-27.9 79.9-12.1 166.9 42.3 232.7 53.7 65 135.1 96.6 217.6 84.3q4.9-0.7 9.9-1.6z"/>
					</g>
					<g id="&lt;Group&gt;" style="opacity: .5">
						<g id="&lt;Group&gt;">
							<path id="&lt;Path&gt;" class="s5" d="m1283.8 709.5c-158.2-111.8-575.6-93.2-705.4 253.3-45.1 120.5-55.5 280.8-7.9 489.1q-2.3-9.5-5-18.8c-53.2-218.7-43.8-385.7 2.9-510.3 145.2-387.5 650.1-364.9 749.9-208.4q-0.1 0-0.1 0c-1.3-0.3-13.8-2.7-34.4-4.9z"/>
						</g>
						<g id="&lt;Group&gt;">
							<path id="&lt;Path&gt;" class="s5" d="m571.1 1454.7q2.1 9.1 4.4 18.4c30.4 104.4 19.3 213.4-19.9 325.6-13.9 39.8-16.7 79.9-10.7 117.6-16.6-48.6-18.2-103.4 0.7-157.6 36.5-104.5 48.6-206.2 25.5-304z"/>
						</g>
					</g>
					<g id="&lt;Group&gt;">
						<path id="&lt;Compound Path&gt;" fill-rule="evenodd" class="s2" d="m912.1 1345.4c-32.7 0-64.3-3.1-93.9-9.6-5-1.1-9.1-4.6-10.8-9.4-4.5-11.7-12.4-22.5-23-31.1-3.3-2.6-5.3-6.6-5.5-10.9-0.1-0.6 0-1.4 0-2 24.7-291.3 168.3-432.8 284.4-500.2 123.2-71.6 241.8-77.4 253.7-77.8 161.2-22.7 295.1 44.6 358.5 180.4 61.7 132.3 38.3 289.5-55.8 373.9-4.1 3.6-9.9 4.8-15.1 2.9-5.1-1.8-8.9-6.3-9.7-11.8-33.6-214.9-110.4-292.4-146.8-317.7-2.9 102.3-50.7 195.3-139.4 270.1-105.9 89.3-260.5 143.2-396.6 143.2zm-80-37.4c141.7 27.6 336.6-27 457.2-128.7 61.9-52.3 134.5-141.8 128.6-271.9-0.2-4.9 1.9-9.6 5.8-12.6 3.9-3 9-3.9 13.6-2.5 5.5 1.7 130.7 43.7 182.2 323.7 67.5-79.1 80.4-208 28.8-318.5-27.6-59.3-114.9-193.7-327.9-163.3q-1 0.2-2 0.2c-9.7 0.3-122 5.2-240 73.7-158.2 91.9-248.6 249.7-268.9 469.3 9.5 9 17.1 19.3 22.6 30.6z"/>
					</g>
					<g id="&lt;Group&gt;">
						<path id="&lt;Compound Path&gt;" fill-rule="evenodd" class="s2" d="m989.6 2124.7c-84 0-155.4-21.4-172.8-27.1q-3.2 0.5-6.3 1.1-0.1 0-0.2 0c-88.6 13.1-175.9-20.7-233.6-90.4-58.3-70.6-75.2-163.8-45.2-249.5 41-117.6 47.4-221.1 19.6-316.5q-0.1-0.3-0.2-0.7c-52.5-215.6-48.5-397.3 11.8-539.9 50-118.5 139.3-207.9 258.2-258.5 206.7-88.1 443.9-35.7 510 68.1 3 4.7 3.1 10.5 0.5 15.3-2.6 4.7-7.5 7.7-12.8 7.8-1.2 0-2.3-0.1-3.5-0.3-2.2-0.5-221.3-43.7-387.9 84.5-115.4 88.8-179.8 238.2-191.2 444-0.4 7.3-5.9 13.2-13.1 14.1-34 4.4-54.1 32.4-56.6 78.7-3.4 96.3 36 162.3 76.8 177.5 31.4 11.7 56.1-8.4 71.3-27.2 3.5-4.3 9.1-6.4 14.6-5.3 5.4 1 9.8 5.1 11.4 10.4 30.8 102.8 91.7 180.4 176.1 224.5 84 43.7 184.1 50.1 281.9 17.8 4.7-1.5 9.8-0.7 13.7 2.3 3.9 2.9 6.2 7.5 6 12.4-3.8 142.9-48.2 244.7-131.9 302.5-60.5 41.8-132.3 54.4-196.6 54.4zm-171.6-57.5c1.6 0 3.3 0.3 4.9 0.8 2.1 0.7 210.6 71.5 346.4-22.4 71.3-49.4 110.9-136 118-257.7-99.1 27.5-199.4 18.4-284.7-26-85-44.4-147.9-119.6-183.1-218.6-26.3 22.3-57 28.8-86.9 17.7-60.2-22.5-99.8-107.6-96.3-206.9 3-55.5 29-93.7 70.4-104.7 13.8-209 81.8-361.9 202.2-454.6 134.9-103.8 297.4-103 371.8-95.8-82.3-72.1-278.5-100.5-448.1-28.2-148.3 63.2-378.4 246.4-252.6 763.4 29.5 101.5 22.9 210.9-20.2 334.5-26.5 75.7-11.5 158.1 40.1 220.4 50.8 61.6 127.8 91.4 205.9 79.9q4.8-0.7 9.6-1.6 1.3-0.2 2.6-0.2zm-9.9 16.6z"/>
					</g>
					<g id="&lt;Group&gt;" style="opacity: .5">
						<path id="&lt;Path&gt;" class="s5" d="m810.5 1307.6c10.1 9.3 6 0.5 10.9 13.5 226 49.3 625.5-108 611.5-414.4-16.1 56.7-42.9 111-77.6 160.6-52.1-13-103.2 42.9-79.2 92.5-127.6 122.8-305.9 191.8-465.6 147.8z"/>
					</g>
					<g id="&lt;Group&gt;">
						<path id="&lt;Path&gt;" class="s10" d="m721 1261.8c25.1-3.3 52.3 5.2 72.9 21.8 46.5-550.5 517.2-564 524.3-564.2-8.9-1.8-560.8-111.1-597.2 542.4z"/>
						<path id="&lt;Compound Path&gt;" fill-rule="evenodd" class="s2" d="m795.8 1288.2l-3.4-2.8c-20.4-16.5-47-24.5-71.1-21.3l-2.8 0.4 0.2-2.8c11.7-211.1 78.3-364.8 198-456.8 172.8-133.1 392.6-89.7 401.9-87.8l19.9 4.1-20.3 0.5c-4.9 0.1-122.8 3.8-246.2 75.4-112.6 65.4-251.8 202.9-275.8 486.7zm-63.9-29.4c20.8 0 42.3 7.3 60 20.4 25.2-282.9 164.8-420.4 277.7-486 96.1-55.8 189-70.7 228.6-74.7-58.3-8-235-20.6-378.7 90.1-118 90.8-184 242.4-196.1 450.6q4.2-0.4 8.5-0.4z"/>
					</g>
					<g id="&lt;Group&gt;" style="opacity: .5">
						<path id="&lt;Path&gt;" class="s5" d="m721 1261.8c25.1-3.3 52.3 5.2 72.9 21.8 46.5-550.5 517.2-564 524.3-564.2-2.6-0.5-49-9.8-115.1-7.6-141.6 34.5-396.9 151.9-430.5 549.8-14.4-11.7-32.7-12.1-50.7-14.5-0.5 7.2-0.5 7.3-0.9 14.7z"/>
					</g>
					<g id="&lt;Group&gt;">
						<path id="&lt;Compound Path&gt;" fill-rule="evenodd" class="s2" d="m793.9 1298.6c-3.4 0-6.8-1.1-9.5-3.3-17.7-14.4-40.7-21.4-61.4-18.6-4.5 0.6-8.9-0.9-12.2-3.9-3.3-3-5-7.4-4.8-11.8 12-214.9 80.3-371.8 202.9-466.2 177.4-136.5 402.8-92.1 412.3-90.1 7.5 1.5 12.6 8.4 11.9 16-0.7 7.6-7 13.5-14.6 13.7-4.8 0.1-119.5 3.7-240.1 73.7-160 92.9-250.7 253.3-269.6 476.8-0.5 5.5-4 10.4-9.1 12.5-1.9 0.9-3.9 1.2-5.8 1.2zm-56.9-52.4c15.1 0.8 30.3 4.8 44.3 11.7 30.4-274.8 169.2-410.2 282-475.7 44.3-25.8 88.1-43 126.4-54.5-76.8 4.3-176.6 24.8-262.5 90.9-112.3 86.5-176.3 230.3-190.2 427.6z"/>
					</g>
					<g id="&lt;Group&gt;">
						<path id="&lt;Path&gt;" class="s11" d=""/>
					</g>
					<g id="&lt;Group&gt;" style="opacity: .3">
						<path id="&lt;Path&gt;" class="s2" d="m821.4 1321.1l56.2 6.7-0.8 4.2 178.7-20.7c-84.8 5.8-127.9-32.1-140.7-101.6-5.4-29.5-4-59.7 2.2-88.9 37.6-177.5 126.5-333.6 291.6-368.2-293.7 55.9-365.2 285-418.7 528z"/>
					</g>
					<g id="&lt;Group&gt;" style="opacity: .3">
						<path id="&lt;Path&gt;" class="s2" d="m808.1 2083.8q4.9-0.7 9.9-1.6c0 0 473.1 165 485.9-314.2-197.3 65-408.8-22.3-477.8-252.9-74.2 92.1-180.4-2.3-174.8-160.5 3.3-60.6 34.5-88.2 69.7-92.8 6.8-122.4 31.7-218 67.7-292.6-98.6 172.6-259.2 177.7-220.3-41.4-46.7 124.6-56.1 291.6-2.9 510.3 30.4 104.4 19.3 213.4-19.9 325.6-59.6 170.6 83.7 346.6 262.5 320.1z"/>
					</g>
					<g id="&lt;Group&gt;">
						<g id="&lt;Group&gt;">
							<path id="&lt;Path&gt;" class="s3" d="m795.5 1542c10.5-5.9 20.8-14.8 30.6-26.9 4.2 206.6 142.8 324.6 302.9 356.3 225.2 44.8 492.7-81.5 486.8-372.3l-6.1-251.6c-47-300.6-176.9-340.8-176.9-340.8 0.4 7.1 0.5 14.1 0.4 21.1-4.9 292.5-391.1 441.5-611.8 393.3-0.1-0.3-0.3-0.6-0.4-0.9-5.6-14.5-15.3-26.9-27.1-36.5l-0.1-0.1c-20.5-16.6-47.7-25.1-72.8-21.8-35.3 4.6-66.5 32.2-69.7 92.8-4.9 137.4 74.7 226.7 144.2 187.4z"/>
						</g>
						<g id="&lt;Group&gt;">
							<path id="&lt;Compound Path&gt;" fill-rule="evenodd" class="s2" d="m1218.6 1882.5c-30.1 0-60.3-2.9-90.1-8.8-143-28.4-297.4-135.8-304.6-352.4-8.5 9.7-17.7 17.3-27.2 22.7-23.7 13.4-49.9 12.7-73.9-1.8-47.8-29.1-76.8-102.8-73.8-187.7 4.1-77.8 51.5-92.4 71.7-95 25.3-3.4 53.2 5 74.6 22.3 12.7 10.4 22.3 23.3 27.7 37.3 141.7 30.4 336-20.2 462.7-120.5 65-51.5 143-140.3 145.1-270.8 0.2-7 0.1-13.9-0.3-21l-0.1-3.3 3.1 1c1.3 0.4 131.8 44.1 178.5 342.6l6.1 252c2.5 118.9-40.5 218.8-124.2 289-72.8 60.9-173 94.4-275.3 94.4zm-390.3-373.8l0.1 6.4c4.4 217.9 158.4 325.8 301 354 129.9 25.8 268.4-6.6 361.5-84.6 82.6-69.2 125-167.9 122.6-285.3l-6.1-251.7c-42.1-268.9-152-328.6-172.1-337.4 0.2 6 0.3 11.9 0.2 17.7-1.8 104.8-52.6 199.7-146.9 274.4-128.1 101.4-324.8 152.4-467.7 121.2l-1.3-0.3-0.4-1.2c-0.1-0.2-0.2-0.5-0.3-0.7-5.3-13.6-14.4-25.9-26.5-35.7-20.4-16.6-47-24.6-71.1-21.4-40.2 5.3-64.9 38.3-67.7 90.6-3.3 94.6 33.6 160.4 71.6 183.5 22.8 13.8 46.7 14.5 69.2 1.8 10.6-6 20.6-14.9 29.9-26.3z"/>
						</g>
					</g>
					<g id="&lt;Group&gt;" style="opacity: .5">
						<path id="&lt;Path&gt;" class="s5" d="m1201.3 1879.9c206.3 7.8 419.8-120.7 414.5-380.8l-6.1-251.6c-47-300.6-176.9-340.8-176.9-340.8 0.4 7.6 8.6 9.4 8.5 16.8 42 34.8 101.1 125.5 132.1 324l6.2 251.6c4.9 244.9-184 373.1-378.3 380.8z"/>
					</g>
					<g id="&lt;Group&gt;">
						<path id="&lt;Compound Path&gt;" fill-rule="evenodd" class="s2" d="m1218.7 1895.2c-103.2 0-199.8-32.2-273-91.1-77.6-62.6-123.2-150.5-132.8-255.6-24.8 18.1-52.9 22.7-80.3 12.5-60.2-22.5-99.8-107.6-96.3-206.9 3.2-60.9 34.2-100.8 82.7-107.2 28.8-3.8 60.3 5.6 84.3 25.1q0.4 0.3 0.8 0.7c12 9.9 21.5 22 27.9 35.3 141.7 27.6 336.7-27 457.3-128.7 61.9-52.3 134.5-141.9 128.6-272-0.2-4.8 1.9-9.5 5.8-12.5 3.9-3 8.9-3.9 13.6-2.5 5.7 1.8 139.3 46.5 187.2 352.9q0.1 0.9 0.2 1.9l6.1 251.6c2.4 119.9-40 221.5-122.8 294-73.1 63.9-172.2 100.3-279.2 102.4q-5 0.1-10.1 0.1zm-392.6-395.1q2.4 0 4.8 0.8c6 2 10 7.6 10.2 13.9 4.9 246 204.2 353.9 387.1 350.3 183-3.7 377.6-119.7 372.6-365.7l-6.1-250.6c-33.7-214.1-110.3-291.5-146.6-316.8-2.9 102.4-50.7 195.4-139.5 270.2-131.2 110.8-337.5 166.9-490.4 133.6-5-1.1-9.1-4.6-10.9-9.4-4.4-11.7-12.3-22.5-22.9-31.1q-0.4-0.3-0.7-0.6c-17.7-14-40.3-20.8-60.8-18-34 4.4-54.1 32.4-56.6 78.7-3.4 96.3 36 162.3 76.8 177.5 31.4 11.7 56.1-8.4 71.3-27.2 2.9-3.6 7.2-5.6 11.7-5.6z"/>
					</g>
					<g id="&lt;Group&gt;">
						<g id="&lt;Group&gt;">
							<path id="&lt;Path&gt;" class="s2" d="m1417.9 1631.6q-109.6 21.5-220.9-32.1c18.2 163.8 156.1 145.4 220.9 32.1z"/>
						</g>
						<g id="&lt;Group&gt;">
							<path id="&lt;Path&gt;" class="s12" d="m1233.9 1693.8c14.4-16.4 78.4-7.7 83.7 22.6-32.2 7.2-60.7 1.6-83.7-22.6z"/>
							<path id="&lt;Compound Path&gt;" fill-rule="evenodd" class="s2" d="m1292.5 1721.7c-23.7 0-43.6-8.7-60.3-26.3l-1.5-1.5 1.4-1.6c9.3-10.6 34.3-10.9 53-5.7 19.8 5.6 32.5 16.2 34.8 29.4l0.4 2.1-2.2 0.5q-13.5 3.1-25.6 3.1zm-55.3-27.8c20.4 20.5 45.9 27.2 77.6 20.7-3-10.3-14.1-18.8-31-23.5-18.4-5.1-38.5-3.8-46.6 2.8z"/>
						</g>
						<g id="&lt;Group&gt;">
							<path id="&lt;Path&gt;" class="s5" d="m1220.4 1609.9c36.3 80.7 144.5 71.4 172.6 25.6 0 0-96.6 19.4-172.6-25.6z"/>
							<path id="&lt;Compound Path&gt;" fill-rule="evenodd" class="s2" d="m1316.8 1672.7q-3.9 0-7.9-0.3c-41.2-2.6-74.2-25.1-90.6-61.5l-3-6.7 6.3 3.8c74.3 44 170 25.4 171 25.2l5.2-1-2.8 4.5c-13.5 22-44.3 36-78.2 36zm-91-57.1c16.6 30.9 46.6 49.8 83.4 52.2 32.4 2.1 63.7-9.7 78.8-29.1-21 3.1-97.9 11.5-162.2-23.1z"/>
						</g>
						<g id="&lt;Group&gt;">
							<path id="&lt;Compound Path&gt;" fill-rule="evenodd" class="s2" d="m1293.7 1732.1c-6.8 0-13.4-0.7-20-2-48.7-10.1-81.2-57.2-89.1-129.2-0.5-4.5 1.4-9 5.2-11.6 3.7-2.6 8.5-3 12.6-1 71.4 34.3 143.1 44.8 213.1 31.1 4.8-1 9.7 1 12.5 4.9 2.9 4 3.1 9.3 0.7 13.5-33.4 58.6-85.7 94.3-135 94.3zm-80.9-111.7c9.9 48.3 32.9 78.3 66 85.2 37.1 7.7 81.1-15.4 113.1-57.4-59.2 6.5-119.2-2.8-179.1-27.8z"/>
						</g>
					</g>
					<g id="&lt;Group&gt;">
						<path id="&lt;Path&gt;" class="s2" d="m1442.7 1317c6.8-11.9 17-20.7 28.8-27.3 11.7-6.5 25.5-10.5 39.7-10.6 3.5 0.2 7.1-0.2 10.6 0.5 3.5 0.6 7 1.2 10.5 1.9 6.7 2.4 13.5 4.5 19.3 8.5 1.5 0.9 3 1.9 4.4 2.8l2.2 1.4 1.9 1.8c2.5 2.3 5 4.7 7.3 7.1 2.5 2.2 4.2 5.2 6.1 8 1.8 2.9 3.5 5.7 4.9 8.7 0.6 1.3 0 2.9-1.3 3.5-0.6 0.3-1.2 0.3-1.8 0.2l-0.4-0.1c-6.5-1.8-11.7-4.5-17.3-6.2-2.7-0.8-5.4-1.7-8-2.6-2.5-1.1-5.3-1.3-7.8-2.1-5.1-1.6-10.3-1.8-15.2-2.9-5.1-0.1-10-0.9-15-0.5-10.1 0.2-20.4 1.4-31.3 3.6-10.8 2.2-22.1 5.1-34.4 8.1l-0.3 0.1c-1.4 0.3-2.9-0.6-3.2-2-0.2-0.7-0.1-1.4 0.3-1.9z"/>
					</g>
					<g id="&lt;Group&gt;">
						<path id="&lt;Path&gt;" class="s2" d="m1449.1 1427.1c2.5 40.9 29.1 72.5 59.3 70.7 30.3-1.9 52.8-36.5 50.3-77.4-2.5-40.9-29.1-72.5-59.3-70.7-30.3 1.9-52.8 36.5-50.3 77.4z"/>
					</g>
					<g id="&lt;Group&gt;">
						<path id="&lt;Path&gt;" class="s5" d="m1496.6 1401.8c0.8 12.6 10 22.2 20.6 21.5 10.6-0.6 18.6-11.3 17.8-23.8-0.8-12.6-10-22.2-20.6-21.6-10.6 0.7-18.6 11.4-17.8 23.9z"/>
						<path id="&lt;Compound Path&gt;" fill-rule="evenodd" class="s2" d="m1516.2 1425.9c-5.5 0-10.7-2.3-14.8-6.6-4.3-4.5-6.9-10.7-7.3-17.3-0.9-13.9 8.2-25.8 20.2-26.6 12-0.7 22.3 10 23.2 23.9 0.8 13.9-8.2 25.8-20.2 26.5q-0.6 0.1-1.1 0.1zm-0.8-45.5q-0.4 0-0.8 0c-9.3 0.6-16.2 10.1-15.5 21.3 0.3 5.4 2.4 10.5 5.9 14.1 3.4 3.5 7.6 5.3 12 5.1 9.2-0.6 16.2-10.1 15.5-21.3-0.7-10.8-8.2-19.2-17.1-19.2z"/>
					</g>
					<g id="&lt;Group&gt;">
						<path id="&lt;Path&gt;" class="s2" d="m1172.6 1446.4c0.5 41 25.5 73.9 55.8 73.5 30.3-0.4 54.4-33.9 53.9-74.9-0.5-40.9-25.5-73.8-55.8-73.4-30.3 0.4-54.5 33.9-53.9 74.8z"/>
					</g>
					<g id="&lt;Group&gt;">
						<path id="&lt;Path&gt;" class="s2" d="m1284.6 1329.3c-12.4-2.5-23.2-5.1-33.4-6.4-10.2-1.4-19.5-1.8-28.7-0.7-4.6 0.6-9.1 1.6-13.7 3.2q-6.9 2.1-13.9 5.7c-9.4 4.6-18.9 10.8-29.6 17.5-1.2 0.8-2.9 0.4-3.7-0.8-0.4-0.7-0.5-1.5-0.3-2.1 3.3-12.5 10-23.9 19.6-33.5 9.4-9.6 22.5-16.8 36.8-19.3 14.3-2.8 29.2-0.5 41.5 5.4 12.2 6.1 22.6 14.9 28.7 27.3 0.6 1.3 0.1 2.9-1.3 3.6-0.5 0.3-1.1 0.3-1.7 0.2z"/>
					</g>
					<g id="&lt;Group&gt;">
						<path id="&lt;Path&gt;" class="s5" d="m1220.6 1428.4c0.8 12.5 10 22.1 20.6 21.5 10.6-0.6 18.6-11.3 17.8-23.9-0.7-12.5-9.9-22.2-20.6-21.5-10.6 0.6-18.5 11.3-17.8 23.9z"/>
						<path id="&lt;Compound Path&gt;" fill-rule="evenodd" class="s2" d="m1240.2 1452.4c-5.5 0-10.7-2.3-14.8-6.6-4.3-4.5-6.9-10.6-7.3-17.3-0.8-13.9 8.2-25.8 20.2-26.5 12-0.7 22.4 10 23.2 23.9 0.9 13.9-8.2 25.8-20.1 26.5q-0.6 0-1.2 0zm-17.1-24.2c0.4 5.5 2.5 10.5 5.9 14.2 3.4 3.5 7.7 5.2 12.1 5 9.2-0.6 16.1-10.1 15.4-21.2-0.6-11.2-8.6-19.7-17.9-19.2-9.2 0.6-16.2 10.1-15.5 21.2z"/>
					</g>
					<g id="&lt;Group&gt;" style="opacity: .3">
						<path id="&lt;Path&gt;" class="s2" d="m660.3 1363.9c0 0 18.5 104.3 96.2 113.4 34 4 63.5-22.4 65.6-56.5 1.6-27.5-1.5-58.3-11.6-93.9l10.5-6.7c0.1 0.3 0.3 0.6 0.4 0.9 220.7 48.2 606.9-100.8 611.7-393.3 23.3 233.8-86.3 383.7-384 436-85.2 15-139.6 100.1-116.8 183.5 39.5 145.2 120.3 264.2 295.1 330.8 0 0-44.2-3-98.4-6.7-160.1-31.7-298.7-149.7-302.9-356.3-9.8 12.1-20.1 21-30.6 26.9-0.5-1.3-1-2.4-1.5-3.5-1.5 1.8-2 2.9-1.2 2.9 5 0-45 11.6-45 11.6 0 0-49.6-29.8-47.3-33.2 2.3-3.4-72.7-43.4-40.2-155.9z"/>
					</g>
				</g>
			</g>
		</g>
		<g id="&lt;Group&gt;" style="opacity: .5">
			<path id="&lt;Path&gt;" class="s5" d="m2134.6 1321.3c-1.3 21.9-29.3 30.7-42.5 13.1-13-17.4-23.7-44.1-22.7-84.7 2.4-99.5 83-61.7 31.3-208-30.5-86.6 45.7-128.7 45.7-128.7 0 0-8.9 69.8 11.2 112 29.5 61.9 75 117.6 26.4 165.1-37 36.1-47.2 92.2-49.4 131.2z"/>
		</g>
	</g>
</svg>