<svg version="1.2" xmlns="http://www.w3.org/2000/svg" viewBox="0 0 2308 2917" width="2308" height="2917">
	<title>&lt;Group&gt;</title>
	<defs>
		<linearGradient id="g1" x1="1684.1" y1="1371.8" x2="1674.7" y2="2721" gradientUnits="userSpaceOnUse">
			<stop offset="0" stop-color="#40e6ff"/>
			<stop offset="1" stop-color="#40e6ff"/>
		</linearGradient>
	</defs>
	<style>
		.s0 { fill: #3d3144 } 
		.s1 { fill: #61ed46 } 
		.s2 { fill: #000072 } 
		.s3 { fill: #4d5a6a } 
		.s4 { fill: #ffffff } 
		.s5 { fill: #fdbd91 } 
		.s6 { fill: #ac3d50 } 
		.s7 { fill: #fefefe } 
		.s8 { opacity: .5;fill: url(#g1) } 
		.s9 { fill: #c6d3e3 } 
	</style>
	<g id="&lt;Group&gt;">
		<g id="&lt;Group&gt;">
			<path id="&lt;Path&gt;" class="s0" d="m2307.6 1153.6c0 637.2-516.5 1153.7-1153.6 1153.7-637.1 0-1153.6-516.5-1153.6-1153.7 0-637.1 516.5-1153.6 1153.6-1153.6 637.1 0 1153.6 516.5 1153.6 1153.6z"/>
		</g>
		<g id="&lt;Group&gt;">
			<g id="&lt;Group&gt;">
				<path id="&lt;Path&gt;" class="s1" d="m2043.2 678.8h-222.1c-8.5 0-15.4-7-15.4-15.5 0-8.6 6.9-15.5 15.4-15.5h222.1c8.6 0 15.5 6.9 15.5 15.5 0 8.5-6.9 15.5-15.5 15.5z"/>
			</g>
			<g id="&lt;Group&gt;">
				<path id="&lt;Path&gt;" class="s1" d="m1606.8 678.8h-909.4c-8.5 0-15.5-7-15.5-15.5 0-8.6 7-15.5 15.5-15.5h909.4c8.6 0 15.5 6.9 15.5 15.5 0 8.5-6.9 15.5-15.5 15.5z"/>
			</g>
			<g id="&lt;Group&gt;">
				<path id="&lt;Path&gt;" class="s1" d="m554 678.8h-251.4c-8.6 0-15.5-7-15.5-15.5 0-8.6 6.9-15.5 15.5-15.5h251.4c8.5 0 15.5 6.9 15.5 15.5 0 8.5-7 15.5-15.5 15.5z"/>
			</g>
			<g id="&lt;Group&gt;">
				<path id="&lt;Path&gt;" class="s1" d="m2043.2 807.9h-191.1c-8.5 0-15.5-6.9-15.5-15.5 0-8.5 7-15.5 15.5-15.5h191.1c8.6 0 15.5 7 15.5 15.5 0 8.6-6.9 15.5-15.5 15.5z"/>
			</g>
			<g id="&lt;Group&gt;">
				<path id="&lt;Path&gt;" class="s1" d="m1735.1 807.9h-1142.1c-8.5 0-15.5-6.9-15.5-15.5 0-8.5 7-15.5 15.5-15.5h1142.1c8.5 0 15.5 7 15.5 15.5 0 8.6-7 15.5-15.5 15.5z"/>
			</g>
			<g id="&lt;Group&gt;">
				<path id="&lt;Path&gt;" class="s1" d="m434.5 807.9h-131.9c-8.6 0-15.5-6.9-15.5-15.5 0-8.5 6.9-15.5 15.5-15.5h131.9c8.6 0 15.5 7 15.5 15.5 0 8.6-6.9 15.5-15.5 15.5z"/>
			</g>
			<g id="&lt;Group&gt;">
				<path id="&lt;Path&gt;" class="s1" d="m2043.2 937h-1740.6c-8.6 0-15.5-6.9-15.5-15.5 0-8.5 6.9-15.5 15.5-15.5h1740.6c8.6 0 15.5 7 15.5 15.5 0 8.6-6.9 15.5-15.5 15.5z"/>
			</g>
			<g id="&lt;Group&gt;">
				<path id="&lt;Path&gt;" class="s1" d="m2043.2 1066.2h-1472c-8.6 0-15.5-7-15.5-15.5 0-8.6 6.9-15.5 15.5-15.5h1472c8.6 0 15.5 6.9 15.5 15.5 0 8.5-6.9 15.5-15.5 15.5z"/>
			</g>
			<g id="&lt;Group&gt;">
				<path id="&lt;Path&gt;" class="s1" d="m434.5 1066.2h-131.9c-8.6 0-15.5-7-15.5-15.5 0-8.6 6.9-15.5 15.5-15.5h131.9c8.6 0 15.5 6.9 15.5 15.5 0 8.5-6.9 15.5-15.5 15.5z"/>
			</g>
			<g id="&lt;Group&gt;">
				<path id="&lt;Path&gt;" class="s1" d="m2043.2 1195.3h-111c-8.6 0-15.5-6.9-15.5-15.5 0-8.6 6.9-15.5 15.5-15.5h111c8.6 0 15.5 6.9 15.5 15.5 0 8.6-6.9 15.5-15.5 15.5z"/>
			</g>
			<g id="&lt;Group&gt;">
				<path id="&lt;Path&gt;" class="s1" d="m1821.1 1195.3h-1518.5c-8.6 0-15.5-6.9-15.5-15.5 0-8.6 6.9-15.5 15.5-15.5h1518.5c8.6 0 15.5 6.9 15.5 15.5 0 8.6-6.9 15.5-15.5 15.5z"/>
			</g>
			<g id="&lt;Group&gt;">
				<path id="&lt;Path&gt;" class="s1" d="m2043.2 1324.4h-1740.6c-8.6 0-15.5-6.9-15.5-15.5 0-8.5 6.9-15.5 15.5-15.5h1740.6c8.6 0 15.5 7 15.5 15.5 0 8.6-6.9 15.5-15.5 15.5z"/>
			</g>
			<g id="&lt;Group&gt;">
				<path id="&lt;Path&gt;" class="s1" d="m2043.2 1453.5h-125.3c-8.5 0-15.5-6.9-15.5-15.4 0-8.6 7-15.5 15.5-15.5h125.3c8.6 0 15.5 6.9 15.5 15.5 0 8.5-6.9 15.4-15.5 15.4z"/>
			</g>
			<g id="&lt;Group&gt;">
				<path id="&lt;Path&gt;" class="s1" d="m1786.4 1453.5h-1146.3c-8.6 0-15.5-6.9-15.5-15.4 0-8.6 6.9-15.5 15.5-15.5h1146.3c8.5 0 15.5 6.9 15.5 15.5 0 8.5-7 15.4-15.5 15.4z"/>
			</g>
			<g id="&lt;Group&gt;">
				<path id="&lt;Path&gt;" class="s1" d="m450.7 1453.5h-148.1c-8.6 0-15.5-6.9-15.5-15.4 0-8.6 6.9-15.5 15.5-15.5h148.1c8.5 0 15.5 6.9 15.5 15.5 0 8.5-7 15.4-15.5 15.4z"/>
			</g>
			<g id="&lt;Group&gt;">
				<path id="&lt;Path&gt;" class="s1" d="m2043.2 1582.7h-279.6c-8.5 0-15.5-7-15.5-15.5 0-8.6 7-15.5 15.5-15.5h279.6c8.6 0 15.5 6.9 15.5 15.5 0 8.5-6.9 15.5-15.5 15.5z"/>
			</g>
			<g id="&lt;Group&gt;">
				<path id="&lt;Path&gt;" class="s1" d="m1545.7 1582.7h-1243.1c-8.6 0-15.5-7-15.5-15.5 0-8.6 6.9-15.5 15.5-15.5h1243.1c8.5 0 15.5 6.9 15.5 15.5 0 8.5-7 15.5-15.5 15.5z"/>
			</g>
		</g>
		<g id="&lt;Group&gt;" style="opacity: .3">
			<path id="&lt;Path&gt;" class="s2" d="m60 2845.6c367.3 94.9 1820.6 94.9 2187.9 0 34-8.7 25.7-48.1-10.1-48.1h-2167.7c-35.8 0-44.1 39.4-10.1 48.1z"/>
		</g>
		<g id="&lt;Group&gt;">
			<path id="&lt;Path&gt;" class="s2" d="m162.8 2792.3c41.3-8.1 82.6-10.3 123.9-11.1 41.3-1.2 82.6-0.6 123.9 0.1 41.3 0.4 82.6 0.6 123.9 0.5h123.9 495.5 495.6 247.8 62c20.6 0 41.3-0.8 61.9-1.1 41.3-0.2 82.6 0.3 123.9 11.6 2.9 0.8 4.6 3.7 3.8 6.6-0.5 2-2 3.4-3.8 3.8-41.3 11.3-82.6 11.8-123.9 11.6-20.6-0.3-41.3-1.1-61.9-1l-62-0.1h-247.8-495.6-495.5-123.9c-41.3 0-82.6 0.1-123.9 0.6-41.3 0.6-82.6 1.2-123.9 0-41.3-0.8-82.6-3-123.9-11.1-2.9-0.5-4.8-3.3-4.2-6.2 0.4-2.2 2.1-3.8 4.2-4.2z"/>
		</g>
		<g id="&lt;Group&gt;">
			<g id="&lt;Group&gt;">
				<g id="&lt;Group&gt;">
					<path id="&lt;Path&gt;" class="s3" d="m1664.8 2685.5l6.5-0.8c182-21.6 306.5-194.2 269.7-373.7l-68.4-333.2c-31.2-152-165-261.1-320.2-261.1h-397.8 11.3-397.8c-155.2 0-289 109.1-320.2 261.1l-68.3 333.2c-36.9 179.5 87.7 352.1 269.6 373.7l6.6 0.8z"/>
				</g>
				<g id="&lt;Group&gt;">
					<path id="&lt;Compound Path&gt;" fill-rule="evenodd" class="s2" d="m1664.9 2688h-1009.1l-6.8-0.8c-87.5-10.4-167.2-57.3-218.7-128.7-51.5-71.4-70.9-161.8-53.2-248l68.4-333.2c31.3-152.4 167-263.1 322.6-263.1h784.3c155.7 0 291.4 110.7 322.7 263.1l68.3 333.2c17.7 86.2-1.7 176.6-53.2 248-51.5 71.4-131.2 118.3-218.6 128.7zm-896.8-968.8c-153.3 0-286.9 109-317.7 259.2l-68.4 333.1c-17.4 84.9 1.7 173.9 52.4 244.1 50.6 70.3 129.1 116.4 215.1 126.7l6.5 0.7h1008.6l6.4-0.7c86-10.3 164.4-56.4 215.1-126.7 50.7-70.2 69.8-159.2 52.4-244.1l-68.4-333.1c-30.8-150.2-164.4-259.2-317.7-259.2z"/>
				</g>
			</g>
			<g id="&lt;Group&gt;" style="opacity: .3">
				<path id="&lt;Path&gt;" class="s2" d="m1671.3 2684.8l-6.5 0.7h-1009l-6.5-0.7c-116.5-13.9-209.3-89.6-251.6-189.2 46.2 41.5 105.3 69.8 172.1 77.7l6.5 0.8h1009l6.5-0.8c182-21.6 306.6-194.2 269.7-373.7l-68.3-333.2c-4.6-22.3-11.5-43.8-20.3-64.1 49.6 45.2 85.4 105.8 99.7 175.5l68.4 333.2c36.8 179.5-87.8 352.1-269.7 373.8z"/>
			</g>
			<g id="&lt;Group&gt;" style="opacity: .5">
				<path id="&lt;Path&gt;" class="s4" d="m1713.7 1759.2c-37.2-14.7-77.7-22.6-119.7-22.6h-784.3c-155.2 0-289 109.1-320.2 261.1l-68.4 333.2c-28.1 136.9 37.7 269.8 151.3 334.7-138.5-53.9-224.2-201.7-192.9-354.6l68.4-333.2c31.2-152 165-261.1 320.2-261.1h784.3c58.2 0 113.4 15.3 161.3 42.5z"/>
			</g>
			<g id="&lt;Group&gt;">
				<path id="&lt;Compound Path&gt;" fill-rule="evenodd" class="s2" d="m1664.8 2701.8h-1009q-1 0-1.9-0.1l-6.6-0.8c-91.2-10.8-174.4-59.8-228.1-134.3-53.8-74.5-74-168.9-55.6-258.9l68.4-333.1c32.6-158.9 174-274.2 336.1-274.2h784.3c162.2 0 303.6 115.3 336.2 274.2l68.3 333.1c18.5 90-1.8 184.4-55.5 258.9-53.8 74.5-136.9 123.5-228.2 134.3l-6.5 0.8q-1 0.1-1.9 0.1zm-1008.1-32.5h1007.1l5.6-0.7c82.2-9.8 157.2-53.9 205.6-121 48.4-67.2 66.7-152.2 50-233.3l-68.3-333.2c-29.5-143.8-157.5-248.2-304.3-248.2h-784.3c-146.8 0-274.7 104.4-304.2 248.2l-68.4 333.2c-16.6 81.1 1.6 166.1 50 233.3 48.5 67.1 123.4 111.2 205.7 121z"/>
			</g>
			<g id="&lt;Group&gt;">
				<g id="&lt;Group&gt;">
					<path id="&lt;Path&gt;" class="s3" d="m1739.6 1470.6c-1 3.8-2 7.6-3.1 11.4q-1.2 4.3-2.4 8.5c-0.3 1.1-0.6 2.1-1 3.2-0.6 2.3-1.4 4.7-2.1 6.9-0.9 3-1.9 5.9-2.9 8.9q-0.6 1.9-1.3 3.8-2.1 6.4-4.4 12.6-2.5 6.8-5.2 13.5c-1.7 4.5-3.5 8.9-5.4 13.3-1.9 4.4-3.8 8.9-5.8 13.2q-2.9 6.4-5.9 12.6-0.4 0.8-0.8 1.6c-1.8 3.9-3.8 7.8-5.8 11.6q-0.1 0.2-0.2 0.4c-2.1 4.2-4.4 8.4-6.6 12.7q-4.1 7.4-8.4 14.8c-1.9 3.4-3.9 6.7-6 10.1q-0.1 0.2-0.1 0.3-3.8 6.1-7.7 12.2-6.5 10.2-13.4 20.2c-2 2.9-4 5.8-6.1 8.7-1.7 2.4-3.5 4.8-5.2 7.2-2.7 3.7-5.4 7.2-8.1 10.8-2.7 3.5-5.3 6.9-8 10.3q-2.3 2.8-4.6 5.6-1.5 1.8-2.9 3.6c-1.9 2.2-3.7 4.3-5.5 6.5q-7.5 8.8-15.3 17.4c-2.5 2.8-5.1 5.6-7.7 8.4-1.9 2-3.8 4-5.7 6-2.7 2.9-5.4 5.6-8.1 8.3-3.9 4-7.9 7.9-12 11.9q-4.8 4.7-9.8 9.2c-0.5 0.5-0.9 1-1.4 1.4-3.4 3.2-6.8 6.3-10.3 9.4-6.3 5.7-12.8 11.2-19.3 16.7-1.7 1.3-3.3 2.7-5 4.1q-4.9 4-10.1 8.1-17.7 14.1-36.2 27.2c-0.3 0.1-0.5 0.3-0.7 0.5-48.3 33.9-100.7 59.1-155.1 75.7-18.9 5.7-38 10.4-57.4 14.1-85.5 16.3-174.1 12-258-12.7-56.4-16.6-110.6-42.5-160.5-77.6q-5.8-4.2-11.7-8.4c-0.4-0.3-0.7-0.6-1.2-0.9q-5.8-4.3-11.5-8.6-5.9-4.6-11.8-9.3h-0.1q-5.8-4.7-11.6-9.4c-3.9-3.2-7.7-6.5-11.5-9.7q-5.7-4.9-11.2-9.8c-3.8-3.4-7.5-6.7-11.1-10.1q-5.4-5.1-10.8-10.3-5.3-5.1-10.5-10.4c-3.5-3.5-7-7-10.4-10.6q-5.1-5.5-10.3-11c-3.2-3.5-6.4-7.1-9.6-10.8-2.5-2.8-5-5.7-7.4-8.6q-10.7-12.6-20.8-25.7c-2.7-3.6-5.5-7.1-8.1-10.8-0.4-0.4-0.7-0.9-1-1.3q-2.8-3.7-5.4-7.5c-4-5.6-7.9-11.2-11.7-17-2.1-3.1-4.2-6.3-6.2-9.5-3.1-4.9-6.2-9.7-9.1-14.6-2.1-3.5-4.2-7-6.3-10.5-2.8-5-5.6-10-8.3-15.1q-3.1-5.7-6-11.3c-2-3.9-4-7.8-5.8-11.7q-0.5-0.8-0.8-1.6-6.2-12.7-11.6-25.5c-0.2-0.4-0.3-0.7-0.4-1.1q-2.7-6.3-5.3-12.7-2.7-6.7-5.1-13.5c-1.7-4.5-3.3-9.1-4.8-13.7-1.2-3.3-2.3-6.7-3.4-10.2q-1.3-4-2.5-8.1c-0.4-1.2-0.7-2.4-1.1-3.6-0.8-2.7-1.5-5.3-2.2-7.9-1.1-3.9-2.2-7.8-3.2-11.8-40.6-286.3 219.8-603.8 479.9-740 66.2-34.6 145.3-34.6 211.5 0 5.8 3 11.6 6.3 17.5 9.7h0.1c254.1 146.1 501.9 450.4 462.3 730.3z"/>
				</g>
				<g id="&lt;Group&gt;">
					<g id="&lt;Group&gt;" style="opacity: .4">
						<path id="&lt;Path&gt;" class="s2" d="m1254 1933c7.4-2 14.7-4 22-6.2 54.4-16.5 106.9-41.8 155.1-75.7 0.2-0.2 0.5-0.3 0.7-0.5q18.5-13.1 36.3-27.2 5.1-4 10.1-8.1c1.6-1.4 3.3-2.7 4.9-4.1 6.6-5.5 13-11 19.4-16.7 3.4-3.1 6.8-6.2 10.2-9.4 0.5-0.4 1-0.9 1.5-1.3q4.9-4.6 9.8-9.3c4-3.9 8-7.9 11.9-11.8 2.8-2.7 5.4-5.5 8.1-8.3 1.9-2 3.8-4.1 5.7-6.1 2.6-2.8 5.2-5.5 7.7-8.4q7.8-8.6 15.3-17.4c1.9-2.1 3.7-4.3 5.5-6.5q1.5-1.8 2.9-3.6 2.3-2.7 4.6-5.6c2.7-3.4 5.4-6.8 8-10.2 2.7-3.6 5.4-7.2 8.1-10.8 1.8-2.5 3.5-4.9 5.3-7.3 2-2.9 4.1-5.7 6.1-8.7q6.9-10 13.4-20.1 3.9-6.1 7.6-12.3 0-0.1 0.2-0.3c2-3.3 4-6.7 6-10.1q4.2-7.3 8.3-14.8c2.3-4.2 4.5-8.4 6.7-12.7q0.1-0.2 0.1-0.3c2-3.9 4-7.7 5.8-11.6q0.4-0.8 0.8-1.7 3.1-6.2 5.9-12.5c2-4.4 4-8.8 5.8-13.2 1.9-4.5 3.8-8.9 5.5-13.4q2.7-6.7 5.1-13.5 2.4-6.2 4.5-12.5 0.6-1.9 1.3-3.9c1-2.9 1.9-5.8 2.9-8.8 0.7-2.3 1.4-4.6 2.1-7 0.4-1.1 0.6-2.1 1-3.2q1.2-4.2 2.4-8.5c1-3.7 2.1-7.6 3-11.4 39.2-276.4-202.1-576.7-453-724.8 176.5 160.5 310 385.4 280.2 596.4-1 3.8-2.1 7.6-3.1 11.4q-1.2 4.3-2.4 8.5c-0.3 1.1-0.6 2.1-1 3.2-0.6 2.3-1.4 4.6-2.1 6.9-0.9 3-1.9 5.9-2.9 8.8q-0.6 2-1.3 3.9-2.1 6.3-4.4 12.5-2.5 6.9-5.2 13.5c-1.7 4.5-3.6 9-5.5 13.4-1.8 4.4-3.8 8.9-5.8 13.2q-2.8 6.3-5.8 12.6-0.4 0.8-0.8 1.6c-1.9 3.9-3.8 7.8-5.8 11.6q-0.1 0.2-0.2 0.3c-2.2 4.3-4.4 8.5-6.7 12.7q-4 7.5-8.3 14.8c-2 3.4-4 6.8-6 10.2-0.1 0.1-0.1 0.2-0.1 0.2q-3.8 6.2-7.7 12.3-6.5 10.2-13.4 20.2c-2 2.9-4.1 5.8-6.1 8.6-1.8 2.5-3.5 4.9-5.3 7.3-2.6 3.6-5.3 7.2-8.1 10.8-2.6 3.5-5.3 6.8-8 10.2q-2.3 2.9-4.5 5.7-1.5 1.8-3 3.6c-1.8 2.1-3.6 4.3-5.4 6.5q-7.5 8.8-15.3 17.4c-2.5 2.8-5.1 5.6-7.7 8.3-1.9 2-3.8 4.1-5.7 6.1-2.7 2.8-5.4 5.6-8.2 8.3-3.9 4-7.9 7.9-11.9 11.8q-4.9 4.7-9.8 9.3c-0.5 0.5-1 1-1.5 1.4-3.3 3.1-6.7 6.2-10.2 9.3-6.4 5.7-12.8 11.3-19.4 16.7-1.6 1.4-3.2 2.7-4.9 4.2q-5 4-10.1 8.1-17.7 14.1-36.3 27.2c-0.2 0.1-0.5 0.3-0.7 0.4-48.2 34-100.6 59.2-155.1 75.7-18.8 5.8-38 10.5-57.3 14.2-32 6.1-64.6 9.3-97.1 9.6 32.5-0.3 65.1-3.5 97.1-9.6q1.4-0.3 2.8-0.6c-11.7 3.1-23.5 5.8-35.3 8-70.8 13.5-143.6 12.8-214.2-1.8q-1.2-0.9-2.4-1.9 5.8 4.6 11.6 9.1 5.7 4.3 11.5 8.6c0.4 0.3 0.8 0.6 1.2 0.9q5.9 4.2 11.7 8.4c49.8 35.1 104.1 61 160.5 77.6 83.9 24.7 172.5 29 258 12.7q15.2-2.9 30.1-6.6-13.6 3.4-27.3 6.1z"/>
					</g>
				</g>
				<g id="&lt;Group&gt;" style="opacity: .5">
					<path id="&lt;Path&gt;" class="s4" d="m1370.3 804.4c-20.1-13.6-40.3-26.2-60.5-37.9h-0.1c-5.8-3.4-11.6-6.7-17.5-9.7-66.1-34.6-145.3-34.6-211.5 0-260.1 136.2-520.4 453.7-479.9 740 1.1 4 2.1 7.9 3.2 11.8 0.7 2.6 1.5 5.2 2.3 7.9 0.3 1.2 0.7 2.4 1 3.6q1.3 4.1 2.5 8.2c1.1 3.4 2.3 6.8 3.4 10.2 1.5 4.5 3.1 9.1 4.8 13.6q2.5 6.8 5.2 13.5 2.5 6.4 5.2 12.7c0.1 0.4 0.3 0.7 0.5 1.1q5.3 12.9 11.5 25.5 0.4 0.8 0.8 1.6c1.9 3.9 3.8 7.8 5.8 11.7q3 5.7 6 11.4c2.8 5 5.5 10.1 8.4 15 2 3.5 4.1 7 6.2 10.5 3 4.9 6 9.8 9.1 14.6 2 3.2 4.1 6.4 6.2 9.5 3.8 5.8 7.7 11.4 11.8 17.1q2.6 3.7 5.3 7.4c0.3 0.4 0.7 0.9 1.1 1.3 2.6 3.7 5.3 7.3 8 10.8q10.1 13.1 20.8 25.7c2.4 2.9 4.9 5.8 7.4 8.6 3.2 3.7 6.4 7.3 9.7 10.9q5.1 5.5 10.2 10.9c3.4 3.6 6.9 7.1 10.4 10.6q5.2 5.3 10.6 10.4 5.3 5.3 10.8 10.3c3.6 3.4 7.3 6.7 11 10.1q5.5 4.9 11.2 9.8c3.8 3.3 7.6 6.5 11.5 9.7q5.8 4.7 11.6 9.4h0.1q5.9 4.8 11.9 9.3c3.5 2.7 7.1 5.3 10.7 8q-6.8-4.4-13.4-9.1-5.9-4.1-11.8-8.4c-0.3-0.3-0.7-0.6-1.1-0.8q-5.8-4.4-11.5-8.7-6-4.5-11.9-9.2h-0.1q-5.8-4.8-11.6-9.5c-3.9-3.2-7.7-6.4-11.5-9.7q-5.7-4.8-11.2-9.8c-3.7-3.4-7.4-6.7-11.1-10.1q-5.4-5-10.8-10.2-5.3-5.2-10.5-10.4c-3.5-3.6-7-7.1-10.4-10.7q-5.1-5.4-10.2-10.9c-3.3-3.6-6.5-7.2-9.7-10.9-2.5-2.8-5-5.7-7.4-8.5q-10.7-12.6-20.8-25.7c-2.7-3.6-5.5-7.2-8.1-10.8-0.3-0.5-0.7-1-1-1.4q-2.8-3.7-5.4-7.4c-4-5.7-7.9-11.3-11.7-17-2.1-3.2-4.2-6.4-6.2-9.6-3.1-4.8-6.1-9.6-9.1-14.6-2.1-3.4-4.2-7-6.3-10.5-2.8-4.9-5.5-10-8.3-15q-3-5.7-6-11.4c-2-3.8-3.9-7.8-5.8-11.7q-0.5-0.8-0.8-1.6-6.2-12.6-11.5-25.5c-0.3-0.4-0.4-0.7-0.5-1.1q-2.7-6.3-5.2-12.7-2.7-6.7-5.2-13.5c-1.7-4.5-3.3-9.1-4.8-13.6-1.1-3.4-2.3-6.8-3.4-10.2q-1.3-4.1-2.5-8.1c-0.3-1.2-0.7-2.5-1-3.7-0.9-2.6-1.6-5.2-2.3-7.9-1.1-3.9-2.1-7.8-3.2-11.8-40.5-286.3 219.8-603.8 479.9-740 66.2-34.6 145.4-34.6 211.5 0 5.9 3.1 11.7 6.3 17.5 9.7h0.1c29.4 16.9 58.8 36 87.6 56.9z"/>
				</g>
				<g id="&lt;Group&gt;">
					<path id="&lt;Compound Path&gt;" fill-rule="evenodd" class="s2" d="m1153.9 1959.4c-114 0-227.9-34.3-325.1-102.9q-6-4.2-11.9-8.5-0.3-0.3-0.6-0.5-0.4-0.3-0.8-0.6c-4.1-3-7.9-5.8-11.6-8.6-3.8-3-7.6-5.9-11.4-8.9q-0.5-0.4-0.9-0.7-5.7-4.6-11.3-9.2c-4.4-3.6-8.3-6.9-12.2-10.3q-5.8-5-11.5-10l-0.5-0.5c-3.7-3.3-7.3-6.5-10.8-9.9-3.7-3.3-7.3-6.8-11-10.4-3.6-3.4-7.3-7-10.8-10.7-3.7-3.7-7.2-7.2-10.6-10.8-3.5-3.7-6.9-7.4-10.4-11.1-3.4-3.8-6.7-7.5-10-11.3-2.5-2.7-5-5.7-7.5-8.7-7.5-8.8-14.6-17.6-21.3-26.3l-1.8-2.3c-2.1-2.8-4.2-5.6-6.3-8.4q-0.5-0.8-1.1-1.5-3-4-5.7-8c-4.4-6.1-8.3-11.8-12-17.3-2.1-3.2-4.3-6.5-6.4-9.9-3.1-4.8-6.2-9.8-9.3-14.8l-1.9-3.2q-2.2-3.8-4.4-7.5c-2.8-4.9-5.5-9.8-8.2-14.6l-0.4-0.8c-2.2-4.1-4.2-8-6.2-11.8-1.9-3.8-3.9-7.7-5.7-11.6q-0.7-1.2-1.2-2.5c-4.4-9-8.2-17.3-11.5-25.1q-0.5-1-1-2.3-2.6-6.3-5.1-12.6c-1.8-4.5-3.6-9.2-5.3-14-1.7-4.4-3.4-9.2-5-13.9-1.1-3.4-2.3-6.9-3.4-10.4q-1.3-4.2-2.6-8.4c-0.3-1.2-0.8-2.6-1.2-4-0.7-2.4-1.5-5.2-2.3-8.1-1-3.8-2.1-7.8-3.1-11.8q-0.3-0.9-0.4-1.8c-24.6-173.4 57.1-333.9 130-437.9 92-131.6 222.7-247.7 358.5-318.8 70.9-37.2 155.6-37.2 226.5 0 135.8 71.1 266.5 187.2 358.5 318.8 72.9 104 154.6 264.5 130 437.9q-0.1 0.9-0.4 1.8c-1 3.8-2 7.8-3.1 11.6l-2.8 9.7q-0.3 1.3-0.7 2.5-0.8 2.6-1.6 5.1l-0.5 1.8c-0.9 2.9-1.9 5.7-2.8 8.6l-0.2 0.6q-0.7 2.1-1.4 4.1c-1.4 4.2-3 8.6-4.6 13-1.6 4.4-3.4 9.1-5.3 13.7-1.7 4.5-3.6 9.1-5.6 13.7-1.9 4.5-3.9 9.1-6 13.7-1.8 4.1-3.9 8.4-5.9 12.8l-1 1.8c-1.7 3.8-3.8 7.8-5.9 11.9-2.3 4.5-4.6 8.8-6.9 13.2-2.8 5.2-5.7 10.3-8.7 15.3-1.9 3.3-3.9 6.8-6 10.2q0 0.1-0.1 0.1 0 0.2-0.1 0.3-3.8 6.3-7.9 12.6c-4.7 7.4-9.2 14.2-13.7 20.6-2 3-4.1 6-6.3 9-1.7 2.4-3.5 4.8-5.3 7.3-2.7 3.8-5.5 7.4-8.3 11-2.7 3.7-5.4 7.1-8.2 10.6q-2.4 3-4.8 5.9l-8.5 10.2c-5.1 6-10.4 12-15.6 17.8-2.4 2.7-5.1 5.6-7.7 8.4l-6 6.3c-3 3.1-5.7 6-8.5 8.8-3.8 3.8-7.9 7.8-12 11.8-3.3 3.2-6.6 6.3-9.9 9.4q-1 0.9-1.9 1.7c-3.4 3.2-6.8 6.3-10.3 9.4-6.7 6-13.4 11.7-19.7 17l-4.9 4.1c-3.5 2.9-7 5.7-10.4 8.5-12 9.5-24.5 18.8-37.1 27.7-0.1 0-0.4 0.3-0.6 0.4q0 0-0.1 0.1c-97.1 68.2-210.8 102.4-324.5 102.4zm-317.5-137.5q5.5 4 11.1 8c183 129.1 429 129.3 612.2 0.5 0.3-0.2 0.5-0.4 0.7-0.5 12.1-8.5 24-17.5 35.5-26.6q5-4 9.9-8l4.8-4c6.1-5.1 12.5-10.6 19-16.4 3.3-3 6.6-5.9 9.8-9q0.5-0.4 0.9-0.8l0.3-0.3q0.3-0.2 0.5-0.5 4.8-4.4 9.5-8.9c3.9-3.8 7.9-7.7 11.7-11.6 2.8-2.8 5.3-5.4 7.9-8l5.7-6.1c2.6-2.8 5-5.3 7.3-8q7.8-8.6 15.1-17.1l8.2-9.9q2.3-2.7 4.4-5.5c2.7-3.3 5.3-6.6 7.9-10 2.6-3.4 5.2-6.9 7.8-10.5 1.8-2.4 3.5-4.7 5.2-7.1 2-2.8 4-5.6 5.9-8.4 4.3-6.2 8.6-12.6 13.1-19.8q3.8-5.9 7.5-11.8 0-0.1 0.1-0.2c1.9-3.3 3.9-6.6 5.8-9.9 2.9-4.9 5.5-9.7 8.2-14.5 2.1-4.1 4.3-8.1 6.4-12.3 0 0 0.2-0.4 0.3-0.5 1.9-3.6 3.7-7.3 5.5-11l1-2c1.8-3.8 3.7-7.8 5.5-11.9q3-6.5 5.7-12.9c1.8-4.3 3.6-8.6 5.3-12.9 1.8-4.5 3.4-8.8 5-13.1 1.6-4.3 3-8.2 4.3-12.2l1.5-4.5c0.9-2.6 1.8-5.2 2.6-7.9l0.6-1.9c0.4-1.5 0.9-3 1.4-4.6q0.1-0.5 0.3-1 0.2-0.7 0.4-1.3l2.7-9.5c0.9-3.2 1.8-6.7 2.7-10.1 17.7-126.9-26.5-273.8-124.5-413.8-89.2-127.4-215.7-239.9-347-308.6-61.4-32.2-134.9-32.2-196.3 0-131.4 68.7-257.8 181.2-347 308.6-98 140-142.2 286.9-124.5 413.8q1.4 5.3 2.8 10.6c0.7 2.7 1.4 5.1 2.2 7.5 0.4 1.5 0.7 2.5 1 3.5 0.9 2.9 1.7 5.5 2.5 8.1 1.1 3.3 2.2 6.7 3.3 9.9q2.2 6.7 4.6 13.2c1.7 4.5 3.3 8.8 5 13.1 1.7 4.3 3.4 8.4 5.1 12.5q0.1 0.1 0.1 0.2 0.3 0.5 0.4 0.9c3.2 7.7 6.9 15.7 11.2 24.7q0.2 0.3 0.3 0.6 0.3 0.6 0.6 1.1c1.8 3.8 3.6 7.5 5.5 11.1 2 3.9 4 7.6 6 11.3l0.3 0.6c2.5 4.7 5.1 9.4 7.7 14 1.4 2.3 2.8 4.7 4.3 7.1l1.8 3.2c2.9 4.7 5.9 9.4 8.9 14.1 2 3.2 4 6.2 6 9.2 3.5 5.3 7.2 10.8 11.5 16.7 1.7 2.5 3.3 4.8 5.1 7.1 0 0.1 0.4 0.5 0.4 0.6l-0.2-0.2q0.6 0.6 1 1.3c2 2.7 4.1 5.4 6.1 8.1l1.8 2.3c6.2 8.1 13.1 16.6 20.2 25 2.3 2.8 4.8 5.6 7.2 8.3 3.2 3.7 6.3 7.2 9.5 10.7 3.3 3.5 6.7 7.1 10 10.7 3.2 3.4 6.6 6.8 9.9 10.2 3.6 3.6 7 7 10.5 10.3 3.5 3.4 7 6.8 10.6 10 3.4 3.3 6.9 6.4 10.3 9.5l0.6 0.5q5.3 4.8 10.9 9.5c3.7 3.2 7.4 6.4 11.2 9.5 3.8 3.1 7.2 5.9 10.7 8.7q0.4 0.3 0.8 0.6 5.8 4.6 11.6 9.1c3.6 2.7 7.2 5.4 10.9 8.1q1 0.7 1.9 1.4zm-20.5 25.3q0 0 0 0 0 0 0 0zm724.8-82.4q-0.1 0.1-0.1 0.1 0 0 0.1-0.1zm-929.2-217.1q0 0 0 0 0 0 0 0zm-1-2.5q0 0 0 0 0 0 0 0zm1129.1-74.6z"/>
				</g>
				<g id="&lt;Group&gt;">
					<g id="&lt;Group&gt;">
						<g id="&lt;Group&gt;">
							<g id="&lt;Group&gt;">
								<path id="&lt;Path&gt;" class="s5" d="m1609.6 1552.8q-1.5 4.5-3.2 9.3c-30.1 77.2-89.3 118.4-125.1 71.8l21.4-104.9 14.5-71.3c55.9-38.2 130.4-21.1 92.4 95.1z"/>
							</g>
							<g id="&lt;Group&gt;">
								<path id="&lt;Compound Path&gt;" fill-rule="evenodd" class="s2" d="m1517.1 1655.5c-14.2 0-27-7-37.3-20.4l-0.5-0.7 36.2-177.9 0.6-0.4c30.5-20.9 64.9-24.5 85.4-9 13.4 10 32.5 37.2 10 106.3-1 3-2.1 6.1-3.3 9.3-20.1 51.7-53.3 87.9-84.6 92.3q-3.3 0.5-6.5 0.5zm-33.7-22.1c10.9 13.8 24.5 19.9 39.6 17.8 30-4.3 62-39.5 81.6-89.8 1.1-3.1 2.2-6.2 3.2-9.2 16.2-49.5 13.1-85.7-8.6-102-19.1-14.4-51.3-10.9-80.2 8.6z"/>
							</g>
						</g>
						<g id="&lt;Group&gt;" style="opacity: .3">
							<path id="&lt;Path&gt;" class="s2" d="m1609.6 1552.8q-1.5 4.5-3.2 9.3c-30.1 77.2-89.3 118.4-125.1 71.8l21.4-104.9c5-0.4 8-0.6 8-0.6q32.6 101.9 94.6 18.1c0 0 1.6 2.3 4.3 6.3z"/>
						</g>
						<g id="&lt;Group&gt;">
							<path id="&lt;Compound Path&gt;" fill-rule="evenodd" class="s2" d="m1517.2 1666.6c-17.6 0-33.8-8.6-46.2-24.8-2.3-3-3.2-6.8-2.5-10.5l35.9-176.2c0.7-3.4 2.7-6.3 5.5-8.2 34.8-23.8 74.6-27.1 99-8.2 16.3 12.7 39.4 46.1 9.8 127.8-22 56.4-57.8 94.4-93.6 99.5q-4 0.6-7.9 0.6zm-21.8-36.3c7.7 8 16.3 11.2 26.1 9.9 25.6-3.7 54.8-37 72.8-82.9 17.3-48 16.9-83.8-1.4-98-14.3-11.1-40.1-8.4-64 6.3z"/>
						</g>
						<g id="&lt;Group&gt;">
							<g id="&lt;Group&gt;">
								<path id="&lt;Path&gt;" class="s5" d="m698.4 1552.8q1.5 4.5 3.2 9.3c30.1 77.2 89.3 118.4 125.1 71.8l-21.4-104.9-14.5-71.3c-55.9-38.2-130.4-21.1-92.4 95.1z"/>
							</g>
							<g id="&lt;Group&gt;">
								<path id="&lt;Compound Path&gt;" fill-rule="evenodd" class="s2" d="m790.9 1656.2q-3.3 0-6.6-0.4c-31.5-4.5-65-40.9-85.2-92.7-1.2-3.3-2.3-6.4-3.3-9.5-22.7-69.5-3.4-97 10.2-107.2 20.8-15.6 55.5-12 86.3 9l0.9 0.6 36.4 178.5-0.8 1c-10.5 13.7-23.5 20.7-37.9 20.7zm-90-104.3c1 3.1 2.1 6.1 3.2 9.3 19.5 49.9 51.3 85 81 89.2 14.9 2.1 27.9-3.7 38.7-17.2l-35.5-173.9c-28.6-19.2-60.3-22.6-79-8.5-21.5 16.1-24.4 52-8.4 101.1z"/>
							</g>
						</g>
						<g id="&lt;Group&gt;" style="opacity: .5">
							<path id="&lt;Path&gt;" class="s4" d="m778.4 1652.3c-27.6-9.3-56.1-42.6-74.2-88.9q-1.7-4.8-3.2-9.3c-38-116.2 36.5-133.3 92.4-95.2l0.3 1.3c-50.6-19.1-101.5 7.4-68.8 107.6q1.5 4.6 3.2 9.4c12.9 32.9 31 59.3 50.3 75.1z"/>
						</g>
						<g id="&lt;Group&gt;">
							<path id="&lt;Compound Path&gt;" fill-rule="evenodd" class="s2" d="m790.8 1666.6q-3.9 0-7.9-0.6c-35.8-5.1-71.6-43.1-93.5-99.2-29.7-82-6.6-115.4 9.7-128.1 24.4-18.9 64.2-15.6 99 8.2 2.8 1.9 4.8 4.8 5.5 8.2l35.9 176.2c0.7 3.7-0.2 7.5-2.5 10.5-12.4 16.2-28.6 24.8-46.2 24.8zm-53-214.1c-8.9 0-16.8 2.2-22.7 6.8-18.3 14.2-18.7 50-1.2 98.3 17.8 45.6 47 78.9 72.6 82.6 9.9 1.3 18.4-1.9 26.1-9.9l-33.5-164.7c-14-8.6-28.7-13.1-41.3-13.1z"/>
						</g>
						<g id="&lt;Group&gt;">
							<g id="&lt;Group&gt;">
								<path id="&lt;Path&gt;" class="s5" d="m1509.3 1531.6v60.3c0 103.8-49.6 202.1-135.1 260.9-1.2 0.8-2.4 1.6-3.6 2.4-130.4 87.4-301.1 87.4-431.5 0q-1.8-1.2-3.6-2.4c-85.6-58.7-135.2-157.1-135.2-260.9v-60.3c0 0 0.2-3.8 0.6-10.8 3.3-55 17.8-302 20.2-308.3 77.6-208.9 853.6-157.7 688.2 319.1z"/>
							</g>
							<g id="&lt;Group&gt;">
								<path id="&lt;Compound Path&gt;" fill-rule="evenodd" class="s2" d="m1154.8 1923.8c-75.6 0-151.2-22.1-217.2-66.3q-1.7-1.1-3.3-2.2c-85.8-58.9-136.7-157.2-136.7-263.4v-60.3c0-0.1 0.2-4 0.6-11 5.3-90.8 17.9-302.6 20.3-309.1 20.4-54.8 89.5-95.4 189.5-111.4 96.6-15.5 209.1-5 301 28 91.7 32.9 295 138.2 203.1 404v59.8c0 106.1-51 204.5-136.4 263.1l-1.4 0.9q-1.1 0.8-2.1 1.5c-66.1 44.3-141.7 66.4-217.4 66.4zm-55.2-825.3c-31 0-61.6 2.3-90.7 6.9-98.1 15.7-165.6 55.1-185.3 108-1.9 7-11.9 170.1-20 307.6-0.4 6.9-0.6 10.8-0.6 10.8v60.1c0 104.4 50.1 201.1 134 258.6 1.5 1 2.6 1.8 3.6 2.5 130.1 87.2 298.3 87.2 428.5 0q1.1-0.8 2.2-1.6l1.4-0.9c83.9-57.6 133.9-154.3 133.9-258.6l0.2-61.2c90.7-261.5-109.4-365.1-199.6-397.5-63.4-22.8-136.7-34.7-207.6-34.7z"/>
							</g>
						</g>
						<g id="&lt;Group&gt;" style="opacity: .3">
							<path id="&lt;Path&gt;" class="s2" d="m1509.3 1531.6v60.3c0 103.8-49.6 202.1-135.1 260.9-1.2 0.8-2.4 1.6-3.6 2.4-130.4 87.4-301.1 87.4-431.5 0q-1.8-1.2-3.6-2.4-4.1-2.8-8.1-5.8c122.7 59.7 269.8 50.8 385.2-26.6 1.2-0.8 2.4-1.6 3.6-2.4 85.5-58.8 135.2-157.2 135.2-260.9l5.1-76c56.1-161.8-1.3-258.9-97.9-329.1 131.4 64.8 217.3 187.8 150.7 379.6z"/>
						</g>
						<g id="&lt;Group&gt;" style="opacity: .3">
							<path id="&lt;Path&gt;" class="s2" d="m1509.3 1531.6v24.5c-38.9-57.4-46.5-214.1-46.5-214.1-34 37-225.5 79.7-359.8 8.3-7.3-3.9-15.2 3.8-11.6 11.2 1.7 3.3 2.3 4.4 2.3 4.4-17.6 11-100.9 0.3-146-26-12.6-7.3-28.6 0.6-30.8 15-10.1 64.5-42.3 109.5-111 176.7q-2.6-5.4-5-10.8c3.3-55 17.8-302 20.2-308.3 77.6-208.9 853.6-157.7 688.2 319.1z"/>
						</g>
						<g id="&lt;Group&gt;" style="opacity: .5">
							<path id="&lt;Path&gt;" class="s4" d="m1301.9 1891.8c-117.9 48.3-254.3 36.2-362.8-36.6q-1.8-1.2-3.6-2.4c-85.6-58.7-135.2-157.1-135.2-260.9v-60.3c0 0 18.1-312 20.8-319.1 16.3-43.9 63.4-76.3 126.2-95.7-47.2 19.7-81.9 48.2-95.4 84.5-2.7 7.2-20.8 319.2-20.8 319.2v60.3c0 103.8 49.6 202.1 135.2 260.9 1.2 0.8 2.5 1.4 3.6 2.4 84.7 76.7 221.7 82.4 332 47.7z"/>
						</g>
						<g id="&lt;Group&gt;">
							<path id="&lt;Compound Path&gt;" fill-rule="evenodd" class="s2" d="m1154.8 1934.2c-77.6 0-155.2-22.7-223-68.1q-1.8-1.3-3.7-2.6c-88.2-60.5-140.9-162-140.9-271.6v-60.3q0-0.4 0-0.7c18.3-313.8 20.8-320.8 21.6-323 47.8-128.5 316.9-156.6 503.7-89.6 89 32 156.4 82.7 194.9 146.6 45.2 75.3 50.3 165.7 15 268.9v58.1c0 109.6-52.6 211.1-140.8 271.6l-3.7 2.5c-67.8 45.5-145.4 68.2-223.1 68.2zm-341.5-402.2v59.9c0 101 48.5 194.5 129.6 250.1q1.7 1.2 3.5 2.4c126.6 84.9 290.3 84.9 416.9 0l3.5-2.4c81.1-55.7 129.5-149.1 129.5-250.1v-60.3c0-1.4 0.2-2.9 0.7-4.2 87.7-252.9-106-353.1-193.3-384.5-189.3-68-430.2-30.3-470 73.2-2.4 16.8-13.4 196.9-20.4 315.9zm20.1-315.2q0 0.1-0.1 0.2 0.1-0.1 0.1-0.2zm-0.1 0.2q0 0 0 0 0 0 0 0zm-12.2-4.5z"/>
						</g>
						<g id="&lt;Group&gt;">
							<g id="&lt;Group&gt;">
								<path id="&lt;Path&gt;" class="s6" d="m1505.3 1084.6c97.9 125.1 85.7 342.7 3.2 456.8-63.1-34.8-67.2-199.4-67.2-199.4-149.4 40.6-300.5 15.8-437.5-102.2-2.9 46.3 36 89.4 36 89.4-17.7-0.5-33.5-3.1-47.6-7.4-49.6-14.8-79.1-50.7-97.2-95.8-17.4 156.6-18.4 191.4-94.7 305.6-76.2-163.1-90.2-364.4 36.7-424.5-176.9-60.9-111.6-184.3 40.6-74.7-74.7-107.4 19.6-148.8 39.2-30.5 110.1-201.1 593.9-130.5 659.5 97.9l-70.9-15.2q-0.2 0-0.1 0z"/>
							</g>
							<g id="&lt;Group&gt;">
								<path id="&lt;Compound Path&gt;" fill-rule="evenodd" class="s2" d="m1509.3 1545l-2.1-1.2c-59.4-32.8-67.6-173.7-68.5-198.3-158.7 42.1-304 8.5-432.3-100 0.4 42.6 35 81.5 35.4 81.9l4.2 4.7-6.3-0.2c-17.3-0.5-33.5-3-48.3-7.5-42.9-12.8-74-41.6-94.8-87.8l-0.9 8.6c-15.5 140.2-19.7 177.9-93.2 287.9l-2.6 4-2.1-4.3c-76.7-164.4-89.4-361.4 32.3-425.3-71.5-26-99.6-60.9-101.9-85.4-1.2-12.8 4.3-23.4 15.5-29.8 21-12 64.1-9.9 124.1 30-25.1-41.2-24.4-70.9-15.4-84.6 5.4-8 13.7-11.4 22.8-9.4 15.3 3.2 34.1 22.3 42.9 65.8 60.6-100.6 206.7-122.8 325-109.7 141 15.7 299.5 88.1 335.8 214.7l1.2 4.3-68.2-14.6c94.9 128.5 78.4 344-1.2 454.2zm-65.4-206.5l0.1 3.5c0 1.6 4.7 159.7 63.8 195.9 78.4-110.9 93.2-326.5-4.7-451.6l-3.4-4.4 6.6 0.2 66.1 14.1c-38-121.4-192.4-191-329.9-206.3-119-13.3-266.5 9.6-323.3 113.4l-3.8 6.8-1.3-7.7c-7.6-46.1-26.3-65.8-40-68.8-7-1.5-13.1 1.1-17.1 7.2-9 13.5-8.4 45.2 22.9 90.1l9 13-12.8-9.3c-64-46-109.9-48.9-129.7-37.5-9.2 5.3-13.8 14-12.8 24.5 2.2 22.5 30.7 57.6 104.3 83l6.3 2.1-6 2.9c-123.5 58.6-112.4 253-37.5 416.5 70.2-105.8 74.4-144 89.6-281.5l3.3-29.6 4 10c20.1 50.3 51.3 81.1 95.3 94.3 12.6 3.8 26.3 6.1 40.8 7-10-12.7-35-48.2-32.6-86.6l0.4-5.5 4.1 3.6c128.8 110.9 275.1 145.1 434.9 101.6z"/>
							</g>
						</g>
						<g id="&lt;Group&gt;" style="opacity: .3">
							<path id="&lt;Path&gt;" class="s2" d="m876.9 1198.7c6.5 12.5 12.4 26.6 16.4 43.4-15.8 143.1-19.4 179.3-93 289.5-8.6-18.5-16.5-37.4-23.3-56.6 60.4-93.7 67.4-146.6 81.4-272.9 1.1-9.7 14-12.1 18.5-3.4z"/>
						</g>
						<g id="&lt;Group&gt;" style="opacity: .5">
							<path id="&lt;Path&gt;" class="s4" d="m848.9 1013.8c-95.8-40.6-130.5 29.6-37.2 83.4-134.7-58.7-86.6-154.3 37.2-83.4z"/>
						</g>
						<g id="&lt;Group&gt;" style="opacity: .5">
							<path id="&lt;Path&gt;" class="s4" d="m834 1108.6q0.1 0 0.3 0.1c12 5.3 14.6 21.2 4.4 29.6-86.7 71.9-83.4 233.6-26.1 374.6q-5.8 9-12.3 18.7c-75.6-161.8-90-361.1 33.7-423z"/>
						</g>
						<g id="&lt;Group&gt;" style="opacity: .5">
							<path id="&lt;Path&gt;" class="s4" d="m871.7 1030.6l-0.3-0.1c-50.6-77.9-4.6-122.7 26.1-86.8-16.9 2.5-27 28.7-8.2 70.2 5 11.1-7 22.5-17.6 16.7z"/>
						</g>
						<g id="&lt;Group&gt;" style="opacity: .5">
							<path id="&lt;Path&gt;" class="s4" d="m1480.2 982.3c-83.3-38.4-195-64.2-296.3-64.6-15.6 29.9-68.3 28.5-90.4 7.1-57 10.3-105.3 31.9-135.4 67.8-8.6 10.3-25.4 9.7-32.2-2q-0.6-0.9-1.1-2c94.5-120.4 412.9-130.3 555.4-6.3z"/>
						</g>
						<g id="&lt;Group&gt;">
							<path id="&lt;Compound Path&gt;" fill-rule="evenodd" class="s2" d="m1508.5 1554.5c-2.1 0-4.3-0.6-6.3-1.7-57.5-31.7-70.4-149-73.2-194.2-148.6 36.1-285.6 6.5-408-87.9 8.9 27.7 28.2 49.5 28.5 49.7 3.4 3.9 4.3 9.5 2.1 14.3-2.2 4.6-6.8 7.5-11.8 7.5q-0.2 0-0.4 0c-60-1.8-105.6-26-136.1-72-13.8 123-21.7 163.1-92.2 268.7-2.6 3.9-7.1 6.1-11.8 5.7-4.7-0.3-8.9-3.2-10.8-7.5-74.9-160.3-89.3-351.5 18.6-427.6-61.7-26.9-86.8-61.3-89.2-86.4-1.6-16.8 5.9-31.3 20.6-39.8 19.8-11.3 56.1-12.1 104.8 12.6-10.7-29.2-7.9-51.2 0.5-63.9 7.7-11.5 20.3-16.7 33.6-13.9 19.2 4.2 35.1 22.8 44.9 51.7 69-88.6 208.1-108.3 321.9-95.7 144.4 16.1 307 91 344.6 222.1 1.3 4.4 0.1 9.2-3 12.5-3.1 3.4-7.8 4.8-12.3 3.9l-38.8-8.4c35.3 58 53.9 132.3 52.9 213.1-1.2 88.7-26.2 173.2-68.5 231.8-2.5 3.5-6.5 5.4-10.6 5.4zm-67.2-225.6c2.7 0 5.5 0.9 7.7 2.6 3.3 2.4 5.2 6.1 5.3 10.1 1.1 40.6 12.4 146 51 181.4 71.1-110.2 82.3-312-10.3-430.4-3.4-4.3-3.7-10.3-0.8-14.9 2.9-4.7 8.4-7 13.8-5.9l48.2 10.3c-45.3-106.4-187.4-167.8-314.8-182-145.5-16.2-268.4 26.3-313.2 108.1-2.6 4.9-8.1 7.5-13.6 6.6-5.5-1-9.8-5.3-10.7-10.8-7.2-43.8-24.1-58.6-32-60.3-1.9-0.4-4.2-0.4-6.3 2.8-5.4 8-7.6 34.8 22.8 78.4 3.6 5.2 2.9 12.3-1.6 16.8-4.5 4.4-11.6 5-16.8 1.3-56.1-40.4-99.9-47.7-118.5-37-5.7 3.3-8.2 8.1-7.6 14.6 2 20.9 32.9 51.9 97.4 74.1 5 1.8 8.5 6.3 8.8 11.6 0.3 5.3-2.7 10.3-7.5 12.6-68.2 32.3-85 106.1-87 162.3-2.5 66.6 14.5 146.9 46.9 223.3 58.8-91.7 63-129.5 77.5-261.1l2.1-18.9c0.6-5.9 5.3-10.7 11.2-11.5 5.9-0.8 11.6 2.6 13.9 8.1 21 52.6 55.5 82.9 105 92.1-11.2-18.5-23.2-45.5-21.4-74.2 0.3-5 3.4-9.3 8-11.3 4.5-1.9 9.8-1.1 13.5 2.2 126.1 108.5 269.2 142 425.5 99.5q1.7-0.5 3.5-0.5z"/>
						</g>
						<g id="&lt;Group&gt;">
							<path id="&lt;Path&gt;" class="s2" d="m1441.2 1355c-5.7 0-11-3.8-12.5-9.6-1.9-7 2.2-14.2 9.2-16 16.2-4.4 32.6-9.6 48.7-15.6 6.8-2.5 14.3 1 16.8 7.7 2.5 6.8-1 14.3-7.7 16.8-16.9 6.2-34.1 11.7-51.1 16.3q-1.7 0.4-3.4 0.4z"/>
						</g>
						<g id="&lt;Group&gt;" style="opacity: .3">
							<path id="&lt;Path&gt;" class="s2" d="m1508.5 1541.4c-63.1-34.8-67.2-199.4-67.2-199.4-149.4 40.6-300.5 15.8-437.5-102.2-2.9 46.3 36 89.4 36 89.4-17.7-0.5-33.5-3.1-47.6-7.4-71.5-117.7-41.1-145.5 61.7-109.3 285 92 492.6 106.4 451.4-127.9 97.9 125.1 85.7 342.7 3.2 456.8z"/>
						</g>
						<g id="&lt;Group&gt;" style="opacity: .2">
							<path id="&lt;Path&gt;" class="s7" d="m1436.1 1193.4c0 19.7-38.7 35.8-86.4 35.8-47.8 0-86.5-16.1-86.5-35.8 0-19.8 38.7-20.3 86.5-20.3 47.7 0 86.4 0.5 86.4 20.3z"/>
						</g>
						<g id="&lt;Group&gt;">
							<g id="&lt;Group&gt;">
								<path id="&lt;Path&gt;" class="s2" d="m1200.6 1773c0 0-18.8 12-67.6 12-10.5 0.7-40.8-1-79.1-35.9 0 0 17.7 50.9 78 50.9 0 0 34.3 3.2 68.7-27z"/>
							</g>
						</g>
						<g id="&lt;Group&gt;">
							<path id="&lt;Path&gt;" class="s2" d="m923.5 1546.5c4.1-13.3 13.9-24.4 26-31.9 12.2-7.6 26.7-11.4 41.2-11.3 14.4 0.1 28.8 4.3 40.8 11.8 12 7.5 21.8 18.2 26.4 31.4-13.2-4.5-24.4-8.1-35.4-10.5-11-2.3-21.5-3.5-32.1-3.6-10.6-0.2-21.1 0.8-32 3.1-10.9 2.3-21.9 5.9-34.9 11z"/>
						</g>
						<g id="&lt;Group&gt;">
							<path id="&lt;Path&gt;" class="s2" d="m1391.3 1546.5c-12.9-5.1-23.9-8.7-34.9-11-10.8-2.3-21.4-3.3-31.9-3.1-10.6 0.1-21.2 1.3-32.1 3.6-11.1 2.4-22.3 6-35.4 10.5 4.6-13.2 14.4-23.9 26.4-31.4 12-7.5 26.4-11.7 40.8-11.8 14.4-0.1 29 3.7 41.1 11.3 12.1 7.5 21.9 18.6 26 31.9z"/>
						</g>
						<g id="&lt;Group&gt;">
							<path id="&lt;Path&gt;" class="s2" d="m1048.7 1626c0 32.7-20.1 59.2-44.9 59.2-24.8 0-44.9-26.5-44.9-59.2 0-32.7 20.1-59.2 44.9-59.2 24.8 0 44.9 26.5 44.9 59.2z"/>
						</g>
						<g id="&lt;Group&gt;">
							<g id="&lt;Group&gt;">
								<path id="&lt;Path&gt;" class="s4" d="m1028.8 1612.3c0 10.9-6 19.8-13.5 19.8-7.5 0-13.6-8.9-13.6-19.8 0-11 6.1-19.9 13.6-19.9 7.5 0 13.5 8.9 13.5 19.9z"/>
							</g>
							<g id="&lt;Group&gt;">
								<path id="&lt;Compound Path&gt;" fill-rule="evenodd" class="s2" d="m1015.3 1634.8c-9.1 0-16.3-9.9-16.3-22.5 0-12.7 7.2-22.6 16.3-22.6 9.1 0 16.2 9.9 16.2 22.6 0 12.6-7.1 22.5-16.2 22.5zm0-39.7c-5.9 0-10.9 7.9-10.9 17.2 0 9.3 5 17.1 10.9 17.1 5.9 0 10.8-7.8 10.8-17.1 0-9.3-4.9-17.2-10.8-17.2z"/>
							</g>
						</g>
						<g id="&lt;Group&gt;">
							<path id="&lt;Path&gt;" class="s2" d="m1269.2 1626c0 32.7 20.1 59.2 44.9 59.2 24.8 0 44.8-26.5 44.8-59.2 0-32.7-20-59.2-44.8-59.2-24.8 0-44.9 26.5-44.9 59.2z"/>
						</g>
						<g id="&lt;Group&gt;">
							<g id="&lt;Group&gt;">
								<path id="&lt;Path&gt;" class="s4" d="m1289.1 1612.3c0 10.9 6 19.8 13.5 19.8 7.5 0 13.6-8.9 13.6-19.8 0-11-6.1-19.9-13.6-19.9-7.5 0-13.5 8.9-13.5 19.9z"/>
							</g>
							<g id="&lt;Group&gt;">
								<path id="&lt;Compound Path&gt;" fill-rule="evenodd" class="s2" d="m1302.6 1634.8c-9.1 0-16.3-9.9-16.3-22.5 0-12.7 7.2-22.6 16.3-22.6 9.1 0 16.3 9.9 16.3 22.6 0 12.6-7.2 22.5-16.3 22.5zm0-39.7c-5.9 0-10.8 7.9-10.8 17.2 0 9.3 4.9 17.1 10.8 17.1 5.9 0 10.9-7.8 10.9-17.1 0-9.3-5-17.2-10.9-17.2z"/>
							</g>
						</g>
					</g>
				</g>
			</g>
			<path id="&lt;Path&gt;" class="s8" d="m1687.8 2711.4h-1042.4l-357.1-1337.2 1753.1 15.3z"/>
			<g id="&lt;Group&gt;">
				<g id="&lt;Group&gt;">
					<g id="&lt;Group&gt;">
						<path id="&lt;Path&gt;" class="s9" d="m1810.1 2679.1c-7 34.4-25.6 64-51.3 85.1-25.7 20.9-58.4 33.3-93.5 33.3h-997.4c-70.3 0-130.8-49.5-144.8-118.4z"/>
					</g>
					<g id="&lt;Group&gt;">
						<path id="&lt;Compound Path&gt;" fill-rule="evenodd" class="s2" d="m1665.3 2800.2h-997.4c-71.3 0-133.3-50.7-147.5-120.5l-0.6-3.3h1293.6l-0.7 3.3c-6.8 33.9-25.4 64.6-52.2 86.6-26.8 21.9-60.6 33.9-95.2 33.9zm-1138.9-118.4c14.9 65.7 73.9 113 141.5 113h997.4c33.3 0 66-11.6 91.8-32.7 25-20.5 42.5-48.9 49.6-80.3z"/>
					</g>
				</g>
				<g id="&lt;Group&gt;">
					<path id="&lt;Compound Path&gt;" fill-rule="evenodd" class="s2" d="m1665.3 2813.8h-997.4c-77.7 0-145.3-55.3-160.7-131.4-1-4.8 0.2-9.8 3.3-13.6 3.1-3.7 7.7-5.9 12.6-5.9h1287c4.9 0 9.5 2.2 12.6 5.9 3.1 3.8 4.3 8.8 3.3 13.6-15.4 76.1-83 131.4-160.7 131.4zm-1120.7-118.4c18.8 50.8 67.9 85.8 123.3 85.8h997.4c55.4 0 104.4-35.1 123.3-85.8z"/>
				</g>
				<g id="&lt;Group&gt;" style="opacity: .3">
					<path id="&lt;Path&gt;" class="s2" d="m1810.1 2679.1c-7 34.4-25.6 64-51.3 85.1-25.7 20.9-58.4 33.3-93.5 33.3h-617c101.4-4.8 191.3-32.8 268.7-86.1 0 0 5.3-13 17.1-32.3z"/>
				</g>
				<g id="&lt;Group&gt;">
					<g id="&lt;Group&gt;">
						<path id="&lt;Path&gt;" class="s9" d="m1809.7 2053.7l-52.1 593.7c-3.1 36.2-33.5 64-69.8 64h-1042.4c-36.3 0-66.6-27.8-69.9-64l-52-593.7c-5.1-58.3 40.9-108.5 99.4-108.5h1087.4c19.2 0 37 5.4 52.1 14.6 31.1 19.1 50.7 54.7 47.3 93.9z"/>
					</g>
					<g id="&lt;Group&gt;">
						<path id="&lt;Compound Path&gt;" fill-rule="evenodd" class="s2" d="m1687.8 2714.1h-1042.4c-38 0-69.2-28.6-72.6-66.5l-52-593.7c-2.5-28.5 7.2-57 26.5-78.2 19.4-21.1 46.9-33.2 75.6-33.2h1087.4c18.9 0 37.4 5.2 53.5 15 33.4 20.5 52 57.5 48.6 96.4l-52.1 593.7c-3.3 37.9-34.5 66.5-72.5 66.5zm-1064.9-766.2c-27.2 0-53.2 11.5-71.6 31.5-18.3 20-27.5 47-25.1 74l52 593.7c3.2 35.1 32 61.6 67.2 61.6h1042.4c35.2 0 64.1-26.5 67.1-61.6l52.1-593.7c3.2-36.8-14.4-71.8-46.1-91.3-15.2-9.3-32.7-14.2-50.6-14.2z"/>
					</g>
				</g>
				<g id="&lt;Group&gt;" style="opacity: .7">
					<path id="&lt;Path&gt;" class="s4" d="m1793.1 1989.2c-12.7-5.9-26.9-9.2-42-9.2h-1087.5c-58.5 0-104.4 50.2-99.3 108.5l52 593.6c0.8 9.3 3.4 18 7.5 25.8-26.1-8.4-45.7-31.8-48.3-60.5l-52-593.7c-5.1-58.3 40.9-108.5 99.4-108.5h1087.4c34.7 0 64.9 17.6 82.8 44z"/>
				</g>
				<g id="&lt;Group&gt;">
					<path id="&lt;Compound Path&gt;" fill-rule="evenodd" class="s2" d="m1687.8 2727.6h-1042.4c-45.1 0-82.1-33.9-86-78.8l-52.1-593.7c-2.8-32.3 8.1-64.6 30-88.5 21.9-23.9 53.1-37.7 85.6-37.7h1087.4c32.5 0 63.6 13.8 85.6 37.7 21.9 23.9 32.8 56.2 30 88.5l-52.1 593.7c-3.9 44.9-40.9 78.8-86 78.8zm-1064.9-766.1c-23.7 0-45.6 9.6-61.6 27.1-16 17.4-23.7 40-21.6 63.6l52.1 593.7c2.4 28 25.5 49.2 53.6 49.2h1042.4c28.1 0 51.2-21.2 53.6-49.2l52.1-593.7c2.1-23.6-5.6-46.2-21.6-63.6-16-17.5-37.9-27.1-61.6-27.1z"/>
				</g>
				<g id="&lt;Group&gt;" style="opacity: .3">
					<path id="&lt;Path&gt;" class="s2" d="m1809.7 2053.7l-52.1 593.7c-3.1 36.2-33.5 64-69.8 64h-940.3c578.6-45.6 936.6-279.3 1014.7-751.6h0.2c31.1 19.1 50.7 54.7 47.3 93.9z"/>
				</g>
				<g id="&lt;Group&gt;" style="opacity: .3">
					<path id="&lt;Path&gt;" class="s4" d="m785.9 2443.5l-65.3 6.1c-17 1.6-32-10.8-33.6-27.8l-22.4-239.7c-1.6-16.9 10.9-31.9 27.8-33.5l65.3-6.1c16.9-1.6 31.9 10.9 33.5 27.8l22.4 239.7c1.6 16.9-10.8 31.9-27.7 33.5z"/>
				</g>
				<g id="&lt;Group&gt;">
					<g id="&lt;Group&gt;">
						<path id="&lt;Path&gt;" class="s4" d="m1256.8 2459.5l-11.9 9.6-1.5 30.3c-0.3 8.1-7.6 14.5-16.2 14.2h-0.1c-8.6-0.2-15.3-6.9-15-15l0.4-12.8c0-2.5-2-4.6-4.6-4.7-2.7-0.1-4.9 1.9-4.9 4.4l-0.4 12.8c-0.2 8.1-7.3 14.5-15.9 14.3-8.6-0.2-15.4-7-15.3-15.1l0.1-10.7c0.1-3.6-3-6.7-6.8-6.8-3.9-0.1-7 2.8-7 6.5l-0.1 10.7c0 8.1-7 14.4-15.5 14.2-8.6-0.2-15.6-6.9-15.6-15l-0.1-12.8c-0.1-2.5-2.2-4.6-4.8-4.7-2.6 0-4.7 1.9-4.7 4.4l0.2 12.8c0.1 8.1-6.7 14.5-15.2 14.3h-0.1c-8.5-0.2-15.6-7-15.8-15.1l-0.9-30.1-11.6-10.1c-30.2-26.2-49-64.1-51.3-104.5-4.6-83.3 60.2-154.8 145.1-153.5 85.3 1.4 149.7 75.6 143.5 159.5-3 40.7-22.9 78-54 102.9z"/>
					</g>
					<g id="&lt;Group&gt;">
						<path id="&lt;Compound Path&gt;" fill-rule="evenodd" class="s2" d="m1167.7 2170.9c47.6 0.7 91.5 20.5 123.7 55.8 32.6 35.6 49.2 83.7 45.6 131.9-3.5 47.5-26.8 91.8-63.7 121.4l-2.7 2.2-0.9 18.4c-1 22.1-19.5 39.3-42.1 39.3q-0.5 0-1.2 0c-7.2-0.2-14-2.1-20-5.5-5.8 2.9-12.3 4.5-19.3 4.5q-0.5 0-1.1 0c-8.2-0.2-15.8-2.8-22.2-7-6.2 3.7-13.5 5.8-21.3 5.8q-0.6 0-1.1 0c-7.4-0.2-14.2-2.2-20.1-5.5-5.8 2.9-12.3 4.5-19 4.5-0.4 0-0.7 0-1.2 0-22.6-0.6-40.8-18.5-41.4-40.6l-0.5-18.7-2.9-2.5c-35.7-31-57.7-75.8-60.3-122.8-2.6-47.6 14.4-94.6 46.8-128.8 32-33.8 75.4-52.5 122.1-52.5q1.4 0 2.8 0.1zm-145.5 179.7c2.3 40.4 21.1 78.3 51.3 104.5l11.6 10.1 0.9 30.1c0.2 8.1 7.3 14.9 15.8 15.1h0.1q0.2 0 0.4 0c8.3 0 14.9-6.3 14.8-14.3l-0.2-12.8c0-2.4 2-4.4 4.6-4.4q0 0 0.1 0c2.6 0.1 4.7 2.2 4.8 4.7l0.1 12.8c0 8.1 7 14.8 15.6 15q0.2 0 0.4 0c8.3 0 15.1-6.3 15.1-14.2l0.1-10.7c0-3.6 3-6.5 6.8-6.5q0.1 0 0.2 0c3.8 0.1 6.9 3.2 6.8 6.8l-0.1 10.7c-0.1 8.1 6.7 14.9 15.3 15.1q0.2 0 0.4 0c8.4 0 15.3-6.3 15.5-14.3l0.4-12.8c0-2.4 2.2-4.4 4.7-4.4q0.1 0 0.1 0h0.1c2.6 0.1 4.6 2.2 4.6 4.7l-0.4 12.8c-0.3 8.1 6.4 14.8 15 15h0.1q0.2 0.1 0.4 0.1c8.4 0 15.5-6.3 15.8-14.3l1.5-30.3 11.9-9.6c31.1-24.9 51-62.2 54-102.9 6.2-83.9-58.2-158.1-143.5-159.5q-1.2 0-2.4 0c-83.7 0-147.2 71-142.7 153.5z"/>
					</g>
					<g id="&lt;Group&gt;">
						<g id="&lt;Group&gt;">
							<path id="&lt;Path&gt;" class="s2" d="m1109.8 2316.2c-22.6-0.1-39.9 18.4-38.8 41 1.1 22.1 19.6 39.8 41.5 40 21.9 0.2 39.4-17.4 39-39.5-0.4-22.7-19.1-41.3-41.7-41.5z"/>
						</g>
						<g id="&lt;Group&gt;">
							<path id="&lt;Path&gt;" class="s2" d="m1222.5 2315.1c-22.8-0.1-41.3 18.4-41.4 41.1-0.1 22.2 17.7 40 39.7 40.2 22.1 0.1 40.6-17.5 41.5-39.7 0.8-22.7-17-41.5-39.8-41.6z"/>
						</g>
					</g>
				</g>
			</g>
		</g>
	</g>
</svg>