<svg version="1.2" xmlns="http://www.w3.org/2000/svg" viewBox="0 0 600 450" width="600" height="450">
	<title>New Project</title>
	<style>
		.s0 { opacity: .5;fill: #9bd4ff } 
		.s1 { fill: #9bd4ff } 
		.s2 { fill: #ff9269 } 
		.s3 { fill: #ffffff } 
		.s4 { fill: #557fff } 
		.s5 { fill: #ffe5c1 } 
		.s6 { fill: #fcc7c7 } 
		.s7 { fill: #fbbcbd } 
		.s8 { fill: #230c5b } 
		.s9 { fill: #fff8f0 } 
		.s10 { fill: #ea6935 } 
		.s11 { opacity: .1;fill: #0050dd } 
		.s12 { fill: #ffce9a } 
		.s13 { fill: #ffd8ae } 
		.s14 { fill: #221276 } 
		.s15 { fill: #200a54 } 
		.s16 { opacity: .5;mix-blend-mode: multiply;fill: #557fff } 
		.s17 { opacity: .1;fill: #3f72dd } 
		.s18 { fill: #010d61 } 
	</style>
	<g id="Layer 1">
		<g id="&lt;Group&gt;">
			<path id="&lt;Path&gt;" class="s0" d="m334.1 178c9.1 3.1 19.2 2.2 28-1.6 22.7-9.7 81.6-30.4 104 5.4 28 44.7 5.8 81 15.8 102.3 10 21.4 75 63 47.1 94.5-18.4 20.8-59.1 5.4-84.9-7.6-26.3-13.2-53.6-24.5-81.9-33-29-8.6-62.1-16.6-82.5-15.2-42.9 3-89.8 7.6-108.1 21.7-18.3 14.1-54.9 59.3-85.6 62.1-30.8 2.8-56.8-16.3-51.4-58.1 5.4-41.8-26.4-8.5-32.1-45.7-5.8-37.2 28.3-66.2 61.6-87.7 33.2-21.4 24.7-106.2 63.9-107.1 39.1-1 60.6 42.4 79.5 29.9 19-12.4 68.9-70.8 93.9-34.3 21.2 31.1 5.2 65 32.7 74.4z"/>
			<g id="&lt;Group&gt;">
				<g id="&lt;Group&gt;">
					<path id="&lt;Path&gt;" class="s1" d="m102.7 335.3c0.4-0.2 0.6-0.6 0.6-1-0.1-0.6-0.6-0.9-1.2-0.8-3.1 0.5-6.3 1.4-9.3 2.3-1.8 0.6-3.8 1.2-5.7 1.6-22.9 5.6-45.4-3.4-60.2-12-0.5-0.3-1.1-0.1-1.4 0.3-0.2 0.5-0.1 1.1 0.4 1.4 15.2 8.7 38.2 18 61.7 12.2 1.9-0.5 3.9-1.1 5.8-1.6 2.9-0.9 6-1.8 9.1-2.3q0.1 0 0.2-0.1z"/>
				</g>
				<path id="&lt;Path&gt;" class="s1" d="m2.2 321.6c-0.9-0.9-1.7-1.8-2.1-2.9-1.2-3 0.9-6.5 3.9-7.8 2.9-1.2 6.3-0.7 9.4 0.3 5.2 1.8 15.6 16.5 15.6 16.5 0 0-21.6-1.1-26.8-6.1z"/>
				<path id="&lt;Path&gt;" class="s1" d="m19.5 345.4c-1 0.1-2 0.1-2.9-0.2-2.5-0.8-3.6-4-2.9-6.5 0.8-2.5 2.9-4.4 5.1-5.8 3.8-2.4 18.6-1.2 18.6-1.2 0 0-12 13-17.9 13.7z"/>
				<path id="&lt;Path&gt;" class="s1" d="m27.5 315c-0.2-1.2-0.3-2.3 0-3.4 0.7-3 4.3-4.5 7.3-3.8 3 0.7 5.3 3 7.1 5.5 3 4.2 2.7 21.4 2.7 21.4 0 0-15.9-12.9-17.1-19.7z"/>
				<path id="&lt;Path&gt;" class="s1" d="m40.3 360.7c-1.1 0.6-2.2 1.1-3.4 1.2-3.1 0.2-5.8-2.8-6.1-6-0.3-3.1 1.2-6.2 3-8.8 3.2-4.4 20.3-9.8 20.3-9.8 0 0-7.5 20-13.8 23.4z"/>
				<path id="&lt;Path&gt;" class="s1" d="m46.9 320.1c-0.3-1.2-0.4-2.4-0.2-3.6 0.7-3 4.5-4.7 7.6-4.1 3.1 0.6 5.6 3 7.5 5.5 3.2 4.3 3.4 22.2 3.4 22.2 0 0-16.9-13-18.3-20z"/>
				<path id="&lt;Path&gt;" class="s1" d="m67 316c-0.3-1.3-0.5-2.7-0.2-4 0.8-3.5 5-5.3 8.5-4.6 3.5 0.7 6.3 3.3 8.5 6.1 3.6 5 3.9 25.1 3.9 25.1 0 0-19.1-14.7-20.7-22.6z"/>
				<path id="&lt;Path&gt;" class="s1" d="m64.9 367.3c-1 0.8-2 1.6-3.2 2-3.2 0.9-6.7-1.6-7.8-4.8-1.1-3.2-0.2-6.7 1.1-9.8 2.3-5.3 18.7-15 18.7-15 0 0-3.1 22.6-8.8 27.6z"/>
				<path id="&lt;Path&gt;" class="s1" d="m84.4 363.9c-0.9 0.8-2 1.6-3.2 2-3.2 0.9-6.7-1.6-7.8-4.8-1-3.2-0.2-6.7 1.1-9.8 2.3-5.3 18.8-15 18.8-15 0 0-3.2 22.6-8.9 27.6z"/>
			</g>
			<g id="&lt;Group&gt;">
				<g id="&lt;Group&gt;">
					<g id="&lt;Group&gt;">
						<path id="&lt;Path&gt;" class="s2" d="m467.2 345.7c-0.4-0.1-0.7-0.3-0.8-0.7-0.1-0.4 0.2-0.9 0.6-1 2.7-0.6 5.5-0.8 8.2-1 1.7-0.2 3.4-0.3 5-0.5 20-2.8 35-17 44.1-28.5 0.3-0.3 0.9-0.4 1.2-0.1 0.4 0.3 0.4 0.8 0.1 1.2-9.3 11.7-24.6 26.2-45.1 29-1.7 0.2-3.5 0.4-5.2 0.5-2.6 0.2-5.3 0.5-7.9 1q-0.1 0.1-0.2 0.1z"/>
					</g>
					<path id="&lt;Path&gt;" class="s2" d="m542.8 303.3c0.4-1 0.8-1.9 0.8-3 0-2.7-2.8-4.8-5.6-4.9-2.7-0.1-5.3 1.4-7.4 3.1-3.6 3.1-7.2 18.1-7.2 18.1 0 0 16.8-7.7 19.4-13.3z"/>
					<path id="&lt;Path&gt;" class="s2" d="m537 328.1c0.8-0.2 1.6-0.5 2.3-1 1.7-1.5 1.6-4.3 0.2-6.1-1.4-1.8-3.6-2.6-5.8-3-3.8-0.7-15.2 4.8-15.2 4.8 0 0 13.6 6.6 18.5 5.3z"/>
					<path id="&lt;Path&gt;" class="s2" d="m524.8 346.3c1 0.2 2 0.2 3-0.1 2.6-0.8 3.7-4.1 3-6.7-0.7-2.6-2.9-4.5-5.2-6-3.9-2.5-19.2-1.5-19.2-1.5 0 0 12.3 13.6 18.4 14.3z"/>
					<path id="&lt;Path&gt;" class="s2" d="m504 360.3c1 0.4 2.1 0.7 3.2 0.6 2.9-0.2 4.8-3.3 4.7-6.2-0.2-2.9-1.9-5.4-4-7.5-3.5-3.5-19.5-6-19.5-6 0 0 9.5 16.9 15.6 19.1z"/>
					<path id="&lt;Path&gt;" class="s2" d="m482.3 364.4c0.8 0.6 1.6 1.1 2.6 1.4 2.6 0.6 5.2-1.6 5.9-4.2 0.7-2.5-0.2-5.3-1.4-7.6-2-4.1-15.4-10.9-15.4-10.9 0 0 3.5 17.6 8.3 21.3z"/>
				</g>
				<path id="&lt;Path&gt;" class="s2" d="m520.7 307.6c-0.1-0.9-0.4-1.8-0.9-2.5-1.4-1.9-4.4-1.9-6.3-0.6-2 1.3-3 3.6-3.6 5.9-0.9 3.9 4.1 16.2 4.1 16.2 0 0 7.8-13.8 6.7-19z"/>
				<path id="&lt;Path&gt;" class="s2" d="m489.2 324.1c-0.2-0.9-0.4-1.8-1-2.5-1.3-1.9-4.4-1.9-6.3-0.6-1.9 1.3-3 3.6-3.5 5.9-1 3.9 4.1 16.2 4.1 16.2 0 0 7.7-13.8 6.7-19z"/>
				<path id="&lt;Path&gt;" class="s2" d="m505.4 318c-0.1-0.9-0.4-1.8-0.9-2.6-1.4-2-4.6-2.2-6.6-0.8-2.1 1.3-3.3 3.7-3.9 6.1-1.1 4.1 3.8 17.2 3.8 17.2 0 0 8.6-14.4 7.6-19.9z"/>
			</g>
			<g id="&lt;Group&gt;">
				<g id="&lt;Group&gt;">
					<path id="&lt;Path&gt;" class="s3" d="m96.2 320.2c0.4 0.2 0.9 0.2 1.2 0 0.4-0.4 0.5-1 0.2-1.4-2-2.5-4.3-4.8-6.5-7-1.4-1.4-2.9-2.8-4.2-4.3-15.8-17.4-18.7-41.5-18.2-58.6 0-0.6-0.4-1-1-1-0.5 0-0.9 0.4-1 0.9-0.4 17.5 2.5 42.1 18.8 60 1.3 1.5 2.8 2.9 4.2 4.3 2.2 2.2 4.4 4.5 6.4 6.9q0 0.1 0.1 0.2z"/>
				</g>
				<path id="&lt;Path&gt;" class="s3" d="m60.2 225.4c0.3-1.2 0.8-2.3 1.5-3.3 2.1-2.4 6.2-2.2 8.7-0.2 2.5 1.9 3.7 5.2 4.3 8.3 0.9 5.5-7.1 21.7-7.1 21.7 0 0-9.3-19.5-7.4-26.5z"/>
				<path id="&lt;Path&gt;" class="s3" d="m47.6 252c-0.6-0.8-1.1-1.7-1.3-2.7-0.4-2.5 1.8-5 4.4-5.6 2.6-0.5 5.2 0.4 7.5 1.7 3.9 2.2 10 15.7 10 15.7 0 0-17.2-4.3-20.6-9.1z"/>
				<path id="&lt;Path&gt;" class="s3" d="m78.1 244.4c0.9-0.7 1.9-1.3 3-1.6 2.9-0.8 6 1.7 6.8 4.6 0.8 2.9-0.1 6.1-1.4 8.8-2.3 4.7-17.5 12.7-17.5 12.7 0 0 3.7-20.2 9.1-24.5z"/>
				<path id="&lt;Path&gt;" class="s3" d="m44 277.5c-1-0.6-1.9-1.3-2.6-2.3-1.7-2.7-0.3-6.5 2.3-8.3 2.6-1.8 6.1-1.9 9.2-1.5 5.4 0.7 18.4 13 18.4 13 0 0-21.2 3-27.3-0.9z"/>
				<path id="&lt;Path&gt;" class="s3" d="m82.9 263.9c0.9-0.8 1.9-1.5 3-1.8 3.1-0.9 6.3 1.6 7.3 4.6 0.9 3 0.1 6.3-1.3 9.2-2.2 5-17.8 13.7-17.8 13.7 0 0 3.3-21.1 8.8-25.7z"/>
				<path id="&lt;Path&gt;" class="s3" d="m96.1 279.6c1-0.9 2.1-1.7 3.4-2.1 3.5-0.9 7.1 1.8 8.2 5.3 1 3.4 0.1 7.1-1.4 10.3-2.6 5.6-20.2 15.5-20.2 15.5 0 0 3.8-23.8 10-29z"/>
				<path id="&lt;Path&gt;" class="s3" d="m50 302.3c-1.1-0.5-2.3-1-3.2-1.9-2.4-2.3-1.9-6.6 0.4-9.1 2.3-2.5 5.8-3.4 9.2-3.7 5.8-0.5 22.1 9.3 22.1 9.3 0 0-21.3 8-28.5 5.4z"/>
			</g>
			<g id="&lt;Group&gt;">
				<g id="&lt;Group&gt;">
					<path id="&lt;Path&gt;" class="s3" d="m457.3 283.7c-0.2 0.3-0.6 0.5-1.1 0.4-0.5-0.2-0.8-0.7-0.6-1.2 1-3.1 2.4-6.1 3.7-8.9 0.8-1.8 1.7-3.6 2.4-5.4 8.9-21.8 3.3-45.4-3-61.3-0.2-0.6 0-1.1 0.5-1.3 0.5-0.2 1.1 0 1.3 0.5 6.4 16.3 12.2 40.4 3 62.8-0.7 1.9-1.6 3.7-2.4 5.5-1.3 2.8-2.7 5.7-3.6 8.7q-0.1 0.1-0.2 0.2z"/>
				</g>
				<path id="&lt;Path&gt;" class="s3" d="m458.5 182.3c-0.7-1-1.4-1.9-2.5-2.5-2.8-1.6-6.5 0-8.2 2.7-1.7 2.7-1.7 6.2-1.1 9.3 0.9 5.4 14 17.9 14 17.9 0 0 2-21.5-2.2-27.4z"/>
				<path id="&lt;Path&gt;" class="s3" d="m479.5 202.9c0.3-0.9 0.5-1.9 0.3-2.9-0.4-2.6-3.4-4.1-6-3.8-2.6 0.4-4.8 2.2-6.5 4.2-2.9 3.4-3.9 18.2-3.9 18.2 0 0 14.6-9.9 16.1-15.7z"/>
				<path id="&lt;Path&gt;" class="s3" d="m448.3 206.3c-1.1-0.3-2.2-0.6-3.4-0.5-3 0.3-5 3.7-4.8 6.7 0.3 3 2.2 5.7 4.4 7.8 3.8 3.6 20.8 5.9 20.8 5.9 0 0-10.5-17.7-17-19.9z"/>
				<path id="&lt;Path&gt;" class="s3" d="m491.7 225.7c0.7-0.9 1.4-2 1.6-3.1 0.7-3.1-1.9-6.2-5-7-3.1-0.8-6.3 0.3-9.1 1.7-4.8 2.5-12.8 18.6-12.8 18.6 0 0 21-4.5 25.3-10.2z"/>
				<path id="&lt;Path&gt;" class="s3" d="m450.5 226.2c-1.1-0.4-2.3-0.7-3.5-0.6-3.1 0.2-5.3 3.7-5.2 6.8 0.2 3.2 2.1 6 4.3 8.2 3.9 3.9 21.5 6.8 21.5 6.8 0 0-10.4-18.7-17.1-21.2z"/>
				<path id="&lt;Path&gt;" class="s3" d="m443.5 245.5c-1.3-0.5-2.6-0.8-3.9-0.7-3.6 0.2-6.1 4.1-5.9 7.7 0.2 3.5 2.4 6.7 4.9 9.3 4.3 4.3 24.3 7.5 24.3 7.5 0 0-11.8-21-19.4-23.8z"/>
				<path id="&lt;Path&gt;" class="s3" d="m494.6 251c0.9-0.8 1.9-1.7 2.4-2.9 1.4-3-0.6-6.8-3.6-8.4-3-1.5-6.6-1.2-9.9-0.3-5.6 1.5-17.5 16.3-17.5 16.3 0 0 22.7 0.2 28.6-4.7z"/>
			</g>
			<g id="&lt;Group&gt;">
				<g id="&lt;Group&gt;">
					<path id="&lt;Path&gt;" class="s3" d="m247.2 263.2c-0.5 0.1-0.9-0.1-1.1-0.5-0.3-0.5-0.1-1.1 0.3-1.3 2.8-1.3 5.8-2.3 8.7-3.2 1.8-0.6 3.7-1.2 5.5-1.9 21.2-8.1 33-28 39.2-43.2 0.2-0.5 0.8-0.7 1.2-0.5 0.5 0.3 0.8 0.8 0.6 1.3-6.3 15.6-18.4 35.8-40.2 44.2-1.8 0.7-3.7 1.3-5.5 1.9-2.9 0.9-5.8 1.8-8.5 3.1q-0.1 0.1-0.2 0.1z"/>
				</g>
				<path id="&lt;Path&gt;" class="s3" d="m316.6 196.3c0.1-1.1 0.2-2.3-0.2-3.5-0.9-3.1-4.8-4.7-7.8-4.1-3.1 0.6-5.4 2.9-7.2 5.4-2.9 4.3-1.8 22.1-1.8 22.1 0 0 16-12.9 17-19.9z"/>
				<path id="&lt;Path&gt;" class="s3" d="m318 225.3c0.8-0.5 1.6-1 2.1-1.8 1.5-2 0.3-5.2-1.8-6.8-2.1-1.7-4.9-2-7.5-1.9-4.5 0.2-15.3 9.3-15.3 9.3 0 0 17.5 3.9 22.5 1.2z"/>
				<path id="&lt;Path&gt;" class="s3" d="m292.8 205c-0.5-1-1.2-2.1-2.1-2.8-2.4-2-6.1-1.2-8 1-1.9 2.2-2.3 5.4-2.1 8.3 0.3 5.2 11.2 19 11.2 19 0 0 4.3-19.3 1-25.5z"/>
				<path id="&lt;Path&gt;" class="s3" d="m311.5 249.3c1.1-0.1 2.3-0.3 3.3-0.9 2.6-1.6 2.7-5.5 1-8.3-1.7-2.7-4.8-4.4-7.8-5.4-5.3-1.9-21.9 3.1-21.9 3.1 0 0 18.3 12.2 25.4 11.5z"/>
				<path id="&lt;Path&gt;" class="s3" d="m281 219.8c-0.6-1-1.2-2.1-2.1-2.9-2.5-2.1-6.4-1.4-8.4 0.8-2.1 2.3-2.5 5.5-2.4 8.6 0.1 5.4 11.1 20.1 11.1 20.1 0 0 5-20 1.8-26.6z"/>
				<path id="&lt;Path&gt;" class="s3" d="m262.8 227.7c-0.6-1.2-1.3-2.4-2.3-3.3-2.8-2.4-7.2-1.6-9.5 0.9-2.3 2.5-2.8 6.2-2.7 9.7 0.2 6 12.6 22.6 12.6 22.6 0 0 5.6-22.6 1.9-29.9z"/>
				<path id="&lt;Path&gt;" class="s3" d="m296.5 268.3c1.2 0.1 2.5 0.2 3.7-0.2 3.1-1 4.2-5 3-8.2-1.1-3.2-4-5.6-6.9-7.4-5.1-3-23.9-1.8-23.9-1.8 0 0 16.5 16.7 24.1 17.6z"/>
			</g>
			<g id="&lt;Group&gt;">
				<g id="&lt;Group&gt;">
					<path id="&lt;Compound Path&gt;" class="s4" d="m67.8 133.3l-0.6-1.1 4.5-2.6 0.7 1.1zm9-5.3l-0.7-1.1 4.6-2.7 0.6 1.1zm9.1-5.3l-0.7-1.1 4.5-2.6 0.7 1.1zm9-5.3l-0.6-1.1 4.5-2.7 0.6 1.1zm9.1-5.3l-0.7-1.1 4.5-2.6 0.7 1.1zm9-5.3l-0.6-1.2 4.5-2.6 0.6 1.1zm9.1-5.3l-0.7-1.1 4.5-2.7 0.7 1.2zm9-5.3l-0.6-1.2 4.5-2.6 0.7 1.1zm9-5.3l-0.7-1.1 4.6-2.7 0.6 1.2zm9.1-5.3l-0.7-1.2 4.5-2.6 0.7 1.1zm9-5.3l-0.7-1.1 4.6-2.7 0.6 1.2zm9.1-5.3l-0.7-1.2 4.5-2.6 0.7 1.1zm9-5.3l-0.6-1.1 4.5-2.7 0.6 1.2zm9.1-5.3l-0.7-1.2 4.5-2.6 0.7 1.1zm9-5.3l-0.6-1.1 4.5-2.7 0.7 1.1z"/>
				</g>
				<path id="&lt;Compound Path&gt;" class="s4" d="m61.3 213.7l-1-1.6h0.1l6.5-3.9 0.9 1.7-3 1.8zm10-5.9l-1-1.6 6.6-3.9 3-1.8 1 1.7-6.6 3.8zm13.1-7.7l-0.9-1.6 3-1.8 6.6-3.9 0.9 1.7-3 1.8zm13.1-7.7l-1-1.6 9.6-5.7 1 1.7-3.1 1.8-3.5 2zm13.1-7.7l-0.9-1.6 3-1.8 3.5-2.1 3.1-1.8 0.9 1.7zm13.1-7.7l-0.9-1.6 9.6-5.7 0.9 1.7-3 1.8-3.5 2z"/>
				<g id="&lt;Group&gt;">
					<path id="&lt;Compound Path&gt;" class="s4" d="m220.7 116.9l-0.7-1.1 4.6-2.7 0.6 1.1zm9.1-5.3l-0.7-1.1 4.5-2.6 0.7 1.1zm9-5.3l-0.6-1.1 4.5-2.7 0.6 1.1zm9.1-5.3l-0.7-1.1 4.5-2.6 0.7 1.1zm9-5.3l-0.6-1.1 4.5-2.7 0.7 1.1zm9-5.3l-0.7-1.1 4.5-2.7 0.7 1.2zm9-5.3l-0.6-1.2 4.5-2.6 0.7 1.1zm9-5.3l-0.7-1.1 4.6-2.7 0.6 1.2zm9.1-5.3l-0.7-1.2 1.4-0.8 0.7 1.1z"/>
				</g>
				<g id="&lt;Group&gt;">
					<path id="&lt;Compound Path&gt;" class="s4" d="m45.6 213.1h1.3v3h-1.3zm0-10.5h1.3v5.2h-1.3zm0-10.5h1.3v5.3h-1.3zm0-10.5h1.3v5.2h-1.3zm0-10.4h1.3v5.2h-1.3zm0-10.5h1.3v5.3h-1.3zm0-10.5h1.3v5.2h-1.3z"/>
				</g>
				<path id="&lt;Compound Path&gt;" class="s4" d="m104.4 98.6h1.9v8.3h-1.9zm0-15.2h1.9v8.3h-1.9zm0-15.2h1.9v8.3h-1.9zm0-15.1h1.9v8.3h-1.9z"/>
				<g id="&lt;Group&gt;">
					<path id="&lt;Compound Path&gt;" class="s4" d="m297.2 135.6h-1.4v-0.6h1.4zm-1.4-11.1h1.4v5.2h-1.4zm0-10.4h1.4v5.2h-1.4zm0-10.5h1.4v5.3h-1.4zm0-10.5h1.4v5.2h-1.4z"/>
				</g>
				<g id="&lt;Group&gt;">
					<path id="&lt;Compound Path&gt;" class="s4" d="m147.3 138h1.3v5.2h-1.3zm0-10.5h1.3v5.3h-1.3zm0-10.5h1.3v5.2h-1.3zm0-10.4h1.3v5.2h-1.3zm0-10.5h1.3v5.3h-1.3zm0-10.5h1.3v5.2h-1.3z"/>
				</g>
				<g id="&lt;Group&gt;">
					<g id="&lt;Group&gt;">
						<path id="&lt;Path&gt;" class="s5" d="m316.3 65.1c0 4.7-1.5 10-4 15-4 8-10.6 15.5-18.1 19.8-6.3 3.6-12 4.3-16 2.3-3.7-1.8-6-5.8-6-11.6 0-12.2 9.9-27.8 22-34.8 12.2-7 22.1-2.9 22.1 9.3z"/>
					</g>
					<g id="&lt;Group&gt;">
						<g id="&lt;Group&gt;">
							<path id="&lt;Path&gt;" class="s6" d="m288.9 75.4c0 0-1.2-1.1-1.4 0.2-0.2 1.3 0.7 6.7 1.9 5 1.2-1.6-0.5-5.2-0.5-5.2z"/>
							<path id="&lt;Path&gt;" class="s6" d="m302.8 67.3c0 0 1.2-2.4 1.4-1.3 0.3 1-0.7 7.5-1.9 7.2-1.2-0.3 0.5-5.9 0.5-5.9z"/>
						</g>
						<g id="&lt;Group&gt;">
							<path id="&lt;Path&gt;" class="s4" d="m312.3 80.1c-4 8-10.6 15.5-18.1 19.8-6.3 3.6-12 4.3-16 2.3 0.5-2.4 2-5.1 4.1-7.2 4.3-4.2 9.1-8.2 9.1-8.2l8.8-5.2c0 0 4.8-1.5 9.1-2.2 1.2-0.2 2.2 0.1 3 0.7z"/>
							<path id="&lt;Path&gt;" class="s7" d="m300.3 81.6c0 0-1.3 6.1-4.5 8-3.2 1.9-4.4-2.8-4.4-2.8l0.8-8.7 7.2-4.1z"/>
							<path id="&lt;Path&gt;" class="s6" d="m303.2 67.5c0 4.1-3.8 12.9-7.4 14.9-3.6 2.1-7.4-2.3-7.4-6.4 0-6.6 3.3-10.5 7.4-12.9 4.1-2.3 7.4-2.2 7.4 4.4z"/>
							<path id="&lt;Path&gt;" class="s8" d="m303.6 66.9q0-0.2 0.1-0.7c0.3-2.6 0.6-10.4-7.9-5.5-8.2 4.7-8.2 11.9-7.9 14.4 0.1 0.5 0.2 0.9 0.2 0.9l0.4-0.4c0 0 0.6 0.5 0.9 0.6 0.4 0 0.4-2.7 0.8-4.6 0.4-1.9 1.6-2.1 1.6-2.1 0 0 1.5-0.1 4-1.5 2.5-1.4 4-3.1 4-3.1 0 0 1.2-1.2 1.6 0.3 0.4 1.4 0.5 4 0.8 3.6 0.3-0.4 1-1.3 1-1.3l0.3-0.5q0.1 0 0.1-0.1z"/>
						</g>
					</g>
				</g>
				<g id="&lt;Group&gt;">
					<g id="&lt;Group&gt;">
						<path id="&lt;Compound Path&gt;" fill-rule="evenodd" class="s8" d="m312.5 60.4c-2 1.1-5.2 0.8-6.1 0.7q-0.2 0-0.2-0.3c0-0.1 0.1-0.3 0.2-0.5 0.9-1.2 4.1-5.1 6.1-6.2 1.9-1.2 5.1-0.9 6-0.7q0.2 0 0.2 0.2c0 0.2-0.1 0.4-0.2 0.5-0.9 1.2-4.1 5.2-6 6.3zm-5.6 0c1.8 0.2 4.2 0.2 5.6-0.6 1.3-0.8 3.7-3.5 5.5-5.8-1.8-0.2-4.2-0.1-5.5 0.7-1.4 0.7-3.8 3.4-5.6 5.7z"/>
					</g>
					<path id="&lt;Path&gt;" class="s8" d="m315.7 55.3c0 1.6-1.4 3.7-3.2 4.8-1.9 1-3.3 0.6-3.3-1 0-1.6 1.4-3.7 3.3-4.7 1.8-1.1 3.2-0.6 3.2 0.9z"/>
				</g>
				<g id="&lt;Group&gt;">
					<path id="&lt;Path&gt;" class="s9" d="m66.8 214.4c0 4.7-1.5 10-4 15-4 8-10.6 15.5-18.1 19.8-6.3 3.6-12 4.2-16 2.3-3.7-1.8-6-5.8-6-11.6 0-12.2 9.8-27.8 22-34.8 12.2-7 22.1-2.9 22.1 9.3z"/>
					<g id="&lt;Group&gt;">
						<g id="&lt;Group&gt;">
							<path id="&lt;Path&gt;" class="s6" d="m39.4 224.7c0 0-1.2-1.1-1.4 0.2-0.3 1.3 0.7 6.7 1.9 5 1.2-1.7-0.5-5.2-0.5-5.2z"/>
							<path id="&lt;Path&gt;" class="s6" d="m53.3 216.6c0 0 1.2-2.4 1.4-1.3 0.2 1-0.7 7.5-1.9 7.2-1.2-0.3 0.5-5.9 0.5-5.9z"/>
						</g>
						<g id="&lt;Group&gt;">
							<path id="&lt;Path&gt;" class="s4" d="m62.8 229.4c-4 8-10.6 15.5-18.1 19.8-6.3 3.6-12 4.2-16 2.3 0.5-2.4 2-5.1 4.1-7.2 4.3-4.2 9-8.2 9-8.2l8.9-5.2c0 0 4.8-1.5 9.1-2.2 1.2-0.2 2.2 0.1 3 0.7z"/>
							<path id="&lt;Path&gt;" class="s7" d="m50.7 230.9c0 0-1.2 6.1-4.4 8-3.2 1.8-4.5-2.8-4.5-2.8l0.9-8.7 7.2-4.1z"/>
							<path id="&lt;Path&gt;" class="s6" d="m53.7 216.8c0 4.1-3.8 12.9-7.4 14.9-3.6 2.1-7.4-2.3-7.4-6.4 0-6.6 3.3-10.5 7.4-12.9 4.1-2.3 7.4-2.2 7.4 4.4z"/>
							<path id="&lt;Path&gt;" class="s8" d="m54.1 216.2q0-0.2 0.1-0.7c0.3-2.6 0.5-10.4-7.9-5.5-8.2 4.7-8.2 11.9-7.9 14.4 0.1 0.5 0.2 0.8 0.2 0.8l0.3-0.3c0 0 0.7 0.5 1 0.6 0.3 0 0.4-2.7 0.8-4.6 0.4-1.9 1.6-2.1 1.6-2.1 0 0 1.5-0.1 4-1.5 2.5-1.4 4-3.1 4-3.1 0 0 1.2-1.2 1.6 0.3 0.4 1.4 0.5 4 0.8 3.6 0.3-0.4 1-1.3 1-1.3l0.3-0.5q0 0 0.1-0.1z"/>
						</g>
					</g>
				</g>
				<g id="&lt;Group&gt;">
					<g id="&lt;Group&gt;">
						<path id="&lt;Path&gt;" class="s5" d="m170.2 71.8c0 4.7-1.4 9.9-4 15-4 8-10.6 15.4-18 19.7-6.3 3.7-12 4.3-16 2.4-3.8-1.8-6.1-5.8-6.1-11.7 0-12.1 9.9-27.7 22.1-34.7 12.2-7 22-2.9 22 9.3z"/>
					</g>
					<g id="&lt;Group&gt;">
						<g id="&lt;Group&gt;">
							<path id="&lt;Path&gt;" class="s6" d="m142.8 82.1c0 0-1.1-1.1-1.4 0.2-0.2 1.3 0.8 6.7 2 5 1.2-1.7-0.6-5.2-0.6-5.2z"/>
							<path id="&lt;Path&gt;" class="s6" d="m156.8 74c0 0 1.2-2.4 1.4-1.4 0.2 1.1-0.8 7.6-2 7.3-1.2-0.3 0.6-5.9 0.6-5.9z"/>
						</g>
						<g id="&lt;Group&gt;">
							<path id="&lt;Path&gt;" class="s1" d="m166.2 86.8c-4 8-10.6 15.4-18 19.7-6.3 3.7-12 4.3-16 2.4 0.5-2.4 2-5.1 4.1-7.2 4.3-4.2 9-8.2 9-8.2l8.9-5.2c0 0 4.8-1.5 9.1-2.2 1.2-0.2 2.2 0.1 2.9 0.7z"/>
							<path id="&lt;Path&gt;" class="s7" d="m154.2 88.3c0 0-1.2 6.1-4.4 8-3.2 1.8-4.5-2.9-4.5-2.9l0.9-8.6 7.2-4.1z"/>
							<path id="&lt;Path&gt;" class="s6" d="m157.1 74.2c0 4.1-3.7 12.8-7.3 14.9-3.6 2.1-7.4-2.3-7.4-6.4 0-6.6 3.3-10.6 7.4-12.9 4-2.4 7.3-2.2 7.3 4.4z"/>
							<path id="&lt;Path&gt;" class="s8" d="m157.5 73.6q0.1-0.2 0.1-0.7c0.3-2.6 0.6-10.4-7.8-5.5-8.2 4.7-8.2 11.9-7.9 14.3 0 0.6 0.1 0.9 0.1 0.9l0.4-0.4c0 0 0.7 0.6 1 0.7 0.3 0 0.4-2.7 0.8-4.6 0.4-1.9 1.6-2.1 1.6-2.1 0 0 1.5-0.1 4-1.6 2.5-1.3 4-3 4-3 0 0 1.1-1.2 1.5 0.3 0.4 1.4 0.5 4 0.9 3.6 0.3-0.4 0.9-1.3 0.9-1.3l0.4-0.5q0 0 0-0.1z"/>
						</g>
					</g>
				</g>
				<g id="&lt;Group&gt;">
					<g id="&lt;Group&gt;">
						<path id="&lt;Path&gt;" class="s5" d="m68.8 130.6c0 4.8-1.5 10-4 15q-0.8 1.6-1.7 3.1c-4.1 6.8-9.9 12.9-16.4 16.7-6.1 3.5-11.5 4.2-15.5 2.5q-0.3 0-0.5-0.2c-3.7-1.8-6-5.8-6-11.6 0-12.2 9.9-27.8 22-34.8 12.2-7 22.1-2.9 22.1 9.3z"/>
					</g>
					<g id="&lt;Group&gt;">
						<g id="&lt;Group&gt;">
							<g id="&lt;Group&gt;">
								<g id="&lt;Group&gt;">
									<path id="&lt;Path&gt;" class="s8" d="m38.4 157.4c0 0 11-7.2 18.2-10.4 0 0-1.3-20.4-1.6-20.3-0.4 0.1-15.3 9.3-15.3 9.3z"/>
									<g id="&lt;Group&gt;">
										<path id="&lt;Path&gt;" class="s10" d="m63.1 148.7c-4.1 6.8-9.9 12.9-16.4 16.7-6.1 3.5-11.5 4.2-15.5 2.5 1.5-3.1 3.6-6.2 6.2-8.9 2.9-3.1 5.2-5.7 5.2-5.7l9.6-5.5c0 0 2.4-0.1 5.3-0.4 2.2-0.2 4.1 0.2 5.6 1.3z"/>
										<path id="&lt;Path&gt;" class="s7" d="m52.2 147.8c0 0-2.8 8-4.8 8.6-1.9 0.6-4.8-3.1-4.8-3.1l1-9.3 7.7-4.5z"/>
										<path id="&lt;Path&gt;" class="s6" d="m55.4 132.5c0 4.4-4.1 13.9-8 16.2-3.8 2.2-7.9-2.6-7.9-7 0-7.1 3.5-11.4 7.9-13.9 4.4-2.6 8-2.4 8 4.7z"/>
										<path id="&lt;Path&gt;" class="s8" d="m56.3 130.5c0 0 0.6-11.1-8.9-5.6-9.5 5.5-8.9 16-8.9 16 0 0-1.7 16.2-1.1 17.2 0.5 0.9 2 2.5 3.8 2.3 0 0-1.3-12.1-0.4-20.7 0.1-0.6 0.2-1.3 0.3-1.9q0.1-0.5 0.2-0.9c0.4-2.1 1.7-2.3 1.7-2.3 0 0 1.7-0.1 4.4-1.7 2.8-1.6 4.4-3.4 4.4-3.4 0 0 1.3-1.3 1.8 0.3 0.2 0.8 0.3 1.8 0.4 2.6 0.9 7.6-0.3 20.7-0.3 20.7 1.7-1.8 3.2-5 3.8-6.6 0.5-1.6-1.2-16-1.2-16z"/>
										<path id="&lt;Path&gt;" class="s8" d="m42.2 133.3c0 0-0.8 2.3-1.1 5.1 0 0 6.2-1.8 12.6-7.2 0 0 0-3.8-1.1-4.1-1.2-0.4-8.2 2.9-10.4 6.2z"/>
									</g>
								</g>
							</g>
						</g>
					</g>
				</g>
				<g id="&lt;Group&gt;">
					<path id="&lt;Path&gt;" class="s9" d="m318.1 140c0 4.7-1.4 9.9-4 14.9q-0.7 1.6-1.6 3.1c-4.1 6.8-9.9 13-16.4 16.7-6.1 3.5-11.6 4.3-15.6 2.6q-0.2-0.1-0.4-0.2c-3.7-1.8-6.1-5.8-6.1-11.7 0-12.2 9.9-27.7 22.1-34.8 12.2-7 22-2.8 22 9.4z"/>
					<g id="&lt;Group&gt;">
						<g id="&lt;Group&gt;">
							<g id="&lt;Group&gt;">
								<g id="&lt;Group&gt;">
									<path id="&lt;Path&gt;" class="s8" d="m287.8 166.8c0 0 11-7.3 18.2-10.5 0 0-1.3-20.4-1.7-20.3-0.4 0.1-15.2 9.4-15.2 9.4z"/>
									<g id="&lt;Group&gt;">
										<path id="&lt;Path&gt;" class="s10" d="m312.5 158c-4.1 6.8-9.9 13-16.4 16.7-6.1 3.5-11.6 4.3-15.6 2.6 1.6-3.2 3.7-6.2 6.3-8.9 2.9-3.1 5.2-5.7 5.2-5.7l9.6-5.6c0 0 2.3-0.1 5.3-0.3 2.2-0.2 4.1 0.2 5.6 1.2z"/>
										<path id="&lt;Path&gt;" class="s7" d="m301.6 157.1c0 0-2.9 8-4.8 8.6-1.9 0.7-4.8-3-4.8-3l0.9-9.3 7.8-4.5z"/>
										<path id="&lt;Path&gt;" class="s6" d="m304.8 141.9c0 4.4-4.1 13.9-8 16.1-3.9 2.2-7.9-2.5-7.9-6.9 0-7.2 3.5-11.4 7.9-14 4.4-2.5 8-2.4 8 4.8z"/>
										<path id="&lt;Path&gt;" class="s8" d="m305.7 139.9c0 0 0.5-11.1-8.9-5.7-9.5 5.5-9 16-9 16 0 0-1.6 16.3-1.1 17.2 0.6 0.9 2.1 2.5 3.8 2.3 0 0-1.2-12.1-0.3-20.6 0.1-0.6 0.2-1.3 0.3-2q0.1-0.5 0.1-0.8c0.5-2.2 1.8-2.3 1.8-2.3 0 0 1.6-0.1 4.4-1.8 2.7-1.5 4.4-3.3 4.4-3.3 0 0 1.3-1.4 1.7 0.3 0.2 0.7 0.4 1.8 0.5 2.6 0.8 7.5-0.4 20.7-0.4 20.7 1.8-1.8 3.3-5.1 3.8-6.7 0.6-1.6-1.1-15.9-1.1-15.9z"/>
										<path id="&lt;Path&gt;" class="s8" d="m291.5 142.7c0 0-0.7 2.3-1 5.1 0 0 6.2-1.9 12.6-7.3 0 0 0-3.7-1.2-4.1-1.1-0.3-8.1 3-10.4 6.3z"/>
									</g>
								</g>
							</g>
						</g>
					</g>
				</g>
				<g id="&lt;Group&gt;">
					<g id="&lt;Group&gt;">
						<path id="&lt;Path&gt;" class="s5" d="m241.6 28.7c0 4.8-1.5 10-4 15q-0.8 1.6-1.7 3.1c-4 6.8-9.9 12.9-16.4 16.7-6 3.5-11.5 4.2-15.5 2.5q-0.2 0-0.5-0.2c-3.7-1.8-6-5.8-6-11.6 0-12.2 9.9-27.7 22-34.8 12.2-7 22.1-2.8 22.1 9.3z"/>
					</g>
					<g id="&lt;Group&gt;">
						<g id="&lt;Group&gt;">
							<g id="&lt;Group&gt;">
								<g id="&lt;Group&gt;">
									<path id="&lt;Path&gt;" class="s8" d="m211.2 55.6c0 0 11.1-7.3 18.2-10.5 0 0-1.2-20.4-1.6-20.3-0.4 0.1-15.3 9.4-15.3 9.4z"/>
									<g id="&lt;Group&gt;">
										<path id="&lt;Path&gt;" class="s10" d="m235.9 46.8c-4 6.8-9.9 12.9-16.4 16.7-6 3.5-11.5 4.2-15.5 2.5 1.5-3.1 3.7-6.2 6.2-8.9 2.9-3 5.3-5.7 5.3-5.7l9.6-5.5c0 0 2.3-0.1 5.2-0.4 2.2-0.2 4.1 0.3 5.6 1.3z"/>
										<path id="&lt;Path&gt;" class="s7" d="m225.1 45.9c0 0-2.9 8-4.8 8.6-1.9 0.6-4.8-3.1-4.8-3.1l0.9-9.3 7.7-4.4z"/>
										<path id="&lt;Path&gt;" class="s6" d="m228.2 30.7c0 4.4-4.1 13.8-7.9 16.1-3.9 2.2-8-2.6-8-7 0-7.1 3.6-11.4 8-13.9 4.4-2.5 7.9-2.4 7.9 4.8z"/>
										<path id="&lt;Path&gt;" class="s8" d="m229.2 28.7c0 0 0.5-11.2-9-5.7-9.4 5.5-8.9 16-8.9 16 0 0-1.7 16.2-1.1 17.2 0.6 0.9 2.1 2.5 3.8 2.3 0 0-1.2-12.1-0.3-20.6 0-0.7 0.1-1.4 0.2-2q0.1-0.5 0.2-0.9c0.4-2.1 1.7-2.3 1.7-2.3 0 0 1.7-0.1 4.4-1.7 2.8-1.5 4.4-3.3 4.4-3.3 0 0 1.3-1.4 1.8 0.2 0.2 0.8 0.3 1.8 0.4 2.7 0.9 7.5-0.3 20.7-0.3 20.7 1.7-1.8 3.2-5.1 3.8-6.7 0.6-1.6-1.1-15.9-1.1-15.9z"/>
										<path id="&lt;Path&gt;" class="s8" d="m215 31.4c0 0-0.8 2.3-1.1 5.1 0 0 6.3-1.8 12.6-7.2 0 0 0-3.8-1.1-4.1-1.1-0.4-8.1 3-10.4 6.2z"/>
									</g>
								</g>
							</g>
						</g>
					</g>
				</g>
				<g id="&lt;Group&gt;">
					<g id="&lt;Group&gt;">
						<path id="&lt;Path&gt;" class="s5" d="m127.4 40.8c0 4.8-1.5 10-4 15q-0.8 1.6-1.7 3.1c-4 6.8-9.9 12.9-16.4 16.7-6.1 3.5-11.5 4.2-15.5 2.5q-0.3 0-0.5-0.2c-3.7-1.8-6-5.8-6-11.6 0-12.2 9.9-27.8 22-34.8 12.2-7 22.1-2.8 22.1 9.3z"/>
					</g>
					<g id="&lt;Group&gt;">
						<g id="&lt;Group&gt;">
							<g id="&lt;Group&gt;">
								<g id="&lt;Group&gt;">
									<path id="&lt;Path&gt;" class="s8" d="m97 67.7c0 0 11-7.3 18.2-10.5 0 0-1.3-20.4-1.6-20.3-0.4 0.1-15.3 9.4-15.3 9.4z"/>
									<g id="&lt;Group&gt;">
										<path id="&lt;Path&gt;" class="s2" d="m121.7 58.9c-4 6.8-9.9 12.9-16.4 16.7-6.1 3.5-11.5 4.2-15.5 2.5 1.5-3.1 3.6-6.2 6.2-8.9 2.9-3 5.3-5.7 5.3-5.7l9.5-5.5c0 0 2.4-0.1 5.3-0.4 2.2-0.2 4.1 0.2 5.6 1.3z"/>
										<path id="&lt;Path&gt;" class="s7" d="m110.9 58c0 0-2.9 8-4.8 8.6-2 0.6-4.9-3.1-4.9-3.1l1-9.3 7.7-4.4z"/>
										<path id="&lt;Path&gt;" class="s6" d="m114 42.8c0 4.4-4.1 13.8-7.9 16.1-3.9 2.2-8-2.6-8-7 0-7.1 3.6-11.4 8-13.9 4.3-2.5 7.9-2.4 7.9 4.8z"/>
										<path id="&lt;Path&gt;" class="s8" d="m115 40.7c0 0 0.5-11.1-9-5.6-9.4 5.5-8.9 16-8.9 16 0 0-1.7 16.2-1.1 17.2 0.5 0.9 2 2.5 3.8 2.3 0 0-1.3-12.1-0.4-20.7 0.1-0.6 0.2-1.3 0.3-1.9q0.1-0.5 0.2-0.9c0.4-2.1 1.7-2.3 1.7-2.3 0 0 1.7-0.1 4.4-1.7 2.8-1.5 4.4-3.4 4.4-3.4 0 0 1.3-1.3 1.8 0.3 0.2 0.8 0.3 1.8 0.4 2.7 0.9 7.5-0.3 20.6-0.3 20.6 1.7-1.7 3.2-5 3.8-6.6 0.5-1.6-1.1-16-1.1-16z"/>
										<path id="&lt;Path&gt;" class="s8" d="m100.8 43.5c0 0-0.8 2.3-1.1 5.1 0 0 6.2-1.8 12.6-7.2 0 0 0-3.8-1.1-4.1-1.2-0.4-8.1 3-10.4 6.2z"/>
									</g>
								</g>
							</g>
						</g>
					</g>
				</g>
				<g id="&lt;Group&gt;">
					<g id="&lt;Group&gt;">
						<g id="&lt;Group&gt;">
							<g id="&lt;Group&gt;">
								<path id="&lt;Path&gt;" class="s1" d="m227.8 352.9l-30.2-17.4c-0.2-0.2-0.4-0.4-0.4-0.5-0.1-0.1-0.2-0.3-0.1-0.5l7.3-52.9-36.2 21-7.3 52.9c-0.1 0.2 0 0.4 0.1 0.5 0.1 0.2 0.2 0.4 0.4 0.5l30.2 17.4c1 0.6 1.8 2 1.8 3.2 0 0.5-0.2 0.9-0.5 1.1l36.1-21c0.4-0.2 0.6-0.6 0.6-1.2 0-1.1-0.8-2.5-1.8-3.1z"/>
								<g id="&lt;Group&gt;">
									<path id="&lt;Path&gt;" class="s11" d="m168.2 302.6l36.2-21-5.1 36-36.2 21z"/>
								</g>
							</g>
							<g id="&lt;Group&gt;">
								<path id="&lt;Path&gt;" class="s8" d="m166.4 299.2q0.1 0.1 0.3 0.2c1 0.7 1.7 2.2 1.5 3.2l-7.3 52.9c-0.1 0.2 0 0.4 0.1 0.5 0.1 0.2 0.2 0.4 0.4 0.5l30.2 17.4c1 0.6 1.8 2 1.8 3.2 0 1.1-0.8 1.6-1.8 1l-30.2-17.4c-1.2-0.7-2.4-2-3.2-3.5-0.7-1.5-1.1-3.1-0.9-4.4l7.3-52.8c0.1-1 0.9-1.3 1.8-0.8z"/>
							</g>
						</g>
					</g>
					<g id="&lt;Group&gt;">
						<g id="&lt;Group&gt;">
							<g id="&lt;Group&gt;">
								<g id="&lt;Group&gt;">
									<g id="&lt;Group&gt;">
										<g id="&lt;Group&gt;">
											<path id="&lt;Path&gt;" class="s4" d="m265 111.6c-0.2-0.1-0.4-0.1-0.6-0.1q-0.5-0.1-1.1 0.3l-177 101.7c-0.9 0.5-1.5 1.9-1.9 3.2-0.3 1-0.5 1.9-0.5 2.5l5.4 150.5q0 0.4 0.1 0.7c0 0.2 0.1 0.4 0.3 0.6q0.1 0.2 0.3 0.3l-5.4-3c-0.4-0.2-0.7-0.7-0.7-1.6l-5.3-150.4c0-0.6 0.1-1.5 0.4-2.5 0.4-1.3 1.1-2.7 1.9-3.2l177-101.7c0.7-0.4 1.3-0.5 1.8-0.2z"/>
											<g id="&lt;Group&gt;">
												<path id="&lt;Path&gt;" class="s1" d="m270.9 264.7c0 1.5-1 3.5-2.3 4.3l-176.5 101.8-0.3 0.2c-0.7 0.5-1.3 0.5-1.8 0.3-0.1-0.1-0.2-0.2-0.3-0.3-0.2-0.2-0.3-0.4-0.3-0.6q-0.1-0.3-0.1-0.7l-5.4-150.5c0-0.6 0.2-1.5 0.5-2.5 0.4-1.3 1-2.7 1.9-3.2l177-101.7q0.6-0.4 1.1-0.3 0.3 0 0.6 0.1c0.5 0.2 0.8 0.8 0.8 1.6z"/>
												<path id="&lt;Path&gt;" class="s8" d="m89 222.7c0.1 0 0-5 0-5.1l172.1-98.6 4.5 135.9c0 0-171.9 99-171.9 99z"/>
											</g>
										</g>
									</g>
								</g>
							</g>
						</g>
						<path id="&lt;Path&gt;" class="s8" d="m78.6 216.3c0-0.6 0.1-1.5 0.4-2.5l5.4 2.8v0.1c-0.3 1-0.5 1.9-0.5 2.5l5.4 150.5q0 0.4 0.1 0.7c0 0.2 0.1 0.4 0.3 0.6 0.1 0.1 0.2 0.2 0.3 0.3l-5.4-3c-0.4-0.2-0.7-0.7-0.7-1.6z"/>
						<path id="&lt;Path&gt;" class="s8" d="m83.9 366.7l-5.3-150.4z"/>
						<g id="&lt;Group&gt;">
							<path id="&lt;Path&gt;" class="s3" d="m263.3 111.8c-29.4 17.2-58.9 34.1-88.4 51.2-29.5 16.8-59 33.8-88.6 50.5 29.3-17.2 58.9-34.1 88.3-51.1 29.6-16.9 59-33.9 88.7-50.6z"/>
						</g>
					</g>
					<g id="&lt;Group&gt;">
						<g id="&lt;Group&gt;">
							<path id="&lt;Path&gt;" class="s9" d="m131.3 154.6l102.6-59.3v178l-102.6 59.3z"/>
							<path id="&lt;Path&gt;" class="s12" d="m150.6 266.3l61.4-35.5v5.1l-61.4 35.5z"/>
							<path id="&lt;Path&gt;" class="s13" d="m150.6 273.6l61.4-35.4v5.1l-61.4 35.4z"/>
							<path id="&lt;Path&gt;" class="s13" d="m137 288.9l91.3-52.7v5.1l-91.3 52.7z"/>
							<path id="&lt;Path&gt;" class="s13" d="m137 296.3l91.3-52.7v5.1l-91.3 52.7z"/>
							<path id="&lt;Path&gt;" class="s13" d="m137 303.6l91.3-52.6v5.1l-91.3 52.7z"/>
							<path id="&lt;Path&gt;" class="s3" d="m228 133.6v83.1l-91.3 52.7v-83.1l45.6-26.4z"/>
							<path id="&lt;Path&gt;" class="s5" d="m211.5 184.7c0 16.1-13.1 36.6-29.2 45.9-16.1 9.3-29.1 3.8-29.1-12.3 0-16.1 13-36.6 29.1-45.9 16.1-9.3 29.2-3.8 29.2 12.3z"/>
							<path id="&lt;Path&gt;" class="s10" d="m145.4 271.5c-0.8 0.4-1.5 1.1-2.1 1.9-0.5-0.1-1.2 0-2 0.5-1.9 1-3.3 3.4-3.3 5.2 0 2.6 5.3 3 5.3 3 0 0 5.5-5.8 5.4-9.2 0-1.8-1.5-2.5-3.3-1.4z"/>
						</g>
						<path id="&lt;Path&gt;" class="s2" d="m157.1 211.8c-0.3 2.4 0.4 4.9 1.5 7.1 1.3 2.8 3.4 5.4 6.3 6.5 2.9 1.1 6.7 0.2 8.1-2.7 0.3-0.8 0.5-1.7 0.1-2.6-0.3-0.7-0.9-1.2-1.1-2-0.5-1.8 2-3.1 3.9-3.1 3.6-0.2 7.7 0.6 10.1-2 1.3-1.4 1.6-3.7 0.7-5.4-0.9-1.7-3-2.7-4.9-2.4-1.8 0.3-3.3 1.6-4.8 2.6-1.6 1-3.6 1.7-5.2 0.8-5.2-2.9 3-11-3.6-10.5-5.3 0.5-10.4 9-11.1 13.7z"/>
						<path id="&lt;Path&gt;" class="s1" d="m189.3 216.4c2.2-2 3.2-5.1 2.6-8-0.4-2-1.4-3.7-2.1-5.6-0.7-1.8-1.1-4-0.2-5.7 0.4-0.8 1-1.5 1.7-2.1 3.8-3.6 8.3-6.7 13.1-8.9 0.2 6.2-1.6 12.4-4.2 18.1-3.3 7.3-8.4 14.2-15.7 17.6-2.4 1.2-6.9-0.3-3.8-2.8 2.2-1.7 6-0.2 8.6-2.6z"/>
						<path id="&lt;Path&gt;" class="s9" d="m173.2 195.2c-0.2 0.8-0.3 1.7 0.1 2.4 0.5 1.1 1.9 1.5 3.2 1.5 1.2 0 8.9 1.5 9 3.2 1.4-2.2-0.8-4.5 0.3-6.8 1.1-2.4 10.4-9.4 12.8-11.2 1.4-1.1 3-2.6 2.4-4.3-0.4-1.5-2.2-2-3.7-2.3-2.2-0.5-7.8-0.3-11.2 1.9-5.5 3.5-11.5 8.9-12.9 15.6z"/>
						<path id="&lt;Path&gt;" class="s4" d="m158.4 152.2l62.8-36.1v9.5l-62.8 36.2z"/>
						<path id="&lt;Path&gt;" class="s2" d="m155.9 157c0 4.4-3.5 10-7.9 12.6-4.4 2.5-8 1-8-3.4 0-4.4 3.6-10 8-12.5 4.4-2.6 7.9-1.1 7.9 3.3z"/>
						<g id="&lt;Group&gt;">
							<path id="&lt;Path&gt;" class="s4" d="m219.7 236.4c-0.2 0.1-0.4 0.1-0.6 0l-1.6-1.5c-0.5-0.5-0.7-1.3-0.5-2.3 0.2-1 0.7-2.1 1.5-3.1l2.7-3.3c0.3-0.4 0.7-0.5 0.9-0.3 0.2 0.1 0.1 0.6-0.2 1l-2.7 3.3c-0.5 0.6-0.8 1.3-0.9 1.9-0.1 0.6 0 1.1 0.3 1.4l1.6 1.6c0.2 0.1 0.1 0.6-0.2 1q-0.1 0.2-0.3 0.3z"/>
							<g id="&lt;Group&gt;">
								<path id="&lt;Path&gt;" class="s4" d="m222.1 228.1l1.8-4.5-3.9 2.5z"/>
							</g>
						</g>
					</g>
				</g>
				<g id="&lt;Group&gt;">
					<g id="&lt;Group&gt;">
						<path id="&lt;Path&gt;" class="s4" d="m109.6 93.7l-1.2 0.6v-4.7c0-1.4-1.1-1.9-2.5-1.1-1.4 0.8-2.6 2.7-2.6 4.1v3.4l-1.2 0.7v-3.4c0-2.1 1.7-4.8 3.8-5.9 2-1.2 3.7-0.5 3.7 1.5z"/>
					</g>
					<path id="&lt;Path&gt;" class="s1" d="m110 100.4l-8.2 4.8c-0.7 0.4-1.2 0.1-1.2-0.6v-6.7c0-0.7 0.5-1.6 1.2-2l8.2-4.7c0.7-0.4 1.3-0.2 1.3 0.5v6.7c0 0.7-0.6 1.6-1.3 2z"/>
					<path id="&lt;Path&gt;" class="s4" d="m107.4 96.3c0-0.9-0.7-1.2-1.5-0.7-0.9 0.5-1.6 1.6-1.6 2.4 0 0.5 0.3 0.8 0.6 0.9v2.4c0 0.5 0.4 0.7 1 0.4 0.5-0.3 1-1 1-1.6v-2.4c0.3-0.4 0.5-1 0.5-1.4z"/>
				</g>
				<g id="&lt;Group&gt;">
					<g id="&lt;Group&gt;">
						<path id="&lt;Path&gt;" class="s4" d="m300.6 114l-1.2 0.7v-4.7c0-1.4-1.1-1.9-2.6-1.1-1.4 0.8-2.5 2.6-2.5 4v3.5l-1.2 0.7v-3.5c0-2 1.7-4.7 3.7-5.9 2.1-1.2 3.8-0.5 3.8 1.6z"/>
					</g>
					<path id="&lt;Path&gt;" class="s1" d="m301 120.8l-8.2 4.7c-0.7 0.4-1.3 0.2-1.3-0.5v-6.7c0-0.7 0.6-1.6 1.3-2l8.2-4.8c0.7-0.4 1.3-0.1 1.3 0.6v6.7c0 0.7-0.6 1.6-1.3 2z"/>
					<path id="&lt;Path&gt;" class="s4" d="m298.4 116.6c0-0.8-0.7-1.1-1.6-0.6-0.8 0.5-1.5 1.6-1.5 2.4 0 0.5 0.2 0.8 0.5 0.9v2.4c0 0.5 0.5 0.7 1 0.4 0.6-0.3 1-1 1-1.6v-2.4c0.4-0.5 0.6-1 0.6-1.5z"/>
				</g>
				<g id="&lt;Group&gt;">
					<g id="&lt;Group&gt;">
						<path id="&lt;Path&gt;" class="s4" d="m188.4 61.4l-1.2 0.6v-4.7c0-1.4-1.1-1.9-2.5-1.1-1.4 0.8-2.6 2.6-2.6 4.1v3.4l-1.2 0.7v-3.5c0-2 1.7-4.7 3.8-5.9 2-1.2 3.7-0.4 3.7 1.6z"/>
					</g>
					<path id="&lt;Path&gt;" class="s1" d="m188.8 68.1l-8.2 4.7c-0.7 0.4-1.3 0.2-1.3-0.5v-6.7c0-0.7 0.6-1.6 1.3-2l8.2-4.7c0.7-0.4 1.3-0.2 1.3 0.5v6.7c0 0.7-0.6 1.6-1.3 2z"/>
					<path id="&lt;Path&gt;" class="s4" d="m186.2 63.9c0-0.8-0.7-1.1-1.5-0.6-0.9 0.5-1.6 1.6-1.6 2.4 0 0.5 0.2 0.8 0.6 0.9v2.4c0 0.5 0.4 0.7 1 0.4 0.5-0.3 1-1 1-1.6v-2.4c0.3-0.4 0.5-1 0.5-1.5z"/>
				</g>
				<g id="&lt;Group&gt;">
					<g id="&lt;Group&gt;">
						<path id="&lt;Compound Path&gt;" fill-rule="evenodd" class="s8" d="m60.8 207.7c-1.9 1.1-5.1 0.8-6.1 0.7q-0.2 0-0.2-0.3c0-0.1 0.1-0.3 0.2-0.5 1-1.2 4.2-5.1 6.1-6.2 1.9-1.2 5.1-0.9 6-0.8q0.2 0.1 0.2 0.3c0 0.2 0 0.4-0.2 0.5-0.9 1.2-4.1 5.2-6 6.3zm-5.6 0c1.9 0.2 4.2 0.2 5.6-0.6 1.3-0.8 3.7-3.5 5.5-5.8-1.8-0.2-4.2-0.1-5.5 0.7-1.4 0.7-3.7 3.4-5.6 5.7z"/>
					</g>
					<path id="&lt;Path&gt;" class="s8" d="m64.1 202.6c0 1.6-1.5 3.7-3.3 4.8-1.8 1-3.3 0.6-3.3-1 0-1.6 1.5-3.7 3.3-4.7 1.8-1.1 3.3-0.7 3.3 0.9z"/>
				</g>
				<g id="&lt;Group&gt;">
					<g id="&lt;Group&gt;">
						<path id="&lt;Compound Path&gt;" fill-rule="evenodd" class="s8" d="m160.1 63.3c-1.9 1.1-5.1 0.9-6 0.7q-0.2 0-0.2-0.2c0-0.2 0.1-0.4 0.2-0.5 0.9-1.2 4.1-5.2 6-6.3 2-1.1 5.2-0.8 6.1-0.7q0.2 0 0.2 0.3c0 0.1-0.1 0.3-0.2 0.5-0.9 1.2-4.1 5.1-6.1 6.2zm-5.5 0.1c1.8 0.2 4.2 0.1 5.5-0.7 1.4-0.8 3.8-3.4 5.6-5.7-1.8-0.2-4.2-0.2-5.6 0.6-1.3 0.8-3.7 3.5-5.5 5.8z"/>
					</g>
					<path id="&lt;Path&gt;" class="s8" d="m163.4 58.3c0 1.6-1.4 3.7-3.3 4.7-1.8 1.1-3.2 0.6-3.2-0.9 0-1.6 1.4-3.8 3.2-4.8 1.9-1 3.3-0.6 3.3 1z"/>
				</g>
				<g id="&lt;Group&gt;">
					<g id="&lt;Group&gt;">
						<path id="&lt;Compound Path&gt;" fill-rule="evenodd" class="s8" d="m57.6 121c-1.9 1.2-5.1 0.9-6.1 0.8q-0.2-0.1-0.2-0.3c0-0.2 0.1-0.4 0.2-0.5 1-1.2 4.2-5.2 6.1-6.3 1.9-1.1 5.1-0.8 6-0.7q0.2 0 0.2 0.3c0 0.1-0.1 0.3-0.2 0.5-0.9 1.2-4.1 5.1-6 6.2zm-5.6 0.1c1.9 0.2 4.2 0.1 5.6-0.7 1.3-0.7 3.7-3.4 5.5-5.7-1.8-0.2-4.2-0.2-5.5 0.6-1.4 0.8-3.7 3.5-5.6 5.8z"/>
					</g>
					<path id="&lt;Path&gt;" class="s8" d="m60.9 116c0 1.6-1.5 3.7-3.3 4.7-1.8 1.1-3.3 0.7-3.3-0.9 0-1.6 1.5-3.7 3.3-4.8 1.8-1 3.3-0.6 3.3 1z"/>
				</g>
				<g id="&lt;Group&gt;">
					<path id="&lt;Path&gt;" class="s3" d="m192.9 375.3c5.8-3.9 11.9-7.4 17.9-11 6-3.4 12.1-6.9 18.3-10.1-5.8 3.9-11.9 7.4-17.9 11-6 3.4-12.1 6.9-18.3 10.1z"/>
				</g>
			</g>
			<g id="&lt;Group&gt;">
				<path id="&lt;Path&gt;" class="s0" d="m387.7 282c0 0-46-14.2-53.9-43.7-7.9-29.4 23.6-45.8 32.3-67.8 8.7-22.1-18.5-39.1-8.5-56.9 10-17.8 47.7-71.6 98.3-31.7 50.7 39.8 44.9 28.2 77.4 37.2 32.5 9 60.8 14.6 48.3 59.4-12.5 44.8-35.6 33.6-26.1 70.9 9.6 37.2 66 50.5 35.6 104.9-30.4 54.4-203.4-72.3-203.4-72.3z"/>
				<g id="&lt;Group&gt;">
					<g id="&lt;Group&gt;">
						<g id="&lt;Group&gt;">
							<path id="&lt;Path&gt;" class="s3" d="m527.7 350.2c-0.3-0.1-0.6-0.3-0.6-0.6-0.1-0.4 0.2-0.7 0.6-0.8 2.3-0.3 4.6-0.4 6.9-0.4 1.4 0 2.8-0.1 4.2-0.2 16.9-1.1 30.3-12.2 38.6-21.3 0.2-0.3 0.7-0.3 1 0 0.2 0.2 0.3 0.7 0 0.9-8.5 9.3-22.2 20.6-39.5 21.8-1.4 0.1-2.9 0.2-4.3 0.2-2.2 0-4.5 0.1-6.7 0.4q-0.1 0-0.2 0z"/>
						</g>
						<path id="&lt;Path&gt;" class="s3" d="m593.4 318.9c0.4-0.7 0.8-1.5 0.8-2.4 0.2-2.3-2-4.2-4.3-4.4-2.3-0.3-4.5 0.8-6.4 2.2-3.2 2.3-7.1 14.7-7.1 14.7 0 0 14.5-5.5 17-10.1z"/>
						<path id="&lt;Path&gt;" class="s3" d="m587.2 339.4c0.7-0.1 1.4-0.3 1.9-0.7 1.6-1.1 1.6-3.5 0.6-5.1-1.1-1.6-2.9-2.4-4.8-2.9-3.1-0.7-12.9 3.2-12.9 3.2 0 0 11 6.3 15.2 5.5z"/>
						<path id="&lt;Path&gt;" class="s3" d="m575.9 354c0.8 0.1 1.7 0.3 2.5 0.1 2.2-0.6 3.4-3.2 2.9-5.5-0.4-2.2-2.1-4-3.9-5.3-3.2-2.3-16-2.4-16-2.4 0 0 9.4 12.1 14.5 13.1z"/>
						<path id="&lt;Path&gt;" class="s3" d="m557.7 364.6c0.9 0.3 1.8 0.6 2.7 0.6 2.4 0 4.2-2.5 4.2-4.9 0.1-2.5-1.3-4.7-2.9-6.5-2.7-3.2-16-6.2-16-6.2 0 0 7 14.8 12 17z"/>
						<path id="&lt;Path&gt;" class="s3" d="m539.3 366.7c0.6 0.6 1.3 1.1 2.1 1.3 2.2 0.7 4.5-1 5.2-3.1 0.7-2.1 0.2-4.5-0.7-6.5-1.5-3.5-12.4-10-12.4-10 0 0 2 15 5.8 18.3z"/>
					</g>
					<path id="&lt;Path&gt;" class="s3" d="m574.7 321.3c-0.1-0.8-0.2-1.5-0.6-2.1-1.1-1.7-3.6-1.9-5.3-0.9-1.7 1-2.7 2.9-3.3 4.8-1 3.2 2.5 13.8 2.5 13.8 0 0 7.3-11.2 6.7-15.6z"/>
					<path id="&lt;Path&gt;" class="s3" d="m547.3 333.3c-0.1-0.7-0.2-1.4-0.6-2.1-1-1.6-3.6-1.9-5.3-0.8-1.7 1-2.7 2.8-3.3 4.7-1 3.2 2.5 13.8 2.5 13.8 0 0 7.3-11.1 6.7-15.6z"/>
					<path id="&lt;Path&gt;" class="s3" d="m561.3 329.2c-0.1-0.8-0.2-1.6-0.6-2.2-1.1-1.8-3.7-2.1-5.6-1.1-1.8 1-2.9 2.9-3.5 4.9-1.2 3.4 2.2 14.6 2.2 14.6 0 0 8-11.5 7.5-16.2z"/>
				</g>
				<path id="&lt;Path&gt;" class="s1" d="m555.2 237.8q0.2 0.1 0.4 0.3 0.3 0.5 0.4 1 0 0.3 0 0.6l5-1.4q0-0.2 0-0.5 0-0.6-0.4-1-0.2-0.3-0.4-0.4z"/>
				<g id="&lt;Group&gt;">
					<path id="&lt;Path&gt;" class="s1" d="m529.4 369.4l5-1.3 26.6-129.8-5 1.4z"/>
					<path id="&lt;Path&gt;" class="s1" d="m426.8 428.7v5.9l102.6-59.2v-6z"/>
					<g id="&lt;Group&gt;">
						<path id="&lt;Path&gt;" class="s1" d="m426.7 434.7q-0.1 0-0.1 0-0.2 0.1-0.4 0.1-0.1 0.1-0.2 0.1h-0.3q-0.1 0-0.2 0-0.3-0.1-0.6-0.2-0.1 0-0.2-0.1v-6q0.2 0.2 0.5 0.2 0.5 0.2 1.1 0 0.2 0 0.5-0.2v6l-0.1 0.1q0 0 0 0z"/>
					</g>
					<path id="&lt;Path&gt;" class="s8" d="m271.3 340.1v6l153.4 88.5v-5.9z"/>
					<path id="&lt;Path&gt;" class="s8" d="m271 345.8c0 0.1 0.2 0.2 0.3 0.3v-6q-0.1 0-0.1-0.1-0.1 0-0.2-0.1c-0.1-0.1-0.1-0.3-0.1-0.4v5.8c0 0.3 0 0.4 0.1 0.5z"/>
					<path id="&lt;Compound Path&gt;" fill-rule="evenodd" class="s14" d="m400.5 149.9c0-0.2 0.1-0.5 0.3-0.6q0.2-0.2 0.6-0.2 0.2 0 0.4 0.1l153.4 88.6q0.2 0.1 0.4 0.3 0.3 0.5 0.4 1 0 0.3 0 0.6l-26.6 129.7-155.5-89.7zm128.3 214l25.5-124.5-149.4-86.3-3-1.7-26 127.2 152.4 87.9z"/>
					<path id="&lt;Path&gt;" class="s15" d="m401.9 151.5l3 1.7 149.4 86.2-25.5 124.5-0.5 2.7-152.4-88z"/>
					<path id="&lt;Path&gt;" class="s4" d="m271 339.9q0.1 0.1 0.2 0.2 0 0 0.1 0l153.4 88.6q0.2 0.1 0.5 0.1 0.5 0.2 1.1 0 0.3 0 0.5-0.1l102.6-59.3-155.5-89.7-102.6 59.2q-0.1 0-0.1 0c-0.1 0.2-0.3 0.3-0.3 0.5-0.1 0.2 0 0.3 0.1 0.5z"/>
					<path id="&lt;Path&gt;" class="s8" d="m359.8 339v0.2l67.2 38.3 0.2-0.1z"/>
					<path id="&lt;Path&gt;" class="s1" d="m326.1 315.9l0.9 0.6 139.6 80.5 39.2-22.7 7.7-4.4-139.6-80.5v-1.1z"/>
					<path id="&lt;Path&gt;" class="s4" d="m327 316.5l139.6 80.5 39.2-22.7 7.7-4.4-139.6-80.5z"/>
					<path id="&lt;Path&gt;" class="s16" d="m327 315.4l-1 0.5 140.6 81.1 0.9-0.5z"/>
					<path id="&lt;Path&gt;" class="s4" d="m401.8 149.2l153.4 88.6 5-1.4-153.4-88.5z"/>
					<path id="&lt;Path&gt;" class="s8" d="m373.9 288.3v1.1l139.6 80.5 0.9-0.5z"/>
					<g id="&lt;Group&gt;">
						<g id="&lt;Group&gt;">
							<g id="&lt;Group&gt;">
								<path id="&lt;Path&gt;" class="s4" d="m370.6 290.8l8.3 4.8 3.3-1.9-8.3-4.8z"/>
							</g>
							<g id="&lt;Group&gt;">
								<path id="&lt;Path&gt;" class="s8" d="m370.6 290.8v0.8l8.3 4.8v-0.8z"/>
							</g>
							<g id="&lt;Group&gt;">
								<path id="&lt;Path&gt;" class="s1" d="m378.9 295.6v0.8l3.3-1.9v-0.8z"/>
							</g>
						</g>
						<g id="&lt;Group&gt;">
							<g id="&lt;Group&gt;">
								<path id="&lt;Path&gt;" class="s4" d="m379.9 296.2l8.3 4.8 3.3-1.9-8.3-4.8z"/>
							</g>
							<g id="&lt;Group&gt;">
								<path id="&lt;Path&gt;" class="s8" d="m379.9 296.2v0.7l8.3 4.9v-0.8z"/>
							</g>
							<g id="&lt;Group&gt;">
								<path id="&lt;Path&gt;" class="s1" d="m388.2 301v0.8l3.3-1.9v-0.8z"/>
							</g>
						</g>
						<g id="&lt;Group&gt;">
							<g id="&lt;Group&gt;">
								<path id="&lt;Path&gt;" class="s4" d="m389.2 301.6l8.3 4.8 3.3-1.9-8.4-4.8z"/>
							</g>
							<g id="&lt;Group&gt;">
								<path id="&lt;Path&gt;" class="s8" d="m389.2 301.6v0.7l8.3 4.9v-0.8z"/>
							</g>
							<g id="&lt;Group&gt;">
								<path id="&lt;Path&gt;" class="s1" d="m397.5 306.4v0.8l3.3-1.9v-0.8z"/>
							</g>
						</g>
						<g id="&lt;Group&gt;">
							<g id="&lt;Group&gt;">
								<path id="&lt;Path&gt;" class="s4" d="m398.4 306.9l8.3 4.9 3.3-1.9-8.3-4.8z"/>
							</g>
							<g id="&lt;Group&gt;">
								<path id="&lt;Path&gt;" class="s8" d="m398.4 306.9v0.8l8.3 4.8v-0.7z"/>
							</g>
							<g id="&lt;Group&gt;">
								<path id="&lt;Path&gt;" class="s1" d="m406.7 311.8v0.7l3.3-1.9v-0.7z"/>
							</g>
						</g>
						<g id="&lt;Group&gt;">
							<g id="&lt;Group&gt;">
								<path id="&lt;Path&gt;" class="s4" d="m407.7 312.3l8.3 4.9 3.3-1.9-8.3-4.9z"/>
							</g>
							<g id="&lt;Group&gt;">
								<path id="&lt;Path&gt;" class="s8" d="m407.7 312.3v0.8l8.3 4.8v-0.7z"/>
							</g>
							<g id="&lt;Group&gt;">
								<path id="&lt;Path&gt;" class="s1" d="m416 317.2v0.7l3.3-1.9v-0.7z"/>
							</g>
						</g>
						<g id="&lt;Group&gt;">
							<g id="&lt;Group&gt;">
								<path id="&lt;Path&gt;" class="s4" d="m417 317.7l8.3 4.8 3.3-1.8-8.3-4.9z"/>
							</g>
							<g id="&lt;Group&gt;">
								<path id="&lt;Path&gt;" class="s8" d="m417 317.7v0.8l8.3 4.8v-0.8z"/>
							</g>
							<g id="&lt;Group&gt;">
								<path id="&lt;Path&gt;" class="s1" d="m425.3 322.5v0.8l3.3-1.9v-0.7z"/>
							</g>
						</g>
						<g id="&lt;Group&gt;">
							<g id="&lt;Group&gt;">
								<path id="&lt;Path&gt;" class="s4" d="m426.2 323.1l8.4 4.8 3.2-1.9-8.3-4.8z"/>
							</g>
							<g id="&lt;Group&gt;">
								<path id="&lt;Path&gt;" class="s8" d="m426.2 323.1v0.8l8.4 4.8v-0.8z"/>
							</g>
							<g id="&lt;Group&gt;">
								<path id="&lt;Path&gt;" class="s1" d="m434.6 327.9v0.8l3.3-1.9-0.1-0.8z"/>
							</g>
						</g>
						<g id="&lt;Group&gt;">
							<g id="&lt;Group&gt;">
								<path id="&lt;Path&gt;" class="s4" d="m435.5 328.5l8.3 4.8 3.3-1.9-8.3-4.8z"/>
							</g>
							<g id="&lt;Group&gt;">
								<path id="&lt;Path&gt;" class="s8" d="m435.5 328.5v0.8l8.3 4.8v-0.8z"/>
							</g>
							<g id="&lt;Group&gt;">
								<path id="&lt;Path&gt;" class="s1" d="m443.8 333.3v0.8l3.3-1.9v-0.8z"/>
							</g>
						</g>
						<g id="&lt;Group&gt;">
							<g id="&lt;Group&gt;">
								<path id="&lt;Path&gt;" class="s4" d="m444.8 333.9l8.3 4.8 3.3-1.9-8.3-4.8z"/>
							</g>
							<g id="&lt;Group&gt;">
								<path id="&lt;Path&gt;" class="s8" d="m444.8 333.9v0.7l8.3 4.9v-0.8z"/>
							</g>
							<g id="&lt;Group&gt;">
								<path id="&lt;Path&gt;" class="s1" d="m453.1 338.7v0.8l3.3-1.9v-0.8z"/>
							</g>
						</g>
						<g id="&lt;Group&gt;">
							<g id="&lt;Group&gt;">
								<path id="&lt;Path&gt;" class="s4" d="m454.1 339.3l8.3 4.8 3.3-1.9-8.4-4.8z"/>
							</g>
							<g id="&lt;Group&gt;">
								<path id="&lt;Path&gt;" class="s8" d="m454.1 339.3v0.7l8.3 4.9v-0.8z"/>
							</g>
							<g id="&lt;Group&gt;">
								<path id="&lt;Path&gt;" class="s1" d="m462.4 344.1v0.8l3.3-1.9v-0.8z"/>
							</g>
						</g>
						<g id="&lt;Group&gt;">
							<g id="&lt;Group&gt;">
								<path id="&lt;Path&gt;" class="s4" d="m463.3 344.6l8.4 4.9 3.2-1.9-8.3-4.8z"/>
							</g>
							<g id="&lt;Group&gt;">
								<path id="&lt;Path&gt;" class="s8" d="m463.3 344.6v0.8l8.4 4.8v-0.7z"/>
							</g>
							<g id="&lt;Group&gt;">
								<path id="&lt;Path&gt;" class="s1" d="m471.7 349.5v0.7l3.2-1.8v-0.8z"/>
							</g>
						</g>
						<g id="&lt;Group&gt;">
							<g id="&lt;Group&gt;">
								<path id="&lt;Path&gt;" class="s4" d="m472.6 350l8.3 4.9 3.3-1.9-8.3-4.9z"/>
							</g>
							<g id="&lt;Group&gt;">
								<path id="&lt;Path&gt;" class="s8" d="m472.6 350v0.8l8.3 4.8v-0.7z"/>
							</g>
							<g id="&lt;Group&gt;">
								<path id="&lt;Path&gt;" class="s1" d="m480.9 354.9v0.7l3.3-1.9v-0.7z"/>
							</g>
						</g>
						<g id="&lt;Group&gt;">
							<g id="&lt;Group&gt;">
								<path id="&lt;Path&gt;" class="s4" d="m481.9 355.4l8.3 4.9 3.3-1.9-8.3-4.9z"/>
							</g>
							<g id="&lt;Group&gt;">
								<path id="&lt;Path&gt;" class="s8" d="m481.9 355.4v0.8l8.3 4.8v-0.7z"/>
							</g>
							<g id="&lt;Group&gt;">
								<path id="&lt;Path&gt;" class="s1" d="m490.2 360.3v0.7l3.3-1.9v-0.7z"/>
							</g>
						</g>
						<g id="&lt;Group&gt;">
							<g id="&lt;Group&gt;">
								<path id="&lt;Path&gt;" class="s4" d="m491.1 360.8l8.4 4.8 3.2-1.9-8.3-4.8z"/>
							</g>
							<g id="&lt;Group&gt;">
								<path id="&lt;Path&gt;" class="s8" d="m491.1 360.8l0.1 0.8 8.3 4.8v-0.8z"/>
							</g>
							<g id="&lt;Group&gt;">
								<path id="&lt;Path&gt;" class="s1" d="m499.5 365.6v0.8l3.2-1.9v-0.8z"/>
							</g>
						</g>
						<g id="&lt;Group&gt;">
							<g id="&lt;Group&gt;">
								<path id="&lt;Path&gt;" class="s4" d="m500.4 366.2l8.3 4.8 3.3-1.9-8.3-4.8z"/>
							</g>
							<g id="&lt;Group&gt;">
								<path id="&lt;Path&gt;" class="s8" d="m500.4 366.2v0.8l8.3 4.8v-0.8z"/>
							</g>
							<g id="&lt;Group&gt;">
								<path id="&lt;Path&gt;" class="s1" d="m508.7 371v0.8l3.3-1.9v-0.8z"/>
							</g>
						</g>
						<g id="&lt;Group&gt;">
							<g id="&lt;Group&gt;">
								<path id="&lt;Path&gt;" class="s4" d="m361.8 295.9l11.2 6.5 7.3-4.2-11.2-6.5z"/>
							</g>
							<g id="&lt;Group&gt;">
								<path id="&lt;Path&gt;" class="s8" d="m361.8 295.9v0.7l11.2 6.6v-0.8z"/>
							</g>
							<g id="&lt;Group&gt;">
								<path id="&lt;Path&gt;" class="s1" d="m373 302.4v0.8l7.3-4.2v-0.8z"/>
							</g>
						</g>
						<g id="&lt;Group&gt;">
							<g id="&lt;Group&gt;">
								<path id="&lt;Path&gt;" class="s4" d="m374.3 303.1l8.3 4.9 7.3-4.2-8.3-4.9z"/>
							</g>
							<g id="&lt;Group&gt;">
								<path id="&lt;Path&gt;" class="s8" d="m374.3 303.1v0.8l8.3 4.8v-0.7z"/>
							</g>
							<g id="&lt;Group&gt;">
								<path id="&lt;Path&gt;" class="s1" d="m382.6 308v0.7l7.3-4.2v-0.7z"/>
							</g>
						</g>
						<g id="&lt;Group&gt;">
							<g id="&lt;Group&gt;">
								<path id="&lt;Path&gt;" class="s4" d="m383.9 308.7l8.3 4.8 7.3-4.1-8.3-4.9z"/>
							</g>
							<g id="&lt;Group&gt;">
								<path id="&lt;Path&gt;" class="s8" d="m383.9 308.7v0.8l8.3 4.8v-0.8z"/>
							</g>
							<g id="&lt;Group&gt;">
								<path id="&lt;Path&gt;" class="s1" d="m392.2 313.5v0.8l7.3-4.2v-0.7z"/>
							</g>
						</g>
						<g id="&lt;Group&gt;">
							<g id="&lt;Group&gt;">
								<path id="&lt;Path&gt;" class="s4" d="m393.5 314.3l8.3 4.8 7.3-4.2-8.3-4.8z"/>
							</g>
							<g id="&lt;Group&gt;">
								<path id="&lt;Path&gt;" class="s8" d="m393.5 314.3v0.8l8.3 4.8v-0.8z"/>
							</g>
							<g id="&lt;Group&gt;">
								<path id="&lt;Path&gt;" class="s1" d="m401.8 319.1v0.8l7.3-4.2v-0.8z"/>
							</g>
						</g>
						<g id="&lt;Group&gt;">
							<g id="&lt;Group&gt;">
								<path id="&lt;Path&gt;" class="s4" d="m403.1 319.9l8.3 4.8 7.3-4.2-8.3-4.8z"/>
							</g>
							<g id="&lt;Group&gt;">
								<path id="&lt;Path&gt;" class="s8" d="m403.1 319.9v0.7l8.3 4.9v-0.8z"/>
							</g>
							<g id="&lt;Group&gt;">
								<path id="&lt;Path&gt;" class="s1" d="m411.4 324.7v0.8l7.3-4.2v-0.8z"/>
							</g>
						</g>
						<g id="&lt;Group&gt;">
							<g id="&lt;Group&gt;">
								<path id="&lt;Path&gt;" class="s4" d="m412.7 325.5l8.3 4.8 7.3-4.2-8.3-4.8z"/>
							</g>
							<g id="&lt;Group&gt;">
								<path id="&lt;Path&gt;" class="s8" d="m412.7 325.5v0.7l8.3 4.9v-0.8z"/>
							</g>
							<g id="&lt;Group&gt;">
								<path id="&lt;Path&gt;" class="s1" d="m421 330.3v0.8l7.3-4.2v-0.8z"/>
							</g>
						</g>
						<g id="&lt;Group&gt;">
							<g id="&lt;Group&gt;">
								<path id="&lt;Path&gt;" class="s4" d="m422.3 331l8.4 4.9 7.2-4.2-8.3-4.8z"/>
							</g>
							<g id="&lt;Group&gt;">
								<path id="&lt;Path&gt;" class="s8" d="m422.3 331v0.8l8.4 4.8v-0.7z"/>
							</g>
							<g id="&lt;Group&gt;">
								<path id="&lt;Path&gt;" class="s1" d="m430.7 335.9v0.7l7.2-4.2v-0.7z"/>
							</g>
						</g>
						<g id="&lt;Group&gt;">
							<g id="&lt;Group&gt;">
								<path id="&lt;Path&gt;" class="s4" d="m431.9 336.6l8.4 4.9 7.2-4.2-8.3-4.9z"/>
							</g>
							<g id="&lt;Group&gt;">
								<path id="&lt;Path&gt;" class="s8" d="m431.9 336.6v0.8l8.4 4.8v-0.7z"/>
							</g>
							<g id="&lt;Group&gt;">
								<path id="&lt;Path&gt;" class="s1" d="m440.3 341.5v0.7l7.2-4.2v-0.7z"/>
							</g>
						</g>
						<g id="&lt;Group&gt;">
							<g id="&lt;Group&gt;">
								<path id="&lt;Path&gt;" class="s4" d="m441.6 342.2l8.3 4.8 7.2-4.2-8.3-4.8z"/>
							</g>
							<g id="&lt;Group&gt;">
								<path id="&lt;Path&gt;" class="s8" d="m441.6 342.2v0.8l8.3 4.8v-0.8z"/>
							</g>
							<g id="&lt;Group&gt;">
								<path id="&lt;Path&gt;" class="s1" d="m449.9 347v0.8l7.2-4.2v-0.8z"/>
							</g>
						</g>
						<g id="&lt;Group&gt;">
							<g id="&lt;Group&gt;">
								<path id="&lt;Path&gt;" class="s4" d="m451.2 347.8l8.3 4.8 7.2-4.2-8.3-4.8z"/>
							</g>
							<g id="&lt;Group&gt;">
								<path id="&lt;Path&gt;" class="s8" d="m451.2 347.8v0.7l8.3 4.9v-0.8z"/>
							</g>
							<g id="&lt;Group&gt;">
								<path id="&lt;Path&gt;" class="s1" d="m459.5 352.6v0.8l7.2-4.2v-0.8z"/>
							</g>
						</g>
						<g id="&lt;Group&gt;">
							<g id="&lt;Group&gt;">
								<path id="&lt;Path&gt;" class="s4" d="m460.8 353.4l8.3 4.8 7.2-4.2-8.3-4.8z"/>
							</g>
							<g id="&lt;Group&gt;">
								<path id="&lt;Path&gt;" class="s8" d="m460.8 353.4v0.7l8.3 4.9v-0.8z"/>
							</g>
							<g id="&lt;Group&gt;">
								<path id="&lt;Path&gt;" class="s1" d="m469.1 358.2v0.8l7.2-4.2v-0.8z"/>
							</g>
						</g>
						<g id="&lt;Group&gt;">
							<g id="&lt;Group&gt;">
								<path id="&lt;Path&gt;" class="s4" d="m470.4 358.9l8.3 4.9 7.3-4.2-8.4-4.8z"/>
							</g>
							<g id="&lt;Group&gt;">
								<path id="&lt;Path&gt;" class="s8" d="m470.4 358.9v0.8l8.3 4.8v-0.7z"/>
							</g>
							<g id="&lt;Group&gt;">
								<path id="&lt;Path&gt;" class="s1" d="m478.7 363.8v0.7l7.3-4.1v-0.8z"/>
							</g>
						</g>
						<g id="&lt;Group&gt;">
							<g id="&lt;Group&gt;">
								<path id="&lt;Path&gt;" class="s4" d="m480 364.5l8.3 4.9 7.3-4.2-8.4-4.9z"/>
							</g>
							<g id="&lt;Group&gt;">
								<path id="&lt;Path&gt;" class="s8" d="m480 364.5v0.8l8.3 4.8v-0.7z"/>
							</g>
							<g id="&lt;Group&gt;">
								<path id="&lt;Path&gt;" class="s1" d="m488.3 369.4v0.7l7.3-4.2v-0.7z"/>
							</g>
						</g>
						<g id="&lt;Group&gt;">
							<g id="&lt;Group&gt;">
								<path id="&lt;Path&gt;" class="s8" d="m489.3 370v0.7l4.5 2.6v-0.8z"/>
							</g>
							<g id="&lt;Group&gt;">
								<path id="&lt;Path&gt;" class="s8" d="m493.8 372.5v0.8l1.4 0.8v-0.8z"/>
							</g>
							<g id="&lt;Group&gt;">
								<path id="&lt;Path&gt;" class="s4" d="m489.3 370l4.5 2.5 1.4 0.8 4.7 2.8 7.3-4.2-4.8-2.7-1.4-0.9-4.4-2.5z"/>
							</g>
							<g id="&lt;Group&gt;">
								<path id="&lt;Path&gt;" class="s8" d="m495.2 373.3v0.8l4.7 2.8v-0.8z"/>
							</g>
							<g id="&lt;Group&gt;">
								<path id="&lt;Path&gt;" class="s1" d="m499.9 376.1v0.8l7.3-4.2v-0.8z"/>
							</g>
						</g>
						<g id="&lt;Group&gt;">
							<g id="&lt;Group&gt;">
								<path id="&lt;Path&gt;" class="s1" d="m367.6 308.9v0.7l7.2-4.2v-0.7z"/>
							</g>
							<g id="&lt;Group&gt;">
								<path id="&lt;Path&gt;" class="s8" d="m364.7 307.2v0.8l2.9 1.6v-0.7z"/>
							</g>
							<g id="&lt;Group&gt;">
								<path id="&lt;Path&gt;" class="s1" d="m356.4 312v0.8l8.3-4.8v-0.8z"/>
							</g>
							<g id="&lt;Group&gt;">
								<path id="&lt;Path&gt;" class="s4" d="m345.2 305.5l11.2 6.5 8.3-4.8 2.9 1.7 7.2-4.2-14.1-8.2-6.1 3.5-1.1 0.7z"/>
							</g>
							<g id="&lt;Group&gt;">
								<path id="&lt;Path&gt;" class="s8" d="m345.2 305.5v0.7l11.2 6.6v-0.8z"/>
							</g>
							<g id="&lt;Group&gt;">
								<path id="&lt;Path&gt;" class="s4" d="m369.1 309.8l8.3 4.8 7.3-4.2-8.3-4.8z"/>
							</g>
							<g id="&lt;Group&gt;">
								<path id="&lt;Path&gt;" class="s8" d="m369.1 309.8v0.7l8.3 4.9v-0.8z"/>
							</g>
							<g id="&lt;Group&gt;">
								<path id="&lt;Path&gt;" class="s1" d="m377.4 314.6v0.8l7.3-4.2v-0.8z"/>
							</g>
							<g id="&lt;Group&gt;">
								<path id="&lt;Path&gt;" class="s1" d="m366 317.6v0.7l7.2-4.2v-0.7z"/>
							</g>
							<g id="&lt;Group&gt;">
								<path id="&lt;Path&gt;" class="s8" d="m357.7 312.7v0.8l8.3 4.8v-0.7z"/>
							</g>
							<g id="&lt;Group&gt;">
								<path id="&lt;Path&gt;" class="s4" d="m357.7 312.7l8.3 4.9 7.2-4.2-8.3-4.8z"/>
							</g>
						</g>
						<g id="&lt;Group&gt;">
							<g id="&lt;Group&gt;">
								<path id="&lt;Path&gt;" class="s4" d="m378.7 315.3l8.3 4.9 7.3-4.2-8.3-4.8z"/>
							</g>
							<g id="&lt;Group&gt;">
								<path id="&lt;Path&gt;" class="s8" d="m378.7 315.3v0.8l8.3 4.8v-0.7z"/>
							</g>
							<g id="&lt;Group&gt;">
								<path id="&lt;Path&gt;" class="s1" d="m387 320.2v0.7l7.3-4.2v-0.7z"/>
							</g>
						</g>
						<g id="&lt;Group&gt;">
							<g id="&lt;Group&gt;">
								<path id="&lt;Path&gt;" class="s4" d="m388.3 320.9l8.4 4.9 7.2-4.2-8.3-4.9z"/>
							</g>
							<g id="&lt;Group&gt;">
								<path id="&lt;Path&gt;" class="s8" d="m388.3 320.9v0.8l8.4 4.8v-0.7z"/>
							</g>
							<g id="&lt;Group&gt;">
								<path id="&lt;Path&gt;" class="s1" d="m396.7 325.8v0.7l7.2-4.2v-0.7z"/>
							</g>
						</g>
						<g id="&lt;Group&gt;">
							<g id="&lt;Group&gt;">
								<path id="&lt;Path&gt;" class="s4" d="m397.9 326.5l8.4 4.8 7.2-4.1-8.3-4.9z"/>
							</g>
							<g id="&lt;Group&gt;">
								<path id="&lt;Path&gt;" class="s8" d="m397.9 326.5v0.8l8.4 4.8v-0.8z"/>
							</g>
							<g id="&lt;Group&gt;">
								<path id="&lt;Path&gt;" class="s1" d="m406.3 331.3v0.8l7.2-4.2v-0.7z"/>
							</g>
						</g>
						<g id="&lt;Group&gt;">
							<g id="&lt;Group&gt;">
								<path id="&lt;Path&gt;" class="s4" d="m407.6 332.1l8.3 4.8 7.2-4.2-8.3-4.8z"/>
							</g>
							<g id="&lt;Group&gt;">
								<path id="&lt;Path&gt;" class="s8" d="m407.6 332.1v0.7l8.3 4.9v-0.8z"/>
							</g>
							<g id="&lt;Group&gt;">
								<path id="&lt;Path&gt;" class="s1" d="m415.9 336.9v0.8l7.2-4.2v-0.8z"/>
							</g>
						</g>
						<g id="&lt;Group&gt;">
							<g id="&lt;Group&gt;">
								<path id="&lt;Path&gt;" class="s4" d="m417.2 337.7l8.3 4.8 7.2-4.2-8.3-4.8z"/>
							</g>
							<g id="&lt;Group&gt;">
								<path id="&lt;Path&gt;" class="s8" d="m417.2 337.7v0.7l8.3 4.9v-0.8z"/>
							</g>
							<g id="&lt;Group&gt;">
								<path id="&lt;Path&gt;" class="s1" d="m425.5 342.5v0.8l7.2-4.2v-0.8z"/>
							</g>
						</g>
						<g id="&lt;Group&gt;">
							<g id="&lt;Group&gt;">
								<path id="&lt;Path&gt;" class="s4" d="m426.8 343.3l8.3 4.8 7.2-4.2-8.3-4.8z"/>
							</g>
							<g id="&lt;Group&gt;">
								<path id="&lt;Path&gt;" class="s8" d="m426.8 343.3v0.7l8.3 4.8v-0.7z"/>
							</g>
							<g id="&lt;Group&gt;">
								<path id="&lt;Path&gt;" class="s1" d="m435.1 348.1v0.7l7.2-4.1v-0.8z"/>
							</g>
						</g>
						<g id="&lt;Group&gt;">
							<g id="&lt;Group&gt;">
								<path id="&lt;Path&gt;" class="s4" d="m436.4 348.8l8.3 4.9 7.3-4.2-8.4-4.9z"/>
							</g>
							<g id="&lt;Group&gt;">
								<path id="&lt;Path&gt;" class="s8" d="m436.4 348.8v0.8l8.3 4.8v-0.7z"/>
							</g>
							<g id="&lt;Group&gt;">
								<path id="&lt;Path&gt;" class="s1" d="m444.7 353.7v0.7l7.3-4.2v-0.7z"/>
							</g>
						</g>
						<g id="&lt;Group&gt;">
							<g id="&lt;Group&gt;">
								<path id="&lt;Path&gt;" class="s4" d="m446 354.4l8.3 4.8 7.3-4.1-8.4-4.9z"/>
							</g>
							<g id="&lt;Group&gt;">
								<path id="&lt;Path&gt;" class="s8" d="m446 354.4v0.8l8.3 4.8v-0.8z"/>
							</g>
							<g id="&lt;Group&gt;">
								<path id="&lt;Path&gt;" class="s1" d="m454.3 359.2v0.8l7.3-4.2v-0.7z"/>
							</g>
						</g>
						<g id="&lt;Group&gt;">
							<g id="&lt;Group&gt;">
								<path id="&lt;Path&gt;" class="s4" d="m455.6 360l8.3 4.8 7.3-4.2-8.4-4.8z"/>
							</g>
							<g id="&lt;Group&gt;">
								<path id="&lt;Path&gt;" class="s8" d="m455.6 360v0.8l8.3 4.8v-0.8z"/>
							</g>
							<g id="&lt;Group&gt;">
								<path id="&lt;Path&gt;" class="s1" d="m463.9 364.8v0.8l7.3-4.2v-0.8z"/>
							</g>
						</g>
						<g id="&lt;Group&gt;">
							<g id="&lt;Group&gt;">
								<path id="&lt;Path&gt;" class="s4" d="m465.2 365.6l8.3 4.8 7.3-4.2-8.3-4.8z"/>
							</g>
							<g id="&lt;Group&gt;">
								<path id="&lt;Path&gt;" class="s8" d="m465.2 365.6v0.7l8.3 4.9v-0.8z"/>
							</g>
							<g id="&lt;Group&gt;">
								<path id="&lt;Path&gt;" class="s1" d="m473.5 370.4v0.8l7.3-4.2v-0.8z"/>
							</g>
						</g>
						<g id="&lt;Group&gt;">
							<g id="&lt;Group&gt;">
								<path id="&lt;Path&gt;" class="s8" d="m474.9 371.2v0.8l5.1 2.9v-0.7z"/>
							</g>
							<g id="&lt;Group&gt;">
								<path id="&lt;Path&gt;" class="s8" d="m480 374.2v0.7l3.6 2.1v-0.8z"/>
							</g>
							<g id="&lt;Group&gt;">
								<path id="&lt;Path&gt;" class="s8" d="m483.6 376.2v0.8l1.8 1.1v-0.8z"/>
							</g>
							<g id="&lt;Group&gt;">
								<path id="&lt;Path&gt;" class="s4" d="m474.9 371.2l5.1 3 3.6 2 1.8 1.1 6.2 3.6 7.3-4.2-6.3-3.6-1.8-1.1-3.6-2-2.2-1.3-2.9-1.7z"/>
							</g>
							<g id="&lt;Group&gt;">
								<path id="&lt;Path&gt;" class="s8" d="m485.4 377.3v0.8l6.2 3.6v-0.8z"/>
							</g>
							<g id="&lt;Group&gt;">
								<path id="&lt;Path&gt;" class="s1" d="m491.6 380.9v0.8l7.3-4.2v-0.8z"/>
							</g>
						</g>
						<g id="&lt;Group&gt;">
							<g id="&lt;Group&gt;">
								<path id="&lt;Path&gt;" class="s4" d="m336.7 310.4l14.1 8.2 7.2-4.2-14.1-8.2z"/>
							</g>
							<g id="&lt;Group&gt;">
								<path id="&lt;Path&gt;" class="s8" d="m336.7 310.4v0.7l14.1 8.2v-0.7z"/>
							</g>
							<g id="&lt;Group&gt;">
								<path id="&lt;Path&gt;" class="s1" d="m350.8 318.6v0.7l7.2-4.2v-0.7z"/>
							</g>
						</g>
						<g id="&lt;Group&gt;">
							<g id="&lt;Group&gt;">
								<path id="&lt;Path&gt;" class="s4" d="m367.3 318.3l8.3 4.9 7.2-4.2-8.3-4.9z"/>
							</g>
							<g id="&lt;Group&gt;">
								<path id="&lt;Path&gt;" class="s8" d="m367.3 318.3v0.8l8.3 4.8v-0.7z"/>
							</g>
							<g id="&lt;Group&gt;">
								<path id="&lt;Path&gt;" class="s1" d="m375.6 323.2v0.7l7.2-4.2v-0.7z"/>
							</g>
						</g>
						<g id="&lt;Group&gt;">
							<g id="&lt;Group&gt;">
								<path id="&lt;Path&gt;" class="s4" d="m352.3 319.5l8.3 4.8 7.3-4.2-8.3-4.8z"/>
							</g>
							<g id="&lt;Group&gt;">
								<path id="&lt;Path&gt;" class="s8" d="m352.3 319.5v0.7l8.3 4.9v-0.8z"/>
							</g>
							<g id="&lt;Group&gt;">
								<path id="&lt;Path&gt;" class="s1" d="m360.6 324.3v0.8l7.3-4.2v-0.8z"/>
							</g>
						</g>
						<g id="&lt;Group&gt;">
							<g id="&lt;Group&gt;">
								<path id="&lt;Path&gt;" class="s4" d="m376.9 323.9l8.3 4.8 7.3-4.2-8.4-4.8z"/>
							</g>
							<g id="&lt;Group&gt;">
								<path id="&lt;Path&gt;" class="s8" d="m376.9 323.9v0.8l8.3 4.8v-0.8z"/>
							</g>
							<g id="&lt;Group&gt;">
								<path id="&lt;Path&gt;" class="s1" d="m385.2 328.7v0.8l7.3-4.2v-0.8z"/>
							</g>
						</g>
						<g id="&lt;Group&gt;">
							<g id="&lt;Group&gt;">
								<path id="&lt;Path&gt;" class="s4" d="m361.9 325.1l8.3 4.8 7.3-4.2-8.3-4.8z"/>
							</g>
							<g id="&lt;Group&gt;">
								<path id="&lt;Path&gt;" class="s8" d="m361.9 325.1v0.7l8.3 4.8v-0.7z"/>
							</g>
							<g id="&lt;Group&gt;">
								<path id="&lt;Path&gt;" class="s1" d="m370.2 329.9v0.7l7.3-4.1v-0.8z"/>
							</g>
						</g>
						<g id="&lt;Group&gt;">
							<g id="&lt;Group&gt;">
								<path id="&lt;Path&gt;" class="s4" d="m386.5 329.5l8.3 4.8 7.2-4.2-8.3-4.8z"/>
							</g>
							<g id="&lt;Group&gt;">
								<path id="&lt;Path&gt;" class="s8" d="m386.5 329.5v0.7l8.3 4.9v-0.8z"/>
							</g>
							<g id="&lt;Group&gt;">
								<path id="&lt;Path&gt;" class="s1" d="m394.8 334.3v0.8l7.3-4.2-0.1-0.8z"/>
							</g>
						</g>
						<g id="&lt;Group&gt;">
							<g id="&lt;Group&gt;">
								<path id="&lt;Path&gt;" class="s4" d="m371.5 330.6l8.3 4.9 7.3-4.2-8.3-4.9z"/>
							</g>
							<g id="&lt;Group&gt;">
								<path id="&lt;Path&gt;" class="s8" d="m371.5 330.6v0.8l8.3 4.8v-0.7z"/>
							</g>
							<g id="&lt;Group&gt;">
								<path id="&lt;Path&gt;" class="s1" d="m379.8 335.5v0.7l7.3-4.2v-0.7z"/>
							</g>
						</g>
						<g id="&lt;Group&gt;">
							<g id="&lt;Group&gt;">
								<path id="&lt;Path&gt;" class="s4" d="m396.1 335.1l8.3 4.8 7.3-4.2-8.4-4.8z"/>
							</g>
							<g id="&lt;Group&gt;">
								<path id="&lt;Path&gt;" class="s8" d="m396.1 335.1v0.7l8.3 4.9v-0.8z"/>
							</g>
							<g id="&lt;Group&gt;">
								<path id="&lt;Path&gt;" class="s1" d="m404.4 339.9v0.8l7.3-4.2v-0.8z"/>
							</g>
						</g>
						<g id="&lt;Group&gt;">
							<g id="&lt;Group&gt;">
								<path id="&lt;Path&gt;" class="s4" d="m381.1 336.2l8.3 4.8 7.3-4.1-8.3-4.9z"/>
							</g>
							<g id="&lt;Group&gt;">
								<path id="&lt;Path&gt;" class="s8" d="m381.1 336.2v0.8l8.3 4.8v-0.8z"/>
							</g>
							<g id="&lt;Group&gt;">
								<path id="&lt;Path&gt;" class="s1" d="m389.4 341v0.8l7.3-4.2v-0.7z"/>
							</g>
						</g>
						<g id="&lt;Group&gt;">
							<g id="&lt;Group&gt;">
								<path id="&lt;Path&gt;" class="s4" d="m405.7 340.6l8.3 4.9 7.3-4.2-8.3-4.8z"/>
							</g>
							<g id="&lt;Group&gt;">
								<path id="&lt;Path&gt;" class="s8" d="m405.7 340.6v0.8l8.3 4.8v-0.7z"/>
							</g>
							<g id="&lt;Group&gt;">
								<path id="&lt;Path&gt;" class="s1" d="m414 345.5v0.7l7.3-4.1v-0.8z"/>
							</g>
						</g>
						<g id="&lt;Group&gt;">
							<g id="&lt;Group&gt;">
								<path id="&lt;Path&gt;" class="s4" d="m390.7 341.8l8.4 4.8 7.2-4.2-8.3-4.8z"/>
							</g>
							<g id="&lt;Group&gt;">
								<path id="&lt;Path&gt;" class="s8" d="m390.7 341.8v0.8l8.4 4.8v-0.8z"/>
							</g>
							<g id="&lt;Group&gt;">
								<path id="&lt;Path&gt;" class="s1" d="m399.1 346.6v0.8l7.2-4.2v-0.8z"/>
							</g>
						</g>
						<g id="&lt;Group&gt;">
							<g id="&lt;Group&gt;">
								<path id="&lt;Path&gt;" class="s4" d="m415.3 346.2l8.3 4.9 7.3-4.2-8.3-4.9z"/>
							</g>
							<g id="&lt;Group&gt;">
								<path id="&lt;Path&gt;" class="s8" d="m415.3 346.2v0.8l8.3 4.8v-0.7z"/>
							</g>
							<g id="&lt;Group&gt;">
								<path id="&lt;Path&gt;" class="s1" d="m423.6 351.1v0.7l7.3-4.2v-0.7z"/>
							</g>
						</g>
						<g id="&lt;Group&gt;">
							<g id="&lt;Group&gt;">
								<path id="&lt;Path&gt;" class="s4" d="m400.3 347.4l8.4 4.8 7.2-4.2-8.3-4.8z"/>
							</g>
							<g id="&lt;Group&gt;">
								<path id="&lt;Path&gt;" class="s8" d="m400.3 347.4v0.7l8.4 4.9v-0.8z"/>
							</g>
							<g id="&lt;Group&gt;">
								<path id="&lt;Path&gt;" class="s1" d="m408.7 352.2v0.8l7.2-4.2v-0.8z"/>
							</g>
						</g>
						<g id="&lt;Group&gt;">
							<g id="&lt;Group&gt;">
								<path id="&lt;Path&gt;" class="s4" d="m424.9 351.8l8.3 4.8 7.3-4.1-8.3-4.9z"/>
							</g>
							<g id="&lt;Group&gt;">
								<path id="&lt;Path&gt;" class="s8" d="m424.9 351.8v0.8l8.3 4.8v-0.8z"/>
							</g>
							<g id="&lt;Group&gt;">
								<path id="&lt;Path&gt;" class="s1" d="m433.2 356.6v0.8l7.3-4.2v-0.7z"/>
							</g>
						</g>
						<g id="&lt;Group&gt;">
							<g id="&lt;Group&gt;">
								<path id="&lt;Path&gt;" class="s4" d="m410 353l8.3 4.8 7.2-4.2-8.3-4.8z"/>
							</g>
							<g id="&lt;Group&gt;">
								<path id="&lt;Path&gt;" class="s8" d="m410 353v0.7l8.3 4.9v-0.8z"/>
							</g>
							<g id="&lt;Group&gt;">
								<path id="&lt;Path&gt;" class="s1" d="m418.3 357.8v0.8l7.2-4.2v-0.8z"/>
							</g>
						</g>
						<g id="&lt;Group&gt;">
							<g id="&lt;Group&gt;">
								<path id="&lt;Path&gt;" class="s4" d="m434.5 357.4l8.3 4.8 7.3-4.2-8.3-4.8z"/>
							</g>
							<g id="&lt;Group&gt;">
								<path id="&lt;Path&gt;" class="s8" d="m434.5 357.4v0.8l8.3 4.8v-0.8z"/>
							</g>
							<g id="&lt;Group&gt;">
								<path id="&lt;Path&gt;" class="s1" d="m442.8 362.2v0.8l7.3-4.2v-0.8z"/>
							</g>
						</g>
						<g id="&lt;Group&gt;">
							<g id="&lt;Group&gt;">
								<path id="&lt;Path&gt;" class="s4" d="m419.6 358.5l8.3 4.9 7.2-4.2-8.3-4.8z"/>
							</g>
							<g id="&lt;Group&gt;">
								<path id="&lt;Path&gt;" class="s8" d="m419.6 358.5v0.8l8.3 4.8v-0.7z"/>
							</g>
							<g id="&lt;Group&gt;">
								<path id="&lt;Path&gt;" class="s1" d="m427.9 363.4v0.7l7.2-4.2v-0.7z"/>
							</g>
						</g>
						<g id="&lt;Group&gt;">
							<g id="&lt;Group&gt;">
								<path id="&lt;Path&gt;" class="s4" d="m444.1 363l8.3 4.8 7.3-4.2-8.3-4.8z"/>
							</g>
							<g id="&lt;Group&gt;">
								<path id="&lt;Path&gt;" class="s8" d="m444.1 363v0.7l8.3 4.9v-0.8z"/>
							</g>
							<g id="&lt;Group&gt;">
								<path id="&lt;Path&gt;" class="s1" d="m452.4 367.8v0.8l7.3-4.2v-0.8z"/>
							</g>
						</g>
						<g id="&lt;Group&gt;">
							<g id="&lt;Group&gt;">
								<path id="&lt;Path&gt;" class="s4" d="m429.2 364.1l8.3 4.9 7.2-4.2-8.3-4.9z"/>
							</g>
							<g id="&lt;Group&gt;">
								<path id="&lt;Path&gt;" class="s8" d="m429.2 364.1v0.8l8.3 4.8v-0.7z"/>
							</g>
							<g id="&lt;Group&gt;">
								<path id="&lt;Path&gt;" class="s1" d="m437.5 369v0.7l7.2-4.2v-0.7z"/>
							</g>
						</g>
						<g id="&lt;Group&gt;">
							<g id="&lt;Group&gt;">
								<path id="&lt;Path&gt;" class="s4" d="m453.7 368.6l8.4 4.8 7.2-4.2-8.3-4.8z"/>
							</g>
							<g id="&lt;Group&gt;">
								<path id="&lt;Path&gt;" class="s8" d="m453.7 368.6v0.7l8.4 4.8v-0.7z"/>
							</g>
							<g id="&lt;Group&gt;">
								<path id="&lt;Path&gt;" class="s1" d="m462.1 373.4v0.7l7.2-4.1v-0.8z"/>
							</g>
						</g>
						<g id="&lt;Group&gt;">
							<g id="&lt;Group&gt;">
								<path id="&lt;Path&gt;" class="s4" d="m438.8 369.7l8.3 4.8 7.3-4.2-8.4-4.8z"/>
							</g>
							<g id="&lt;Group&gt;">
								<path id="&lt;Path&gt;" class="s8" d="m438.8 369.7v0.8l8.3 4.8v-0.8z"/>
							</g>
							<g id="&lt;Group&gt;">
								<path id="&lt;Path&gt;" class="s1" d="m447.1 374.5v0.8l7.3-4.2v-0.8z"/>
							</g>
						</g>
						<g id="&lt;Group&gt;">
							<g id="&lt;Group&gt;">
								<path id="&lt;Path&gt;" class="s4" d="m463.3 374.1l8.4 4.9 7.2-4.2-8.3-4.9z"/>
							</g>
							<g id="&lt;Group&gt;">
								<path id="&lt;Path&gt;" class="s8" d="m463.3 374.1v0.8l8.4 4.8v-0.7z"/>
							</g>
							<g id="&lt;Group&gt;">
								<path id="&lt;Path&gt;" class="s1" d="m471.7 379v0.7l7.2-4.2v-0.7z"/>
							</g>
						</g>
						<g id="&lt;Group&gt;">
							<g id="&lt;Group&gt;">
								<path id="&lt;Path&gt;" class="s4" d="m448.4 375.3l8.3 4.8 7.3-4.2-8.4-4.8z"/>
							</g>
							<g id="&lt;Group&gt;">
								<path id="&lt;Path&gt;" class="s8" d="m448.4 375.3v0.7l8.3 4.9v-0.8z"/>
							</g>
							<g id="&lt;Group&gt;">
								<path id="&lt;Path&gt;" class="s1" d="m456.7 380.1v0.8l7.3-4.2v-0.8z"/>
							</g>
						</g>
						<g id="&lt;Group&gt;">
							<g id="&lt;Group&gt;">
								<path id="&lt;Path&gt;" class="s8" d="m472.7 379.6v0.7l4.4 2.6v-0.8z"/>
							</g>
							<g id="&lt;Group&gt;">
								<path id="&lt;Path&gt;" class="s8" d="m477.1 382.1v0.8l1.4 0.8v-0.8z"/>
							</g>
							<g id="&lt;Group&gt;">
								<path id="&lt;Path&gt;" class="s4" d="m472.7 379.6l4.4 2.5 1.4 0.8 4.8 2.8 7.2-4.2-4.7-2.7-1.4-0.8-4.5-2.6z"/>
							</g>
							<g id="&lt;Group&gt;">
								<path id="&lt;Path&gt;" class="s8" d="m478.5 382.9v0.8l4.8 2.8v-0.8z"/>
							</g>
							<g id="&lt;Group&gt;">
								<path id="&lt;Path&gt;" class="s1" d="m483.3 385.7v0.8l7.2-4.2v-0.8z"/>
							</g>
						</g>
						<g id="&lt;Group&gt;">
							<g id="&lt;Group&gt;">
								<path id="&lt;Path&gt;" class="s8" d="m458.1 380.9v0.8l5.1 2.9v-0.7z"/>
							</g>
							<g id="&lt;Group&gt;">
								<path id="&lt;Path&gt;" class="s8" d="m463.2 383.9v0.7l3.5 2.1v-0.8z"/>
							</g>
							<g id="&lt;Group&gt;">
								<path id="&lt;Path&gt;" class="s8" d="m466.7 385.9v0.8l1.9 1.1v-0.8z"/>
							</g>
							<g id="&lt;Group&gt;">
								<path id="&lt;Path&gt;" class="s4" d="m458.1 380.9l5.1 3 3.5 2 1.9 1.1 6.2 3.6 7.2-4.2-6.2-3.6-1.8-1-3.6-2.1-2.2-1.3-2.9-1.7z"/>
							</g>
							<g id="&lt;Group&gt;">
								<path id="&lt;Path&gt;" class="s8" d="m468.6 387v0.8l6.2 3.6v-0.8z"/>
							</g>
							<g id="&lt;Group&gt;">
								<path id="&lt;Path&gt;" class="s1" d="m474.8 390.6v0.8l7.2-4.2v-0.8z"/>
							</g>
						</g>
						<g id="&lt;Group&gt;">
							<g id="&lt;Group&gt;">
								<path id="&lt;Path&gt;" class="s4" d="m328.2 315.3l11.2 6.5 7.2-4.2-11.2-6.5z"/>
							</g>
							<g id="&lt;Group&gt;">
								<path id="&lt;Path&gt;" class="s8" d="m328.2 315.3v0.8l11.2 6.5v-0.8z"/>
							</g>
							<g id="&lt;Group&gt;">
								<path id="&lt;Path&gt;" class="s1" d="m339.4 321.8v0.8l7.2-4.2v-0.8z"/>
							</g>
						</g>
						<g id="&lt;Group&gt;">
							<g id="&lt;Group&gt;">
								<path id="&lt;Path&gt;" class="s4" d="m340.7 322.5l8.3 4.9 7.2-4.2-8.3-4.8z"/>
							</g>
							<g id="&lt;Group&gt;">
								<path id="&lt;Path&gt;" class="s8" d="m340.7 322.5v0.8l8.3 4.8v-0.7z"/>
							</g>
							<g id="&lt;Group&gt;">
								<path id="&lt;Path&gt;" class="s1" d="m349 327.4v0.7l7.2-4.2v-0.7z"/>
							</g>
						</g>
						<g id="&lt;Group&gt;">
							<g id="&lt;Group&gt;">
								<path id="&lt;Path&gt;" class="s4" d="m350.3 328.1l8.3 4.9 7.3-4.2-8.4-4.9z"/>
							</g>
							<g id="&lt;Group&gt;">
								<path id="&lt;Path&gt;" class="s8" d="m350.3 328.1v0.8l8.3 4.8v-0.7z"/>
							</g>
							<g id="&lt;Group&gt;">
								<path id="&lt;Path&gt;" class="s1" d="m358.6 333v0.7l7.3-4.2v-0.7z"/>
							</g>
						</g>
						<g id="&lt;Group&gt;">
							<g id="&lt;Group&gt;">
								<path id="&lt;Path&gt;" class="s4" d="m359.9 333.7l8.3 4.8 7.3-4.1-8.4-4.9z"/>
							</g>
							<g id="&lt;Group&gt;">
								<path id="&lt;Path&gt;" class="s8" d="m359.9 333.7v0.8l8.3 4.8v-0.8z"/>
							</g>
							<g id="&lt;Group&gt;">
								<path id="&lt;Path&gt;" class="s1" d="m368.2 338.5v0.8l7.3-4.2v-0.7z"/>
							</g>
						</g>
						<g id="&lt;Group&gt;">
							<g id="&lt;Group&gt;">
								<path id="&lt;Path&gt;" class="s4" d="m369.5 339.3l8.3 4.8 7.3-4.2-8.4-4.8z"/>
							</g>
							<g id="&lt;Group&gt;">
								<path id="&lt;Path&gt;" class="s8" d="m369.5 339.3v0.8l8.3 4.8v-0.8z"/>
							</g>
							<g id="&lt;Group&gt;">
								<path id="&lt;Path&gt;" class="s1" d="m377.8 344.1v0.8l7.3-4.2v-0.8z"/>
							</g>
						</g>
						<g id="&lt;Group&gt;">
							<g id="&lt;Group&gt;">
								<path id="&lt;Path&gt;" class="s4" d="m379.1 344.9l46.7 27.1 7.3-4.2-46.7-27.1z"/>
							</g>
							<g id="&lt;Group&gt;">
								<path id="&lt;Path&gt;" class="s8" d="m379.1 344.9v0.7l46.7 27.2v-0.8z"/>
							</g>
							<g id="&lt;Group&gt;">
								<path id="&lt;Path&gt;" class="s1" d="m425.8 372v0.8l7.3-4.2v-0.8z"/>
							</g>
						</g>
						<g id="&lt;Group&gt;">
							<g id="&lt;Group&gt;">
								<path id="&lt;Path&gt;" class="s4" d="m427.1 372.8l8.3 4.8 7.3-4.2-8.3-4.8z"/>
							</g>
							<g id="&lt;Group&gt;">
								<path id="&lt;Path&gt;" class="s8" d="m427.1 372.8v0.7l8.3 4.9v-0.8z"/>
							</g>
							<g id="&lt;Group&gt;">
								<path id="&lt;Path&gt;" class="s1" d="m435.4 377.6v0.8l7.3-4.2v-0.8z"/>
							</g>
						</g>
						<g id="&lt;Group&gt;">
							<g id="&lt;Group&gt;">
								<path id="&lt;Path&gt;" class="s4" d="m436.7 378.4l8.4 4.8 7.2-4.2-8.3-4.8z"/>
							</g>
							<g id="&lt;Group&gt;">
								<path id="&lt;Path&gt;" class="s8" d="m436.7 378.4v0.7l8.4 4.9v-0.8z"/>
							</g>
							<g id="&lt;Group&gt;">
								<path id="&lt;Path&gt;" class="s1" d="m445.1 383.2v0.8l7.2-4.2v-0.8z"/>
							</g>
						</g>
						<g id="&lt;Group&gt;">
							<g id="&lt;Group&gt;">
								<path id="&lt;Path&gt;" class="s4" d="m446.3 383.9l8.4 4.9 7.2-4.2-8.3-4.9z"/>
							</g>
							<g id="&lt;Group&gt;">
								<path id="&lt;Path&gt;" class="s8" d="m446.3 383.9v0.8l8.4 4.8v-0.7z"/>
							</g>
							<g id="&lt;Group&gt;">
								<path id="&lt;Path&gt;" class="s1" d="m454.7 388.8v0.7l7.2-4.2v-0.7z"/>
							</g>
						</g>
						<g id="&lt;Group&gt;">
							<g id="&lt;Group&gt;">
								<path id="&lt;Path&gt;" class="s8" d="m455.7 389.4v0.7l4.4 2.6v-0.8z"/>
							</g>
							<g id="&lt;Group&gt;">
								<path id="&lt;Path&gt;" class="s8" d="m460.1 391.9v0.8l1.4 0.8v-0.7z"/>
							</g>
							<g id="&lt;Group&gt;">
								<path id="&lt;Path&gt;" class="s4" d="m455.7 389.4l4.4 2.5 1.4 0.9 4.8 2.7 7.3-4.2-4.8-2.7-1.4-0.8-4.4-2.6z"/>
							</g>
							<g id="&lt;Group&gt;">
								<path id="&lt;Path&gt;" class="s8" d="m461.5 392.8v0.7l4.8 2.8v-0.8z"/>
							</g>
							<g id="&lt;Group&gt;">
								<path id="&lt;Path&gt;" class="s1" d="m466.3 395.5v0.8l7.3-4.2v-0.8z"/>
							</g>
						</g>
					</g>
					<path id="&lt;Path&gt;" class="s3" d="m320.5 361.8l0.2 0.1c0 0 39-22.6 39.1-22.7v-0.2z"/>
					<path id="&lt;Path&gt;" class="s16" d="m387.9 400.2h0.1c0.1 0 39.1-22.6 39.2-22.6v-0.2z"/>
					<g id="&lt;Group&gt;">
						<path id="&lt;Path&gt;" class="s3" d="m426.8 428.7c17-10.2 34.1-20 51.1-29.9 17.2-9.8 34.3-19.8 51.5-29.4-16.9 10.1-34.1 19.9-51.1 29.9-17.2 9.8-34.3 19.7-51.5 29.4z"/>
					</g>
				</g>
				<g id="&lt;Group&gt;">
					<g id="&lt;Group&gt;">
						<path id="&lt;Path&gt;" class="s1" d="m512 176.6c-0.2 0.4-0.1 0.8 0.2 1.1 0.3 0.3 0.9 0.3 1.2-0.1 2-2.1 3.7-4.6 5.3-6.9 1-1.4 2.1-2.9 3.2-4.4 13.1-16.8 34.2-23.1 49.6-25.3 0.5-0.1 0.8-0.5 0.7-1 0-0.5-0.5-0.8-1-0.8-15.7 2.3-37.2 8.7-50.7 26.1-1.1 1.4-2.2 2.9-3.2 4.4-1.6 2.3-3.3 4.7-5.2 6.7q0 0.1-0.1 0.2z"/>
					</g>
					<path id="&lt;Path&gt;" class="s1" d="m591.2 129.8c1.1 0.1 2.2 0.3 3.1 0.8 2.5 1.5 3 5.2 1.6 7.7-1.4 2.6-4.1 4.1-6.8 5.1-4.7 1.7-20.5-2.9-20.5-2.9 0 0 16-11.3 22.6-10.7z"/>
					<path id="&lt;Path&gt;" class="s1" d="m565.5 122.6c0.6-0.6 1.3-1.2 2.1-1.5 2.2-0.8 4.8 0.8 5.7 3 0.9 2.2 0.5 4.7-0.3 7-1.4 3.8-12.6 11.3-12.6 11.3 0 0 1.2-16 5.1-19.8z"/>
					<path id="&lt;Path&gt;" class="s1" d="m576.9 148.7c0.8 0.7 1.5 1.5 1.9 2.4 1.2 2.5-0.5 5.6-3 6.8-2.5 1.2-5.5 0.9-8.1 0.1-4.6-1.3-14.1-13.7-14.1-13.7 0 0 18.6 0.3 23.3 4.4z"/>
					<path id="&lt;Path&gt;" class="s1" d="m542 123.4c0.5-1 1-2 1.8-2.7 2.1-1.9 5.7-1.3 7.7 0.8 2 2 2.7 5.1 2.8 7.9 0.2 5-8.8 18.5-8.8 18.5 0 0-6-18.5-3.5-24.5z"/>
					<path id="&lt;Path&gt;" class="s1" d="m560.3 156c0.8 0.7 1.6 1.5 2.1 2.4 1.2 2.6-0.5 5.9-3.1 7.2-2.5 1.3-5.6 1.1-8.4 0.3-4.8-1.2-15-13.8-15-13.8 0 0 19.4-0.3 24.4 3.9z"/>
					<path id="&lt;Path&gt;" class="s1" d="m548.3 170.2c0.9 0.8 1.8 1.7 2.3 2.8 1.4 2.9-0.5 6.6-3.4 8.1-2.9 1.4-6.3 1.2-9.5 0.3-5.4-1.4-16.9-15.6-16.9-15.6 0 0 21.9-0.3 27.5 4.4z"/>
					<path id="&lt;Path&gt;" class="s1" d="m520.9 132.6c0.2-1.1 0.4-2.3 1.1-3.2 1.7-2.5 5.7-2.7 8.2-1 2.6 1.7 4 4.6 4.8 7.6 1.3 5.1-4.9 21.2-4.9 21.2 0 0-10.5-17.8-9.2-24.6z"/>
				</g>
				<g id="&lt;Group&gt;">
					<path id="&lt;Path&gt;" class="s3" d="m556 239.7c-4.2 21.6-8.7 43.3-13 64.9-4.5 21.6-8.9 43.3-13.6 64.8 4.2-21.7 8.7-43.3 13-64.9 4.5-21.6 8.9-43.3 13.6-64.8z"/>
				</g>
				<g id="&lt;Group&gt;">
					<path id="&lt;Path&gt;" class="s2" d="m515.1 226.4l-81.1-46.8v-126.3l81.1 46.8z"/>
					<g id="&lt;Group&gt;">
						<path id="&lt;Path&gt;" class="s3" d="m438.3 76.7l72.5 41.8v98.1l-72.5-41.8z"/>
						<path id="&lt;Path&gt;" class="s13" d="m451.9 152.4l54.9 31.7v3.6l-54.9-31.7z"/>
						<path id="&lt;Path&gt;" class="s5" d="m455.9 73.5l54.9 31.7v8.4l-54.9-31.7z"/>
						<path id="&lt;Path&gt;" class="s5" d="m451.9 157.6l54.9 31.7v3.6l-54.9-31.7z"/>
						<path id="&lt;Path&gt;" class="s5" d="m442.3 157.3l64.5 37.2v3.6l-64.5-37.2z"/>
						<path id="&lt;Path&gt;" class="s5" d="m442.3 162.5l64.5 37.2v3.6l-64.5-37.2z"/>
						<path id="&lt;Path&gt;" class="s5" d="m442.3 167.7l64.5 37.2v3.6l-64.5-37.2z"/>
						<path id="&lt;Path&gt;" class="s2" d="m506.6 121.7v58.8l-64.5-37.3v-58.7l32.2 18.6z"/>
						<path id="&lt;Path&gt;" class="s5" d="m506.8 162.7v18l-64.5-37.3v-11.3c1.7-0.5 3.8-0.2 6.5 1.2 4.1 2.3 8.9 7.3 13.6 11.6 4.9 4.6 9.7 8.4 14.3 11.4 3.7 2.5 7.4 4.4 9.9 4 1.8-0.4 2.9-1.9 4.5-2.7 3.5-1.8 9.1 0.3 15.3 4.8 0.1 0.1 0.2 0.2 0.4 0.3z"/>
						<path id="&lt;Path&gt;" class="s5" d="m475.9 123.1c-0.4 3.5-1.3 6.6-4 6.5-2.7-0.1-7.5-4.3-10.8-10.4-0.6-1.1-1.3-2.4-2-3.1-0.3-0.2-0.5-0.3-0.8-0.4-2.7-1-4.8-0.3-5.8 2-0.7 1.7-0.9 4.3-1.7 5.9-1.3 2.9-4.6 2.6-8.7-0.2v-38.9l32.2 18.6c1.6 7.8 2.2 14.6 1.6 20z"/>
						<path id="&lt;Path&gt;" class="s9" d="m501.1 133.7c0 3.8-3.1 5.1-6.9 2.9-3.9-2.2-7-7.1-7-10.9 0-3.9 3.1-5.2 7-3 3.8 2.3 6.9 7.2 6.9 11z"/>
						<path id="&lt;Path&gt;" class="s5" d="m453.7 75.2c0 3.8-3.1 5.1-6.9 2.9-3.9-2.2-7-7.1-7-10.9 0-3.9 3.1-5.2 7-3 3.8 2.2 6.9 7.1 6.9 11z"/>
						<path id="&lt;Path&gt;" class="s13" d="m448.2 151.8c-0.5-0.3-1-0.4-1.4-0.3-0.4-0.5-0.9-1-1.5-1.4-1.3-0.7-2.3-0.3-2.3 1 0 1.8 3.8 6.5 3.8 6.5 0 0 3.8 0.4 3.8-2.1 0-1.3-1.1-2.9-2.4-3.7z"/>
					</g>
				</g>
				<g id="&lt;Group&gt;">
					<path id="&lt;Path&gt;" class="s13" d="m573.4 304.5l-81.1-46.8v-129.5l81.1 46.8z"/>
					<g id="&lt;Group&gt;">
						<path id="&lt;Path&gt;" class="s3" d="m496.6 154.8l72.5 41.8v98.1l-72.5-41.8z"/>
						<path id="&lt;Path&gt;" class="s13" d="m510.3 230.5l54.8 31.7v3.6l-54.8-31.7z"/>
						<path id="&lt;Path&gt;" class="s3" d="m514.3 149.9l54.8 31.7v8.3l-54.8-31.7z"/>
						<path id="&lt;Path&gt;" class="s5" d="m510.3 235.7l54.8 31.7v3.6l-54.8-31.7z"/>
						<path id="&lt;Path&gt;" class="s5" d="m500.6 235.4l64.5 37.2v3.6l-64.5-37.2z"/>
						<path id="&lt;Path&gt;" class="s5" d="m500.6 240.6l64.5 37.2v3.6l-64.5-37.2z"/>
						<path id="&lt;Path&gt;" class="s5" d="m500.6 245.8l64.5 37.2v3.6l-64.5-37.2z"/>
						<path id="&lt;Path&gt;" class="s5" d="m564.9 199.8v58.8l-64.5-37.3v-58.7l32.2 18.6z"/>
						<path id="&lt;Path&gt;" class="s13" d="m564.9 240.6v18l-64.5-37.3v-11.2c1.7-0.5 3.9-0.3 6.5 1.1 4.1 2.3 9 7.3 13.6 11.6 4.9 4.6 9.7 8.4 14.3 11.4 3.7 2.5 7.4 4.4 9.9 4 1.8-0.4 3-1.9 4.5-2.7 3.5-1.8 9.1 0.3 15.3 4.8 0.1 0.1 0.3 0.2 0.4 0.3z"/>
						<path id="&lt;Path&gt;" class="s13" d="m534.2 201.2c-0.4 3.5-1.3 6.6-4 6.5-2.7-0.1-7.5-4.3-10.8-10.4-0.6-1.1-1.3-2.4-2-3-0.3-0.3-0.5-0.4-0.8-0.5-2.7-1-4.8-0.3-5.8 2-0.7 1.7-0.9 4.3-1.7 5.9-1.3 2.9-4.6 2.6-8.7-0.2v-38.9l32.2 18.6c1.6 7.8 2.2 14.6 1.6 20z"/>
						<path id="&lt;Path&gt;" class="s9" d="m559.4 211.8c0 3.8-3.1 5.1-6.9 2.9-3.9-2.2-7-7.1-7-10.9 0-3.9 3.1-5.2 7-3 3.8 2.3 6.9 7.2 6.9 11z"/>
						<path id="&lt;Path&gt;" class="s9" d="m512 153.3c0 3.8-3.1 5.1-6.9 2.9-3.8-2.2-7-7.1-7-10.9 0-3.9 3.2-5.2 7-3 3.8 2.2 6.9 7.2 6.9 11z"/>
						<path id="&lt;Path&gt;" class="s13" d="m506.6 229.9c-0.6-0.3-1.1-0.4-1.5-0.3-0.4-0.5-0.9-1-1.5-1.4-1.3-0.7-2.3-0.3-2.3 1 0 1.8 3.8 6.5 3.8 6.5 0 0 3.8 0.4 3.8-2.1 0-1.3-1.1-2.9-2.3-3.7z"/>
					</g>
				</g>
				<g id="&lt;Group&gt;">
					<path id="&lt;Path&gt;" class="s1" d="m454.6 241.8l-81.1-46.8v-129.5l81.1 46.7z"/>
					<g id="&lt;Group&gt;">
						<path id="&lt;Path&gt;" class="s3" d="m377.8 92.1l72.5 41.8v98.1l-72.5-41.8z"/>
						<path id="&lt;Path&gt;" class="s4" d="m391.4 167.8l54.9 31.7v3.6l-54.9-31.7z"/>
						<path id="&lt;Path&gt;" class="s3" d="m395.4 87.2l54.9 31.7v8.3l-54.9-31.7z"/>
						<path id="&lt;Path&gt;" class="s1" d="m391.4 173l54.9 31.7v3.6l-54.9-31.7z"/>
						<path id="&lt;Path&gt;" class="s1" d="m381.8 172.7l64.5 37.2v3.6l-64.5-37.2z"/>
						<path id="&lt;Path&gt;" class="s1" d="m381.8 177.9l64.5 37.2v3.6l-64.5-37.2z"/>
						<path id="&lt;Path&gt;" class="s1" d="m381.8 183.1l64.5 37.2v3.6l-64.5-37.2z"/>
						<path id="&lt;Path&gt;" class="s1" d="m446 137.1v58.8l-64.4-37.3v-58.7l32.2 18.6z"/>
						<path id="&lt;Path&gt;" class="s4" d="m446.1 177.9v18l-64.5-37.3v-11.2c1.7-0.5 3.8-0.3 6.5 1.1 4.1 2.3 8.9 7.3 13.6 11.6 4.9 4.6 9.7 8.4 14.3 11.4 3.7 2.5 7.4 4.4 9.9 4 1.8-0.4 2.9-1.9 4.5-2.7 3.5-1.8 9.1 0.3 15.3 4.8 0.1 0.1 0.2 0.2 0.4 0.3z"/>
						<path id="&lt;Path&gt;" class="s4" d="m415.4 138.5c-0.4 3.5-1.3 6.6-4 6.5-2.7-0.1-7.5-4.3-10.9-10.4-0.6-1.1-1.2-2.4-1.9-3.1-0.3-0.2-0.5-0.3-0.8-0.4-2.8-1-4.8-0.3-5.8 2-0.8 1.7-0.9 4.3-1.7 5.9-1.3 2.9-4.6 2.6-8.7-0.2v-38.9l32.2 18.6c1.6 7.8 2.2 14.6 1.6 20z"/>
						<path id="&lt;Path&gt;" class="s9" d="m440.6 149.1c0 3.8-3.1 5.1-7 2.9-3.8-2.2-6.9-7.1-6.9-10.9 0-3.9 3.1-5.2 6.9-3 3.9 2.3 7 7.2 7 11z"/>
						<path id="&lt;Path&gt;" class="s4" d="m393.2 90.6c0 3.8-3.1 5.1-6.9 2.9-3.9-2.2-7-7.1-7-10.9 0-3.9 3.1-5.2 7-3 3.8 2.2 6.9 7.1 6.9 11z"/>
						<path id="&lt;Path&gt;" class="s4" d="m387.7 167.2c-0.5-0.3-1-0.4-1.4-0.3-0.4-0.5-0.9-1-1.5-1.4-1.3-0.7-2.3-0.3-2.3 1 0 1.8 3.8 6.5 3.8 6.5 0 0 3.8 0.4 3.8-2.1 0-1.3-1.1-2.9-2.4-3.7z"/>
					</g>
				</g>
				<g id="&lt;Group&gt;">
					<g id="&lt;Group&gt;">
						<path id="&lt;Path&gt;" class="s17" d="m377.1 369.1c7.8 4.5 7.8 11.8 0 16.3-7.8 4.5-20.4 4.5-28.2 0-7.8-4.5-7.8-11.8 0-16.3 7.8-4.4 20.4-4.4 28.2 0z"/>
						<path id="&lt;Path&gt;" class="s8" d="m385 379.1q0.1-0.2 0.1-0.4c0-0.9-1.2-1.7-3.7-1.5-1.1 0.1-2.1 0.1-2.9 0.2-1.6-0.3-3.1-0.6-4-1.1-0.4-0.2-1.2-1.2-1.8-1.2-2.5-0.1-7 1.7-7 1.7 0 0-1.2 4.7-0.9 5.5 0.3 0.7 0.3 1.2 1.9 1.9q0.3 0.1 0.7 0.2c0.6 0.1 1.9 0.1 3.5 0.1l0.6-0.9c0 0 1 0.6 2.3 0.9 3.3-0.1 7.5-1.4 8.2-2 1.1-0.9 2.6-2.4 3-3.4z"/>
						<path id="&lt;Path&gt;" class="s8" d="m345.9 370.2l4.7-2.9q0.1 0 0.3-0.2c0.9-0.7 3.7-3.1 4.4-3.4 1.9-1.5 4.2-1.5 4.9-1.3 0.5 0.2 0.7 0.9 0.7 1.8 0 0.9-3 4.6-4.2 5.5-0.5 0.3-0.8 0.4-1.1 0.6-0.6 0.3-0.9 1-0.8 1.6-0.3 0.6-0.4 0.9-0.6 1.1-0.9 0.9-1.6 1.5-2.4 1.8-0.8 0.4-1.6 0.6-2.6 0.7-1.6 0.3-2.6-0.8-2.9-1.2q-0.1-0.2-0.2-0.4z"/>
						<g id="&lt;Group&gt;">
							<g id="&lt;Group&gt;">
								<g id="&lt;Group&gt;">
									<path id="&lt;Path&gt;" class="s1" d="m392.3 282.5l-6.1-3.6c-0.4-0.2-1-0.2-1.4 0l-11.8 6.9-1 0.1v0.7q0 0.2 0.3 0.4l6.4 3.7c0.4 0.2 1 0.2 1.4 0l12.5-7.3q0.3-0.2 0.3-0.4v-0.6z"/>
									<path id="&lt;Path&gt;" class="s4" d="m372.3 286.3l6.4 3.7c0.4 0.3 1 0.3 1.4 0l12.5-7.2c0.4-0.2 0.4-0.6 0-0.8l-6.4-3.7c-0.4-0.2-1-0.2-1.4 0l-12.5 7.3c-0.4 0.2-0.4 0.5 0 0.7z"/>
									<path id="&lt;Path&gt;" class="s8" d="m379.4 290q-0.4 0-0.6-0.1l-6.4-3.7q-0.2-0.1-0.2-0.2 0-0.2 0.2-0.3l12.5-7.3q0.3-0.1 0.6-0.1 0.4 0 0.6 0.1l6.4 3.7q0.2 0.1 0.2 0.3 0 0.1-0.2 0.2l-12.5 7.3q-0.3 0.1-0.6 0.1z"/>
								</g>
								<path id="&lt;Path&gt;" class="s6" d="m376.7 281.8c0 0 3.9-1.9 4.8-0.7 0.9 1.3 0 3 0 3 0 0-1.1 0.5-1.4-0.2-0.2-0.8-0.2-0.8-0.2-0.8l-3.2 3.2-4.9-5.7z"/>
								<g id="&lt;Group&gt;">
									<path id="&lt;Path&gt;" class="s6" d="m376.7 281.8c0 0 3.9-1.9 4.8-0.7 0.9 1.3 0 3 0 3 0 0-1.1 0.5-1.4-0.2-0.2-0.8-0.2-0.8-0.2-0.8l-3.2 3.2-4.9-5.7z"/>
								</g>
								<path id="&lt;Path&gt;" class="s6" d="m384.4 287.6c0 1.3 0.9 2.9 1 3.8 0.1 0.8 0.6 2.5 0.6 2.5l0.4 0.1 1.9 0.4 0.4-0.3c0 0 1.2-0.9 1.8-2 0.5-1.2 1.7-4.1 1.7-4.8 0-0.5-0.4-2.1-0.7-3.2l-3.7 2.1c-0.1 0.1-0.8-0.6-0.7-1.3 0.2-0.8 0.8-2.3 0.7-2.7q0-0.1-0.1-0.2c-0.2-0.3-0.8-0.3-1.5 0.8-0.7 1.4-1.8 3.4-1.8 4.8z"/>
								<path id="&lt;Path&gt;" class="s2" d="m340.4 294.1c0.4 0.5 1.8 0.9 3.2 1.1 1.5 0.2 2.9 0.2 3.3-0.1 0.5-0.4 0.4-11.5 0.2-19.9-0.1-5.2-0.2-9.3-0.2-9.3 0 0-5 2.4-5.9 10.7-0.8 8.4-1.6 16.5-0.6 17.5z"/>
								<path id="&lt;Path&gt;" class="s8" d="m344.4 315.3c0 0 1.1 15 1 20.5-0.1 5.5-0.4 8.8-0.6 10-0.1 1.2 0.6 23.3 0.6 23.3 0 0.7 0.4 1.4 1.4 2 1.5 0.8 3.6 1 5.4 0.6q0.8-0.2 1.5-0.6c1-0.6 1.5-1.3 1.5-2 0 0-0.2-21.6 0-25 0.2-2.5 1.7-11 2.5-15.7l7.1 18.6v31.9c0 0.7 0.5 1.4 1.5 2 1.4 0.8 3.4 1 5.1 0.6q1-0.2 1.8-0.6c1-0.6 1.5-1.3 1.5-2l1-32.3c0 0-0.2-23.4-4.3-37.1l-5.1-0.7-20.1-3c0 0-2.3 6.2-1.8 9.5z"/>
								<path id="&lt;Path&gt;" class="s10" d="m344.2 310.8q0 0 0.5 0.3 0.4 0.4 1.3 0.9c2.3 1.2 6.7 3.1 13.5 3.1q3.2 0.1 5.5-0.2 1.3-0.1 2.3-0.4c2.6-0.5 4.1-1.2 4.9-2 0.4-0.5 0.6-1 0.7-1.4 0.1-1.7-2.7-11.6-1.9-15.9 0.2-1.7 1.4-4.2 2.3-7.1q0.4-1.2 0.7-2.5c0.7-2.7 1-5.6 0.2-8.3-0.4-1.1-0.9-2.1-1.7-3.1-0.1-0.1-0.3-0.2-0.5-0.4q-0.5-0.5-1.6-1.2-0.5-0.4-1.2-0.8-1-0.6-2.4-1.3-0.4-0.2-0.9-0.4-0.3-0.1-0.6-0.3-0.5-0.2-1-0.4-0.2-0.1-0.5-0.2-0.2-0.1-0.4-0.2-0.8-0.3-1.7-0.6-0.1 0-0.3-0.1c-1.7-0.6-3.7-1.1-5.9-1.5q-1.2-0.2-2.4-0.4c-1.9-0.3-4-0.5-6.2-0.5 0 0-0.2 0.3-0.4 0.6-0.8 1.5-2.6 5.2-2.2 10.1 0.2 2.4 0.5 4.6 0.8 6.9 0.5 3.7 0.8 7.4 0.7 11.7-0.2 4.1-0.8 9-1.1 12.1-0.3 2.1-0.5 3.5-0.5 3.5z"/>
								<path id="&lt;Path&gt;" class="s6" d="m353.1 265c0 0.6 0 1.4 0 2.1 0 0.9 0.1 0.7 0.1 0.5 0 0.3 0.1 1 1 1.5 1.8 1 4.2 1.3 6.1 1.2q0.6 0 1.1-0.1c1.4-0.3 2.3-1 2.4-1 0-0.2-0.1-1.4-0.2-3.6 0-0.3 0.2-0.6 0.4-0.7 0.9-0.2 2.5-0.9 3.5-2.9 0.7-1.4 1.1-8.8 1.1-8.9q0-0.2-0.4 0.1c-0.3 0.1-0.9 0.5-1.6 1q-0.2 0.1-0.4 0.2c-4.3 3.1-13.1 10.3-13.1 10.6z"/>
								<path id="&lt;Path&gt;" class="s8" d="m349.5 255.7c0.3 1.2 1.4 3.7 1.6 4.8 0.2 1 2 4.5 2 4.5 1.6 1 4.4 1.3 5.8 1.3q0.5-0.1 0.8-0.2 0.1 0 0.4-0.1c1.5-0.7 2.6-2.1 3-3.7l0.1-0.4q0.2-0.8 0.1-1.7-0.1-0.4 0-1c0.1-1.9 1-2.2 1.7-2.3 0.7-0.2 0.8 1.9 0.8 1.9l0.9-0.3 0.1-3q0.1-0.5 0.4-0.9c0.7-0.8 3.3-1.4 3.3-4.6 0-1.5-1.6-6.7-9.5-6.8q-1.6 0-3.5 0.3c-8.5 1.3-8.7 9.4-8 12.2z"/>
								<path id="&lt;Path&gt;" class="s2" d="m368.2 283.4c0 6.6 3.2 10 3.2 10 0 0 4.6 19.4 8.7 19.2 0.4-0.1 0.7-0.2 1-0.3 3.8-2.3 7.6-16.5 7.5-17.4 0-0.2 0.1-0.3 0.1-0.4 0-0.9-0.6-1.9-1.4-2.6q-0.2-0.2-0.5-0.4-0.5-0.3-0.9-0.3-0.6 0-0.9 0.5c0 0-3.6 7.6-4.1 8.8-0.1-1.9-2.9-22.5-8.4-26.3 0 0-0.8 0.6-1.7 1.6-1.3 1.5-2.6 3.9-2.6 7.6z"/>
							</g>
						</g>
					</g>
				</g>
				<g id="&lt;Group&gt;">
					<path id="&lt;Path&gt;" class="s3" d="m402.2 119.1v174.7l109.8 63.4v-174.8z"/>
					<path id="&lt;Path&gt;" class="s5" d="m410.1 289.3v-156.6l94 54.3v156.5z"/>
					<g id="&lt;Group&gt;">
						<g id="&lt;Group&gt;">
							<path id="&lt;Path&gt;" class="s1" d="m483.3 260l5.3 3.1v-20.7l-5.3-3z"/>
							<path id="&lt;Path&gt;" class="s4" d="m475.4 255.5l5.3 3v-34l-5.3-3z"/>
							<path id="&lt;Path&gt;" class="s2" d="m451.9 241.8l5.2 3v-28.1l-5.2-3z"/>
							<path id="&lt;Path&gt;" class="s10" d="m467.6 250.9l5.3 3v-26.5l-5.3-3z"/>
							<path id="&lt;Path&gt;" class="s4" d="m444 238.1l5.3 3v-21.4l-5.3-3.1z"/>
							<path id="&lt;Path&gt;" class="s3" d="m459.7 246.3l5.3 3.1v-35.1l-5.3-3z"/>
						</g>
						<g id="&lt;Group&gt;">
							<path id="&lt;Path&gt;" class="s4" d="m437.2 224c0 2.1-0.6 3.8-1.7 4.9-3.6-4.4-9.3-11.3-9.3-11.3l6.8-4.8c2.6 3.5 4.2 7.7 4.2 11.2z"/>
							<path id="&lt;Path&gt;" class="s1" d="m435.5 228.9c-1.9 1.9-5.4 2-9.3-0.3-3.5-2-6.7-5.6-8.7-9.3-1.4-2.7-2.2-5.5-2.2-8 0-6 4.9-8.1 10.9-4.6 2.6 1.4 4.9 3.6 6.8 6.1l-6.8 4.8c0 0 5.7 6.9 9.3 11.3z"/>
							<path id="&lt;Path&gt;" class="s10" d="m433 212.8l-6.8 4.8v-10.9c2.6 1.4 4.9 3.6 6.8 6.1z"/>
							<path id="&lt;Path&gt;" class="s2" d="m426.2 217.6v11c-3.5-2-6.7-5.6-8.7-9.3z"/>
							<path id="&lt;Path&gt;" class="s9" d="m435.5 228.9c-1.9 1.9-5.4 2-9.3-0.3v-11c0 0 5.7 6.9 9.3 11.3z"/>
						</g>
						<g id="&lt;Group&gt;">
							<g id="&lt;Group&gt;">
								<g id="&lt;Group&gt;">
									<path id="&lt;Path&gt;" class="s10" d="m478.4 270.4c0 0.6-0.5 0.8-1.1 0.4-0.6-0.3-1-1.1-1-1.7 0-0.6 0.5-0.8 1.1-0.4 0.6 0.4 1 1.1 1 1.7z"/>
									<g id="&lt;Group&gt;">
										<g id="&lt;Group&gt;">
											<path id="&lt;Path&gt;" class="s10" d="m423.2 283.4c-0.2-0.1-0.3-0.3-0.3-0.4-0.1-0.3 0-0.4 0.2-0.4 0.1 0 7.2 1.5 9.9-5 0.5-1.1 1-2.6 1.5-4.1 2.6-7.7 6.2-18.2 13.1-12.8 4.2 3.3 6.4 9.6 8.3 15.1 1.9 5.3 3.6 10.3 6.7 11.7 3 1.5 5-3.6 6.8-8.5 2-5.3 4.1-10.8 7.9-9.7 0.2 0.1 0.4 0.3 0.4 0.6 0.1 0.2-0.1 0.3-0.2 0.3-3.5-1.1-5.5 4.3-7.4 9.4-2 5.4-3.9 10.4-7.5 8.7-3.5-1.7-5.4-6.9-7.3-12.6-2-5.6-4-11.3-7.8-14.4-6.3-4.9-9.8 5.3-12.3 12.8-0.6 1.6-1.1 3-1.5 4.2-2.8 6.7-10.3 5.2-10.4 5.2q-0.1-0.1-0.1-0.1z"/>
										</g>
										<g id="&lt;Group&gt;">
											<path id="&lt;Path&gt;" class="s4" d="m423.2 283.4q0 0-0.1 0c-0.1-0.2-0.3-0.4-0.3-0.6 0.1-0.1 0.3-1.7 4.1-13.4 1.6-5.1 3.4-7 5.4-6.3 2.3 0.9 4.5 5.2 6.8 9.7 2.4 4.5 4.8 9.2 7.4 10.9q0 0 0 0c4.1 2.6 5.8-0.3 7.9-3.6 2.1-3.4 4.5-7.2 9.7-6 5.5 1.3 9.6 6 12.1 9.8 2.6 4.1 3.9 7.7 4 7.9 0.1 0.2 0 0.4-0.2 0.4-0.1 0-0.4-0.2-0.4-0.4-0.1-0.1-1.4-3.7-3.9-7.6-3.4-5.2-7.2-8.3-11.3-9.3-5-1.1-7.3 2.6-9.4 5.9-2 3.3-4 6.5-8.5 3.7-3-2-5.5-6.8-7.9-11.5-2.2-4.3-4.3-8.3-6.2-9.1-1.7-0.6-3.3 1.4-4.8 6.1-3.8 11.6-4 13.2-4.1 13.3 0 0.2-0.1 0.2-0.3 0.1z"/>
										</g>
										<path id="&lt;Path&gt;" class="s10" d="m448 261.3c0 0.6-0.5 0.7-1.1 0.4-0.6-0.4-1-1.2-1-1.8 0-0.6 0.5-0.8 1.1-0.4 0.6 0.4 1 1.2 1 1.8z"/>
										<path id="&lt;Path&gt;" class="s10" d="m463.3 288.3c0 0.6-0.5 0.8-1.1 0.4-0.5-0.4-1-1.2-1-1.7 0.1-0.6 0.6-0.8 1.1-0.4 0.6 0.3 1.1 1.1 1 1.7z"/>
										<path id="&lt;Path&gt;" class="s4" d="m434 264.5c0 0.6-0.5 0.7-1.1 0.4-0.6-0.4-1-1.2-1-1.8 0-0.6 0.5-0.8 1.1-0.4 0.6 0.4 1 1.2 1 1.8z"/>
										<path id="&lt;Path&gt;" class="s4" d="m468.7 276.4c0 0.6-0.5 0.8-1.1 0.4-0.6-0.3-1-1.1-1-1.7 0-0.6 0.5-0.8 1.1-0.4 0.6 0.4 1 1.1 1 1.7z"/>
										<path id="&lt;Path&gt;" class="s4" d="m447.9 285.7c-0.4 0.2-1-0.1-1.5-0.8-0.4-0.6-0.5-1.4-0.1-1.6 0.4-0.3 1.1 0.1 1.5 0.7 0.4 0.7 0.5 1.4 0.1 1.7z"/>
									</g>
									<path id="&lt;Path&gt;" class="s4" d="m480.7 293.1c-0.4 0.2-1.1-0.1-1.5-0.7-0.4-0.7-0.5-1.4-0.1-1.7 0.4-0.2 1 0.1 1.5 0.8 0.4 0.6 0.4 1.4 0.1 1.6z"/>
								</g>
								<g id="&lt;Group&gt;">
									<path id="&lt;Path&gt;" class="s9" d="m481.8 318.7l-60.1-34.6v-33.1c0-0.1 0.1-0.2 0.3-0.1 0.1 0.1 0.2 0.2 0.2 0.4v32.6l59.6 34.3c0.1 0.1 0.2 0.3 0.2 0.4 0 0.1-0.1 0.2-0.2 0.1z"/>
								</g>
							</g>
							<path id="&lt;Path&gt;" class="s4" d="m479.5 310.1c-0.8 0.5-2.1-0.2-2.9-1.5-0.9-1.3-1-2.7-0.2-3.2 0.7-0.5 2 0.2 2.9 1.5 0.8 1.3 0.9 2.7 0.2 3.2z"/>
							<path id="&lt;Path&gt;" class="s10" d="m470.4 304.1c-0.1 1.2-1.1 1.6-2.2 0.8-1.1-0.7-2-2.2-1.9-3.4 0-1.2 1-1.5 2.1-0.8 1.1 0.7 2 2.3 2 3.4z"/>
						</g>
						<g id="&lt;Group&gt;">
							<path id="&lt;Path&gt;" class="s1" d="m493.9 215.3l-76.4-44.1v-3.9l76.4 44z"/>
							<path id="&lt;Path&gt;" class="s1" d="m493.9 221.1l-76.4-44.1v-3.9l76.4 44.1z"/>
							<path id="&lt;Path&gt;" class="s4" d="m493.9 201.8l-76.4-44.1v-8.4l76.4 44.1z"/>
						</g>
					</g>
				</g>
			</g>
			<g id="&lt;Group&gt;">
				<g id="&lt;Group&gt;">
					<g id="&lt;Group&gt;">
						<path id="&lt;Path&gt;" class="s17" d="m265.5 399.5c8 4.6 8 12.1 0 16.7-8 4.6-21 4.6-29 0-8-4.6-8-12.1 0-16.7 8-4.6 21-4.6 29 0z"/>
						<path id="&lt;Path&gt;" class="s18" d="m232.9 408.1q0 0.1 0 0.2c0.2 0.3 1.3 1.2 3.5 2.3 0.9 0.5 1.9 0.9 2.9 1.1 1.3 0.4 2.4 0.6 2.4 0.6v0.6l0.1 0.3c0.2 0.2 2.6 1 3.4 1 0.8 0 2.5-1.4 2.5-1.6 0-0.1 0-0.7 0-1.1 0-0.2 0-0.5 0-0.5q0-0.2 0-0.5 0-0.2-0.1-0.4c0-0.5-0.1-1.1-0.2-1.6q-0.1-0.3-0.2-0.6c-0.2-0.9-0.4-1.6-0.4-1.6l-3.1-0.1-2.8-0.1c-0.6 0.1-1.2 0.1-1.9 0-2.8-0.1-4.1-0.1-4.9 0-0.6 0.1-1.2 1.3-1.2 2z"/>
						<path id="&lt;Path&gt;" class="s6" d="m240.4 406.2c0-0.1 0.3-5.9 0.3-11.5 0-2.8-0.1-5.6-0.3-7.5-0.5-5.9-1.7-16.7-1.7-16.7l7.8 0.4 2 0.1-0.5 3.4c0 0 0.8 5.7 0.8 11.7 0 6-1.9 5.5-2.1 19.9 0 0.5-0.3 1-0.9 1.4q-0.4 0.2-0.9 0.3c-0.6 0.2-1.3 0.2-1.9 0.2 0 0-5.8 0-5.9-1-0.1-0.9 3.1-0.7 3.3-0.7z"/>
						<path id="&lt;Path&gt;" class="s18" d="m248.3 404.7q0 0.1 0.1 0.2c0.1 0.4 1.2 1.5 3.3 2.7 0.9 0.4 1.9 0.8 2.8 1 1.4 0.4 2.5 0.6 2.5 0.6v0.6 0.4c0.3 0.1 2.6 0.9 3.4 0.9 0.8 0 2.5-1.4 2.5-1.6 0-0.1 0-0.6 0-1 0-0.3 0-0.5 0-0.5q0-0.3 0-0.6 0-0.1-0.1-0.3c0-0.6-0.1-1.2-0.2-1.7q-0.1-0.3-0.1-0.5c-0.3-1-0.5-1.6-0.5-1.6l-3.1-0.1-2.7-0.1c-0.6 0.1-1.2 0-1.9 0-2.7 0.1-3.6-0.1-4.8 0-0.6 0.2-1.1 1-1.2 1.6z"/>
						<path id="&lt;Path&gt;" class="s6" d="m252.9 404c-0.1-0.7 1.8-0.8 3-0.9 0.1-1.7 0.5-13.2 0-18.6-0.5-5.9-1.7-16.7-1.7-16.7l6.6 0.4 3.2 0.2-0.5 3.3c0 0 0.9 5.8 0.9 11.8 0 5.9-2 5.4-2.2 19.9 0 0.5-0.3 1-0.9 1.3q-0.3 0.2-0.7 0.3c-0.5 0.2-1 0.3-1.6 0.3 0 0-0.4 0-0.4 0-1.4-0.2-5.6-0.5-5.7-1.3z"/>
						<g id="&lt;Group&gt;">
							<path id="&lt;Path&gt;" class="s8" d="m212.5 306l9.6-5.6c0.6-0.3 1.6-0.3 2.2 0l18.5 10.8 1.6 0.3v1q0 0.3-0.4 0.6l-10.1 5.8c-0.6 0.3-1.5 0.3-2.1 0l-19.7-11.4q-0.4-0.3-0.4-0.6v-1.1z"/>
							<path id="&lt;Path&gt;" class="s4" d="m244 312.1l-10.1 5.8c-0.6 0.3-1.5 0.3-2.1 0l-19.7-11.4c-0.6-0.4-0.6-0.9 0-1.3l10-5.8c0.6-0.3 1.6-0.3 2.2 0l19.7 11.4c0.6 0.4 0.6 0.9 0 1.3z"/>
							<path id="&lt;Path&gt;" class="s8" d="m232.9 317.8c0.3 0 0.7 0 0.9-0.2l10-5.8q0.3-0.1 0.3-0.3 0-0.2-0.3-0.4l-19.7-11.4c-0.2-0.1-0.5-0.2-0.9-0.2-0.3 0-0.7 0.1-0.9 0.2l-10.1 5.8q-0.3 0.2-0.3 0.4 0 0.2 0.3 0.3l19.7 11.4c0.3 0.2 0.6 0.2 1 0.2z"/>
							<path id="&lt;Path&gt;" class="s2" d="m266.9 293c0 0 2.8 0.4 3.1 9.2 0.3 8.8-1.3 20.6-2.1 21.7-0.9 1-8.6-1.8-8.6-1.8l6.2-20.6z"/>
							<path id="&lt;Path&gt;" class="s6" d="m230.4 311.1q0.1 0.1 0.2 0.2c0.7 0.4 4.2-0.7 4.7-0.7 0 0-0.2 0.5 0 1 0.2 0.5 2.9 2.2 2.9 2.2l1.4-3.3 0.6-1.5c0 0-2.7-1.6-3.7-1.3-1.1 0.3-6.2 2.7-6.1 3.4z"/>
							<path id="&lt;Path&gt;" class="s10" d="m237 370.6c0 0 0.6 1.5 7 1.8q0.1 0 0.2 0c6.6 0.3 21.1 0 21.4-4.1 0.4-4.1-0.5-20.7 0.8-24.7 1.2-4.1 1.2-8.3-0.9-12.6-2.1-4.3 3-20.5 3.1-27.6 0.1-7-0.3-10.5-1.7-10.4-9.3 0.6-22.7 8.1-22.7 8.1l-2.2 1.6c0 0-2.2 5.6-4.3 8.8-2 3.2 5.9 7.7 5.8 11.8-0.1 4.1-4.7 11.3-6.1 20.2-1.3 8.9-0.4 27.1-0.4 27.1z"/>
							<path id="&lt;Path&gt;" class="s6" d="m225.3 320.8c0.5 1.5 4.5 3.7 4.5 3.7l2-2.8 0.5-0.8c0-0.1 0.4-2.4 0-3.9-0.3-1.5-2-2.7-2.1-2.4-0.1 0.2-0.4 0.1 0 1.3 0.4 1.2 0.2 2.2 0.2 2.2l-3.9-2.3c0 0-1.7 3.4-1.2 5z"/>
						</g>
					</g>
					<path id="&lt;Path&gt;" class="s2" d="m229.7 324.5c0 0 3.7 3.2 7.3 5.6 2.5 1.8 4.8 3.2 5.7 2.8 2.1-0.8 4.5-18.8 4.7-22.8 0.2-4 0-4.6-1.6-7.2-0.6-0.9-1.3-1.2-2-1.1q-0.3 0-0.6 0.2c-0.9 0.3-1.5 1.1-1.8 2-2.1 6.9-1.8 18.5-1.8 20.3q0 0-0.4-0.2c-1.4-0.8-6.2-4-6.2-4-0.4-0.3-1-0.2-1.7 0.1-1.2 0.8-2 2.2-2 3.3q0 0.7 0.4 1z"/>
				</g>
				<path id="&lt;Path&gt;" class="s6" d="m246.8 292.7c0.3 1.4 2.9 1.9 2.9 1.9l-2.2-10.9c0 0-1.4 7-0.7 9z"/>
				<path id="&lt;Path&gt;" class="s8" d="m247.6 294.2c0.1 1 0.3 2 0.7 2.9 1 1.9 2.9 2 4.7 2.7 2.1 1 4.1 1.6 6.5 1.5 1.9-0.1 7.6-1.1 7-4.1-0.7-2.9 0.3-11.2-0.9-18.4-1.2-7.1-11-7.2-11-7.2 0 0-0.8 0-1.9 0.7-4.4 2.4-6.7 8.7-6.2 13.5 0.2 1.2 0.6 2.5 0.8 3.8 0.2 1.4 0.2 2.8 0.3 4.3q0 0.2 0 0.3z"/>
			</g>
		</g>
	</g>
</svg>