<svg version="1.2" xmlns="http://www.w3.org/2000/svg" viewBox="0 0 230 120" width="230" height="120"><defs><linearGradient id="P" gradientUnits="userSpaceOnUse"/><linearGradient id="g1" x2="1" href="#P" gradientTransform="matrix(280.65,4.639,-2.549,154.197,-37.217,70.06)"><stop stop-color="#b16cea"/><stop offset=".46" stop-color="#ff5e69"/><stop offset=".83" stop-color="#ff8a56"/><stop offset="1" stop-color="#ffa84b"/></linearGradient></defs><style>.a{fill:url(#g1)}</style><path class="a" d="m176 35.3v-3.2c-1.1-12.6-12.6-17.2-28.7-16.9l-4.3-12.9h-6.7l-3.5 10.8-1.2 3.5c-10.9 1.8-22.8 4.8-34.5 8.6-3.6 1.1-7.4 2.5-11.2 3.8l-1.1-3.2-2.9-8.8c-1.5-4.4 1.1-9.2 5.5-10.5l2.9-0.9v-3.3h-13.3-19.7-13.2v3.3l5.9 1.2c5.9 1.4 10.6 5.5 12.6 11.3l4.9 14.3 1 3.2c-28.2 9.9-36.6 2.3-41.6-4.6-4.1-9 3.2-21 13.8-28.7 0 0-19.8 0-29.6 15.5-4.7 8.5-5 17.3 3.3 26.3 8.4 9.1 28.4 13.5 56.9 2.3 59.3-25.3 101.2-33.2 104.7-11.1zm33-33h-6.7-13.1v3.3l2.8 0.9c4.5 1.3 7 6.1 5.4 10.5l-24.7 74.4-21.9-65.6c-6.6 0.4-14.5 1.9-23.6 4.2l-20.5 61.4-16.4-49.1c-5.5 2.1-11.1 4.4-17.2 6.8l5.5 16.1 17.9 52.6h6.8l29.7-86.5 4.6 12.9 24.9 73.6h6.8l34.2-99.7c2-5.8 6.7-9.9 12.6-11.3l6.1-1.2v-3.3z"/></svg>