<svg version="1.2" xmlns="http://www.w3.org/2000/svg" viewBox="0 0 1000 1000" width="1000" height="1000">
	<title>18771507_6029675-ai</title>
	<style>
		.s0 { fill: #e0e0e0 } 
		.s1 { fill: #ebebeb } 
		.s2 { fill: #263238 } 
		.s3 { fill: #ff725e } 
		.s4 { fill: #ffffff } 
		.s5 { fill: #ff9a6c } 
		.s6 { fill: #ffbf9d } 
		.s7 { fill: #000000 } 
		.s8 { fill: #455a64 } 
	</style>
	<g id="Background Complete">
		<g id="&lt;Group&gt;">
			<g id="&lt;Group&gt;">
				<g id="&lt;Group&gt;">
					<path id="&lt;Compound Path&gt;" fill-rule="evenodd" class="s0" d="m337.9 69.5c3-1.8 6.1-3.1 9.3-4.1l1.9-9.1 15.5-0.3 2.3 9.1c3.2 0.8 6.4 2 9.4 3.7l7.8-5.1 11.2 10.8-4.8 8c1.7 2.9 3.1 6 4 9.3l9.2 1.9 0.3 15.5-9.2 2.2c-0.8 3.3-2 6.5-3.7 9.4l5.2 7.9-10.8 11.2-8-4.9c-3 1.8-6.1 3.1-9.3 4l-1.9 9.2-15.6 0.3-2.2-9.1c-3.2-0.8-6.4-2.1-9.4-3.7l-7.9 5.1-11.1-10.8 4.8-8c-1.7-2.9-3.1-6-4-9.3l-9.2-1.9-0.3-15.5 9.2-2.2c0.8-3.3 2-6.5 3.7-9.5l-5.2-7.8 10.8-11.2zm8.3 20.7c-6.4 6.6-6.2 17.2 0.4 23.6 6.6 6.3 17.2 6.2 23.5-0.5 6.4-6.6 6.3-17.1-0.4-23.5-6.6-6.4-17.1-6.2-23.5 0.4z"/>
				</g>
			</g>
		</g>
		<g id="&lt;Group&gt;">
			<g id="&lt;Group&gt;">
				<g id="&lt;Group&gt;">
					<path id="&lt;Compound Path&gt;" fill-rule="evenodd" class="s0" d="m341.6 584.6q2.6-1.6 5.4-2.4l1.1-5.3 8.9-0.1 1.3 5.2q2.8 0.7 5.4 2.2l4.6-3 6.4 6.2-2.8 4.6q1.5 2.6 2.3 5.4l5.3 1.1 0.2 9-5.3 1.2q-0.7 2.9-2.1 5.5l3 4.5-6.3 6.4-4.6-2.8q-2.5 1.6-5.3 2.4l-1.1 5.3-9 0.1-1.3-5.2q-2.8-0.7-5.4-2.2l-4.5 3-6.5-6.2 2.8-4.6q-1.5-2.6-2.3-5.4l-5.3-1.1-0.2-9 5.3-1.2q0.7-2.9 2.1-5.5l-2.9-4.5 6.2-6.4zm4.8 11.9c-3.7 3.8-3.6 9.9 0.2 13.6 3.8 3.6 9.9 3.5 13.6-0.3 3.7-3.8 3.6-9.9-0.3-13.6-3.8-3.6-9.9-3.5-13.5 0.3z"/>
				</g>
			</g>
		</g>
		<g id="&lt;Group&gt;">
			<g id="&lt;Group&gt;">
				<g id="&lt;Group&gt;">
					<path id="&lt;Compound Path&gt;" fill-rule="evenodd" class="s0" d="m146.6 118.9q1.7-1.1 3.6-1.6l0.8-3.7 6.1-0.1 0.9 3.6q1.9 0.5 3.7 1.5l3.1-2 4.4 4.2-2 3.2q1.1 1.7 1.6 3.6l3.7 0.8 0.1 6.1-3.6 0.9q-0.5 1.9-1.5 3.7l2 3.1-4.2 4.4-3.2-2q-1.7 1.1-3.6 1.6l-0.8 3.7-6.1 0.1-0.9-3.6q-1.9-0.5-3.7-1.5l-3.1 2-4.4-4.2 2-3.2q-1.1-1.7-1.6-3.6l-3.7-0.8-0.1-6.1 3.6-0.9q0.5-1.9 1.5-3.7l-2-3.1 4.2-4.4zm3.3 8.2c-2.5 2.6-2.5 6.7 0.1 9.3 2.6 2.5 6.8 2.4 9.3-0.2 2.5-2.6 2.4-6.8-0.2-9.3-2.6-2.5-6.7-2.4-9.2 0.2z"/>
				</g>
			</g>
		</g>
		<g id="&lt;Group&gt;">
			<g id="&lt;Group&gt;">
				<g id="&lt;Group&gt;">
					<path id="&lt;Compound Path&gt;" fill-rule="evenodd" class="s1" d="m445.1 106.1c2.3-1.4 4.7-2.5 7.2-3.2l1.5-7.1 12.1-0.2 1.7 7.1c2.6 0.6 5 1.5 7.4 2.8l6.1-4 8.7 8.4-3.8 6.3c1.4 2.3 2.4 4.7 3.1 7.2l7.2 1.5 0.2 12.1-7.1 1.7c-0.6 2.5-1.6 5-2.9 7.3l4 6.1-8.4 8.7-6.2-3.8c-2.3 1.4-4.7 2.5-7.2 3.2l-1.5 7.1-12.1 0.2-1.8-7.1c-2.5-0.6-5-1.5-7.3-2.8l-6.1 4-8.7-8.4 3.8-6.3c-1.4-2.3-2.4-4.7-3.1-7.2l-7.2-1.5-0.2-12.1 7.1-1.7c0.6-2.5 1.6-5 2.9-7.3l-4-6.1 8.4-8.7zm6.4 16.1c-5 5.1-4.8 13.3 0.3 18.3 5.2 5 13.4 4.8 18.4-0.3 4.9-5.2 4.8-13.4-0.4-18.4-5.1-4.9-13.3-4.8-18.3 0.4z"/>
				</g>
			</g>
		</g>
		<g id="&lt;Group&gt;">
			<g id="&lt;Group&gt;">
				<g id="&lt;Group&gt;">
					<path id="&lt;Compound Path&gt;" fill-rule="evenodd" class="s0" d="m764.4 404.2c2.9-1.8 6.1-3.1 9.3-4l1.9-9.2 15.5-0.3 2.2 9.1c3.3 0.8 6.5 2 9.5 3.7l7.8-5.1 11.1 10.8-4.8 8c1.8 2.9 3.1 6 4 9.2l9.2 2 0.3 15.5-9.1 2.2c-0.8 3.2-2.1 6.4-3.7 9.4l5.1 7.8-10.8 11.2-8-4.9c-2.9 1.8-6 3.2-9.3 4.1l-1.9 9.2-15.5 0.2-2.2-9.1c-3.3-0.8-6.4-2-9.4-3.7l-7.9 5.2-11.1-10.8 4.8-8c-1.7-3-3.1-6.1-4-9.3l-9.2-1.9-0.2-15.5 9.1-2.3c0.8-3.2 2-6.4 3.7-9.4l-5.2-7.8 10.8-11.2zm8.3 20.7c-6.4 6.6-6.2 17.1 0.4 23.5 6.6 6.4 17.1 6.2 23.5-0.4 6.4-6.6 6.2-17.1-0.4-23.5-6.6-6.4-17.2-6.2-23.5 0.4z"/>
				</g>
			</g>
		</g>
		<g id="&lt;Group&gt;">
			<g id="&lt;Group&gt;">
				<path id="&lt;Compound Path&gt;" fill-rule="evenodd" class="s0" d="m868.2 123.7l-0.1 0.1c-1.6 2.7-6.1 8.1-6.1 8.1l-23.9 31.7c-3.1 4.1-9.1 4.1-12.1 0l-24.4-32.3c-2.1-2.8-4.1-4.8-5.7-7.5l-0.1-0.1c-4.8-8.2-7-18.2-5.2-28.7 3-16.9 16.4-30.6 33.3-33.8 26.7-5 50.1 15.4 50.1 41.2 0 7.8-2.1 15-5.8 21.3zm-17.7-21.5c0-10.2-8.3-18.4-18.5-18.4-10.2 0-18.5 8.2-18.5 18.4 0 10.3 8.3 18.5 18.5 18.5 10.2 0 18.5-8.2 18.5-18.5z"/>
			</g>
		</g>
		<g id="&lt;Group&gt;">
			<g id="&lt;Group&gt;">
				<g id="&lt;Group&gt;">
					<g id="&lt;Group&gt;">
						<path id="&lt;Path&gt;" class="s1" d="m134.5 706.9c8.3-5.5 12.9-16.1 10.9-27.1-2.8-14.4-15.9-24-29.4-21.4-13.5 2.6-22.2 16.3-19.5 30.7 2.1 11.1 10.4 19.2 20.3 21.3-36.5 12.9-26.8 53.4-26.8 53.4l88.9-16.9c0 0-6-41.6-44.4-40z"/>
					</g>
				</g>
			</g>
		</g>
		<g id="&lt;Group&gt;">
			<g id="&lt;Group&gt;">
				<g id="&lt;Group&gt;">
					<path id="&lt;Path&gt;" class="s1" d="m242.2 879.5l-18.3-4.6c0 0-3.8 15.4-19.8 11.7-8.3-1.9-11.3-8.3-12-12.9-0.9-5.4 1.1-10.7 4.9-14.5 4.4-4.4 12.3-7.4 24.1-2.1l10.2-41.3-18.1-4.5-6 24.2c0 0-26.9 0.3-33.8 28.3-6.6 26.7 15.8 38.9 26.1 41.4 7.9 1.9 35.1 6.6 42.7-25.7z"/>
				</g>
				<g id="&lt;Group&gt;">
					<path id="&lt;Path&gt;" class="s1" d="m219.3 785.6l18.4 4.6-4.3 17.1-18.3-4.5z"/>
				</g>
			</g>
		</g>
	</g>
	<g id="Text">
		<g id="&lt;Group&gt;">
			<g id="&lt;Group&gt;">
				<path id="&lt;Compound Path&gt;" class="s2" d="m116 438.4h41.8l-3.7 18.7h-75.3l3-14.9 45.3-35.5c11.2-8.9 14.6-14.2 14.6-20.7 0-6.5-4.9-10.9-14.6-10.9-7.9 0-15.6 3.7-21.1 10.3l-15.5-11.2c7.9-10.9 22.8-18.2 40-18.2 21 0 34.8 11.3 34.8 26.7 0 11.8-5.4 21.8-22.9 35.3z"/>
				<path id="&lt;Compound Path&gt;" class="s2" d="m257.3 436.3h-16.3l-4.1 20.8h-22.5l4.3-20.8h-53.5l2.9-15.5 58.6-63.1h25.1l-54.5 59.8h26.1l3.7-18.6h21.4l-3.7 18.6h16.4z"/>
				<path id="&lt;Compound Path&gt;" class="s2" d="m322.9 337.6h20.8l-73 133.7h-20.6z"/>
				<path id="&lt;Compound Path&gt;" class="s2" d="m417.6 357.7l-2.9 15-53.1 84.4h-25.6l51-80.6h-32.3l-3.2 16.2h-20.5l7-35z"/>
			</g>
			<g id="&lt;Group&gt;">
				<path id="&lt;Compound Path&gt;" class="s2" d="m69.5 535.6l5.9-11.1c5.3 3.4 11.4 5.2 17.3 5.2 5.7 0 9-1.8 9-4.7 0-7-25.4-3.1-25.4-19.5 0-11.3 9.6-18.6 25.1-18.6 7.4 0 14.1 1.5 18.8 4.4l-5.4 11c-4.1-2.6-9.2-4-14.3-4-6.1 0-9.4 2.3-9.4 5.1-0.1 7.2 25.3 3.1 25.3 19.2 0 11.2-9.8 18.5-25.1 18.5-8.9 0-17.1-2.3-21.8-5.5z"/>
				<path id="&lt;Compound Path&gt;" class="s2" d="m142.7 499.3l-1.7 8.8h23.2l-2.1 11h-23.3l-1.9 9.6h27.4l-2.4 11.4h-41.8l10.4-52.2h40.9l-2.3 11.4z"/>
				<path id="&lt;Compound Path&gt;" fill-rule="evenodd" class="s2" d="m209.5 524.4l8.8 15.7h-15.4l-7.8-13.9h-7.4l-2.8 13.9h-14.7l10.4-52.2h22.3c13.3 0 21 6.2 21 16.6 0 9.7-5.3 16.8-14.4 19.9zm-8.7-24.9h-7.7l-3.2 15.3h8.8c6.5 0 10.3-3.1 10.3-8.8 0-4.4-3.1-6.5-8.2-6.5z"/>
				<path id="&lt;Compound Path&gt;" class="s2" d="m288.6 487.9l-32.7 52.2h-14.5l-11.9-52.2h15.1l7.5 33.9 21.3-33.9z"/>
				<path id="&lt;Compound Path&gt;" class="s2" d="m291.7 487.9h14.8l-10.4 52.2h-14.8z"/>
				<path id="&lt;Compound Path&gt;" class="s2" d="m308.8 518.2c0-18.1 13.4-31.3 32.7-31.3 9.7 0 17.5 3.5 21.2 9.8l-10.6 8.5c-2.5-3.9-6.3-6.1-11.5-6.1-10.2 0-16.9 7.8-16.9 18.1 0 7 4.8 11.7 12.8 11.7 4.7 0 9-1.8 12.7-6l8.7 8.5c-5.8 7.1-13.5 9.7-22.8 9.7-16.1 0-26.3-9.3-26.3-22.9z"/>
				<path id="&lt;Compound Path&gt;" class="s2" d="m384.3 499.3l-1.8 8.8h23.2l-2.1 11h-23.3l-1.9 9.6h27.4l-2.4 11.4h-41.8l10.4-52.2h40.9l-2.3 11.4z"/>
			</g>
			<g id="&lt;Group&gt;">
				<g id="&lt;Group&gt;">
					<path id="&lt;Path&gt;" class="s3" d="m126.3 328.3h-29.1c0-40.5 16.4-82 45-113.8 30.1-33.4 69.2-51.8 110.1-51.8 83.3 0 141.5 60.8 141.5 147.9h-29.1c0-71-45.2-118.8-112.4-118.8-66 0-126 65.1-126 136.5z"/>
				</g>
			</g>
			<g id="&lt;Group&gt;">
				<g id="&lt;Group&gt;">
					<g id="&lt;Group&gt;">
						<g id="&lt;Group&gt;">
							<path id="&lt;Path&gt;" class="s2" d="m142.3 320.2c4.6 0.1 8.4 0.5 8.4 0.9 0 0.4-3.8 0.7-8.4 0.7-4.7 0-8.5-0.3-8.5-0.8 0.1-0.5 3.8-0.9 8.5-0.8z"/>
						</g>
					</g>
				</g>
				<g id="&lt;Group&gt;">
					<g id="&lt;Group&gt;">
						<g id="&lt;Group&gt;">
							<path id="&lt;Path&gt;" class="s2" d="m162.4 256.3c3.9 2.6 6.7 5.2 6.3 5.9-0.5 0.7-4.1-0.7-8-3.1-4-2.5-6.8-5.1-6.3-5.9 0.5-0.8 4.1 0.6 8 3.1z"/>
						</g>
					</g>
				</g>
				<g id="&lt;Group&gt;">
					<g id="&lt;Group&gt;">
						<g id="&lt;Group&gt;">
							<path id="&lt;Path&gt;" class="s2" d="m212.8 212.3c1.9 4.3 2.8 8 2.1 8.3-0.7 0.4-3-2.7-5-6.9-2.1-4.2-3-7.9-2.1-8.3 0.9-0.5 3.1 2.7 5 6.9z"/>
						</g>
					</g>
				</g>
				<g id="&lt;Group&gt;">
					<g id="&lt;Group&gt;">
						<g id="&lt;Group&gt;">
							<path id="&lt;Path&gt;" class="s2" d="m279.2 207.1c-1.2 4.5-2.7 8-3.5 7.8-0.8-0.2-0.6-4 0.4-8.6 0.9-4.5 2.5-8 3.5-7.8 0.9 0.2 0.8 4.1-0.4 8.6z"/>
						</g>
					</g>
				</g>
				<g id="&lt;Group&gt;">
					<g id="&lt;Group&gt;">
						<g id="&lt;Group&gt;">
							<path id="&lt;Path&gt;" class="s2" d="m333.4 245.2c-3.8 2.6-7.3 4.1-7.8 3.5-0.5-0.7 2.2-3.4 6-6.2 3.8-2.7 7.3-4.2 7.9-3.4 0.5 0.8-2.2 3.5-6.1 6.1z"/>
						</g>
					</g>
				</g>
				<g id="&lt;Group&gt;">
					<g id="&lt;Group&gt;">
						<g id="&lt;Group&gt;">
							<path id="&lt;Path&gt;" class="s2" d="m351.3 308c-4.6 0-8.4-0.3-8.4-0.7 0-0.4 3.7-0.8 8.4-0.9 4.7 0 8.4 0.3 8.4 0.8 0 0.5-3.7 0.8-8.4 0.8z"/>
						</g>
					</g>
				</g>
			</g>
			<g id="&lt;Group&gt;">
				<g id="&lt;Group&gt;">
					<path id="&lt;Path&gt;" class="s3" d="m244.3 316.7c-1.4 0-2.8-0.5-4-1.4l-48.9-38c-2.9-2.2-3.4-6.3-1.2-9.1 2.2-2.8 6.3-3.3 9.1-1.2l44.6 34.7 61.7-56.7c2.7-2.4 6.8-2.2 9.2 0.4 2.4 2.6 2.3 6.7-0.3 9.1l-65.8 60.4c-1.2 1.2-2.8 1.8-4.4 1.8z"/>
				</g>
			</g>
			<g id="&lt;Group&gt;">
				<g id="&lt;Group&gt;">
					<path id="&lt;Path&gt;" class="s3" d="m277.5 143.4h-56.1c-0.9 0-1.6-0.7-1.6-1.6v-20.4c0-0.8 0.7-1.5 1.6-1.5h56.1c0.9 0 1.6 0.7 1.6 1.5v20.4c0 0.9-0.7 1.6-1.6 1.6z"/>
				</g>
			</g>
			<g id="&lt;Group&gt;">
				<g id="&lt;Group&gt;">
					<path id="&lt;Path&gt;" class="s3" d="m264.8 159.4h-30.7v-27.8h30.7z"/>
				</g>
			</g>
			<g id="&lt;Group&gt;">
				<g id="&lt;Group&gt;">
					<path id="&lt;Path&gt;" class="s3" d="m142.6 207.7l-23 28.6c-0.9 1.1-2.5 1.2-3.6 0.4l-15.8-12.8c-1.1-0.9-1.2-2.5-0.3-3.6l23-28.5c0.9-1.1 2.5-1.3 3.6-0.4l15.8 12.7c1.1 0.9 1.2 2.5 0.3 3.6z"/>
				</g>
			</g>
			<g id="&lt;Group&gt;">
				<g id="&lt;Group&gt;">
					<g id="&lt;Group&gt;">
						<path id="&lt;Path&gt;" class="s2" d="m277.5 143.4c0 0.3-12.6 0.6-28.1 0.6-15.5 0-28-0.3-28-0.6 0-0.4 12.5-0.6 28-0.6 15.5 0 28.1 0.2 28.1 0.6z"/>
					</g>
				</g>
			</g>
			<g id="&lt;Group&gt;">
				<g id="&lt;Group&gt;">
					<g id="&lt;Group&gt;">
						<path id="&lt;Path&gt;" class="s2" d="m122.4 231.4c-0.4 0.3-4.6-2.9-9.8-6.9-5.3-3.9-9.5-7.1-9.3-7.5 0.3-0.4 5 2.2 10.3 6.2 5.3 4 9.1 7.8 8.8 8.2z"/>
					</g>
				</g>
			</g>
			<g id="&lt;Group&gt;">
				<g id="&lt;Group&gt;">
					<g id="&lt;Group&gt;">
						<path id="&lt;Path&gt;" class="s2" d="m127.2 224.2c-0.3 0.3-4.5-2.9-9.8-6.8-5.2-4-9.5-7.2-9.2-7.6 0.2-0.4 5 2.2 10.3 6.2 5.3 4 9 7.8 8.7 8.2z"/>
					</g>
				</g>
			</g>
			<g id="&lt;Group&gt;">
				<g id="&lt;Group&gt;">
					<g id="&lt;Group&gt;">
						<path id="&lt;Path&gt;" class="s2" d="m133.2 218.2c-0.3 0.3-4.5-2.9-9.8-6.9-5.2-3.9-9.5-7.1-9.2-7.5 0.2-0.4 5 2.2 10.2 6.2 5.3 4 9.1 7.8 8.8 8.2z"/>
					</g>
				</g>
			</g>
			<g id="&lt;Group&gt;">
				<g id="&lt;Group&gt;">
					<g id="&lt;Group&gt;">
						<path id="&lt;Path&gt;" class="s2" d="m139 211c-0.3 0.3-4.5-2.9-9.8-6.8-5.2-4-9.5-7.2-9.2-7.6 0.2-0.4 5 2.2 10.2 6.2 5.3 4 9.1 7.8 8.8 8.2z"/>
					</g>
				</g>
			</g>
			<g id="&lt;Group&gt;">
				<g id="&lt;Group&gt;">
					<path id="&lt;Path&gt;" class="s3" d="m371.7 218l-24.8-27c-1-1.1-0.9-2.7 0.1-3.7l15-13.6c1-1 2.6-0.9 3.6 0.1l24.8 27c1 1.1 0.9 2.7-0.2 3.7l-14.9 13.7c-1 0.9-2.7 0.8-3.6-0.2z"/>
				</g>
			</g>
			<g id="&lt;Group&gt;">
				<g id="&lt;Group&gt;">
					<g id="&lt;Group&gt;">
						<path id="&lt;Path&gt;" class="s2" d="m351.3 194.4c-0.3-0.3 3.6-4 8.2-8.6 4.7-4.6 8.5-8.4 8.9-8.1 0.3 0.3-2.9 4.6-7.7 9.3-4.7 4.6-9.1 7.8-9.4 7.4z"/>
					</g>
				</g>
			</g>
			<g id="&lt;Group&gt;">
				<g id="&lt;Group&gt;">
					<g id="&lt;Group&gt;">
						<path id="&lt;Path&gt;" class="s2" d="m357.7 200.3c-0.3-0.3 3.5-4.1 8.2-8.7 4.7-4.5 8.5-8.3 8.8-8 0.4 0.3-2.9 4.6-7.6 9.2-4.7 4.7-9.1 7.9-9.4 7.5z"/>
					</g>
				</g>
			</g>
			<g id="&lt;Group&gt;">
				<g id="&lt;Group&gt;">
					<g id="&lt;Group&gt;">
						<path id="&lt;Path&gt;" class="s2" d="m362.8 207.1c-0.3-0.3 3.5-4 8.2-8.6 4.7-4.6 8.4-8.4 8.8-8.1 0.3 0.3-2.9 4.6-7.7 9.3-4.7 4.6-9 7.8-9.3 7.4z"/>
					</g>
				</g>
			</g>
			<g id="&lt;Group&gt;">
				<g id="&lt;Group&gt;">
					<g id="&lt;Group&gt;">
						<path id="&lt;Path&gt;" class="s2" d="m369 213.9c-0.3-0.3 3.5-4 8.2-8.6 4.7-4.6 8.5-8.4 8.8-8.1 0.4 0.3-2.9 4.6-7.6 9.3-4.7 4.6-9.1 7.8-9.4 7.4z"/>
					</g>
				</g>
			</g>
			<g id="&lt;Group&gt;">
				<g id="&lt;Group&gt;">
					<g id="&lt;Group&gt;">
						<path id="&lt;Path&gt;" class="s2" d="m227.7 143.3c-0.5 0-0.9-5.2-0.9-11.5 0-6.5 0.4-11.6 0.9-11.6 0.4 0 0.8 5.1 0.8 11.6 0 6.3-0.4 11.5-0.8 11.5z"/>
					</g>
				</g>
			</g>
			<g id="&lt;Group&gt;">
				<g id="&lt;Group&gt;">
					<g id="&lt;Group&gt;">
						<path id="&lt;Path&gt;" class="s2" d="m238.7 143.3c-0.5 0-0.9-5.2-0.9-11.5 0-6.5 0.4-11.6 0.9-11.6 0.4 0 0.8 5.1 0.8 11.6 0 6.3-0.4 11.5-0.8 11.5z"/>
					</g>
				</g>
			</g>
			<g id="&lt;Group&gt;">
				<g id="&lt;Group&gt;">
					<g id="&lt;Group&gt;">
						<path id="&lt;Path&gt;" class="s2" d="m249.6 143.3c-0.4 0-0.8-5.2-0.8-11.5 0-6.5 0.4-11.6 0.8-11.6 0.5 0 0.9 5.1 0.9 11.6 0 6.3-0.4 11.5-0.9 11.5z"/>
					</g>
				</g>
			</g>
			<g id="&lt;Group&gt;">
				<g id="&lt;Group&gt;">
					<g id="&lt;Group&gt;">
						<path id="&lt;Path&gt;" class="s2" d="m260.6 143.3c-0.4 0-0.8-5.2-0.8-11.5 0-6.5 0.4-11.6 0.8-11.6 0.5 0 0.9 5.1 0.9 11.6 0 6.3-0.4 11.5-0.9 11.5z"/>
					</g>
				</g>
			</g>
			<g id="&lt;Group&gt;">
				<g id="&lt;Group&gt;">
					<g id="&lt;Group&gt;">
						<path id="&lt;Path&gt;" class="s2" d="m271.6 143.3c-0.4 0-0.8-5.2-0.8-11.5 0-6.5 0.4-11.6 0.8-11.6 0.5 0 0.9 5.1 0.9 11.6 0 6.3-0.4 11.5-0.9 11.5z"/>
					</g>
				</g>
			</g>
			<g id="&lt;Group&gt;">
				<g id="&lt;Group&gt;">
					<g id="&lt;Group&gt;">
						<path id="&lt;Path&gt;" class="s3" d="m260.5 308c0 8.1-6.6 14.6-14.7 14.6-8.1 0-14.7-6.5-14.7-14.6 0-8.1 6.6-14.7 14.7-14.7 8.1 0 14.7 6.6 14.7 14.7z"/>
					</g>
				</g>
				<g id="&lt;Group&gt;">
					<g id="&lt;Group&gt;">
						<g id="&lt;Group&gt;">
							<path id="&lt;Path&gt;" class="s2" d="m260.5 308c-0.2 0-0.1-1.3-0.8-3.6-0.6-2.1-2.1-5.3-5.3-7.7-3.2-2.4-8.4-3.7-13.4-1.9-4.9 1.7-9.2 7-9.1 13.2-0.1 6.1 4.2 11.4 9.1 13.1 5 1.9 10.2 0.5 13.4-1.9 3.2-2.4 4.7-5.6 5.3-7.7 0.7-2.2 0.6-3.5 0.8-3.5q0.1 0 0.1 0.9c0 0.6 0 1.6-0.3 2.7-0.5 2.3-1.9 5.7-5.3 8.4-3.3 2.8-8.9 4.4-14.4 2.4-5.5-1.8-10.3-7.6-10.2-14.4-0.1-6.9 4.7-12.7 10.2-14.5 5.5-2 11.1-0.3 14.4 2.4 3.4 2.7 4.8 6.1 5.3 8.4 0.3 1.2 0.3 2.1 0.3 2.7q0 1-0.1 1z"/>
						</g>
					</g>
				</g>
			</g>
		</g>
	</g>
	<g id="Speech Bubble">
		<g id="&lt;Group&gt;">
			<g id="&lt;Group&gt;">
				<g id="&lt;Group&gt;">
					<g id="&lt;Group&gt;">
						<g id="&lt;Group&gt;">
							<g id="&lt;Group&gt;">
								<g id="&lt;Group&gt;">
									<g id="&lt;Group&gt;">
										<g id="&lt;Group&gt;">
											<g id="&lt;Group&gt;">
												<g id="&lt;Group&gt;">
													<g id="&lt;Group&gt;">
														<g id="&lt;Group&gt;">
															<g id="&lt;Group&gt;">
																<path id="&lt;Path&gt;" class="s4" d="m762.5 358.3l25.1-4c11.8 9.5 26.2 15.9 42.2 18 46.2 5.8 88.4-27 94.3-73.2 5.8-46.3-26.9-88.5-73.1-94.3-46.2-5.9-88.3 26.9-94.2 73.1-2.4 19.4 1.9 38 11 53.5z"/>
															</g>
															<g id="&lt;Group&gt;">
																<g id="&lt;Group&gt;">
																	<path id="&lt;Path&gt;" class="s2" d="m762.5 358.3q0 0 0.3-1.7 0.4-1.8 1-5.1c0.8-4.6 2.1-11.4 3.8-20.2 0-0.1 0.1-0.2 0.2-0.1q0.1 0 0.2 0l-0.4 0.3c-5.5-9.3-11.1-22.9-11.7-39.8-0.2-4.2-0.1-8.5 0.5-13 0.7-4.5 1.3-9.2 2.8-13.8 2.7-9.3 7.1-18.7 13.6-27.4 6.5-8.6 15-16.4 25.1-22.3 10.2-5.9 22-10 34.6-11.2 12.5-1.3 25.7 0.5 38.2 5.2 12.3 4.8 24.1 12.5 33.1 23l3.4 4c1.1 1.4 2 2.8 3.1 4.2 2.1 2.8 3.6 5.9 5.3 8.9 0.9 1.5 1.5 3.1 2.2 4.7 0.7 1.6 1.5 3.1 2 4.7 1 3.2 2.4 6.4 3 9.7 3.1 13.1 3.1 26.6 0.3 39.1-2.9 12.4-8.6 23.8-15.9 33.1-7.3 9.4-16.3 16.8-25.8 22.1-9.6 5.3-19.6 8.4-29.2 9.7-4.9 0.8-9.6 0.8-14.1 0.8-4.6-0.3-9-0.5-13.1-1.4-16.7-3.1-29.2-10.6-37.5-17.3h0.2c-8.2 1.3-14.5 2.2-18.8 2.9q-3.1 0.4-4.8 0.7-1.6 0.2-1.6 0.2c0 0 0.6-0.1 1.7-0.3q1.7-0.3 4.8-0.8c4.3-0.7 10.5-1.8 18.6-3.1q0.1 0 0.2 0c8.3 6.7 20.8 14 37.3 17.1 4.1 0.8 8.5 1 13 1.3 4.5-0.1 9.2-0.1 14-0.9 9.5-1.3 19.4-4.4 28.9-9.7 9.4-5.2 18.2-12.6 25.5-21.9 7.2-9.2 12.8-20.4 15.6-32.8 2.7-12.3 2.8-25.6-0.3-38.5-0.6-3.3-2-6.4-2.9-9.6-0.5-1.7-1.4-3.1-2-4.7-0.8-1.5-1.3-3.1-2.2-4.6-1.7-2.9-3.2-6-5.3-8.8-1-1.4-2-2.8-3-4.2l-3.4-3.9c-8.9-10.4-20.5-18-32.7-22.7-12.3-4.7-25.3-6.4-37.7-5.2-12.4 1.2-24.1 5.2-34.2 11-10.1 5.8-18.5 13.5-24.9 22.1-6.5 8.5-10.9 17.8-13.5 27-1.5 4.6-2.1 9.2-2.9 13.6-0.5 4.5-0.7 8.9-0.6 13 0.6 16.8 6.1 30.3 11.5 39.6 0.1 0.1 0.1 0.2 0 0.3-0.1 0.1-0.2 0-0.3 0v-0.1l0.3-0.1c-1.7 8.7-3.1 15.4-4 19.9q-0.7 3.4-1.1 5.2c-0.2 1.2-0.4 1.8-0.4 1.8z"/>
																</g>
															</g>
														</g>
													</g>
												</g>
											</g>
										</g>
									</g>
								</g>
							</g>
						</g>
					</g>
				</g>
			</g>
			<g id="&lt;Group&gt;">
				<g id="&lt;Group&gt;">
					<g id="&lt;Group&gt;">
						<g id="&lt;Group&gt;">
							<g id="&lt;Group&gt;">
								<g id="&lt;Group&gt;">
									<g id="&lt;Group&gt;">
										<g id="&lt;Group&gt;">
											<g id="&lt;Group&gt;">
												<g id="&lt;Group&gt;">
													<g id="&lt;Group&gt;">
														<path id="&lt;Path&gt;" class="s2" d="m866.3 291c0-4.8 3.9-8.6 8.6-8.6 4.7 0 8.6 3.8 8.6 8.6 0 4.7-3.9 8.5-8.6 8.5-4.7 0-8.6-3.8-8.6-8.5z"/>
													</g>
												</g>
											</g>
										</g>
									</g>
								</g>
							</g>
						</g>
					</g>
				</g>
				<g id="&lt;Group&gt;">
					<g id="&lt;Group&gt;">
						<g id="&lt;Group&gt;">
							<g id="&lt;Group&gt;">
								<g id="&lt;Group&gt;">
									<g id="&lt;Group&gt;">
										<g id="&lt;Group&gt;">
											<g id="&lt;Group&gt;">
												<g id="&lt;Group&gt;">
													<g id="&lt;Group&gt;">
														<path id="&lt;Path&gt;" class="s2" d="m832 291c0-4.8 3.8-8.6 8.6-8.6 4.7 0 8.6 3.8 8.6 8.6 0 4.7-3.9 8.5-8.6 8.5-4.8 0-8.6-3.8-8.6-8.5z"/>
													</g>
												</g>
											</g>
										</g>
									</g>
								</g>
							</g>
						</g>
					</g>
				</g>
				<g id="&lt;Group&gt;">
					<g id="&lt;Group&gt;">
						<g id="&lt;Group&gt;">
							<g id="&lt;Group&gt;">
								<g id="&lt;Group&gt;">
									<g id="&lt;Group&gt;">
										<g id="&lt;Group&gt;">
											<g id="&lt;Group&gt;">
												<g id="&lt;Group&gt;">
													<g id="&lt;Group&gt;">
														<path id="&lt;Path&gt;" class="s2" d="m797.8 295.2c-2.4-4.1-1-9.3 3.1-11.7 4.1-2.3 9.4-0.9 11.7 3.2 2.4 4.1 1 9.3-3.1 11.7-4.1 2.3-9.3 0.9-11.7-3.2z"/>
													</g>
												</g>
											</g>
										</g>
									</g>
								</g>
							</g>
						</g>
					</g>
				</g>
			</g>
		</g>
	</g>
	<g id="Character">
		<g id="&lt;Group&gt;">
			<g id="&lt;Group&gt;">
				<g id="&lt;Group&gt;">
					<path id="&lt;Path&gt;" class="s5" d="m198.6 598c-5.3-2.5-14.1-7.7-19.6-9.8-5.5-2-11.6-3-17.2-1.1-3.2 1.1-6.4 3.6-6.4 7l21.5 15.8 21.7-5.7z"/>
				</g>
				<g id="&lt;Group&gt;">
					<path id="&lt;Path&gt;" class="s6" d="m175.1 597.8c0 0-38.7-8.4-45-11.7-6.4-3.3-40.1-20.2-45.7-20.2-5.6 0-10.4 1.5-11.5 7.1l7.4 5.7 0.9 2.9 12.6 6.6 2.3 4.2 31.9 17.1c0 0 33.6 17 39.2 18 5.6 1 33.6 3.3 45.5 13.5l48-19.7c0 0-13.8-19.7-24.5-24.5-9.5-4.4-25.5-4.4-36.7 0.2z"/>
				</g>
				<g id="&lt;Group&gt;">
					<path id="&lt;Path&gt;" class="s6" d="m207.2 630.1c0 0 61.1 133.2 70.9 159.9 0 0 68.3-11.2 70.7-49.2l-88.1-119.9z"/>
				</g>
				<g id="&lt;Group&gt;">
					<g id="&lt;Group&gt;">
						<path id="&lt;Path&gt;" class="s5" d="m150.4 600.8q0 0-0.6 0-0.7-0.1-1.9-0.4c-1.5-0.4-3.7-1.3-6.3-2.6-2.6-1.2-5.6-2.9-9-4.7-1.6-1-3.4-1.9-5.2-2.9-1.8-0.9-3.8-1.7-5.8-2.6-4-1.8-7.9-3.3-11.6-4.2-3.6-0.9-7.1-1.6-9.7-0.7-2.6 0.9-3.8 3.1-4.5 4.5-0.6 1.4-0.9 2.3-1 2.3q0 0 0.1-0.7 0.1-0.6 0.6-1.8c0.3-0.7 0.7-1.6 1.4-2.6 0.7-0.9 1.7-1.9 3.2-2.4 1.4-0.6 3.1-0.6 4.8-0.5q2.6 0.2 5.4 0.9c3.7 1 7.7 2.5 11.7 4.2 2 0.9 4 1.7 5.9 2.7 1.8 1 3.6 2 5.2 2.9 3.3 1.9 6.3 3.7 8.8 5 2.5 1.3 4.7 2.3 6.2 2.8 1.5 0.6 2.3 0.7 2.3 0.8z"/>
					</g>
				</g>
				<g id="&lt;Group&gt;">
					<g id="&lt;Group&gt;">
						<path id="&lt;Path&gt;" class="s5" d="m113.6 581.6c-0.1 0.2-2.2-0.4-5.4-1.8-3.2-1.5-7.6-3.5-12.7-5.1-2.5-0.8-5.1-0.8-7.3-0.6-2.3 0.2-4.2 1.1-5.2 2.4-1 1.3-1.3 2.7-1.5 3.6-0.1 1-0.2 1.5-0.3 1.5 0 0-0.1-0.5-0.1-1.5 0.1-1 0.3-2.5 1.3-4.1 0.6-0.7 1.4-1.4 2.4-1.9 0.9-0.5 2.1-0.8 3.3-1 2.3-0.2 5-0.2 7.7 0.6 5.2 1.6 9.6 3.8 12.7 5.4 3.1 1.6 5.1 2.4 5.1 2.5z"/>
					</g>
				</g>
				<g id="&lt;Group&gt;">
					<g id="&lt;Group&gt;">
						<path id="&lt;Path&gt;" class="s5" d="m209.9 594c0 0.1-0.5 0.3-1.6 0.7-1 0.4-2.5 0.9-4.4 1.4-3.8 1-9.2 2-15.2 2.2-6 0.3-11.4-0.2-15.3-0.9-1.9-0.3-3.5-0.7-4.6-1-1-0.3-1.6-0.4-1.6-0.5 0.1-0.2 2.4 0.3 6.3 0.8 3.9 0.4 9.2 0.8 15.2 0.6 5.9-0.3 11.2-1.1 15-2 3.8-0.8 6.2-1.4 6.2-1.3z"/>
					</g>
				</g>
			</g>
			<g id="&lt;Group&gt;">
				<g id="&lt;Group&gt;">
					<path id="&lt;Path&gt;" class="s3" d="m778.9 514.9l-89-18.4-21.9-16.5-117.4 22.6c-1.9 3.5-20.9 30-20.9 30l-46.2 15.7c-19.8 5.3-37.4 16.4-50.2 32-9.7 11.9-20.6 28.4-29.9 50.2-20.8 48.8-50.8 105.2-50.8 105.2l-18.9-30.3-79.3 37.4c0 0 46.5 93.6 61.9 107 17.1 14.9 56.4 16.6 83.6-11.1 16.3-16.7 63.7-82.8 73.5-99.4l14.6 69.2 13.5 79-21.8 54.3h317.6l-13.1-51.4c0 0 12.9-133.8 16.5-158.7 8.4-58.8-21.8-216.8-21.8-216.8z"/>
				</g>
				<g id="&lt;Group&gt;">
					<path id="&lt;Path&gt;" class="s3" d="m778.9 514.9c0 0 63.6 17.8 77.6 81.1 8.5 38.3 37.3 147.4 47.4 237.3 6 53.5 5.8 102.8 6 108.5h-97.6l-41.4-409.1z"/>
				</g>
				<g id="&lt;Group&gt;">
					<g id="&lt;Group&gt;">
						<path id="&lt;Path&gt;" class="s7" d="m615.8 569.2q0 0-0.3 0.6-0.4 0.8-0.9 1.9c-0.8 1.6-1.9 4-3.3 7-2.8 6-6.1 14.9-11.5 24.8l-0.3 0.5-0.4-0.3c-6.6-5.7-13.8-12.4-21.2-19.7-13.1-13-24.5-25.1-33-33.7-4.2-4.2-7.6-7.7-10.1-10.1q-1.7-1.7-2.8-2.8-0.9-0.9-0.9-1 0.1 0 1.1 0.9 1.1 1 2.9 2.6c2.4 2.3 6 5.6 10.3 9.9 8.6 8.4 20.2 20.5 33.3 33.4 7.4 7.3 14.5 14.1 21 19.8l-0.7 0.1c5.4-9.8 8.8-18.7 11.8-24.6 1.4-3.1 2.7-5.4 3.5-7q0.7-1 1.1-1.7 0.3-0.6 0.4-0.6z"/>
					</g>
				</g>
				<g id="&lt;Group&gt;">
					<g id="&lt;Group&gt;">
						<path id="&lt;Path&gt;" class="s7" d="m691.2 498.8q0.1 0-0.1 1.4-0.3 1.5-0.8 3.9c-0.7 3.5-1.9 8.4-3.6 14.5-3.5 12.1-9.1 28.6-15.9 46.5-3.7 9.4-7.3 18.4-10.7 26.3l-0.2 0.7-0.5-0.5c-9.1-8-17.2-14.3-22.7-19-2.8-2.3-4.9-4.2-6.4-5.5q-1-0.9-1.6-1.5-0.6-0.6-0.5-0.6 0 0 0.6 0.5 0.7 0.5 1.7 1.4c1.6 1.3 3.8 3.1 6.6 5.3 5.6 4.6 13.8 10.7 22.9 18.7l-0.7 0.2c3.3-8 6.8-16.9 10.5-26.4 6.8-17.9 12.5-34.3 16.2-46.3 1.8-6 3.1-10.9 3.9-14.4q0.6-2.4 1-3.9 0.3-1.3 0.3-1.3z"/>
					</g>
				</g>
				<g id="&lt;Group&gt;">
					<g id="&lt;Group&gt;">
						<path id="&lt;Path&gt;" class="s7" d="m485.5 799.7q0 0-0.2-0.5-0.1-0.5-0.4-1.3-0.5-2-1.5-5.3c-0.7-2.3-1.3-5.1-2.1-8.4-0.9-3.3-1.7-7-2.6-11.2-3.5-16.6-7.1-39.9-9.3-65.7-2.2-25.9-2.7-49.4-2.6-66.4 0-8.5 0.2-15.3 0.4-20.1q0.2-3.4 0.3-5.5 0.1-0.8 0.1-1.4 0-0.5 0.1-0.5 0 0 0 0.5 0 0.6 0 1.5 0 2-0.1 5.4c-0.1 4.8-0.1 11.6-0.1 20.1 0.1 17 0.7 40.5 3 66.3 2.2 25.8 5.6 49 9 65.7 0.8 4.1 1.5 7.9 2.3 11.2 0.8 3.3 1.4 6.1 2 8.4q0.8 3.3 1.3 5.3 0.2 0.8 0.3 1.4 0.1 0.5 0.1 0.5z"/>
					</g>
				</g>
				<g id="&lt;Group&gt;">
					<g id="&lt;Group&gt;">
						<path id="&lt;Path&gt;" class="s7" d="m784.2 585q0 0 0.2 0.6 0.3 0.6 0.7 1.6 1 2.3 2.7 6.4c0.5 1.4 1.2 2.9 1.8 4.6q0.9 2.6 1.9 5.6 1 3 2.2 6.5 1 3.4 2 7.3c6 20.6 9 50.4 7.3 83-1.8 32.6-5.6 61.9-7.9 83.1-1.3 10.5-2.3 19.1-3 25.1q-0.5 4.4-0.8 6.8-0.1 1.1-0.2 1.8-0.1 0.6-0.1 0.6-0.1 0 0-0.6 0-0.7 0.1-1.8 0.2-2.4 0.6-6.8c0.6-6 1.5-14.6 2.6-25.2 2.2-21.2 5.9-50.6 7.6-83.1 1.7-32.5-1.2-62.1-6.9-82.7q-1-3.9-1.9-7.4-1.1-3.4-2.1-6.4-1-3-1.8-5.6c-0.7-1.7-1.3-3.3-1.8-4.7q-1.6-4.1-2.5-6.4-0.3-1-0.6-1.7-0.2-0.6-0.1-0.6z"/>
					</g>
				</g>
				<g id="&lt;Group&gt;">
					<g id="&lt;Group&gt;">
						<path id="&lt;Path&gt;" class="s7" d="m353 803.9c-0.3 0-0.6-15.3-0.7-34.1-0.2-18.8 0-34.1 0.3-34.1 0.2 0 0.6 15.3 0.7 34.1 0.1 18.8 0 34.1-0.3 34.1z"/>
					</g>
				</g>
				<g id="&lt;Group&gt;">
					<g id="&lt;Group&gt;">
						<path id="&lt;Path&gt;" class="s7" d="m641.6 896.2q0 0 0.1-0.9 0.1-0.9 0.2-2.4c0.3-2.2 0.7-5.4 1.2-9.4q0.4-3.1 0.9-6.8 0.4-3.7 0.8-8c0.6-5.8 1.4-12.4 1.9-19.7q0.5-5.5 1-11.5c0.3-4 0.5-8.1 0.7-12.4 0.6-8.6 0.9-17.9 1.2-27.5 0.5-19.4 0.4-40.7-0.6-63.1-1.1-22.3-3-43.6-5.3-62.8-1.2-9.6-2.3-18.8-3.7-27.3-0.7-4.2-1.3-8.4-2-12.3q-1-5.9-2-11.3c-1.2-7.3-2.6-13.7-3.8-19.5q-0.8-4.2-1.6-7.9-0.8-3.7-1.5-6.7c-0.8-3.9-1.5-7-2-9.2q-0.3-1.5-0.5-2.4-0.2-0.8-0.1-0.8 0 0 0.2 0.8 0.2 0.8 0.6 2.3c0.5 2.2 1.3 5.3 2.2 9.2q0.8 3 1.6 6.7 0.8 3.6 1.7 7.9c1.2 5.7 2.7 12.2 3.9 19.4q1 5.4 2.1 11.4c0.7 3.9 1.3 8 2 12.3 1.4 8.5 2.6 17.6 3.9 27.3 2.3 19.2 4.2 40.5 5.4 62.9 1 22.3 1 43.7 0.5 63.1-0.4 9.7-0.7 18.9-1.3 27.5-0.3 4.3-0.5 8.5-0.8 12.5q-0.6 5.9-1 11.4c-0.6 7.3-1.5 13.9-2.1 19.7q-0.5 4.4-0.9 8.1-0.6 3.7-1 6.8c-0.6 4-1 7.1-1.3 9.3q-0.3 1.5-0.4 2.4-0.2 0.9-0.2 0.9z"/>
					</g>
				</g>
				<g id="&lt;Group&gt;">
					<g id="&lt;Group&gt;">
						<path id="&lt;Path&gt;" class="s7" d="m683.9 680.3q0 0 0.4-0.1 0.5-0.1 1.2-0.1 1.8-0.2 4.9-0.6c4.4-0.5 10.8-1.1 18.8-2 16.2-1.7 39.2-4.1 66.7-6.9h0.5v0.5c0.5 20.1 1.1 43 1.7 67.2v0.2l-0.1 0.2c-2.6 2.7-5.3 5.7-8.1 8.6-10 10.8-19.8 21.3-29.1 31.3l-0.3 0.3-0.3-0.2c-17.9-8.9-34.5-17.1-49.1-24.4l-0.3-0.1v-0.3c-2.1-22.3-3.9-40.7-5.1-53.6-0.6-6.4-1.1-11.4-1.4-14.9q-0.2-2.4-0.3-3.8-0.1-1.3-0.1-1.3c0 0 0.1 0.5 0.2 1.3q0.1 1.5 0.4 4c0.4 3.5 0.9 8.5 1.6 14.9 1.4 12.8 3.3 31.2 5.6 53.4l-0.3-0.4c14.7 7.3 31.3 15.5 49.2 24.3l-0.5 0.1c9.2-10 19-20.5 29.1-31.3 2.7-3 5.5-5.9 8-8.6l-0.1 0.3c-0.6-24.2-1.2-47-1.6-67.2l0.5 0.4c-27.4 2.7-50.3 4.9-66.5 6.4-8.1 0.8-14.4 1.4-18.8 1.8q-3.3 0.3-5.1 0.4-0.8 0.1-1.3 0.2-0.4 0-0.4 0z"/>
					</g>
				</g>
				<g id="&lt;Group&gt;">
					<g id="&lt;Group&gt;">
						<path id="&lt;Path&gt;" class="s7" d="m776.5 694.4c0 0-1.2 0.3-3.5 0.6-2.2 0.4-5.4 0.8-9.5 1.4-8 1-19.1 2.2-31.4 3.3-12.3 1.2-23.3 2.3-31.6 3.1-3.9 0.4-7.1 0.8-9.5 1-2.2 0.3-3.5 0.4-3.5 0.3 0-0.1 1.2-0.3 3.5-0.7 2.2-0.3 5.4-0.8 9.5-1.3 8-1 19.1-2.2 31.5-3.4 12.2-1.2 23.2-2.3 31.5-3.1 3.8-0.4 7.1-0.7 9.5-1 2.2-0.2 3.5-0.3 3.5-0.2z"/>
					</g>
				</g>
				<g id="&lt;Group&gt;" style="opacity: .3">
					<g id="&lt;Group&gt;">
						<path id="&lt;Path&gt;" class="s7" d="m795.8 773q1.7 20.5 3.4 40.9c7.4-35 19.1-72.6 17.2-108.4-1.8-35.5-5.1-69.9-25.3-102.2 0 0 13.7 34.2 11.9 76-1.9 41.8-7.2 93.7-7.2 93.7z"/>
					</g>
				</g>
				<g id="&lt;Group&gt;">
					<path id="&lt;Path&gt;" class="s3" d="m339.8 697c-1.4-2.3-2.9-4.8-5.4-5.7-2.8-1-5.9 0.4-8.5 1.7q-36.3 18.1-72.6 36.1c-4.8 2.4-10 5.2-11.8 10.2-2.3 6.4 1.9 13.2 6 18.7 6.6 9.2 14.6 19.2 25.9 20.5l62.4-42.8c7.7-1.1 12.4-9.6 12.1-17.3-0.3-7.7-4.3-14.8-8.1-21.4z"/>
				</g>
				<g id="&lt;Group&gt;">
					<g id="&lt;Group&gt;">
						<path id="&lt;Path&gt;" class="s7" d="m347.6 723.1q0.1 0.1-0.6 0.7-0.8 0.8-2 1.9c-1.7 1.6-4.2 3.8-7.4 6.6-6.4 5.4-15.4 12.7-25.9 20.1-10.5 7.4-20.4 13.5-27.6 17.7-3.7 2.1-6.7 3.7-8.7 4.8q-1.5 0.7-2.4 1.2-0.9 0.4-0.9 0.4 0-0.1 0.8-0.6 0.9-0.6 2.3-1.4c2.1-1.3 5-3 8.5-5.1 7.2-4.3 16.9-10.5 27.4-17.9 10.4-7.4 19.5-14.5 26-19.8 3.2-2.6 5.7-4.7 7.7-6.3q1.2-1 2.1-1.7 0.7-0.6 0.7-0.6z"/>
					</g>
				</g>
				<g id="&lt;Group&gt;" style="opacity: .3">
					<g id="&lt;Group&gt;">
						<path id="&lt;Path&gt;" class="s7" d="m690.3 503.3c-8.5 28.4-20.5 60.5-30.6 88-8.6-7.3-20.6-17-29.3-24.3 7.5 14.7 16.4 28.6 26.6 41.5 1.2 1.5 2.8 3.2 4.7 2.8 1.8-0.3 2.7-2.3 3.3-4q7.9-20.8 15.8-41.6c7.3-19.5 14.4-42.2 9.5-62.4z"/>
					</g>
				</g>
			</g>
			<g id="&lt;Group&gt;">
				<g id="&lt;Group&gt;">
					<g id="&lt;Group&gt;">
						<g id="&lt;Group&gt;">
							<g id="&lt;Group&gt;">
								<path id="&lt;Path&gt;" class="s2" d="m555.3 194.8c25.9-7.5 50.3 0.1 74.3 12.4 24 12.4 43.3 33 55.8 56.9 13.2 25.2 19.1 54.5 14.3 82.6-4.8 28-20.6 54.4-44.3 70-32.5 21.4-77.1 20.3-110.5 0.5-33.4-19.8-55.4-56.3-61.2-94.6-4-26.5-0.8-54.4 11.6-78.1 12.3-23.7 34.1-42.9 60-49.7z"/>
							</g>
						</g>
					</g>
					<g id="&lt;Group&gt;">
						<g id="&lt;Group&gt;">
							<g id="&lt;Group&gt;">
								<g id="&lt;Group&gt;">
									<g id="&lt;Group&gt;">
										<path id="&lt;Path&gt;" class="s2" d="m640.7 276.2c-5.1-9.7-4.8-21.1-7.6-31.7-6-23.2-27.2-40-50.2-46.7-21.4-6.3-46.2-1.6-70 9.2-16.3 7.4-31.1 18.7-40.8 33.7-12.9 19.9-15.2 46.2-6.1 68.1l118.8-31.2c12.4 8 25 16.2 39.3 19.9 4.2 1.1 8.7 1.7 12.9 0.6 4.1-1.2 7.9-4.5 8.5-8.8 0.6-4.7-2.7-8.9-4.8-13.1z"/>
									</g>
								</g>
							</g>
						</g>
						<g id="&lt;Group&gt;">
							<g id="&lt;Group&gt;">
								<g id="&lt;Group&gt;">
									<g id="&lt;Group&gt;">
										<path id="&lt;Path&gt;" class="s6" d="m669 486.8l-30.7-215.6c-1.3-10.2-5.9-20.6-16.2-20.2l-108-10.4c-33.8 1.6-49.7 46-46.7 79.7 3.3 37.5 8.9 83.1 17.5 110.1 17.3 54.4 61.1 54.9 61.1 54.9 0-0.1 2.7 10.8 6 31l70 46.6z"/>
									</g>
								</g>
							</g>
						</g>
						<g id="&lt;Group&gt;">
							<g id="&lt;Group&gt;">
								<g id="&lt;Group&gt;">
									<g id="&lt;Group&gt;">
										<g id="&lt;Group&gt;">
											<g id="&lt;Group&gt;">
												<g id="&lt;Group&gt;">
													<g id="&lt;Group&gt;">
														<g id="&lt;Group&gt;">
															<g id="&lt;Group&gt;">
																<g id="&lt;Group&gt;">
																	<g id="&lt;Group&gt;">
																		<g id="&lt;Group&gt;">
																			<g id="&lt;Group&gt;">
																				<g id="&lt;Group&gt;">
																					<g id="&lt;Group&gt;">
																						<g id="&lt;Group&gt;">
																							<g id="&lt;Group&gt;">
																								<g id="&lt;Group&gt;">
																									<g id="&lt;Group&gt;">
																										<path id="&lt;Path&gt;" class="s2" d="m493.5 361.3c0.4 3.8 4 6.6 8 6.2 3.9-0.4 6.8-3.8 6.3-7.6-0.4-3.8-4-6.5-7.9-6.2-4 0.4-6.9 3.8-6.4 7.6z"/>
																									</g>
																								</g>
																							</g>
																						</g>
																					</g>
																				</g>
																			</g>
																		</g>
																	</g>
																</g>
															</g>
														</g>
													</g>
												</g>
											</g>
										</g>
									</g>
									<g id="&lt;Group&gt;">
										<g id="&lt;Group&gt;">
											<g id="&lt;Group&gt;">
												<g id="&lt;Group&gt;">
													<g id="&lt;Group&gt;">
														<g id="&lt;Group&gt;">
															<g id="&lt;Group&gt;">
																<g id="&lt;Group&gt;">
																	<g id="&lt;Group&gt;">
																		<g id="&lt;Group&gt;">
																			<g id="&lt;Group&gt;">
																				<g id="&lt;Group&gt;">
																					<g id="&lt;Group&gt;">
																						<g id="&lt;Group&gt;">
																							<g id="&lt;Group&gt;">
																								<g id="&lt;Group&gt;">
																									<g id="&lt;Group&gt;">
																										<g id="&lt;Group&gt;">
																											<path id="&lt;Path&gt;" class="s2" d="m480.9 342.4c1 0.8 5.8-4 13.5-5.2 7.6-1.2 13.9 1.9 14.6 0.8 0.3-0.5-0.8-2-3.6-3.4-2.7-1.4-7-2.5-11.8-1.8-4.8 0.8-8.6 3.1-10.6 5.3-2.1 2.2-2.6 4-2.1 4.3z"/>
																										</g>
																									</g>
																								</g>
																							</g>
																						</g>
																					</g>
																				</g>
																			</g>
																		</g>
																	</g>
																</g>
															</g>
														</g>
													</g>
												</g>
											</g>
										</g>
									</g>
								</g>
								<g id="&lt;Group&gt;">
									<g id="&lt;Group&gt;">
										<g id="&lt;Group&gt;">
											<g id="&lt;Group&gt;">
												<g id="&lt;Group&gt;">
													<g id="&lt;Group&gt;">
														<g id="&lt;Group&gt;">
															<g id="&lt;Group&gt;">
																<g id="&lt;Group&gt;">
																	<g id="&lt;Group&gt;">
																		<g id="&lt;Group&gt;">
																			<g id="&lt;Group&gt;">
																				<g id="&lt;Group&gt;">
																					<g id="&lt;Group&gt;">
																						<g id="&lt;Group&gt;">
																							<g id="&lt;Group&gt;">
																								<g id="&lt;Group&gt;">
																									<g id="&lt;Group&gt;">
																										<path id="&lt;Path&gt;" class="s2" d="m564.5 349.8c0.5 3.8 4 6.5 8 6.1 4-0.4 6.8-3.8 6.4-7.5-0.5-3.8-4-6.6-8-6.2-4 0.4-6.8 3.8-6.4 7.6z"/>
																									</g>
																								</g>
																							</g>
																						</g>
																					</g>
																				</g>
																			</g>
																		</g>
																	</g>
																</g>
															</g>
														</g>
													</g>
												</g>
											</g>
										</g>
									</g>
									<g id="&lt;Group&gt;">
										<g id="&lt;Group&gt;">
											<g id="&lt;Group&gt;">
												<g id="&lt;Group&gt;">
													<g id="&lt;Group&gt;">
														<g id="&lt;Group&gt;">
															<g id="&lt;Group&gt;">
																<g id="&lt;Group&gt;">
																	<g id="&lt;Group&gt;">
																		<g id="&lt;Group&gt;">
																			<g id="&lt;Group&gt;">
																				<g id="&lt;Group&gt;">
																					<g id="&lt;Group&gt;">
																						<g id="&lt;Group&gt;">
																							<g id="&lt;Group&gt;">
																								<g id="&lt;Group&gt;">
																									<g id="&lt;Group&gt;">
																										<g id="&lt;Group&gt;">
																											<path id="&lt;Path&gt;" class="s2" d="m554 332.2c1 0.8 5.8-4 13.5-5.1 7.6-1.3 13.9 1.8 14.6 0.7 0.3-0.5-0.8-2-3.6-3.4-2.7-1.4-7-2.5-11.8-1.8-4.8 0.8-8.6 3.2-10.6 5.3-2.1 2.2-2.6 4-2.1 4.3z"/>
																										</g>
																									</g>
																								</g>
																							</g>
																						</g>
																					</g>
																				</g>
																			</g>
																		</g>
																	</g>
																</g>
															</g>
														</g>
													</g>
												</g>
											</g>
										</g>
									</g>
								</g>
								<g id="&lt;Group&gt;">
									<g id="&lt;Group&gt;">
										<g id="&lt;Group&gt;">
											<g id="&lt;Group&gt;">
												<g id="&lt;Group&gt;">
													<g id="&lt;Group&gt;">
														<g id="&lt;Group&gt;">
															<g id="&lt;Group&gt;">
																<g id="&lt;Group&gt;">
																	<g id="&lt;Group&gt;">
																		<g id="&lt;Group&gt;">
																			<g id="&lt;Group&gt;">
																				<g id="&lt;Group&gt;">
																					<g id="&lt;Group&gt;">
																						<g id="&lt;Group&gt;">
																							<g id="&lt;Group&gt;">
																								<g id="&lt;Group&gt;">
																									<g id="&lt;Group&gt;">
																										<path id="&lt;Path&gt;" class="s2" d="m537.4 393.6c0-0.5-4.9-0.6-12.8-0.4-2 0.1-3.9 0-4.4-1.3-0.7-1.3-0.2-3.5 0.4-6q1.7-7.5 3.5-15.8c4.8-22.5 8-40.9 7.1-41.1-0.9-0.2-5.6 17.9-10.4 40.4q-1.7 8.3-3.2 15.9c-0.4 2.4-1.3 5.1 0.1 7.9 0.8 1.4 2.4 2.2 3.7 2.3 1.3 0.2 2.4 0.1 3.4 0 7.8-0.8 12.7-1.5 12.6-1.9z"/>
																									</g>
																								</g>
																							</g>
																						</g>
																					</g>
																				</g>
																			</g>
																		</g>
																	</g>
																</g>
															</g>
														</g>
													</g>
												</g>
											</g>
										</g>
									</g>
								</g>
								<g id="&lt;Group&gt;">
									<g id="&lt;Group&gt;">
										<g id="&lt;Group&gt;">
											<g id="&lt;Group&gt;">
												<g id="&lt;Group&gt;">
													<g id="&lt;Group&gt;">
														<g id="&lt;Group&gt;">
															<g id="&lt;Group&gt;">
																<g id="&lt;Group&gt;">
																	<g id="&lt;Group&gt;">
																		<g id="&lt;Group&gt;">
																			<g id="&lt;Group&gt;">
																				<g id="&lt;Group&gt;">
																					<g id="&lt;Group&gt;">
																						<g id="&lt;Group&gt;">
																							<g id="&lt;Group&gt;">
																								<g id="&lt;Group&gt;">
																									<path id="&lt;Path&gt;" class="s5" d="m546 485.3c0 0 37.9-3.3 71.6-31.2 0 0-17.5 43.7-68.1 48.1z"/>
																								</g>
																							</g>
																						</g>
																					</g>
																				</g>
																			</g>
																		</g>
																	</g>
																</g>
															</g>
														</g>
													</g>
												</g>
											</g>
										</g>
									</g>
								</g>
								<g id="&lt;Group&gt;">
									<g id="&lt;Group&gt;">
										<g id="&lt;Group&gt;">
											<g id="&lt;Group&gt;">
												<g id="&lt;Group&gt;">
													<g id="&lt;Group&gt;">
														<g id="&lt;Group&gt;">
															<g id="&lt;Group&gt;">
																<g id="&lt;Group&gt;">
																	<g id="&lt;Group&gt;">
																		<g id="&lt;Group&gt;">
																			<g id="&lt;Group&gt;">
																				<g id="&lt;Group&gt;">
																					<g id="&lt;Group&gt;">
																						<g id="&lt;Group&gt;">
																							<g id="&lt;Group&gt;">
																								<g id="&lt;Group&gt;">
																									<path id="&lt;Path&gt;" class="s5" d="m543.5 411.6c2.2-4.1 6.8-6.8 11.6-7 3.4-0.2 7.1 0.9 9.5 3.3 2.4 2.4 3.4 6.2 2 9.1-1.6 3.2-5.9 4.6-9.7 4.1-3.8-0.5-7.3-2.4-10.7-4.4-0.9-0.5-1.9-1.1-2.5-1.9-0.7-0.9-1-2-0.5-2.9"/>
																								</g>
																							</g>
																						</g>
																					</g>
																				</g>
																			</g>
																		</g>
																	</g>
																</g>
															</g>
														</g>
													</g>
												</g>
											</g>
										</g>
									</g>
								</g>
								<g id="&lt;Group&gt;">
									<g id="&lt;Group&gt;">
										<g id="&lt;Group&gt;">
											<g id="&lt;Group&gt;">
												<g id="&lt;Group&gt;">
													<g id="&lt;Group&gt;">
														<g id="&lt;Group&gt;">
															<g id="&lt;Group&gt;">
																<g id="&lt;Group&gt;">
																	<g id="&lt;Group&gt;">
																		<g id="&lt;Group&gt;">
																			<g id="&lt;Group&gt;">
																				<g id="&lt;Group&gt;">
																					<g id="&lt;Group&gt;">
																						<g id="&lt;Group&gt;">
																							<g id="&lt;Group&gt;">
																								<g id="&lt;Group&gt;">
																									<g id="&lt;Group&gt;">
																										<path id="&lt;Path&gt;" class="s2" d="m560.9 395.4c-1.3 0.2 0 8.5-6.3 15.5-6.2 7.1-15.2 7.5-15.1 8.6-0.1 0.6 2.2 1.4 6 0.9 3.7-0.4 8.9-2.4 12.7-6.7 3.8-4.3 4.9-9.5 4.7-12.9-0.2-3.6-1.5-5.5-2-5.4z"/>
																									</g>
																								</g>
																							</g>
																						</g>
																					</g>
																				</g>
																			</g>
																		</g>
																	</g>
																</g>
															</g>
														</g>
													</g>
												</g>
											</g>
										</g>
									</g>
								</g>
							</g>
						</g>
						<g id="&lt;Group&gt;">
							<g id="&lt;Group&gt;">
								<g id="&lt;Group&gt;">
									<g id="&lt;Group&gt;">
										<g id="&lt;Group&gt;">
											<g id="&lt;Group&gt;">
												<g id="&lt;Group&gt;">
													<g id="&lt;Group&gt;">
														<g id="&lt;Group&gt;">
															<g id="&lt;Group&gt;">
																<g id="&lt;Group&gt;">
																	<g id="&lt;Group&gt;">
																		<g id="&lt;Group&gt;">
																			<g id="&lt;Group&gt;">
																				<g id="&lt;Group&gt;">
																					<g id="&lt;Group&gt;">
																						<path id="&lt;Path&gt;" class="s2" d="m551.8 309.3c1.1 2 8.6-0.2 17.8-0.5 9.2-0.5 16.8 1.1 17.7-1 0.4-1-1.1-2.7-4.4-4.3-3.2-1.6-8.1-2.8-13.7-2.6-5.5 0.3-10.3 1.9-13.4 3.7-3.1 1.8-4.5 3.7-4 4.7z"/>
																					</g>
																				</g>
																			</g>
																		</g>
																	</g>
																</g>
															</g>
														</g>
													</g>
												</g>
											</g>
										</g>
									</g>
								</g>
							</g>
						</g>
						<g id="&lt;Group&gt;">
							<g id="&lt;Group&gt;">
								<g id="&lt;Group&gt;">
									<g id="&lt;Group&gt;">
										<g id="&lt;Group&gt;">
											<g id="&lt;Group&gt;">
												<g id="&lt;Group&gt;">
													<g id="&lt;Group&gt;">
														<g id="&lt;Group&gt;">
															<g id="&lt;Group&gt;">
																<g id="&lt;Group&gt;">
																	<g id="&lt;Group&gt;">
																		<g id="&lt;Group&gt;">
																			<g id="&lt;Group&gt;">
																				<g id="&lt;Group&gt;">
																					<g id="&lt;Group&gt;">
																						<path id="&lt;Path&gt;" class="s2" d="m478 308.5c1.6 1.5 6.6-1.1 13-2.2 6.3-1.2 11.9-0.6 12.8-2.6 0.5-1-0.7-2.6-3.3-3.9-2.5-1.3-6.6-2-11-1.2-4.3 0.8-7.9 2.9-9.8 5.1-2 2.1-2.5 4-1.7 4.8z"/>
																					</g>
																				</g>
																			</g>
																		</g>
																	</g>
																</g>
															</g>
														</g>
													</g>
												</g>
											</g>
										</g>
									</g>
								</g>
							</g>
						</g>
						<g id="&lt;Group&gt;">
							<g id="&lt;Group&gt;">
								<g id="&lt;Group&gt;">
									<g id="&lt;Group&gt;">
										<path id="&lt;Path&gt;" class="s2" d="m658.1 257.7c-14.5-30.9-67.2-69.2-100.6-62.3l-49.6 39.5c5.7 17.9 22 32 40.6 35.1 9.9 1.6 21.5 0.9 28.2 8.3 6.9 7.6 5.2 20.2 11.7 28.1 9.1 11 29.4 7.7 36.7 19.9 3.2 5.3 2.9 12.3 6.1 17.5 4.4 7.1 24.6 14 32.1 10.5 7.5-3.5 5.8-16.9 7.4-24.2 2.8-12.5 0.1-18.4-2.2-24.9-5.5-15.3-3.4-32.8-10.4-47.5z"/>
									</g>
								</g>
							</g>
						</g>
						<g id="&lt;Group&gt;">
							<g id="&lt;Group&gt;">
								<g id="&lt;Group&gt;">
									<g id="&lt;Group&gt;">
										<g id="&lt;Group&gt;">
											<g id="&lt;Group&gt;">
												<g id="&lt;Group&gt;">
													<path id="&lt;Path&gt;" class="s6" d="m641.1 364c-0.6-4.2 2.7-14.7 6.7-16 10.7-3.3 30.5-5.5 34.9 22.3 6.1 37.9-33.2 36.2-33.5 35.1-0.2-0.9-5.9-27.1-8.1-41.4z"/>
												</g>
											</g>
										</g>
									</g>
								</g>
							</g>
						</g>
						<g id="&lt;Group&gt;">
							<g id="&lt;Group&gt;">
								<g id="&lt;Group&gt;">
									<g id="&lt;Group&gt;">
										<g id="&lt;Group&gt;">
											<g id="&lt;Group&gt;">
												<g id="&lt;Group&gt;">
													<g id="&lt;Group&gt;">
														<path id="&lt;Path&gt;" class="s5" d="m658.5 389.2c0.2-0.2 0.7 0.3 1.9 0.6 1.2 0.4 3.1 0.4 5-0.6 3.8-2.1 6.1-9 5.2-15.9-0.4-3.5-1.7-6.7-3.3-9.2-1.6-2.6-3.7-4.2-5.8-4.3-2.1-0.1-3.3 1.3-3.6 2.5-0.4 1.1 0 1.8-0.2 1.9-0.1 0.1-0.9-0.5-0.9-2.1 0.1-0.8 0.4-1.7 1.2-2.6 0.8-0.9 2-1.5 3.5-1.6 2.9-0.2 6 2.1 7.8 4.8 2 2.8 3.5 6.3 4 10.2 1 7.7-1.8 15.5-7.1 18-2.5 1.1-4.9 0.6-6.2-0.1-1.3-0.7-1.6-1.6-1.5-1.6z"/>
													</g>
												</g>
											</g>
										</g>
									</g>
								</g>
							</g>
						</g>
					</g>
					<g id="&lt;Group&gt;">
						<g id="&lt;Group&gt;">
							<g id="&lt;Group&gt;">
								<path id="&lt;Path&gt;" class="s2" d="m517.6 222.1c-1.7 15.9-23 38.5-32 51.8-17.2 25.3-20.2 33.4-14.2 84.9-11.3-16.8-20.5-33.4-22-53.6-1.6-20.1 3.6-41.1 15.9-57.1 12.3-16.1 32.1-26.6 52.3-26z"/>
							</g>
						</g>
					</g>
				</g>
				<g id="&lt;Group&gt;">
					<path id="&lt;Path&gt;" class="s2" d="m608.3 167.8c8-8.8 19.5-14.5 31.5-17.5 17.1-4.3 35.9-3.1 51.5 4.3 15.5 7.4 27.6 21.4 30.8 37.4 3.2 16-3 33.8-16.6 44.5 8.6 8.4 19.6 14.9 31.6 18.5-3.2 4.8-9.2 7.7-15.2 8.7-6.1 1-12.2 0.5-18.3-0.1 3.9 6 10.2 10.6 17.5 12.7-9.8 2.5-20.2 1.7-29.8-0.9-9.6-2.7-18.5-7.2-27-12.1-29.2-17-45.4-31.9-65.1-58.1-2.7-11.2 1-28.5 9.1-37.4z"/>
				</g>
				<g id="&lt;Group&gt;">
					<g id="&lt;Group&gt;">
						<path id="&lt;Path&gt;" class="s2" d="m671.3 248c-21.4-31.4-48.8-48.2-73.5-53.4"/>
					</g>
					<g id="&lt;Group&gt;">
						<g id="&lt;Group&gt;">
							<path id="&lt;Path&gt;" class="s8" d="m597.8 194.6c0 0.1 1.2 0.5 3.5 1.1 2.2 0.6 5.5 1.6 9.4 3.1 7.9 2.9 18.3 8.2 28.5 15.9 10.2 7.7 18.3 16.2 23.7 22.6 2.6 3.3 4.7 5.9 6.1 7.8 1.4 1.9 2.3 2.9 2.3 2.9 0.1-0.1-0.6-1.2-1.9-3.1-1.3-2-3.3-4.7-5.9-8.1-5.3-6.6-13.3-15.2-23.6-23-10.3-7.8-20.9-13-28.9-15.8-4-1.4-7.3-2.2-9.6-2.7-2.3-0.5-3.6-0.8-3.6-0.7z"/>
						</g>
					</g>
				</g>
				<g id="&lt;Group&gt;">
					<g id="&lt;Group&gt;">
						<path id="&lt;Path&gt;" class="s8" d="m696.9 274.7q0 0-0.4 0.2-0.6 0.2-1.4 0.6c-1.2 0.5-3 1.2-5.4 2-4.7 1.6-11.7 3.4-20.6 4.2-8.8 0.8-19.5 0.3-31.1-2-11.5-2.2-23.9-6.2-36.5-11.3-12.6-5.2-24.5-10.5-35-15.6-10.6-5.3-19.8-10.6-27.1-15.7-7.3-5.1-12.8-9.9-16.4-13.3-1.8-1.7-3.1-3.1-4-4.1q-0.7-0.6-1.1-1-0.4-0.4-0.4-0.3 0 0 0.3 0.4 0.4 0.4 1 1.1c0.9 1 2.1 2.5 3.9 4.2 3.5 3.6 8.9 8.4 16.2 13.6 7.3 5.3 16.5 10.7 27.1 16 10.6 5.2 22.5 10.6 35.1 15.7 12.6 5.1 25.1 9.2 36.7 11.4 11.7 2.2 22.5 2.6 31.4 1.7 8.9-0.9 16-2.9 20.7-4.6 2.3-0.9 4.1-1.6 5.3-2.2q0.8-0.4 1.3-0.7 0.5-0.2 0.4-0.3z"/>
					</g>
				</g>
				<g id="&lt;Group&gt;">
					<g id="&lt;Group&gt;">
						<path id="&lt;Path&gt;" class="s8" d="m583.6 463.1l-3.6-7.1c0.2-0.2 25.3-13.1 35-21.2 22.8-19.1 43.7-49.7 43.9-50l6.6 4.5c-0.9 1.3-21.7 31.8-45.4 51.6-10.3 8.7-35.4 21.6-36.5 22.2z"/>
					</g>
					<g id="&lt;Group&gt;">
						<path id="&lt;Path&gt;" class="s2" d="m602.3 441c0 0-34.3 15.3-34.3 18.7 0 3.4 5.4 10.2 9.5 9.9 4.1-0.4 15.9-7 17.9-9.7 2-2.8 5.9-9.8 10-13.2z"/>
					</g>
					<g id="&lt;Group&gt;">
						<g id="&lt;Group&gt;">
							<path id="&lt;Path&gt;" class="s8" d="m665.3 338.1l-8-0.4c0-0.4 1.4-34-11.8-67.8-17.3-44.7-50.7-68.7-99.1-71.3-4-0.3-8.4 0.1-13.2 0.9l3.5-3.4c1.7-1.6 3.7-2.8 5.8-3.7 3-1.3 6.2-1.8 9.4-1.5 61.1 5.3 88.8 44.2 101.2 76.4 13.7 35.3 12.2 69.3 12.2 70.8z"/>
						</g>
					</g>
					<g id="&lt;Group&gt;">
						<g id="&lt;Group&gt;">
							<path id="&lt;Path&gt;" class="s8" d="m686.6 374.3c0 20.1-11.3 36.4-25.3 36.4-14 0-25.4-16.3-25.4-36.4 0-20.1 11.4-36.4 25.4-36.4 14 0 25.3 16.3 25.3 36.4z"/>
						</g>
						<g id="&lt;Group&gt;">
							<g id="&lt;Group&gt;">
								<path id="&lt;Path&gt;" class="s2" d="m686.6 374.3q0 0-0.1-0.5 0-0.6-0.1-1.5c0-1.3-0.2-3.2-0.6-5.6-0.8-4.8-2.5-12-7.8-19.1-1.3-1.8-2.9-3.4-4.7-4.9-2-1.4-4-2.8-6.5-3.5-2.4-0.7-5.1-1.1-7.8-0.7-2.6 0.4-5.3 1.4-7.7 2.9-4.8 3.1-8.6 8.1-11.1 13.9-2.5 5.8-3.7 12.3-3.8 19 0.1 6.7 1.3 13.2 3.8 19 2.5 5.8 6.3 10.8 11.1 13.9 2.4 1.5 5.1 2.5 7.7 2.9 2.7 0.4 5.4 0 7.8-0.7 2.5-0.7 4.5-2.1 6.5-3.5 1.8-1.5 3.4-3.2 4.7-4.9 5.3-7.1 7-14.3 7.8-19.1 0.4-2.4 0.6-4.3 0.6-5.6q0.1-0.9 0.1-1.5 0.1-0.5 0.1-0.5 0 0 0 0.5 0 0.6 0 1.5c0.1 1.3-0.1 3.2-0.4 5.7-0.7 4.8-2.3 12.2-7.6 19.4-1.3 1.8-3 3.5-4.8 5.1-2 1.5-4.2 2.9-6.7 3.7-2.6 0.8-5.3 1.2-8.2 0.8-2.8-0.4-5.6-1.4-8.1-3-5.1-3.2-9-8.4-11.5-14.3-2.6-5.9-3.8-12.6-3.9-19.4 0.1-6.8 1.3-13.5 3.9-19.4 2.5-5.9 6.4-11.1 11.5-14.3 2.5-1.6 5.3-2.6 8.1-3 2.9-0.4 5.6 0 8.2 0.8 2.5 0.8 4.7 2.2 6.7 3.7 1.8 1.6 3.5 3.2 4.8 5.1 5.3 7.2 6.9 14.6 7.6 19.4 0.3 2.5 0.5 4.4 0.4 5.7q0 0.9 0 1.5 0 0.5 0 0.5z"/>
							</g>
						</g>
					</g>
					<g id="&lt;Group&gt;">
						<g id="&lt;Group&gt;">
							<path id="&lt;Path&gt;" class="s8" d="m681.3 372.3c0 12.8-7.2 23.1-16.1 23.1-9 0-16.2-10.3-16.2-23.1 0-12.9 7.2-23.2 16.2-23.2 8.9 0 16.1 10.3 16.1 23.2z"/>
						</g>
						<g id="&lt;Group&gt;">
							<g id="&lt;Group&gt;">
								<path id="&lt;Path&gt;" class="s2" d="m681.3 372.3c-0.1 0-0.1-1.8-0.6-4.9-0.5-3-1.6-7.6-5-12.1-1.7-2.1-4-4.2-7.1-5.2-1.5-0.5-3.1-0.7-4.8-0.5-1.7 0.3-3.4 0.9-4.9 1.8-3 2-5.4 5.2-7 8.8-1.6 3.7-2.3 7.8-2.4 12 0.1 4.3 0.8 8.4 2.4 12.1 1.6 3.6 4 6.8 7 8.8 1.5 0.9 3.2 1.5 4.9 1.8 1.7 0.2 3.3 0 4.8-0.5 3.1-1 5.4-3.1 7.1-5.2 3.4-4.5 4.5-9.1 5-12.1 0.5-3.1 0.5-4.9 0.6-4.8q0 0 0.1 1.2 0 1.3-0.3 3.7c-0.4 3-1.4 7.7-4.8 12.4-1.7 2.3-4.1 4.5-7.4 5.6-1.6 0.6-3.4 0.8-5.2 0.6-1.9-0.3-3.7-0.9-5.3-1.9-3.3-2.1-5.8-5.4-7.4-9.2-1.7-3.8-2.5-8.1-2.5-12.5 0-4.3 0.8-8.6 2.5-12.4 1.6-3.8 4.1-7.1 7.4-9.2 1.6-1 3.4-1.6 5.2-1.9 1.9-0.2 3.7 0 5.3 0.6 3.3 1.1 5.7 3.3 7.4 5.6 3.4 4.7 4.4 9.4 4.8 12.4q0.3 2.4 0.3 3.7-0.1 1.2-0.1 1.3z"/>
							</g>
						</g>
					</g>
					<g id="&lt;Group&gt;">
						<g id="&lt;Group&gt;">
							<path id="&lt;Path&gt;" class="s8" d="m677.9 372.3c0 9.2-5.2 16.6-11.6 16.6-6.4 0-11.6-7.4-11.6-16.6 0-9.3 5.2-16.7 11.6-16.7 6.4 0 11.6 7.4 11.6 16.7z"/>
						</g>
						<g id="&lt;Group&gt;">
							<g id="&lt;Group&gt;">
								<path id="&lt;Path&gt;" class="s2" d="m677.9 372.3c-0.1 0-0.1-1.3-0.5-3.5-0.4-2.2-1.2-5.5-3.6-8.6-1.2-1.6-2.9-3.1-5.1-3.8-2.1-0.7-4.7-0.4-6.9 1-4.3 2.9-6.6 8.9-6.6 14.8 0 6 2.3 12 6.6 14.9 2.2 1.4 4.8 1.7 6.9 1 2.2-0.7 3.9-2.2 5.1-3.8 2.4-3.1 3.2-6.4 3.6-8.6 0.4-2.2 0.4-3.5 0.5-3.4q0 0 0.1 0.9 0 0.9-0.2 2.6c-0.3 2.2-1 5.6-3.4 9-1.3 1.6-3 3.3-5.4 4.1-1.2 0.4-2.5 0.6-3.8 0.4-1.4-0.2-2.7-0.6-3.9-1.4-2.3-1.5-4.2-3.9-5.3-6.7-1.3-2.7-1.8-5.8-1.9-9 0.1-3.1 0.6-6.2 1.9-8.9 1.1-2.8 3-5.2 5.3-6.7 1.2-0.8 2.5-1.2 3.9-1.4 1.3-0.2 2.6 0 3.8 0.4 2.4 0.8 4.1 2.5 5.4 4.1 2.4 3.4 3.1 6.8 3.4 9q0.2 1.7 0.2 2.6-0.1 0.9-0.1 1z"/>
							</g>
						</g>
					</g>
				</g>
			</g>
		</g>
	</g>
</svg>